G04 #@! TF.GenerationSoftware,KiCad,Pcbnew,5.99.0-unknown-15c4a7b06~104~ubuntu18.04.1*
G04 #@! TF.CreationDate,2020-09-30T21:22:49+01:00*
G04 #@! TF.ProjectId,nesta proto adapter,6e657374-6120-4707-926f-746f20616461,rev?*
G04 #@! TF.SameCoordinates,Original*
G04 #@! TF.FileFunction,Soldermask,Bot*
G04 #@! TF.FilePolarity,Negative*
%FSLAX46Y46*%
G04 Gerber Fmt 4.6, Leading zero omitted, Abs format (unit mm)*
G04 Created by KiCad (PCBNEW 5.99.0-unknown-15c4a7b06~104~ubuntu18.04.1) date 2020-09-30 21:22:49*
%MOMM*%
%LPD*%
G01*
G04 APERTURE LIST*
%ADD10C,1.700000*%
G04 APERTURE END LIST*
G36*
G01*
X136650000Y-81100000D02*
X136650000Y-79900000D01*
G75*
G02*
X136900000Y-79650000I250000J0D01*
G01*
X138100000Y-79650000D01*
G75*
G02*
X138350000Y-79900000I0J-250000D01*
G01*
X138350000Y-81100000D01*
G75*
G02*
X138100000Y-81350000I-250000J0D01*
G01*
X136900000Y-81350000D01*
G75*
G02*
X136650000Y-81100000I0J250000D01*
G01*
G37*
D10*
X140040000Y-80500000D03*
X137500000Y-83040000D03*
X140040000Y-83040000D03*
X137500000Y-85580000D03*
X140040000Y-85580000D03*
X137500000Y-88120000D03*
X140040000Y-88120000D03*
X137500000Y-90660000D03*
X140040000Y-90660000D03*
X137500000Y-93200000D03*
X140040000Y-93200000D03*
X137500000Y-95740000D03*
X140040000Y-95740000D03*
X137500000Y-98280000D03*
X140040000Y-98280000D03*
X137500000Y-100820000D03*
X140040000Y-100820000D03*
X137500000Y-103360000D03*
X140040000Y-103360000D03*
X137500000Y-105900000D03*
X140040000Y-105900000D03*
X137500000Y-108440000D03*
X140040000Y-108440000D03*
X137500000Y-110980000D03*
X140040000Y-110980000D03*
X137500000Y-113520000D03*
X140040000Y-113520000D03*
X137500000Y-116060000D03*
X140040000Y-116060000D03*
X137500000Y-118600000D03*
X140040000Y-118600000D03*
X137500000Y-121140000D03*
X140040000Y-121140000D03*
X137500000Y-123680000D03*
X140040000Y-123680000D03*
X137500000Y-126220000D03*
X140040000Y-126220000D03*
X137500000Y-128760000D03*
X140040000Y-128760000D03*
G36*
G01*
X130350000Y-120900000D02*
X130350000Y-122100000D01*
G75*
G02*
X130100000Y-122350000I-250000J0D01*
G01*
X128900000Y-122350000D01*
G75*
G02*
X128650000Y-122100000I0J250000D01*
G01*
X128650000Y-120900000D01*
G75*
G02*
X128900000Y-120650000I250000J0D01*
G01*
X130100000Y-120650000D01*
G75*
G02*
X130350000Y-120900000I0J-250000D01*
G01*
G37*
X126960000Y-121500000D03*
X129500000Y-118960000D03*
X126960000Y-118960000D03*
X129500000Y-116420000D03*
X126960000Y-116420000D03*
X129500000Y-113880000D03*
X126960000Y-113880000D03*
X129500000Y-111340000D03*
X126960000Y-111340000D03*
M02*
