G04 #@! TF.GenerationSoftware,KiCad,Pcbnew,5.99.0-unknown-15c4a7b06~104~ubuntu18.04.1*
G04 #@! TF.CreationDate,2020-09-30T21:22:08+01:00*
G04 #@! TF.ProjectId,nesta proto 2.1,6e657374-6120-4707-926f-746f20322e31,rev?*
G04 #@! TF.SameCoordinates,Original*
G04 #@! TF.FileFunction,Copper,L2,Bot*
G04 #@! TF.FilePolarity,Positive*
%FSLAX46Y46*%
G04 Gerber Fmt 4.6, Leading zero omitted, Abs format (unit mm)*
G04 Created by KiCad (PCBNEW 5.99.0-unknown-15c4a7b06~104~ubuntu18.04.1) date 2020-09-30 21:22:08*
%MOMM*%
%LPD*%
G01*
G04 APERTURE LIST*
G04 #@! TA.AperFunction,ComponentPad*
%ADD10C,4.400000*%
G04 #@! TD*
G04 #@! TA.AperFunction,ComponentPad*
%ADD11C,0.700000*%
G04 #@! TD*
G04 #@! TA.AperFunction,ComponentPad*
%ADD12R,1.800000X1.800000*%
G04 #@! TD*
G04 #@! TA.AperFunction,ComponentPad*
%ADD13C,1.800000*%
G04 #@! TD*
G04 #@! TA.AperFunction,ComponentPad*
%ADD14R,1.700000X1.700000*%
G04 #@! TD*
G04 #@! TA.AperFunction,ComponentPad*
%ADD15O,1.700000X1.700000*%
G04 #@! TD*
G04 #@! TA.AperFunction,ComponentPad*
%ADD16C,1.700000*%
G04 #@! TD*
G04 #@! TA.AperFunction,ComponentPad*
%ADD17O,2.200000X1.100000*%
G04 #@! TD*
G04 #@! TA.AperFunction,ComponentPad*
%ADD18O,1.800000X1.100000*%
G04 #@! TD*
G04 #@! TA.AperFunction,ViaPad*
%ADD19C,0.800000*%
G04 #@! TD*
G04 #@! TA.AperFunction,Conductor*
%ADD20C,0.400000*%
G04 #@! TD*
G04 #@! TA.AperFunction,Conductor*
%ADD21C,1.000000*%
G04 #@! TD*
G04 #@! TA.AperFunction,Conductor*
%ADD22C,0.250000*%
G04 #@! TD*
G04 #@! TA.AperFunction,Conductor*
%ADD23C,2.000000*%
G04 #@! TD*
G04 APERTURE END LIST*
D10*
X178000000Y-112000000D03*
D11*
X176833274Y-113166726D03*
X176833274Y-110833274D03*
X179166726Y-113166726D03*
X179166726Y-110833274D03*
X179650000Y-112000000D03*
X176350000Y-112000000D03*
X178000000Y-113650000D03*
X178000000Y-110350000D03*
X176833274Y-116333274D03*
X178000000Y-119150000D03*
X179166726Y-118666726D03*
X176350000Y-117500000D03*
X178000000Y-115850000D03*
D10*
X178000000Y-117500000D03*
D11*
X176833274Y-118666726D03*
X179166726Y-116333274D03*
X179650000Y-117500000D03*
D12*
X101500000Y-80500000D03*
D13*
X104040000Y-80500000D03*
D14*
X146000000Y-110000000D03*
D15*
X146000000Y-112540000D03*
X146000000Y-115080000D03*
X146000000Y-117620000D03*
X146000000Y-120160000D03*
X146000000Y-122700000D03*
X146000000Y-125240000D03*
X146000000Y-127780000D03*
D14*
X157600000Y-79000000D03*
D15*
X155060000Y-79000000D03*
X152520000Y-79000000D03*
X149980000Y-79000000D03*
X147440000Y-79000000D03*
X144900000Y-79000000D03*
X142360000Y-79000000D03*
D12*
X101460000Y-147000000D03*
D13*
X104000000Y-147000000D03*
D14*
X93000000Y-105880000D03*
D15*
X93000000Y-108420000D03*
X93000000Y-110960000D03*
X93000000Y-113500000D03*
X93000000Y-116040000D03*
X93000000Y-118580000D03*
X93000000Y-121120000D03*
D11*
X182333274Y-116333274D03*
X183500000Y-115850000D03*
X184666726Y-116333274D03*
X184666726Y-118666726D03*
D10*
X183500000Y-117500000D03*
D11*
X181850000Y-117500000D03*
X182333274Y-118666726D03*
X185150000Y-117500000D03*
X183500000Y-119150000D03*
D12*
X205000000Y-89000000D03*
D13*
X207540000Y-89000000D03*
D14*
X142380000Y-148000000D03*
D15*
X144920000Y-148000000D03*
X147460000Y-148000000D03*
X150000000Y-148000000D03*
X152540000Y-148000000D03*
X155080000Y-148000000D03*
X157620000Y-148000000D03*
G04 #@! TA.AperFunction,ComponentPad*
G36*
G01*
X139100000Y-104350000D02*
X137900000Y-104350000D01*
G75*
G02*
X137650000Y-104100000I0J250000D01*
G01*
X137650000Y-102900000D01*
G75*
G02*
X137900000Y-102650000I250000J0D01*
G01*
X139100000Y-102650000D01*
G75*
G02*
X139350000Y-102900000I0J-250000D01*
G01*
X139350000Y-104100000D01*
G75*
G02*
X139100000Y-104350000I-250000J0D01*
G01*
G37*
G04 #@! TD.AperFunction*
D16*
X138500000Y-100960000D03*
X141040000Y-103500000D03*
X141040000Y-100960000D03*
X143580000Y-103500000D03*
X143580000Y-100960000D03*
X146120000Y-103500000D03*
X146120000Y-100960000D03*
X148660000Y-103500000D03*
X148660000Y-100960000D03*
D14*
X207000000Y-121120000D03*
D15*
X207000000Y-118580000D03*
X207000000Y-116040000D03*
X207000000Y-113500000D03*
X207000000Y-110960000D03*
X207000000Y-108420000D03*
X207000000Y-105880000D03*
D17*
X201200000Y-98375000D03*
D18*
X204000000Y-100525000D03*
X198400000Y-100525000D03*
D11*
X183500000Y-113650000D03*
X181850000Y-112000000D03*
X185150000Y-112000000D03*
X184666726Y-110833274D03*
X183500000Y-110350000D03*
X182333274Y-110833274D03*
X182333274Y-113166726D03*
X184666726Y-113166726D03*
D10*
X183500000Y-112000000D03*
D12*
X205000000Y-138000000D03*
D13*
X207540000Y-138000000D03*
D14*
X161240000Y-127780000D03*
D15*
X161240000Y-125240000D03*
X161240000Y-122700000D03*
X161240000Y-120160000D03*
X161240000Y-117620000D03*
X161240000Y-115080000D03*
X161240000Y-112540000D03*
X161240000Y-110000000D03*
D19*
X135500000Y-106500000D03*
X111000000Y-121500000D03*
X126000000Y-131000000D03*
X130500000Y-111000000D03*
X161699999Y-137774990D03*
X130500000Y-105000000D03*
X130500000Y-118500000D03*
X152499987Y-131000000D03*
X186500000Y-104500000D03*
X199500000Y-102000000D03*
X197500000Y-103000000D03*
X198250000Y-102250000D03*
X107500000Y-112500000D03*
X198900000Y-102900000D03*
X110000000Y-120000000D03*
X110000000Y-115500000D03*
X110000000Y-103000000D03*
X145512660Y-133987340D03*
X110000000Y-106500000D03*
X164960000Y-112540000D03*
X112000000Y-121000000D03*
X204500000Y-131000000D03*
X144699990Y-136588388D03*
X126500000Y-102000000D03*
X122500000Y-117400021D03*
X203500000Y-106000000D03*
X203662500Y-104337500D03*
X203662500Y-103337500D03*
X125000000Y-101500000D03*
X118500000Y-119500000D03*
X195500000Y-123500000D03*
X195500000Y-110000000D03*
X116000000Y-119500000D03*
X132500000Y-121000000D03*
D20*
X120500000Y-125500000D02*
X115000000Y-125500000D01*
X115000000Y-125500000D02*
X111000000Y-121500000D01*
X126000000Y-131000000D02*
X120500000Y-125500000D01*
X152540000Y-148000000D02*
X152540000Y-150040000D01*
X153000000Y-150500000D02*
X159500000Y-150500000D01*
X152540000Y-150040000D02*
X153000000Y-150500000D01*
X146120000Y-80320000D02*
X146120000Y-100960000D01*
X130500000Y-118500000D02*
X130500000Y-111000000D01*
X130500000Y-105000000D02*
X130500000Y-104000000D01*
X130500000Y-104000000D02*
X136000000Y-98500000D01*
X143660000Y-98500000D02*
X146120000Y-100960000D01*
X147440000Y-79000000D02*
X146120000Y-80320000D01*
X159500000Y-150500000D02*
X162000000Y-148000000D01*
X136000000Y-98500000D02*
X143660000Y-98500000D01*
X162000000Y-148000000D02*
X162000000Y-138000000D01*
X147370001Y-104750001D02*
X186249999Y-104750001D01*
X147409999Y-102210001D02*
X146120000Y-103500000D01*
X136000000Y-106500000D02*
X135500000Y-106500000D01*
X150000000Y-133499987D02*
X152499987Y-131000000D01*
X136500000Y-106000000D02*
X136000000Y-106500000D01*
X147409999Y-81570001D02*
X147409999Y-102210001D01*
X137626553Y-102249999D02*
X136500000Y-103376552D01*
X146120000Y-103500000D02*
X147370001Y-104750001D01*
X144869999Y-102249999D02*
X137626553Y-102249999D01*
X186249999Y-104750001D02*
X186500000Y-104500000D01*
X149980000Y-79000000D02*
X147409999Y-81570001D01*
X146120000Y-103500000D02*
X144869999Y-102249999D01*
X136500000Y-103376552D02*
X136500000Y-106000000D01*
X150000000Y-148000000D02*
X150000000Y-133499987D01*
X152520000Y-97100000D02*
X148660000Y-100960000D01*
X152520000Y-79000000D02*
X152520000Y-97100000D01*
X99000000Y-83000000D02*
X101500000Y-80500000D01*
D21*
X203100000Y-138000000D02*
X201960000Y-136860000D01*
D20*
X101460000Y-118540000D02*
X101460000Y-147000000D01*
X201960000Y-115275996D02*
X201960000Y-116040000D01*
X148309999Y-147150001D02*
X147460000Y-148000000D01*
X161240000Y-127780000D02*
X159500000Y-126040000D01*
D21*
X194500000Y-102000000D02*
X194500000Y-96500000D01*
X195500000Y-103000000D02*
X194500000Y-102000000D01*
D20*
X159500000Y-126040000D02*
X159500000Y-116820000D01*
D21*
X197500000Y-103000000D02*
X195500000Y-103000000D01*
D20*
X148309999Y-130089999D02*
X148309999Y-147150001D01*
X107500000Y-112500000D02*
X103500000Y-116500000D01*
X148660000Y-103500000D02*
X148660000Y-100960000D01*
X146000000Y-127780000D02*
X161240000Y-127780000D01*
D21*
X201960000Y-136860000D02*
X201960000Y-116040000D01*
X205000000Y-138000000D02*
X203100000Y-138000000D01*
D20*
X107500000Y-112500000D02*
X100500000Y-105500000D01*
X99000000Y-104000000D02*
X99000000Y-83000000D01*
D21*
X194500000Y-96500000D02*
X200000000Y-91000000D01*
D20*
X146000000Y-127780000D02*
X148309999Y-130089999D01*
D21*
X200000000Y-91000000D02*
X202000000Y-89000000D01*
D20*
X167120002Y-109199998D02*
X195884002Y-109199998D01*
D21*
X202000000Y-89000000D02*
X205000000Y-89000000D01*
D20*
X195884002Y-109199998D02*
X201960000Y-115275996D01*
X159500000Y-116820000D02*
X161240000Y-115080000D01*
X93000000Y-110960000D02*
X105960000Y-110960000D01*
X105960000Y-110960000D02*
X107500000Y-112500000D01*
X103500000Y-116500000D02*
X101460000Y-118540000D01*
X100500000Y-105500000D02*
X99000000Y-104000000D01*
D21*
X201960000Y-116040000D02*
X207000000Y-116040000D01*
D20*
X153772806Y-103500000D02*
X148660000Y-103500000D01*
X145512660Y-147407340D02*
X145512660Y-133987340D01*
D22*
X110000000Y-106500000D02*
X110000000Y-103000000D01*
D20*
X144920000Y-148000000D02*
X145512660Y-147407340D01*
X110000000Y-120000000D02*
X110000000Y-115500000D01*
X208840001Y-129159999D02*
X207000000Y-131000000D01*
X207000000Y-131000000D02*
X204500000Y-131000000D01*
X208840001Y-110340001D02*
X208840001Y-129159999D01*
X207000000Y-108500000D02*
X208840001Y-110340001D01*
X112000000Y-121000000D02*
X129111602Y-121000000D01*
X129111602Y-121000000D02*
X144699990Y-136588388D01*
X126500000Y-113400021D02*
X122500000Y-117400021D01*
D22*
X126500000Y-113400021D02*
X126500000Y-102000000D01*
D23*
X138899999Y-106399999D02*
X203100001Y-106399999D01*
X203500000Y-106000000D02*
X203500000Y-103000000D01*
D21*
X138500000Y-103500000D02*
X138500000Y-106000000D01*
D23*
X203100001Y-106399999D02*
X203500000Y-106000000D01*
X138500000Y-106000000D02*
X138899999Y-106399999D01*
D21*
X161240000Y-110000000D02*
X161240000Y-107760000D01*
D20*
X118500000Y-119500000D02*
X120000000Y-119500000D01*
X120000000Y-118000000D02*
X125000000Y-113000000D01*
X125000000Y-113000000D02*
X125000000Y-101500000D01*
X120000000Y-119500000D02*
X120000000Y-118000000D01*
D22*
X195500000Y-123500000D02*
X195500000Y-111000000D01*
X131725001Y-120225001D02*
X132500000Y-121000000D01*
X116000000Y-119500000D02*
X116725001Y-120225001D01*
X195500000Y-111000000D02*
X195500000Y-110000000D01*
X116725001Y-120225001D02*
X131725001Y-120225001D01*
G04 #@! TA.AperFunction,Conductor*
G36*
X162491500Y-86991761D02*
G01*
X162491236Y-87034985D01*
X162491024Y-87069721D01*
X162501510Y-87106411D01*
X162506920Y-87144186D01*
X162506921Y-87144188D01*
X162506921Y-87144189D01*
X162521423Y-87176083D01*
X162531051Y-87209771D01*
X162551411Y-87242040D01*
X162567207Y-87276781D01*
X162567208Y-87276782D01*
X162590080Y-87303326D01*
X162608776Y-87332958D01*
X162608777Y-87332959D01*
X162637376Y-87358218D01*
X162662286Y-87387127D01*
X162691692Y-87406187D01*
X162717951Y-87429378D01*
X162752489Y-87445594D01*
X162784515Y-87466352D01*
X162793203Y-87468950D01*
X162818090Y-87476393D01*
X162849800Y-87491281D01*
X162867864Y-87493980D01*
X162885927Y-87496680D01*
X162891980Y-87498490D01*
X162924066Y-87508086D01*
X162963870Y-87508329D01*
X162965013Y-87508500D01*
X162991762Y-87508500D01*
X163065889Y-87508953D01*
X163069720Y-87508976D01*
X163069723Y-87508976D01*
X163071388Y-87508500D01*
X197991762Y-87508500D01*
X198069719Y-87508976D01*
X198069720Y-87508976D01*
X198106408Y-87498490D01*
X198131594Y-87494883D01*
X198144188Y-87493080D01*
X198176087Y-87478576D01*
X198209769Y-87468950D01*
X198219207Y-87462995D01*
X198242040Y-87448589D01*
X198276782Y-87432792D01*
X198303326Y-87409920D01*
X198332958Y-87391224D01*
X198332959Y-87391223D01*
X198358218Y-87362624D01*
X198387127Y-87337714D01*
X198406187Y-87308308D01*
X198429378Y-87282049D01*
X198431851Y-87276781D01*
X198445594Y-87247511D01*
X198466352Y-87215485D01*
X198476392Y-87181912D01*
X198491281Y-87150200D01*
X198496680Y-87114072D01*
X198498972Y-87106410D01*
X198500091Y-87102667D01*
X198508086Y-87075934D01*
X198508329Y-87036130D01*
X198508500Y-87034987D01*
X198508500Y-87008180D01*
X198508601Y-86991761D01*
X198508976Y-86930276D01*
X198508500Y-86928611D01*
X198508500Y-81121631D01*
X202890579Y-81121631D01*
X202906907Y-81250879D01*
X202926602Y-81406784D01*
X203000993Y-81684413D01*
X203112373Y-81949377D01*
X203258683Y-82196774D01*
X203437215Y-82422025D01*
X203487671Y-82470410D01*
X203644666Y-82620963D01*
X203702165Y-82662738D01*
X203877195Y-82789905D01*
X204130501Y-82925727D01*
X204201384Y-82952088D01*
X204399890Y-83025912D01*
X204399894Y-83025913D01*
X204399897Y-83025914D01*
X204680397Y-83088613D01*
X204966812Y-83112664D01*
X204966814Y-83112664D01*
X205253839Y-83097623D01*
X205536169Y-83043765D01*
X205589218Y-83025912D01*
X205808581Y-82952088D01*
X206066029Y-82824290D01*
X206119897Y-82787681D01*
X206303748Y-82662738D01*
X206350145Y-82620962D01*
X206517347Y-82470412D01*
X206702866Y-82250879D01*
X206702868Y-82250877D01*
X206856874Y-82008204D01*
X206976524Y-81746864D01*
X207059596Y-81471715D01*
X207059597Y-81471711D01*
X207104560Y-81187827D01*
X207108032Y-80856289D01*
X207069024Y-80571526D01*
X207008369Y-80354282D01*
X206991731Y-80294690D01*
X206877583Y-80030910D01*
X206869676Y-80017854D01*
X206728689Y-79785057D01*
X206728688Y-79785055D01*
X206728685Y-79785051D01*
X206547811Y-79561691D01*
X206482441Y-79500304D01*
X206338286Y-79364934D01*
X206104000Y-79198435D01*
X205849286Y-79065274D01*
X205578855Y-78967913D01*
X205297714Y-78908154D01*
X205011063Y-78887104D01*
X205011058Y-78887104D01*
X204772017Y-78902143D01*
X204724208Y-78905151D01*
X204442456Y-78961963D01*
X204171021Y-79056486D01*
X204052207Y-79117025D01*
X203914926Y-79186973D01*
X203678906Y-79351011D01*
X203490112Y-79524616D01*
X203467338Y-79545558D01*
X203445853Y-79571529D01*
X203284129Y-79767019D01*
X203132670Y-80011298D01*
X203015762Y-80273877D01*
X202964270Y-80451116D01*
X202935576Y-80549883D01*
X202893588Y-80834222D01*
X202891767Y-81008204D01*
X202890579Y-81121631D01*
X198508500Y-81121631D01*
X198508500Y-76508500D01*
X203950156Y-76508500D01*
X203961635Y-76510763D01*
X203973111Y-76513025D01*
X203974010Y-76513066D01*
X203979383Y-76513315D01*
X203979475Y-76513319D01*
X203979525Y-76513321D01*
X204439963Y-76531814D01*
X204877078Y-76584710D01*
X204932183Y-76595921D01*
X205308563Y-76672497D01*
X205731603Y-76794602D01*
X206143497Y-76950243D01*
X206541579Y-77138416D01*
X206750783Y-77258713D01*
X206923285Y-77357906D01*
X207286160Y-77607304D01*
X207623844Y-77881732D01*
X207627865Y-77885000D01*
X207905172Y-78150001D01*
X207946193Y-78189202D01*
X208239113Y-78517970D01*
X208504707Y-78869147D01*
X208741287Y-79240503D01*
X208947324Y-79629642D01*
X208982291Y-79710833D01*
X209121490Y-80034047D01*
X209260166Y-80443749D01*
X209262658Y-80451112D01*
X209369929Y-80878177D01*
X209410780Y-81122292D01*
X209442598Y-81312433D01*
X209480592Y-81755608D01*
X209486403Y-82011659D01*
X209491500Y-82042278D01*
X209491500Y-109685340D01*
X209471498Y-109753461D01*
X209417842Y-109799954D01*
X209347568Y-109810058D01*
X209276405Y-109774435D01*
X208308738Y-108806768D01*
X208355567Y-108561280D01*
X208358030Y-108304773D01*
X208319198Y-108077600D01*
X208242649Y-107860226D01*
X208130569Y-107658860D01*
X208127101Y-107654546D01*
X207986160Y-107479250D01*
X207986158Y-107479247D01*
X207813558Y-107326544D01*
X207789512Y-107311635D01*
X207617688Y-107205100D01*
X207617685Y-107205099D01*
X207525016Y-107147642D01*
X207594249Y-107106535D01*
X207594251Y-107106534D01*
X207792413Y-106988874D01*
X207956309Y-106849388D01*
X207967917Y-106839509D01*
X207979579Y-106825562D01*
X208059481Y-106730000D01*
X208115748Y-106662705D01*
X208231674Y-106463523D01*
X208312383Y-106247660D01*
X208355567Y-106021280D01*
X208358030Y-105764773D01*
X208336271Y-105637479D01*
X208319199Y-105537603D01*
X208276014Y-105414972D01*
X208242649Y-105320226D01*
X208130569Y-105118860D01*
X208059125Y-105030000D01*
X208008368Y-104966871D01*
X207986158Y-104939247D01*
X207813558Y-104786544D01*
X207790233Y-104772082D01*
X207617688Y-104665100D01*
X207404159Y-104578395D01*
X207179074Y-104528907D01*
X207102339Y-104525288D01*
X206948871Y-104518050D01*
X206948869Y-104518050D01*
X206720126Y-104546137D01*
X206499386Y-104612362D01*
X206292959Y-104714833D01*
X206106749Y-104850620D01*
X205946080Y-105015839D01*
X205815545Y-105205768D01*
X205718878Y-105414975D01*
X205658842Y-105637479D01*
X205638877Y-105848688D01*
X205637154Y-105866920D01*
X205654432Y-106096728D01*
X205710186Y-106320345D01*
X205802820Y-106531369D01*
X205929683Y-106723768D01*
X206087153Y-106892044D01*
X206214725Y-106988876D01*
X206270721Y-107031379D01*
X206462491Y-107131208D01*
X206106753Y-107390617D01*
X206106749Y-107390620D01*
X205946080Y-107555839D01*
X205815545Y-107745768D01*
X205718878Y-107954975D01*
X205658842Y-108177479D01*
X205637154Y-108406917D01*
X205637154Y-108406920D01*
X205654432Y-108636728D01*
X205710186Y-108860345D01*
X205802820Y-109071369D01*
X205929683Y-109263768D01*
X206087153Y-109432044D01*
X206214725Y-109528876D01*
X206270721Y-109571379D01*
X206462491Y-109671208D01*
X206190597Y-109869477D01*
X206106749Y-109930620D01*
X205946080Y-110095839D01*
X205815545Y-110285768D01*
X205718878Y-110494975D01*
X205658842Y-110717479D01*
X205637154Y-110946917D01*
X205637154Y-110946920D01*
X205654432Y-111176728D01*
X205710186Y-111400345D01*
X205802820Y-111611369D01*
X205929683Y-111803768D01*
X206087153Y-111972044D01*
X206214725Y-112068876D01*
X206270721Y-112111379D01*
X206462491Y-112211208D01*
X206194619Y-112406544D01*
X206106749Y-112470620D01*
X205946080Y-112635839D01*
X205815545Y-112825768D01*
X205718878Y-113034975D01*
X205658842Y-113257479D01*
X205637154Y-113486917D01*
X205637154Y-113486920D01*
X205654432Y-113716728D01*
X205710186Y-113940345D01*
X205802820Y-114151369D01*
X205929683Y-114343768D01*
X206087153Y-114512044D01*
X206214725Y-114608876D01*
X206270721Y-114651379D01*
X206462491Y-114751208D01*
X206106753Y-115010617D01*
X205946079Y-115175841D01*
X205815546Y-115365768D01*
X205718880Y-115574972D01*
X205661940Y-115786000D01*
X207254000Y-115786001D01*
X207253999Y-116294000D01*
X205663726Y-116293999D01*
X205710186Y-116480345D01*
X205802820Y-116691369D01*
X205929683Y-116883768D01*
X206087153Y-117052044D01*
X206270721Y-117191379D01*
X206462493Y-117291206D01*
X206169625Y-117504770D01*
X206106749Y-117550620D01*
X205946080Y-117715839D01*
X205815545Y-117905768D01*
X205718878Y-118114975D01*
X205658842Y-118337479D01*
X205637154Y-118566917D01*
X205637154Y-118566920D01*
X205654432Y-118796728D01*
X205710186Y-119020345D01*
X205802820Y-119231369D01*
X205920709Y-119410157D01*
X205929684Y-119423769D01*
X206087152Y-119592043D01*
X206087154Y-119592045D01*
X206221048Y-119735126D01*
X206150001Y-119754163D01*
X206150000Y-119754163D01*
X206054037Y-119779876D01*
X205892081Y-119823272D01*
X205754845Y-119938426D01*
X205665272Y-120093572D01*
X205654720Y-120153414D01*
X205634163Y-120270000D01*
X205634163Y-121970000D01*
X205679775Y-122140226D01*
X205703272Y-122227919D01*
X205818426Y-122365155D01*
X205973572Y-122454728D01*
X206061786Y-122470282D01*
X206150000Y-122485837D01*
X207850000Y-122485837D01*
X208107919Y-122416728D01*
X208107921Y-122416727D01*
X208131502Y-122410408D01*
X208131502Y-128866528D01*
X206706530Y-130291500D01*
X205089843Y-130291500D01*
X204850670Y-130153414D01*
X204850668Y-130153413D01*
X204619606Y-130091500D01*
X204380394Y-130091500D01*
X204149332Y-130153413D01*
X203997675Y-130240972D01*
X203942166Y-130273020D01*
X203773020Y-130442166D01*
X203773019Y-130442168D01*
X203653413Y-130649332D01*
X203591500Y-130880394D01*
X203591500Y-131119606D01*
X203653413Y-131350668D01*
X203740972Y-131502325D01*
X203773020Y-131557834D01*
X203942166Y-131726980D01*
X203942168Y-131726981D01*
X204149332Y-131846587D01*
X204380394Y-131908500D01*
X204619606Y-131908500D01*
X204850668Y-131846587D01*
X204850670Y-131846586D01*
X205089843Y-131708500D01*
X206920591Y-131708500D01*
X206942595Y-131713479D01*
X206942596Y-131713479D01*
X206962658Y-131712234D01*
X207022847Y-131708500D01*
X207050868Y-131708500D01*
X207072285Y-131705433D01*
X207138599Y-131701319D01*
X207145153Y-131700912D01*
X207172309Y-131691109D01*
X207200894Y-131687015D01*
X207200896Y-131687014D01*
X207200897Y-131687014D01*
X207267371Y-131656790D01*
X207321102Y-131637393D01*
X207336039Y-131632001D01*
X207336040Y-131632000D01*
X207336041Y-131632000D01*
X207358586Y-131615317D01*
X207385644Y-131603015D01*
X207449077Y-131548357D01*
X207466516Y-131535453D01*
X207481857Y-131520112D01*
X207539389Y-131470539D01*
X207554052Y-131447917D01*
X209284834Y-129717137D01*
X209296456Y-129709804D01*
X209298276Y-129708656D01*
X209366563Y-129689228D01*
X209434512Y-129709804D01*
X209480552Y-129763849D01*
X209491501Y-129815224D01*
X209491501Y-144950153D01*
X209488351Y-144966134D01*
X209486975Y-144973113D01*
X209486685Y-144979383D01*
X209486681Y-144979475D01*
X209486679Y-144979525D01*
X209468186Y-145439963D01*
X209416597Y-145866282D01*
X209415290Y-145877079D01*
X209327503Y-146308563D01*
X209205398Y-146731603D01*
X209049755Y-147143502D01*
X208861584Y-147541579D01*
X208706358Y-147811526D01*
X208642097Y-147923279D01*
X208392702Y-148286153D01*
X208114998Y-148627866D01*
X207810805Y-148946187D01*
X207568361Y-149162196D01*
X207482037Y-149239108D01*
X207130853Y-149504707D01*
X207083309Y-149534996D01*
X206759503Y-149741283D01*
X206370364Y-149947322D01*
X206140905Y-150046143D01*
X205987340Y-150112279D01*
X205965952Y-150121490D01*
X205548901Y-150262654D01*
X205370921Y-150307360D01*
X205121836Y-150369926D01*
X204687565Y-150442599D01*
X204244394Y-150480592D01*
X203988341Y-150486403D01*
X203965377Y-150490226D01*
X203957721Y-150491500D01*
X198508500Y-150491500D01*
X198508500Y-146121631D01*
X202890579Y-146121631D01*
X202916715Y-146328517D01*
X202926602Y-146406784D01*
X203000993Y-146684413D01*
X203112373Y-146949377D01*
X203258683Y-147196774D01*
X203437215Y-147422025D01*
X203561883Y-147541577D01*
X203644666Y-147620963D01*
X203702165Y-147662738D01*
X203877195Y-147789905D01*
X204130501Y-147925727D01*
X204201384Y-147952088D01*
X204399890Y-148025912D01*
X204399894Y-148025913D01*
X204399897Y-148025914D01*
X204680397Y-148088613D01*
X204966812Y-148112664D01*
X204966814Y-148112664D01*
X205253839Y-148097623D01*
X205536169Y-148043765D01*
X205668225Y-147999323D01*
X205808581Y-147952088D01*
X206066029Y-147824290D01*
X206161361Y-147759503D01*
X206303748Y-147662738D01*
X206416689Y-147561045D01*
X206517347Y-147470412D01*
X206702866Y-147250879D01*
X206702868Y-147250877D01*
X206856874Y-147008204D01*
X206976524Y-146746864D01*
X207059596Y-146471715D01*
X207069880Y-146406784D01*
X207104560Y-146187827D01*
X207108032Y-145856289D01*
X207069024Y-145571526D01*
X206997697Y-145316059D01*
X206991731Y-145294690D01*
X206877583Y-145030910D01*
X206877582Y-145030908D01*
X206728689Y-144785057D01*
X206728688Y-144785055D01*
X206728685Y-144785051D01*
X206547811Y-144561691D01*
X206338287Y-144364935D01*
X206318695Y-144351011D01*
X206104000Y-144198435D01*
X205849286Y-144065274D01*
X205578855Y-143967913D01*
X205297714Y-143908154D01*
X205011063Y-143887104D01*
X205011058Y-143887104D01*
X204772017Y-143902143D01*
X204724208Y-143905151D01*
X204442456Y-143961963D01*
X204171021Y-144056486D01*
X204153774Y-144065274D01*
X203914926Y-144186973D01*
X203678906Y-144351011D01*
X203467340Y-144545556D01*
X203284129Y-144767019D01*
X203132670Y-145011298D01*
X203015762Y-145273877D01*
X202935576Y-145549883D01*
X202915246Y-145687559D01*
X202893588Y-145834222D01*
X202891633Y-146021004D01*
X202890579Y-146121631D01*
X198508500Y-146121631D01*
X198508500Y-140008238D01*
X198508976Y-139930278D01*
X198498490Y-139893590D01*
X198493080Y-139855813D01*
X198478577Y-139823915D01*
X198468949Y-139790229D01*
X198448587Y-139757958D01*
X198432792Y-139723218D01*
X198409920Y-139696674D01*
X198391224Y-139667042D01*
X198391223Y-139667041D01*
X198362624Y-139641782D01*
X198337714Y-139612874D01*
X198337713Y-139612873D01*
X198308310Y-139593815D01*
X198282049Y-139570622D01*
X198282048Y-139570621D01*
X198247505Y-139554403D01*
X198215483Y-139533647D01*
X198181911Y-139523607D01*
X198150199Y-139508718D01*
X198114073Y-139503319D01*
X198087734Y-139495443D01*
X198075933Y-139491914D01*
X198036130Y-139491671D01*
X198034987Y-139491500D01*
X198008237Y-139491500D01*
X197934110Y-139491047D01*
X197930279Y-139491024D01*
X197930276Y-139491024D01*
X197928611Y-139491500D01*
X163008237Y-139491500D01*
X162930279Y-139491024D01*
X162898873Y-139500000D01*
X162708500Y-139500000D01*
X162708500Y-138254000D01*
X203584163Y-138254000D01*
X203584163Y-138899999D01*
X203653272Y-139157919D01*
X203768426Y-139295155D01*
X203923572Y-139384728D01*
X204100001Y-139415837D01*
X204746000Y-139415837D01*
X204746000Y-138254000D01*
X203584163Y-138254000D01*
X162708500Y-138254000D01*
X162708500Y-137949129D01*
X162687014Y-137799105D01*
X162687014Y-137799103D01*
X162603015Y-137614356D01*
X162595019Y-137605076D01*
X162546586Y-137424322D01*
X162426980Y-137217158D01*
X162426979Y-137217156D01*
X162309824Y-137100001D01*
X203584163Y-137100001D01*
X203584163Y-137746000D01*
X204746000Y-137746000D01*
X204746000Y-136584163D01*
X205254000Y-136584163D01*
X205254000Y-139415837D01*
X205899999Y-139415837D01*
X206157919Y-139346728D01*
X206295155Y-139231574D01*
X206474086Y-138921653D01*
X206593540Y-139049303D01*
X206593542Y-139049305D01*
X206783870Y-139193772D01*
X206995818Y-139304105D01*
X206995821Y-139304106D01*
X206995823Y-139304107D01*
X207223323Y-139377149D01*
X207459887Y-139410817D01*
X207459888Y-139410817D01*
X207698741Y-139404146D01*
X207933055Y-139357325D01*
X207960661Y-139346728D01*
X208156130Y-139271695D01*
X208239596Y-139222136D01*
X208361589Y-139149702D01*
X208543556Y-138994836D01*
X208696828Y-138811525D01*
X208817023Y-138605010D01*
X208855548Y-138501970D01*
X208900704Y-138381193D01*
X208945477Y-138146482D01*
X208948030Y-137880530D01*
X208948030Y-137880527D01*
X208907770Y-137644997D01*
X208893712Y-137605076D01*
X208828402Y-137419616D01*
X208712194Y-137210832D01*
X208562472Y-137024616D01*
X208539599Y-137004379D01*
X208383509Y-136866282D01*
X208180430Y-136740368D01*
X207959040Y-136650471D01*
X207725668Y-136599161D01*
X207646108Y-136595409D01*
X207486989Y-136587905D01*
X207486987Y-136587905D01*
X207249822Y-136617025D01*
X207020954Y-136685689D01*
X206806927Y-136791933D01*
X206704969Y-136866282D01*
X206613861Y-136932719D01*
X206578105Y-136969488D01*
X206516274Y-137004379D01*
X206445394Y-137000304D01*
X206387970Y-136958555D01*
X206366067Y-136914256D01*
X206346728Y-136842082D01*
X206231574Y-136704845D01*
X206076428Y-136615272D01*
X205899999Y-136584163D01*
X205254000Y-136584163D01*
X204746000Y-136584163D01*
X204100001Y-136584163D01*
X203842081Y-136653272D01*
X203704845Y-136768426D01*
X203615272Y-136923572D01*
X203584163Y-137100001D01*
X162309824Y-137100001D01*
X162257833Y-137048010D01*
X162202324Y-137015962D01*
X162050667Y-136928403D01*
X161819605Y-136866490D01*
X161580393Y-136866490D01*
X161349331Y-136928403D01*
X161197674Y-137015962D01*
X161142165Y-137048010D01*
X160973019Y-137217156D01*
X160973018Y-137217158D01*
X160853412Y-137424322D01*
X160791499Y-137655384D01*
X160791499Y-137894596D01*
X160853412Y-138125658D01*
X160853413Y-138125659D01*
X160973019Y-138332824D01*
X161142165Y-138501970D01*
X161142167Y-138501971D01*
X161291501Y-138588189D01*
X161291500Y-147706530D01*
X159206530Y-149791500D01*
X153293469Y-149791500D01*
X153248500Y-149746530D01*
X153248500Y-149158698D01*
X153332413Y-149108874D01*
X153507918Y-148959508D01*
X153599481Y-148850000D01*
X153655748Y-148782705D01*
X153745866Y-148627866D01*
X153771673Y-148583525D01*
X153771674Y-148583523D01*
X153802810Y-148530025D01*
X153882819Y-148651366D01*
X153882820Y-148651369D01*
X153940700Y-148739149D01*
X154009683Y-148843768D01*
X154167153Y-149012044D01*
X154350723Y-149151381D01*
X154555141Y-149257794D01*
X154774570Y-149328245D01*
X155002732Y-149360717D01*
X155002733Y-149360717D01*
X155233104Y-149354282D01*
X155459097Y-149309124D01*
X155459098Y-149309124D01*
X155459101Y-149309123D01*
X155674250Y-149226535D01*
X155774262Y-149167152D01*
X155872413Y-149108874D01*
X156047918Y-148959508D01*
X156139481Y-148850000D01*
X156195748Y-148782705D01*
X156285866Y-148627866D01*
X156311673Y-148583525D01*
X156311674Y-148583523D01*
X156342810Y-148530025D01*
X156422819Y-148651366D01*
X156422820Y-148651369D01*
X156480700Y-148739149D01*
X156549683Y-148843768D01*
X156707153Y-149012044D01*
X156890723Y-149151381D01*
X157095141Y-149257794D01*
X157314570Y-149328245D01*
X157542732Y-149360717D01*
X157542733Y-149360717D01*
X157773104Y-149354282D01*
X157999097Y-149309124D01*
X157999098Y-149309124D01*
X157999101Y-149309123D01*
X158214250Y-149226535D01*
X158314262Y-149167152D01*
X158412413Y-149108874D01*
X158587918Y-148959508D01*
X158679481Y-148850000D01*
X158735748Y-148782705D01*
X158825866Y-148627866D01*
X158851673Y-148583525D01*
X158861539Y-148557137D01*
X158932383Y-148367660D01*
X158975567Y-148141280D01*
X158978030Y-147884773D01*
X158954457Y-147746866D01*
X158939199Y-147657603D01*
X158920678Y-147605010D01*
X158862649Y-147440226D01*
X158750569Y-147238860D01*
X158750568Y-147238859D01*
X158750567Y-147238857D01*
X158632979Y-147092606D01*
X158606158Y-147059247D01*
X158433558Y-146906544D01*
X158410233Y-146892082D01*
X158237688Y-146785100D01*
X158024159Y-146698395D01*
X157799074Y-146648907D01*
X157716105Y-146644994D01*
X157568871Y-146638050D01*
X157568869Y-146638050D01*
X157340126Y-146666137D01*
X157119386Y-146732362D01*
X156912959Y-146834833D01*
X156726749Y-146970620D01*
X156566080Y-147135839D01*
X156435545Y-147325768D01*
X156435543Y-147325772D01*
X156337968Y-147467745D01*
X156210568Y-147238858D01*
X156066158Y-147059247D01*
X155893558Y-146906544D01*
X155870233Y-146892082D01*
X155697688Y-146785100D01*
X155484159Y-146698395D01*
X155259074Y-146648907D01*
X155176105Y-146644994D01*
X155028871Y-146638050D01*
X155028869Y-146638050D01*
X154800126Y-146666137D01*
X154579386Y-146732362D01*
X154372959Y-146834833D01*
X154186749Y-146970620D01*
X154026080Y-147135839D01*
X153895545Y-147325768D01*
X153895543Y-147325772D01*
X153797968Y-147467745D01*
X153670568Y-147238858D01*
X153526158Y-147059247D01*
X153353558Y-146906544D01*
X153330233Y-146892082D01*
X153157688Y-146785100D01*
X152944159Y-146698395D01*
X152719074Y-146648907D01*
X152636105Y-146644994D01*
X152488871Y-146638050D01*
X152488869Y-146638050D01*
X152260126Y-146666137D01*
X152039386Y-146732362D01*
X151832959Y-146834833D01*
X151646749Y-146970620D01*
X151486080Y-147135839D01*
X151355545Y-147325768D01*
X151355543Y-147325772D01*
X151257968Y-147467745D01*
X151130568Y-147238858D01*
X150986158Y-147059247D01*
X150813557Y-146906542D01*
X150755400Y-146870485D01*
X150708500Y-146841406D01*
X150708500Y-133793456D01*
X152583890Y-131918067D01*
X152676747Y-131893186D01*
X152850655Y-131846587D01*
X153057819Y-131726981D01*
X153057821Y-131726980D01*
X153226967Y-131557834D01*
X153259015Y-131502325D01*
X153346574Y-131350668D01*
X153408487Y-131119606D01*
X153408487Y-130880394D01*
X153346574Y-130649332D01*
X153226968Y-130442168D01*
X153226967Y-130442166D01*
X153057821Y-130273020D01*
X153002312Y-130240972D01*
X152850655Y-130153413D01*
X152619593Y-130091500D01*
X152380381Y-130091500D01*
X152149319Y-130153413D01*
X151997662Y-130240972D01*
X151942153Y-130273020D01*
X151773007Y-130442166D01*
X151773006Y-130442168D01*
X151653400Y-130649332D01*
X151615779Y-130789736D01*
X151581920Y-130916096D01*
X149555167Y-132942850D01*
X149536086Y-132954889D01*
X149536085Y-132954890D01*
X149482849Y-133015168D01*
X149463047Y-133034969D01*
X149463046Y-133034971D01*
X149450073Y-133052282D01*
X149426618Y-133078840D01*
X149401742Y-133107006D01*
X149389469Y-133133146D01*
X149372153Y-133156251D01*
X149346522Y-133224618D01*
X149315492Y-133290711D01*
X149311345Y-133318454D01*
X149306602Y-133331108D01*
X149300913Y-133346283D01*
X149300913Y-133346285D01*
X149294708Y-133429778D01*
X149291501Y-133451238D01*
X149291501Y-133472939D01*
X149285874Y-133548671D01*
X149291501Y-133575033D01*
X149291500Y-146835896D01*
X149135880Y-146949377D01*
X149106749Y-146970620D01*
X148946080Y-147135839D01*
X148815545Y-147325768D01*
X148815543Y-147325772D01*
X148717968Y-147467745D01*
X148590568Y-147238858D01*
X148446158Y-147059247D01*
X148273558Y-146906544D01*
X148077688Y-146785101D01*
X147864160Y-146698395D01*
X147714000Y-146665380D01*
X147713999Y-147746001D01*
X147714000Y-147746001D01*
X147713999Y-149334122D01*
X147839096Y-149309125D01*
X148054250Y-149226535D01*
X148252412Y-149108874D01*
X148427917Y-148959509D01*
X148575748Y-148782705D01*
X148722810Y-148530025D01*
X148802819Y-148651366D01*
X148802820Y-148651369D01*
X148860700Y-148739149D01*
X148929683Y-148843768D01*
X149087153Y-149012044D01*
X149270723Y-149151381D01*
X149475141Y-149257794D01*
X149694570Y-149328245D01*
X149922732Y-149360717D01*
X149922733Y-149360717D01*
X150153104Y-149354282D01*
X150379097Y-149309124D01*
X150379098Y-149309124D01*
X150379101Y-149309123D01*
X150594250Y-149226535D01*
X150694262Y-149167152D01*
X150792413Y-149108874D01*
X150967918Y-148959508D01*
X151059481Y-148850000D01*
X151115748Y-148782705D01*
X151205866Y-148627866D01*
X151231673Y-148583525D01*
X151231674Y-148583523D01*
X151262810Y-148530025D01*
X151342819Y-148651366D01*
X151342820Y-148651369D01*
X151400700Y-148739149D01*
X151469683Y-148843768D01*
X151627153Y-149012044D01*
X151831501Y-149167152D01*
X151831501Y-149960587D01*
X151826521Y-149982596D01*
X151831501Y-150062860D01*
X151831501Y-150090871D01*
X151834566Y-150112279D01*
X151839087Y-150185151D01*
X151848893Y-150212312D01*
X151852987Y-150240898D01*
X151883206Y-150307360D01*
X151908000Y-150376041D01*
X151908002Y-150376044D01*
X151949684Y-150491500D01*
X96049844Y-150491500D01*
X96037511Y-150489069D01*
X96026889Y-150486975D01*
X96025990Y-150486934D01*
X96020617Y-150486685D01*
X96020525Y-150486681D01*
X96020475Y-150486679D01*
X95560037Y-150468186D01*
X95122922Y-150415290D01*
X95040838Y-150398590D01*
X94691437Y-150327503D01*
X94268397Y-150205398D01*
X93856498Y-150049755D01*
X93458421Y-149861584D01*
X93076721Y-149642097D01*
X92713847Y-149392702D01*
X92372134Y-149114998D01*
X92251496Y-148999714D01*
X92053809Y-148810801D01*
X92035193Y-148789906D01*
X91760892Y-148482037D01*
X91495293Y-148130853D01*
X91338521Y-147884770D01*
X91258717Y-147759503D01*
X91052675Y-147370358D01*
X91047636Y-147358656D01*
X90880521Y-146970621D01*
X90878508Y-146965947D01*
X90737344Y-146548895D01*
X90701647Y-146406777D01*
X90668263Y-146273873D01*
X90630074Y-146121836D01*
X90630040Y-146121631D01*
X92890579Y-146121631D01*
X92916715Y-146328517D01*
X92926602Y-146406784D01*
X93000993Y-146684413D01*
X93112373Y-146949377D01*
X93258683Y-147196774D01*
X93437215Y-147422025D01*
X93561883Y-147541577D01*
X93644666Y-147620963D01*
X93702165Y-147662738D01*
X93877195Y-147789905D01*
X94130501Y-147925727D01*
X94201384Y-147952088D01*
X94399890Y-148025912D01*
X94399894Y-148025913D01*
X94399897Y-148025914D01*
X94680397Y-148088613D01*
X94966812Y-148112664D01*
X94966814Y-148112664D01*
X95253839Y-148097623D01*
X95536169Y-148043765D01*
X95668225Y-147999323D01*
X95808581Y-147952088D01*
X96066029Y-147824290D01*
X96161361Y-147759503D01*
X96303748Y-147662738D01*
X96416689Y-147561045D01*
X96517347Y-147470412D01*
X96700228Y-147254000D01*
X100044163Y-147254000D01*
X100044163Y-147899999D01*
X100113272Y-148157919D01*
X100228426Y-148295155D01*
X100383572Y-148384728D01*
X100560001Y-148415837D01*
X101206000Y-148415837D01*
X101206000Y-147254000D01*
X100044163Y-147254000D01*
X96700228Y-147254000D01*
X96702866Y-147250879D01*
X96702868Y-147250877D01*
X96856874Y-147008204D01*
X96976524Y-146746864D01*
X97059596Y-146471715D01*
X97069880Y-146406784D01*
X97104560Y-146187827D01*
X97105479Y-146100001D01*
X100044163Y-146100001D01*
X100044163Y-146746000D01*
X101206000Y-146746000D01*
X101206000Y-145584163D01*
X101714000Y-145584163D01*
X101714000Y-148415837D01*
X102359999Y-148415837D01*
X102617919Y-148346728D01*
X102755155Y-148231574D01*
X102934086Y-147921653D01*
X103031651Y-148025912D01*
X103053542Y-148049305D01*
X103243870Y-148193772D01*
X103455818Y-148304105D01*
X103455821Y-148304106D01*
X103455823Y-148304107D01*
X103683323Y-148377149D01*
X103919887Y-148410817D01*
X103919888Y-148410817D01*
X104158741Y-148404146D01*
X104393055Y-148357325D01*
X104420661Y-148346728D01*
X104616130Y-148271695D01*
X104742307Y-148196776D01*
X104821589Y-148149702D01*
X105003556Y-147994836D01*
X105156828Y-147811525D01*
X105277023Y-147605010D01*
X105300739Y-147541579D01*
X105360704Y-147381193D01*
X105405477Y-147146482D01*
X105405715Y-147121631D01*
X133890579Y-147121631D01*
X133920522Y-147358656D01*
X133926602Y-147406784D01*
X134000993Y-147684413D01*
X134112373Y-147949377D01*
X134258683Y-148196774D01*
X134437215Y-148422025D01*
X134532982Y-148513862D01*
X134644666Y-148620963D01*
X134702165Y-148662738D01*
X134877195Y-148789905D01*
X135130501Y-148925727D01*
X135233238Y-148963934D01*
X135399890Y-149025912D01*
X135399894Y-149025913D01*
X135399897Y-149025914D01*
X135680397Y-149088613D01*
X135966812Y-149112664D01*
X135966814Y-149112664D01*
X136253839Y-149097623D01*
X136536169Y-149043765D01*
X136589218Y-149025912D01*
X136808581Y-148952088D01*
X137066029Y-148824290D01*
X137163765Y-148757869D01*
X137303748Y-148662738D01*
X137391722Y-148583525D01*
X137517347Y-148470412D01*
X137673057Y-148286153D01*
X137702868Y-148250877D01*
X137856874Y-148008204D01*
X137976524Y-147746864D01*
X138059596Y-147471715D01*
X138059597Y-147471711D01*
X138104560Y-147187827D01*
X138108032Y-146856289D01*
X138069024Y-146571526D01*
X138001175Y-146328517D01*
X137991731Y-146294690D01*
X137877583Y-146030910D01*
X137877582Y-146030908D01*
X137728689Y-145785057D01*
X137728688Y-145785055D01*
X137728685Y-145785051D01*
X137547811Y-145561691D01*
X137527813Y-145542911D01*
X137338286Y-145364934D01*
X137104000Y-145198435D01*
X136849286Y-145065274D01*
X136578855Y-144967913D01*
X136297714Y-144908154D01*
X136011063Y-144887104D01*
X136011058Y-144887104D01*
X135772017Y-144902143D01*
X135724208Y-144905151D01*
X135442456Y-144961963D01*
X135171021Y-145056486D01*
X135153774Y-145065274D01*
X134914926Y-145186973D01*
X134678906Y-145351011D01*
X134467340Y-145545556D01*
X134467338Y-145545558D01*
X134445853Y-145571529D01*
X134284129Y-145767019D01*
X134132670Y-146011298D01*
X134015762Y-146273877D01*
X133935576Y-146549883D01*
X133895921Y-146818426D01*
X133893588Y-146834222D01*
X133891767Y-147008204D01*
X133890579Y-147121631D01*
X105405715Y-147121631D01*
X105408030Y-146880530D01*
X105408030Y-146880527D01*
X105367770Y-146644997D01*
X105336518Y-146556251D01*
X105288402Y-146419616D01*
X105172194Y-146210832D01*
X105022472Y-146024616D01*
X105018390Y-146021004D01*
X104843509Y-145866282D01*
X104640430Y-145740368D01*
X104419040Y-145650471D01*
X104185668Y-145599161D01*
X104106108Y-145595409D01*
X103946989Y-145587905D01*
X103946987Y-145587905D01*
X103709822Y-145617025D01*
X103480954Y-145685689D01*
X103266927Y-145791933D01*
X103178673Y-145856289D01*
X103073861Y-145932719D01*
X103038105Y-145969488D01*
X102976274Y-146004379D01*
X102905394Y-146000304D01*
X102847970Y-145958555D01*
X102826067Y-145914256D01*
X102806728Y-145842082D01*
X102691574Y-145704845D01*
X102536428Y-145615272D01*
X102359999Y-145584163D01*
X101714000Y-145584163D01*
X101206000Y-145584163D01*
X100560001Y-145584163D01*
X100302081Y-145653272D01*
X100164845Y-145768426D01*
X100075272Y-145923572D01*
X100044163Y-146100001D01*
X97105479Y-146100001D01*
X97108032Y-145856289D01*
X97069024Y-145571526D01*
X96997697Y-145316059D01*
X96991731Y-145294690D01*
X96877583Y-145030910D01*
X96877582Y-145030908D01*
X96728689Y-144785057D01*
X96728688Y-144785055D01*
X96728685Y-144785051D01*
X96547811Y-144561691D01*
X96338287Y-144364935D01*
X96318695Y-144351011D01*
X96104000Y-144198435D01*
X95849286Y-144065274D01*
X95578855Y-143967913D01*
X95297714Y-143908154D01*
X95011063Y-143887104D01*
X95011058Y-143887104D01*
X94772017Y-143902143D01*
X94724208Y-143905151D01*
X94442456Y-143961963D01*
X94171021Y-144056486D01*
X94153774Y-144065274D01*
X93914926Y-144186973D01*
X93678906Y-144351011D01*
X93467340Y-144545556D01*
X93284129Y-144767019D01*
X93132670Y-145011298D01*
X93015762Y-145273877D01*
X92935576Y-145549883D01*
X92915246Y-145687559D01*
X92893588Y-145834222D01*
X92891633Y-146021004D01*
X92890579Y-146121631D01*
X90630040Y-146121631D01*
X90557400Y-145687559D01*
X90554221Y-145650471D01*
X90519408Y-145244394D01*
X90513597Y-144988341D01*
X90508500Y-144957722D01*
X90508500Y-133121631D01*
X102890579Y-133121631D01*
X102918959Y-133346283D01*
X102926602Y-133406784D01*
X103000993Y-133684413D01*
X103112373Y-133949377D01*
X103258683Y-134196774D01*
X103437215Y-134422025D01*
X103487671Y-134470410D01*
X103644666Y-134620963D01*
X103702165Y-134662738D01*
X103877195Y-134789905D01*
X104130501Y-134925727D01*
X104201384Y-134952088D01*
X104399890Y-135025912D01*
X104399894Y-135025913D01*
X104399897Y-135025914D01*
X104680397Y-135088613D01*
X104966812Y-135112664D01*
X104966814Y-135112664D01*
X105253839Y-135097623D01*
X105536169Y-135043765D01*
X105589218Y-135025912D01*
X105808581Y-134952088D01*
X106066029Y-134824290D01*
X106119897Y-134787681D01*
X106303748Y-134662738D01*
X106413791Y-134563654D01*
X106517347Y-134470412D01*
X106702866Y-134250879D01*
X106702868Y-134250877D01*
X106856874Y-134008204D01*
X106976524Y-133746864D01*
X107059596Y-133471715D01*
X107062839Y-133451241D01*
X107104560Y-133187827D01*
X107105253Y-133121631D01*
X110390579Y-133121631D01*
X110418959Y-133346283D01*
X110426602Y-133406784D01*
X110500993Y-133684413D01*
X110612373Y-133949377D01*
X110758683Y-134196774D01*
X110937215Y-134422025D01*
X110987671Y-134470410D01*
X111144666Y-134620963D01*
X111202165Y-134662738D01*
X111377195Y-134789905D01*
X111630501Y-134925727D01*
X111701384Y-134952088D01*
X111899890Y-135025912D01*
X111899894Y-135025913D01*
X111899897Y-135025914D01*
X112180397Y-135088613D01*
X112466812Y-135112664D01*
X112466814Y-135112664D01*
X112753839Y-135097623D01*
X113036169Y-135043765D01*
X113089218Y-135025912D01*
X113308581Y-134952088D01*
X113566029Y-134824290D01*
X113619897Y-134787681D01*
X113803748Y-134662738D01*
X113913791Y-134563654D01*
X114017347Y-134470412D01*
X114202866Y-134250879D01*
X114202868Y-134250877D01*
X114356874Y-134008204D01*
X114476524Y-133746864D01*
X114559596Y-133471715D01*
X114562839Y-133451241D01*
X114604560Y-133187827D01*
X114605253Y-133121631D01*
X117890579Y-133121631D01*
X117918959Y-133346283D01*
X117926602Y-133406784D01*
X118000993Y-133684413D01*
X118112373Y-133949377D01*
X118258683Y-134196774D01*
X118437215Y-134422025D01*
X118487671Y-134470410D01*
X118644666Y-134620963D01*
X118702165Y-134662738D01*
X118877195Y-134789905D01*
X119130501Y-134925727D01*
X119201384Y-134952088D01*
X119399890Y-135025912D01*
X119399894Y-135025913D01*
X119399897Y-135025914D01*
X119680397Y-135088613D01*
X119966812Y-135112664D01*
X119966814Y-135112664D01*
X120253839Y-135097623D01*
X120536169Y-135043765D01*
X120589218Y-135025912D01*
X120808581Y-134952088D01*
X121066029Y-134824290D01*
X121119897Y-134787681D01*
X121303748Y-134662738D01*
X121413791Y-134563654D01*
X121517347Y-134470412D01*
X121702866Y-134250879D01*
X121702868Y-134250877D01*
X121856874Y-134008204D01*
X121976524Y-133746864D01*
X122059596Y-133471715D01*
X122062839Y-133451241D01*
X122104560Y-133187827D01*
X122108032Y-132856289D01*
X122069024Y-132571526D01*
X121991731Y-132294691D01*
X121982723Y-132273873D01*
X121877583Y-132030910D01*
X121728685Y-131785051D01*
X121547811Y-131561691D01*
X121533608Y-131548353D01*
X121338286Y-131364934D01*
X121104000Y-131198435D01*
X120849286Y-131065274D01*
X120578855Y-130967913D01*
X120297714Y-130908154D01*
X120011063Y-130887104D01*
X120011058Y-130887104D01*
X119772017Y-130902143D01*
X119724208Y-130905151D01*
X119442456Y-130961963D01*
X119171021Y-131056486D01*
X118914926Y-131186973D01*
X118678906Y-131351011D01*
X118495010Y-131520112D01*
X118467338Y-131545558D01*
X118409628Y-131615317D01*
X118284129Y-131767019D01*
X118132670Y-132011298D01*
X118015762Y-132273877D01*
X117935576Y-132549883D01*
X117893588Y-132834221D01*
X117890579Y-133121631D01*
X114605253Y-133121631D01*
X114608032Y-132856289D01*
X114569024Y-132571526D01*
X114491731Y-132294691D01*
X114482723Y-132273873D01*
X114377583Y-132030910D01*
X114228685Y-131785051D01*
X114047811Y-131561691D01*
X114033608Y-131548353D01*
X113838286Y-131364934D01*
X113604000Y-131198435D01*
X113349286Y-131065274D01*
X113078855Y-130967913D01*
X112797714Y-130908154D01*
X112511063Y-130887104D01*
X112511058Y-130887104D01*
X112272017Y-130902143D01*
X112224208Y-130905151D01*
X111942456Y-130961963D01*
X111671021Y-131056486D01*
X111414926Y-131186973D01*
X111178906Y-131351011D01*
X110995010Y-131520112D01*
X110967338Y-131545558D01*
X110909628Y-131615317D01*
X110784129Y-131767019D01*
X110632670Y-132011298D01*
X110515762Y-132273877D01*
X110435576Y-132549883D01*
X110393588Y-132834221D01*
X110390579Y-133121631D01*
X107105253Y-133121631D01*
X107108032Y-132856289D01*
X107069024Y-132571526D01*
X106991731Y-132294691D01*
X106982723Y-132273873D01*
X106877583Y-132030910D01*
X106728685Y-131785051D01*
X106547811Y-131561691D01*
X106533608Y-131548353D01*
X106338286Y-131364934D01*
X106104000Y-131198435D01*
X105849286Y-131065274D01*
X105578855Y-130967913D01*
X105297714Y-130908154D01*
X105011063Y-130887104D01*
X105011058Y-130887104D01*
X104772017Y-130902143D01*
X104724208Y-130905151D01*
X104442456Y-130961963D01*
X104171021Y-131056486D01*
X103914926Y-131186973D01*
X103678906Y-131351011D01*
X103495010Y-131520112D01*
X103467338Y-131545558D01*
X103409628Y-131615317D01*
X103284129Y-131767019D01*
X103132670Y-132011298D01*
X103015762Y-132273877D01*
X102935576Y-132549883D01*
X102893588Y-132834221D01*
X102890579Y-133121631D01*
X90508500Y-133121631D01*
X90508500Y-113486917D01*
X91637154Y-113486917D01*
X91637154Y-113486920D01*
X91654432Y-113716728D01*
X91710186Y-113940345D01*
X91802820Y-114151369D01*
X91929683Y-114343768D01*
X92087153Y-114512044D01*
X92214725Y-114608876D01*
X92270721Y-114651379D01*
X92462491Y-114751208D01*
X92194619Y-114946544D01*
X92106749Y-115010620D01*
X91946080Y-115175839D01*
X91815545Y-115365768D01*
X91718878Y-115574975D01*
X91658842Y-115797479D01*
X91637154Y-116026917D01*
X91637154Y-116026920D01*
X91654432Y-116256728D01*
X91710186Y-116480345D01*
X91802820Y-116691369D01*
X91929683Y-116883768D01*
X92087153Y-117052044D01*
X92214725Y-117148876D01*
X92270721Y-117191379D01*
X92462491Y-117291208D01*
X92169625Y-117504770D01*
X92106749Y-117550620D01*
X91946080Y-117715839D01*
X91815545Y-117905768D01*
X91718878Y-118114975D01*
X91658842Y-118337479D01*
X91637154Y-118566917D01*
X91637154Y-118566920D01*
X91654432Y-118796728D01*
X91710186Y-119020345D01*
X91802820Y-119231369D01*
X91929683Y-119423768D01*
X92087153Y-119592044D01*
X92214725Y-119688876D01*
X92270721Y-119731379D01*
X92462491Y-119831208D01*
X92124105Y-120077964D01*
X92106749Y-120090620D01*
X91946080Y-120255839D01*
X91815545Y-120445768D01*
X91718878Y-120654975D01*
X91658842Y-120877479D01*
X91646194Y-121011284D01*
X91637154Y-121106920D01*
X91654432Y-121336728D01*
X91710186Y-121560345D01*
X91802820Y-121771369D01*
X91929683Y-121963768D01*
X92087153Y-122132044D01*
X92270723Y-122271381D01*
X92475141Y-122377794D01*
X92694570Y-122448245D01*
X92922732Y-122480717D01*
X92922733Y-122480717D01*
X93153104Y-122474282D01*
X93379097Y-122429124D01*
X93379098Y-122429124D01*
X93379101Y-122429123D01*
X93594250Y-122346535D01*
X93720826Y-122271379D01*
X93792413Y-122228874D01*
X93967918Y-122079508D01*
X94059481Y-121970000D01*
X94115748Y-121902705D01*
X94231674Y-121703523D01*
X94312383Y-121487660D01*
X94355567Y-121261280D01*
X94358030Y-121004773D01*
X94333027Y-120858501D01*
X94319199Y-120777603D01*
X94274028Y-120649332D01*
X94242649Y-120560226D01*
X94130569Y-120358860D01*
X94123984Y-120350669D01*
X94011095Y-120210263D01*
X93986158Y-120179247D01*
X93813558Y-120026544D01*
X93813555Y-120026542D01*
X93617688Y-119905100D01*
X93617685Y-119905099D01*
X93525016Y-119847642D01*
X93594249Y-119806535D01*
X93594251Y-119806534D01*
X93731394Y-119725105D01*
X93792410Y-119688876D01*
X93792411Y-119688875D01*
X93792413Y-119688874D01*
X93967918Y-119539508D01*
X94115747Y-119362706D01*
X94118408Y-119358135D01*
X94231674Y-119163523D01*
X94312383Y-118947660D01*
X94355567Y-118721280D01*
X94358030Y-118464773D01*
X94325989Y-118277326D01*
X94319199Y-118237603D01*
X94288113Y-118149330D01*
X94242649Y-118020226D01*
X94130569Y-117818860D01*
X94130253Y-117818466D01*
X93986160Y-117639250D01*
X93986158Y-117639247D01*
X93813558Y-117486544D01*
X93813555Y-117486542D01*
X93617688Y-117365100D01*
X93617685Y-117365099D01*
X93525016Y-117307642D01*
X93594249Y-117266535D01*
X93594251Y-117266534D01*
X93792413Y-117148874D01*
X93967918Y-116999508D01*
X94115747Y-116822706D01*
X94154664Y-116755841D01*
X94231674Y-116623523D01*
X94312383Y-116407660D01*
X94355567Y-116181280D01*
X94358030Y-115924773D01*
X94334309Y-115786000D01*
X94319199Y-115697603D01*
X94291732Y-115619605D01*
X94242649Y-115480226D01*
X94187083Y-115380394D01*
X109091500Y-115380394D01*
X109091500Y-115619606D01*
X109153413Y-115850668D01*
X109255170Y-116026917D01*
X109291501Y-116089844D01*
X109291500Y-119410157D01*
X109174493Y-119612820D01*
X109153413Y-119649332D01*
X109091500Y-119880394D01*
X109091500Y-120119606D01*
X109153413Y-120350668D01*
X109208319Y-120445768D01*
X109273020Y-120557834D01*
X109442166Y-120726980D01*
X109442168Y-120726981D01*
X109649332Y-120846587D01*
X109880394Y-120908500D01*
X110292456Y-120908500D01*
X110236874Y-121004773D01*
X110153413Y-121149332D01*
X110091500Y-121380394D01*
X110091500Y-121619606D01*
X110153413Y-121850668D01*
X110204329Y-121938857D01*
X110273020Y-122057834D01*
X110442166Y-122226980D01*
X110519071Y-122271381D01*
X110649332Y-122346587D01*
X110718629Y-122365155D01*
X110916099Y-122418068D01*
X114442862Y-125944833D01*
X114454902Y-125963915D01*
X114454904Y-125963916D01*
X114454904Y-125963917D01*
X114515181Y-126017152D01*
X114534981Y-126036953D01*
X114552293Y-126049927D01*
X114607018Y-126098258D01*
X114633157Y-126110530D01*
X114656263Y-126127847D01*
X114724625Y-126153475D01*
X114790725Y-126184509D01*
X114818468Y-126188655D01*
X114846295Y-126199087D01*
X114929778Y-126205290D01*
X114951254Y-126208500D01*
X114972965Y-126208500D01*
X115048684Y-126214126D01*
X115075040Y-126208500D01*
X120206531Y-126208500D01*
X124079963Y-130081933D01*
X125081933Y-131083903D01*
X125091500Y-131119606D01*
X125153413Y-131350668D01*
X125240972Y-131502325D01*
X125273020Y-131557834D01*
X125442166Y-131726980D01*
X125442168Y-131726981D01*
X125649332Y-131846587D01*
X125880394Y-131908500D01*
X126119606Y-131908500D01*
X126350668Y-131846587D01*
X126557832Y-131726981D01*
X126557834Y-131726980D01*
X126726980Y-131557834D01*
X126759028Y-131502325D01*
X126846587Y-131350668D01*
X126908500Y-131119606D01*
X126908500Y-130880394D01*
X126846587Y-130649332D01*
X126726981Y-130442168D01*
X126726980Y-130442166D01*
X126557834Y-130273020D01*
X126502325Y-130240972D01*
X126350668Y-130153413D01*
X126210264Y-130115792D01*
X126083904Y-130081933D01*
X124844747Y-128842776D01*
X121057139Y-125055169D01*
X121045098Y-125036085D01*
X120984810Y-124982840D01*
X120965019Y-124963048D01*
X120947715Y-124950079D01*
X120892985Y-124901744D01*
X120892983Y-124901743D01*
X120892982Y-124901742D01*
X120866840Y-124889468D01*
X120843736Y-124872153D01*
X120775379Y-124846527D01*
X120709278Y-124815492D01*
X120709277Y-124815492D01*
X120709275Y-124815491D01*
X120681530Y-124811345D01*
X120653704Y-124800913D01*
X120635092Y-124799530D01*
X120570220Y-124794709D01*
X120548748Y-124791500D01*
X120527034Y-124791500D01*
X120451316Y-124785874D01*
X120424960Y-124791500D01*
X115293470Y-124791500D01*
X112349329Y-121847359D01*
X112350665Y-121846588D01*
X112350668Y-121846587D01*
X112510219Y-121754471D01*
X112589843Y-121708500D01*
X128818133Y-121708500D01*
X140052480Y-132942848D01*
X143781923Y-136672291D01*
X143791490Y-136707994D01*
X143853403Y-136939056D01*
X143891117Y-137004379D01*
X143973010Y-137146222D01*
X144142156Y-137315368D01*
X144142158Y-137315369D01*
X144349322Y-137434975D01*
X144580384Y-137496888D01*
X144804161Y-137496888D01*
X144804160Y-146645996D01*
X144640126Y-146666137D01*
X144419386Y-146732362D01*
X144212959Y-146834833D01*
X144026749Y-146970620D01*
X143977179Y-147021594D01*
X143923467Y-147076826D01*
X143861636Y-147111718D01*
X143790756Y-147107642D01*
X143733332Y-147065892D01*
X143711431Y-147021597D01*
X143676728Y-146892082D01*
X143676728Y-146892081D01*
X143561574Y-146754845D01*
X143406428Y-146665272D01*
X143313617Y-146648907D01*
X143230000Y-146634163D01*
X141530000Y-146634163D01*
X141474975Y-146648907D01*
X141272081Y-146703272D01*
X141134845Y-146818426D01*
X141045272Y-146973572D01*
X141034201Y-147036359D01*
X141014163Y-147150000D01*
X141014163Y-148850000D01*
X141061298Y-149025912D01*
X141083272Y-149107919D01*
X141198426Y-149245155D01*
X141353572Y-149334728D01*
X141441786Y-149350282D01*
X141530000Y-149365837D01*
X143230000Y-149365837D01*
X143487919Y-149296728D01*
X143534319Y-149257794D01*
X143625155Y-149181574D01*
X143714728Y-149026428D01*
X143719438Y-148999714D01*
X143750965Y-148936101D01*
X143811879Y-148899632D01*
X143882840Y-148901884D01*
X143935524Y-148935500D01*
X143945525Y-148946187D01*
X144007152Y-149012043D01*
X144108030Y-149088613D01*
X144190723Y-149151381D01*
X144395141Y-149257794D01*
X144614570Y-149328245D01*
X144842732Y-149360717D01*
X144842733Y-149360717D01*
X145073104Y-149354282D01*
X145299097Y-149309124D01*
X145299098Y-149309124D01*
X145299101Y-149309123D01*
X145514250Y-149226535D01*
X145614262Y-149167152D01*
X145712413Y-149108874D01*
X145887918Y-148959508D01*
X145979481Y-148850000D01*
X146035748Y-148782705D01*
X146125866Y-148627866D01*
X146151673Y-148583525D01*
X146151674Y-148583523D01*
X146182810Y-148530025D01*
X146389683Y-148843768D01*
X146547153Y-149012044D01*
X146730723Y-149151381D01*
X146935141Y-149257794D01*
X147154571Y-149328245D01*
X147206000Y-149335564D01*
X147206001Y-148253999D01*
X147206000Y-148253999D01*
X147206001Y-146662960D01*
X147180128Y-146666137D01*
X146959385Y-146732363D01*
X146752960Y-146834833D01*
X146566746Y-146970623D01*
X146437490Y-147103539D01*
X146375659Y-147138431D01*
X146304780Y-147134355D01*
X146247356Y-147092606D01*
X146221160Y-147015696D01*
X146221160Y-134577183D01*
X146359246Y-134338010D01*
X146382594Y-134250877D01*
X146421160Y-134106946D01*
X146421160Y-133867734D01*
X146359247Y-133636672D01*
X146239641Y-133429508D01*
X146239640Y-133429506D01*
X146070494Y-133260360D01*
X146008587Y-133224618D01*
X145863328Y-133140753D01*
X145632266Y-133078840D01*
X145393054Y-133078840D01*
X145161992Y-133140753D01*
X145016733Y-133224618D01*
X144954826Y-133260360D01*
X144785680Y-133429506D01*
X144785679Y-133429508D01*
X144666073Y-133636672D01*
X144604160Y-133867734D01*
X144604160Y-134106946D01*
X144666073Y-134338008D01*
X144742517Y-134470412D01*
X144804161Y-134577183D01*
X144804161Y-135386399D01*
X144784159Y-135454520D01*
X144730503Y-135501013D01*
X144660229Y-135511117D01*
X144589066Y-135475494D01*
X137147572Y-128034000D01*
X144663725Y-128034000D01*
X144710186Y-128220345D01*
X144802820Y-128431369D01*
X144929683Y-128623768D01*
X145087153Y-128792044D01*
X145270723Y-128931381D01*
X145475141Y-129037794D01*
X145694571Y-129108245D01*
X145746000Y-129115564D01*
X145746000Y-128034000D01*
X146254000Y-128034000D01*
X146254000Y-129114122D01*
X146379096Y-129089125D01*
X146594250Y-129006535D01*
X146792412Y-128888874D01*
X146967917Y-128739509D01*
X147059481Y-128629999D01*
X159874163Y-128629999D01*
X159943272Y-128887919D01*
X160058426Y-129025155D01*
X160213572Y-129114728D01*
X160390001Y-129145837D01*
X160986000Y-129145837D01*
X161493999Y-129145837D01*
X162089999Y-129145837D01*
X162347919Y-129076728D01*
X162485155Y-128961574D01*
X162574728Y-128806428D01*
X162605837Y-128629999D01*
X162605837Y-128034000D01*
X161494000Y-128033999D01*
X161493999Y-129145837D01*
X160986000Y-129145837D01*
X160986001Y-128034000D01*
X159874163Y-128033999D01*
X159874163Y-128629999D01*
X147059481Y-128629999D01*
X147115748Y-128562705D01*
X147231674Y-128363523D01*
X147312383Y-128147660D01*
X147334065Y-128034000D01*
X146254000Y-128034000D01*
X145746000Y-128034000D01*
X144663725Y-128034000D01*
X137147572Y-128034000D01*
X136987020Y-127873448D01*
X169892000Y-127873448D01*
X169892000Y-128126552D01*
X169931595Y-128376541D01*
X169931596Y-128376544D01*
X169949410Y-128431369D01*
X170009808Y-128617258D01*
X170124715Y-128842776D01*
X170273486Y-129047542D01*
X170452458Y-129226514D01*
X170657224Y-129375285D01*
X170882742Y-129490192D01*
X170882744Y-129490193D01*
X170995540Y-129526842D01*
X171123459Y-129568405D01*
X171373448Y-129608000D01*
X171626552Y-129608000D01*
X171876541Y-129568405D01*
X172004460Y-129526842D01*
X172117256Y-129490193D01*
X172117258Y-129490192D01*
X172342776Y-129375285D01*
X172547542Y-129226514D01*
X172726514Y-129047542D01*
X172875285Y-128842776D01*
X172990192Y-128617258D01*
X173050591Y-128431369D01*
X173068404Y-128376544D01*
X173068405Y-128376541D01*
X173108000Y-128126552D01*
X173108000Y-127873448D01*
X187892000Y-127873448D01*
X187892000Y-128126552D01*
X187931595Y-128376541D01*
X187931596Y-128376544D01*
X187949410Y-128431369D01*
X188009808Y-128617258D01*
X188124715Y-128842776D01*
X188273486Y-129047542D01*
X188452458Y-129226514D01*
X188657224Y-129375285D01*
X188882742Y-129490192D01*
X188882744Y-129490193D01*
X188995540Y-129526842D01*
X189123459Y-129568405D01*
X189373448Y-129608000D01*
X189626552Y-129608000D01*
X189876541Y-129568405D01*
X190004460Y-129526842D01*
X190117256Y-129490193D01*
X190117258Y-129490192D01*
X190342776Y-129375285D01*
X190547542Y-129226514D01*
X190726514Y-129047542D01*
X190875285Y-128842776D01*
X190990192Y-128617258D01*
X191050591Y-128431369D01*
X191068404Y-128376544D01*
X191068405Y-128376541D01*
X191108000Y-128126552D01*
X191108000Y-127873448D01*
X191068405Y-127623459D01*
X191036739Y-127526000D01*
X190990193Y-127382744D01*
X190875284Y-127157223D01*
X190837900Y-127105768D01*
X190726514Y-126952458D01*
X190547542Y-126773486D01*
X190342776Y-126624715D01*
X190117258Y-126509808D01*
X190117256Y-126509807D01*
X189876544Y-126431596D01*
X189876541Y-126431595D01*
X189626552Y-126392000D01*
X189373448Y-126392000D01*
X189123459Y-126431595D01*
X189123456Y-126431596D01*
X188882744Y-126509807D01*
X188882742Y-126509808D01*
X188657224Y-126624715D01*
X188452458Y-126773486D01*
X188273486Y-126952458D01*
X188162100Y-127105768D01*
X188124716Y-127157223D01*
X188009807Y-127382744D01*
X187963261Y-127526000D01*
X187931595Y-127623459D01*
X187892000Y-127873448D01*
X173108000Y-127873448D01*
X173068405Y-127623459D01*
X173036739Y-127526000D01*
X172990193Y-127382744D01*
X172875284Y-127157223D01*
X172837900Y-127105768D01*
X172726514Y-126952458D01*
X172547542Y-126773486D01*
X172342776Y-126624715D01*
X172117258Y-126509808D01*
X172117256Y-126509807D01*
X171876544Y-126431596D01*
X171876541Y-126431595D01*
X171626552Y-126392000D01*
X171373448Y-126392000D01*
X171123459Y-126431595D01*
X171123456Y-126431596D01*
X170882744Y-126509807D01*
X170882742Y-126509808D01*
X170657224Y-126624715D01*
X170452458Y-126773486D01*
X170273486Y-126952458D01*
X170162100Y-127105768D01*
X170124716Y-127157223D01*
X170009807Y-127382744D01*
X169963261Y-127526000D01*
X169931595Y-127623459D01*
X169892000Y-127873448D01*
X136987020Y-127873448D01*
X130187168Y-121073596D01*
X130153142Y-121011284D01*
X130158207Y-120940469D01*
X130200754Y-120883633D01*
X130276263Y-120858501D01*
X131462597Y-120858501D01*
X131591500Y-120987404D01*
X131591500Y-121119606D01*
X131653413Y-121350668D01*
X131700579Y-121432362D01*
X131773020Y-121557834D01*
X131942166Y-121726980D01*
X131942168Y-121726981D01*
X132149332Y-121846587D01*
X132380394Y-121908500D01*
X132619606Y-121908500D01*
X132850668Y-121846587D01*
X133057832Y-121726981D01*
X133057834Y-121726980D01*
X133226980Y-121557834D01*
X133299421Y-121432362D01*
X133346587Y-121350668D01*
X133408500Y-121119606D01*
X133408500Y-120880394D01*
X133346587Y-120649332D01*
X133259028Y-120497675D01*
X133226980Y-120442166D01*
X133057834Y-120273020D01*
X132947869Y-120209532D01*
X132850668Y-120153413D01*
X132619606Y-120091500D01*
X132487404Y-120091500D01*
X132134791Y-119738887D01*
X132134784Y-119738881D01*
X132102004Y-119706101D01*
X132057023Y-119683181D01*
X132016191Y-119653515D01*
X131968187Y-119637917D01*
X131923204Y-119614997D01*
X131873341Y-119607099D01*
X131825337Y-119591502D01*
X131774861Y-119591502D01*
X131774855Y-119591501D01*
X130893700Y-119591501D01*
X130825579Y-119571499D01*
X130779086Y-119517843D01*
X130768982Y-119447569D01*
X130798476Y-119382989D01*
X130838181Y-119358135D01*
X130836302Y-119354881D01*
X131057834Y-119226980D01*
X131226980Y-119057834D01*
X131290583Y-118947670D01*
X131346587Y-118850668D01*
X131408500Y-118619606D01*
X131408500Y-118380394D01*
X131346587Y-118149332D01*
X131314200Y-118093236D01*
X131208500Y-117910157D01*
X131208500Y-111589843D01*
X131346586Y-111350670D01*
X131351750Y-111331400D01*
X131408500Y-111119606D01*
X131408500Y-110880394D01*
X131346587Y-110649332D01*
X131226981Y-110442168D01*
X131226980Y-110442166D01*
X131057834Y-110273020D01*
X130960333Y-110216728D01*
X130850668Y-110153413D01*
X130619606Y-110091500D01*
X130380394Y-110091500D01*
X130149332Y-110153413D01*
X130039667Y-110216728D01*
X129942166Y-110273020D01*
X129773020Y-110442166D01*
X129773019Y-110442168D01*
X129653413Y-110649332D01*
X129591500Y-110880394D01*
X129591500Y-111119606D01*
X129653413Y-111350668D01*
X129745761Y-111510620D01*
X129791501Y-111589844D01*
X129791500Y-117910157D01*
X129685800Y-118093236D01*
X129653413Y-118149332D01*
X129591500Y-118380394D01*
X129591500Y-118619606D01*
X129653413Y-118850668D01*
X129709417Y-118947670D01*
X129773020Y-119057834D01*
X129942166Y-119226980D01*
X130163698Y-119354881D01*
X130161980Y-119357856D01*
X130199533Y-119380745D01*
X130230555Y-119444605D01*
X130222127Y-119515100D01*
X130176925Y-119569847D01*
X130106300Y-119591501D01*
X120708010Y-119591501D01*
X120708262Y-119550341D01*
X120708500Y-119548746D01*
X120708500Y-119511290D01*
X120709162Y-119402857D01*
X120709162Y-119402855D01*
X120708500Y-119400539D01*
X120708500Y-118293469D01*
X121414115Y-117587854D01*
X121476427Y-117553828D01*
X121547242Y-117558893D01*
X121604078Y-117601440D01*
X121624915Y-117644335D01*
X121646431Y-117724631D01*
X121653414Y-117750691D01*
X121773020Y-117957855D01*
X121942166Y-118127001D01*
X121942168Y-118127002D01*
X122149332Y-118246608D01*
X122380394Y-118308521D01*
X122619606Y-118308521D01*
X122850668Y-118246608D01*
X123057832Y-118127002D01*
X123057834Y-118127001D01*
X123226980Y-117957855D01*
X123346586Y-117750691D01*
X123354828Y-117719935D01*
X123397979Y-117558893D01*
X123418068Y-117483922D01*
X125623134Y-115278857D01*
X127036951Y-113865042D01*
X127127847Y-113743758D01*
X127147483Y-113691379D01*
X127199087Y-113553726D01*
X127214126Y-113351337D01*
X127208015Y-113322706D01*
X127171759Y-113152862D01*
X127133500Y-113081955D01*
X127133500Y-109150000D01*
X144634163Y-109150000D01*
X144634163Y-110850000D01*
X144681436Y-111026427D01*
X144703272Y-111107919D01*
X144818426Y-111245155D01*
X144973572Y-111334728D01*
X144980782Y-111335999D01*
X144998910Y-111339196D01*
X145062521Y-111370722D01*
X145098991Y-111431635D01*
X145096739Y-111502596D01*
X145067362Y-111551122D01*
X144946080Y-111675839D01*
X144815545Y-111865768D01*
X144718878Y-112074975D01*
X144658842Y-112297479D01*
X144643533Y-112459436D01*
X144637154Y-112526920D01*
X144654432Y-112756728D01*
X144710186Y-112980345D01*
X144802820Y-113191369D01*
X144929683Y-113383768D01*
X145087153Y-113552044D01*
X145214725Y-113648876D01*
X145270721Y-113691379D01*
X145462491Y-113791208D01*
X145194619Y-113986544D01*
X145106749Y-114050620D01*
X144946080Y-114215839D01*
X144815545Y-114405768D01*
X144718878Y-114614975D01*
X144658842Y-114837479D01*
X144639463Y-115042495D01*
X144637154Y-115066920D01*
X144654432Y-115296728D01*
X144710186Y-115520345D01*
X144802820Y-115731369D01*
X144929683Y-115923768D01*
X145087153Y-116092044D01*
X145214725Y-116188876D01*
X145270721Y-116231379D01*
X145462491Y-116331208D01*
X145194619Y-116526544D01*
X145106749Y-116590620D01*
X144946080Y-116755839D01*
X144815545Y-116945768D01*
X144718878Y-117154975D01*
X144658842Y-117377479D01*
X144641944Y-117556248D01*
X144637154Y-117606920D01*
X144654432Y-117836728D01*
X144710186Y-118060345D01*
X144802820Y-118271369D01*
X144929683Y-118463768D01*
X145087153Y-118632044D01*
X145214725Y-118728876D01*
X145270721Y-118771379D01*
X145462491Y-118871208D01*
X145194619Y-119066544D01*
X145106749Y-119130620D01*
X144946080Y-119295839D01*
X144815545Y-119485768D01*
X144718878Y-119694975D01*
X144658842Y-119917479D01*
X144641283Y-120103236D01*
X144637154Y-120146920D01*
X144654432Y-120376728D01*
X144710186Y-120600345D01*
X144802820Y-120811369D01*
X144929683Y-121003768D01*
X145087153Y-121172044D01*
X145214725Y-121268876D01*
X145270721Y-121311379D01*
X145462491Y-121411208D01*
X145194619Y-121606544D01*
X145106749Y-121670620D01*
X144946080Y-121835839D01*
X144815545Y-122025768D01*
X144718878Y-122234975D01*
X144658842Y-122457479D01*
X144637154Y-122686917D01*
X144637154Y-122686920D01*
X144654432Y-122916728D01*
X144710186Y-123140345D01*
X144802820Y-123351369D01*
X144929683Y-123543768D01*
X145087153Y-123712044D01*
X145214725Y-123808876D01*
X145270721Y-123851379D01*
X145462491Y-123951208D01*
X145194619Y-124146544D01*
X145106749Y-124210620D01*
X144946080Y-124375839D01*
X144815545Y-124565768D01*
X144718878Y-124774975D01*
X144658842Y-124997479D01*
X144637154Y-125226917D01*
X144637154Y-125226920D01*
X144654432Y-125456728D01*
X144710186Y-125680345D01*
X144802820Y-125891369D01*
X144929683Y-126083768D01*
X145087153Y-126252044D01*
X145214725Y-126348876D01*
X145270721Y-126391379D01*
X145462491Y-126491208D01*
X145106753Y-126750617D01*
X144946079Y-126915841D01*
X144815546Y-127105768D01*
X144718877Y-127314977D01*
X144661938Y-127526000D01*
X147334308Y-127526000D01*
X147319198Y-127437600D01*
X147242649Y-127220226D01*
X147130569Y-127018860D01*
X147059126Y-126930001D01*
X159874163Y-126930001D01*
X159874163Y-127526000D01*
X160986001Y-127526001D01*
X160986001Y-127526000D01*
X162605837Y-127526001D01*
X162605837Y-126930001D01*
X162536728Y-126672081D01*
X162421574Y-126534845D01*
X162266428Y-126445272D01*
X162242444Y-126441043D01*
X162178831Y-126409515D01*
X162142362Y-126348601D01*
X162144615Y-126277640D01*
X162182661Y-126221003D01*
X162207918Y-126199508D01*
X162208271Y-126199086D01*
X162355748Y-126022705D01*
X162471674Y-125823523D01*
X162552383Y-125607660D01*
X162595567Y-125381280D01*
X162598030Y-125124773D01*
X162573769Y-124982840D01*
X162559199Y-124897603D01*
X162522965Y-124794710D01*
X162482649Y-124680226D01*
X162370569Y-124478860D01*
X162226158Y-124299247D01*
X162053558Y-124146544D01*
X162053555Y-124146542D01*
X161857688Y-124025100D01*
X161857685Y-124025099D01*
X161765016Y-123967642D01*
X161834249Y-123926535D01*
X161834251Y-123926534D01*
X162032413Y-123808874D01*
X162207918Y-123659508D01*
X162355747Y-123482706D01*
X162471673Y-123283525D01*
X162471674Y-123283523D01*
X162552383Y-123067660D01*
X162595567Y-122841280D01*
X162598030Y-122584773D01*
X162575801Y-122454728D01*
X162559199Y-122357603D01*
X162555301Y-122346534D01*
X162482649Y-122140226D01*
X162370569Y-121938860D01*
X162226158Y-121759247D01*
X162053558Y-121606544D01*
X161979046Y-121560345D01*
X161857688Y-121485100D01*
X161857685Y-121485099D01*
X161765016Y-121427642D01*
X161834249Y-121386535D01*
X161834251Y-121386534D01*
X162032413Y-121268874D01*
X162207918Y-121119508D01*
X162355747Y-120942706D01*
X162356061Y-120942168D01*
X162471674Y-120743523D01*
X162552383Y-120527660D01*
X162595567Y-120301280D01*
X162598030Y-120044773D01*
X162564580Y-119849085D01*
X162559199Y-119817603D01*
X162553691Y-119801963D01*
X162482649Y-119600226D01*
X162370569Y-119398860D01*
X162365917Y-119393073D01*
X162226160Y-119219250D01*
X162226158Y-119219247D01*
X162053558Y-119066544D01*
X161979046Y-119020345D01*
X161857688Y-118945100D01*
X161857685Y-118945099D01*
X161765016Y-118887642D01*
X161834249Y-118846535D01*
X161834251Y-118846534D01*
X162032413Y-118728874D01*
X162170688Y-118611193D01*
X162207917Y-118579509D01*
X162355748Y-118402705D01*
X162471674Y-118203523D01*
X162552383Y-117987660D01*
X162595567Y-117761280D01*
X162598030Y-117504773D01*
X162574155Y-117365100D01*
X162559199Y-117277603D01*
X162548118Y-117246137D01*
X162482649Y-117060226D01*
X162370569Y-116858860D01*
X162360345Y-116846143D01*
X162287739Y-116755839D01*
X162226158Y-116679247D01*
X162053558Y-116526544D01*
X161979046Y-116480345D01*
X161857688Y-116405100D01*
X161857685Y-116405099D01*
X161765016Y-116347642D01*
X162032410Y-116188876D01*
X162207917Y-116039509D01*
X162355748Y-115862705D01*
X162471674Y-115663523D01*
X162552383Y-115447660D01*
X162574065Y-115334000D01*
X161493999Y-115333999D01*
X161493999Y-115334000D01*
X159903726Y-115333999D01*
X159950186Y-115520345D01*
X160042820Y-115731369D01*
X160169683Y-115923768D01*
X160327153Y-116092044D01*
X160510721Y-116231379D01*
X160702493Y-116331206D01*
X160434619Y-116526544D01*
X160346749Y-116590620D01*
X160186080Y-116755839D01*
X160055545Y-116945768D01*
X159958878Y-117154975D01*
X159898842Y-117377479D01*
X159881944Y-117556248D01*
X159877154Y-117606920D01*
X159894432Y-117836728D01*
X159950186Y-118060345D01*
X160042820Y-118271369D01*
X160169683Y-118463768D01*
X160327153Y-118632044D01*
X160454725Y-118728876D01*
X160510721Y-118771379D01*
X160702491Y-118871208D01*
X160434619Y-119066544D01*
X160346749Y-119130620D01*
X160186080Y-119295839D01*
X160055545Y-119485768D01*
X159958878Y-119694975D01*
X159898842Y-119917479D01*
X159881283Y-120103236D01*
X159877154Y-120146920D01*
X159894432Y-120376728D01*
X159950186Y-120600345D01*
X160042820Y-120811369D01*
X160169683Y-121003768D01*
X160327153Y-121172044D01*
X160454725Y-121268876D01*
X160510721Y-121311379D01*
X160702491Y-121411208D01*
X160434619Y-121606544D01*
X160346749Y-121670620D01*
X160186080Y-121835839D01*
X160055545Y-122025768D01*
X159958878Y-122234975D01*
X159898842Y-122457479D01*
X159877154Y-122686917D01*
X159877154Y-122686920D01*
X159894432Y-122916728D01*
X159950186Y-123140345D01*
X160042820Y-123351369D01*
X160169683Y-123543768D01*
X160327153Y-123712044D01*
X160454725Y-123808876D01*
X160510721Y-123851379D01*
X160702491Y-123951208D01*
X160434619Y-124146544D01*
X160346749Y-124210620D01*
X160186080Y-124375839D01*
X160055545Y-124565768D01*
X159958878Y-124774975D01*
X159898842Y-124997479D01*
X159877154Y-125226917D01*
X159877154Y-125226920D01*
X159894432Y-125456728D01*
X159950186Y-125680345D01*
X160042820Y-125891369D01*
X160138815Y-126036953D01*
X160169684Y-126083769D01*
X160327152Y-126252043D01*
X160327154Y-126252045D01*
X160461048Y-126395126D01*
X160132081Y-126483272D01*
X159994845Y-126598426D01*
X159905272Y-126753572D01*
X159874163Y-126930001D01*
X147059126Y-126930001D01*
X146986158Y-126839247D01*
X146813558Y-126686544D01*
X146525016Y-126507642D01*
X146594249Y-126466535D01*
X146594251Y-126466534D01*
X146792413Y-126348874D01*
X146950742Y-126214126D01*
X146967917Y-126199509D01*
X147115748Y-126022705D01*
X147231674Y-125823523D01*
X147312383Y-125607660D01*
X147355567Y-125381280D01*
X147358030Y-125124773D01*
X147333769Y-124982840D01*
X147319199Y-124897603D01*
X147282965Y-124794710D01*
X147242649Y-124680226D01*
X147130569Y-124478860D01*
X146986158Y-124299247D01*
X146813558Y-124146544D01*
X146813555Y-124146542D01*
X146617688Y-124025100D01*
X146617685Y-124025099D01*
X146525016Y-123967642D01*
X146594249Y-123926535D01*
X146594251Y-123926534D01*
X146792413Y-123808874D01*
X146967918Y-123659508D01*
X147115747Y-123482706D01*
X147231673Y-123283525D01*
X147231674Y-123283523D01*
X147312383Y-123067660D01*
X147355567Y-122841280D01*
X147358030Y-122584773D01*
X147335801Y-122454728D01*
X147319199Y-122357603D01*
X147315301Y-122346534D01*
X147242649Y-122140226D01*
X147130569Y-121938860D01*
X146986158Y-121759247D01*
X146813558Y-121606544D01*
X146739046Y-121560345D01*
X146617688Y-121485100D01*
X146617685Y-121485099D01*
X146525016Y-121427642D01*
X146594249Y-121386535D01*
X146594251Y-121386534D01*
X146792413Y-121268874D01*
X146967918Y-121119508D01*
X147115747Y-120942706D01*
X147116061Y-120942168D01*
X147231674Y-120743523D01*
X147312383Y-120527660D01*
X147355567Y-120301280D01*
X147358030Y-120044773D01*
X147324580Y-119849085D01*
X147319199Y-119817603D01*
X147313691Y-119801963D01*
X147242649Y-119600226D01*
X147130569Y-119398860D01*
X147125917Y-119393073D01*
X146986160Y-119219250D01*
X146986158Y-119219247D01*
X146813558Y-119066544D01*
X146739046Y-119020345D01*
X146617688Y-118945100D01*
X146617685Y-118945099D01*
X146525016Y-118887642D01*
X146594249Y-118846535D01*
X146594251Y-118846534D01*
X146792413Y-118728874D01*
X146930688Y-118611193D01*
X146967917Y-118579509D01*
X147115748Y-118402705D01*
X147231674Y-118203523D01*
X147312383Y-117987660D01*
X147355567Y-117761280D01*
X147358030Y-117504773D01*
X147334155Y-117365100D01*
X147319199Y-117277603D01*
X147308118Y-117246137D01*
X147242649Y-117060226D01*
X147130569Y-116858860D01*
X147120345Y-116846143D01*
X147047739Y-116755839D01*
X146986158Y-116679247D01*
X146813558Y-116526544D01*
X146739046Y-116480345D01*
X146617688Y-116405100D01*
X146617685Y-116405099D01*
X146525016Y-116347642D01*
X146594249Y-116306535D01*
X146594251Y-116306534D01*
X146792413Y-116188874D01*
X146967918Y-116039508D01*
X147115747Y-115862706D01*
X147122754Y-115850668D01*
X147231674Y-115663523D01*
X147312383Y-115447660D01*
X147355567Y-115221280D01*
X147358030Y-114964773D01*
X147334767Y-114828679D01*
X147319199Y-114737603D01*
X147293565Y-114664811D01*
X147242649Y-114520226D01*
X147130569Y-114318860D01*
X147116986Y-114301965D01*
X146986160Y-114139250D01*
X146986158Y-114139247D01*
X146813558Y-113986544D01*
X146813555Y-113986542D01*
X146617688Y-113865100D01*
X146617685Y-113865099D01*
X146525016Y-113807642D01*
X146594249Y-113766535D01*
X146594251Y-113766534D01*
X146792413Y-113648874D01*
X146967918Y-113499508D01*
X147115747Y-113322706D01*
X147148181Y-113266980D01*
X147209548Y-113161540D01*
X147231673Y-113123525D01*
X147241279Y-113097834D01*
X147312383Y-112907660D01*
X147355567Y-112681280D01*
X147358030Y-112424773D01*
X147324580Y-112229085D01*
X147319199Y-112197603D01*
X147308118Y-112166137D01*
X147242649Y-111980226D01*
X147130569Y-111778860D01*
X146986158Y-111599247D01*
X146927640Y-111547475D01*
X146889874Y-111487357D01*
X146890606Y-111416364D01*
X146929604Y-111357037D01*
X146978517Y-111331401D01*
X147107919Y-111296728D01*
X147140863Y-111269085D01*
X147245155Y-111181574D01*
X147334728Y-111026428D01*
X147358773Y-110890060D01*
X147365837Y-110850000D01*
X147365837Y-109150000D01*
X147326589Y-109003523D01*
X147296728Y-108892081D01*
X147181574Y-108754845D01*
X147026428Y-108665272D01*
X146864552Y-108636729D01*
X146850000Y-108634163D01*
X145150000Y-108634163D01*
X145140424Y-108636729D01*
X144892081Y-108703272D01*
X144754845Y-108818426D01*
X144665272Y-108973572D01*
X144665272Y-108973573D01*
X144634163Y-109150000D01*
X127133500Y-109150000D01*
X127133500Y-104880394D01*
X129591500Y-104880394D01*
X129591500Y-105119606D01*
X129653413Y-105350668D01*
X129653414Y-105350669D01*
X129773020Y-105557834D01*
X129942166Y-105726980D01*
X129942168Y-105726981D01*
X130149332Y-105846587D01*
X130380394Y-105908500D01*
X130619606Y-105908500D01*
X130850668Y-105846587D01*
X131057832Y-105726981D01*
X131057834Y-105726980D01*
X131226980Y-105557834D01*
X131346586Y-105350669D01*
X131346587Y-105350668D01*
X131408500Y-105119606D01*
X131408500Y-104880394D01*
X131346587Y-104649332D01*
X131325243Y-104612363D01*
X131208500Y-104410157D01*
X131208500Y-104293469D01*
X136293470Y-99208500D01*
X143366531Y-99208500D01*
X143548561Y-99390530D01*
X143582587Y-99452842D01*
X143577522Y-99523657D01*
X143534975Y-99580493D01*
X143474822Y-99604686D01*
X143372454Y-99617256D01*
X143300126Y-99626137D01*
X143079386Y-99692362D01*
X142872959Y-99794833D01*
X142686749Y-99930620D01*
X142526080Y-100095839D01*
X142395545Y-100285768D01*
X142395543Y-100285772D01*
X142297968Y-100427745D01*
X142170568Y-100198858D01*
X142026158Y-100019247D01*
X141853558Y-99866544D01*
X141853555Y-99866542D01*
X141657688Y-99745100D01*
X141444159Y-99658395D01*
X141219074Y-99608907D01*
X141129575Y-99604686D01*
X140988871Y-99598050D01*
X140988869Y-99598050D01*
X140760126Y-99626137D01*
X140539386Y-99692362D01*
X140332959Y-99794833D01*
X140146749Y-99930620D01*
X139986080Y-100095839D01*
X139855545Y-100285768D01*
X139855543Y-100285772D01*
X139757968Y-100427745D01*
X139630568Y-100198858D01*
X139486158Y-100019247D01*
X139313558Y-99866544D01*
X139313555Y-99866542D01*
X139117688Y-99745100D01*
X138904159Y-99658395D01*
X138679074Y-99608907D01*
X138589575Y-99604686D01*
X138448871Y-99598050D01*
X138448869Y-99598050D01*
X138220126Y-99626137D01*
X137999386Y-99692362D01*
X137792959Y-99794833D01*
X137606749Y-99930620D01*
X137446080Y-100095839D01*
X137315545Y-100285768D01*
X137218878Y-100494975D01*
X137158842Y-100717479D01*
X137139391Y-100923251D01*
X137137154Y-100946920D01*
X137154432Y-101176728D01*
X137210186Y-101400344D01*
X137246700Y-101483524D01*
X137297172Y-101598503D01*
X137238185Y-101649331D01*
X137177489Y-101701630D01*
X137160036Y-101714545D01*
X137144682Y-101729899D01*
X137087164Y-101779460D01*
X137072504Y-101802077D01*
X136523914Y-102350668D01*
X136055171Y-102819411D01*
X136036083Y-102831455D01*
X135992863Y-102880394D01*
X135982851Y-102891731D01*
X135963044Y-102911538D01*
X135950072Y-102928846D01*
X135901742Y-102983570D01*
X135901742Y-102983571D01*
X135889470Y-103009710D01*
X135872153Y-103032816D01*
X135846525Y-103101178D01*
X135815491Y-103167278D01*
X135811345Y-103195021D01*
X135800913Y-103222848D01*
X135794710Y-103306331D01*
X135794710Y-103306332D01*
X135791500Y-103327809D01*
X135791500Y-103349518D01*
X135785874Y-103425236D01*
X135791500Y-103451592D01*
X135791501Y-105637559D01*
X135639916Y-105596942D01*
X135619607Y-105591500D01*
X135380394Y-105591500D01*
X135149332Y-105653413D01*
X135021910Y-105726980D01*
X134942166Y-105773020D01*
X134773020Y-105942166D01*
X134773019Y-105942168D01*
X134653413Y-106149332D01*
X134591500Y-106380394D01*
X134591500Y-106619606D01*
X134653413Y-106850668D01*
X134732655Y-106987919D01*
X134773020Y-107057834D01*
X134942166Y-107226980D01*
X134983289Y-107250722D01*
X135149332Y-107346587D01*
X135380394Y-107408500D01*
X135619606Y-107408500D01*
X135850668Y-107346587D01*
X136009591Y-107254833D01*
X136057833Y-107226981D01*
X136079850Y-107204963D01*
X136137525Y-107201385D01*
X136145154Y-107200912D01*
X136172309Y-107191109D01*
X136200894Y-107187015D01*
X136200896Y-107187014D01*
X136200897Y-107187014D01*
X136267371Y-107156790D01*
X136321102Y-107137393D01*
X136336039Y-107132001D01*
X136336040Y-107132000D01*
X136336041Y-107132000D01*
X136358586Y-107115317D01*
X136385644Y-107103015D01*
X136449077Y-107048357D01*
X136466516Y-107035453D01*
X136481857Y-107020112D01*
X136539389Y-106970539D01*
X136554052Y-106947917D01*
X136944830Y-106557139D01*
X136963915Y-106545098D01*
X137017152Y-106484818D01*
X137036954Y-106465016D01*
X137036960Y-106465008D01*
X137040180Y-106461788D01*
X137228744Y-106825560D01*
X137282581Y-106892043D01*
X137384232Y-107017572D01*
X137775140Y-107408480D01*
X137817003Y-107460547D01*
X137880422Y-107513762D01*
X137885961Y-107519301D01*
X137930446Y-107555841D01*
X137936326Y-107560671D01*
X138043623Y-107650704D01*
X138043627Y-107650706D01*
X138043628Y-107650707D01*
X138050611Y-107654548D01*
X138056762Y-107659600D01*
X138180076Y-107725721D01*
X138198163Y-107735664D01*
X138302863Y-107793223D01*
X138306665Y-107794429D01*
X138310465Y-107795635D01*
X138317484Y-107799399D01*
X138404280Y-107825934D01*
X138451314Y-107840314D01*
X138501881Y-107856355D01*
X138584846Y-107882673D01*
X138592493Y-107883477D01*
X138600390Y-107885891D01*
X138894707Y-107915787D01*
X138971806Y-107908499D01*
X160231501Y-107908499D01*
X160231500Y-109089132D01*
X160186080Y-109135839D01*
X160055545Y-109325768D01*
X159958878Y-109534975D01*
X159898842Y-109757479D01*
X159877154Y-109986917D01*
X159877154Y-109986920D01*
X159894432Y-110216728D01*
X159950186Y-110440345D01*
X160042820Y-110651369D01*
X160169683Y-110843768D01*
X160327153Y-111012044D01*
X160454725Y-111108876D01*
X160510721Y-111151379D01*
X160702491Y-111251208D01*
X160346753Y-111510617D01*
X160346749Y-111510620D01*
X160186080Y-111675839D01*
X160055545Y-111865768D01*
X159958878Y-112074975D01*
X159898842Y-112297479D01*
X159883533Y-112459436D01*
X159877154Y-112526920D01*
X159894432Y-112756728D01*
X159950186Y-112980345D01*
X160042820Y-113191369D01*
X160169683Y-113383768D01*
X160327153Y-113552044D01*
X160454725Y-113648876D01*
X160510721Y-113691379D01*
X160702491Y-113791208D01*
X160346753Y-114050617D01*
X160186079Y-114215841D01*
X160055546Y-114405768D01*
X159958880Y-114614972D01*
X159901940Y-114826000D01*
X160986001Y-114826001D01*
X160986001Y-114826000D01*
X162574308Y-114826001D01*
X162559198Y-114737600D01*
X162482649Y-114520226D01*
X162370569Y-114318860D01*
X162226158Y-114139247D01*
X162053558Y-113986544D01*
X161765016Y-113807642D01*
X161834249Y-113766535D01*
X161834251Y-113766534D01*
X162032413Y-113648874D01*
X162207918Y-113499508D01*
X162355747Y-113322706D01*
X162388181Y-113266980D01*
X162449548Y-113161540D01*
X162471673Y-113123525D01*
X162481279Y-113097834D01*
X162552383Y-112907660D01*
X162595567Y-112681280D01*
X162598030Y-112424773D01*
X162597282Y-112420394D01*
X164051500Y-112420394D01*
X164051500Y-112659606D01*
X164113413Y-112890668D01*
X164148428Y-112951316D01*
X164233020Y-113097834D01*
X164402166Y-113266980D01*
X164402168Y-113266981D01*
X164609332Y-113386587D01*
X164840394Y-113448500D01*
X165079606Y-113448500D01*
X165310668Y-113386587D01*
X165517832Y-113266981D01*
X165517834Y-113266980D01*
X165686980Y-113097834D01*
X165771572Y-112951316D01*
X165806587Y-112890668D01*
X165868500Y-112659606D01*
X165868500Y-112420394D01*
X165806587Y-112189332D01*
X165775157Y-112134892D01*
X175290407Y-112134892D01*
X175326236Y-112459436D01*
X175384192Y-112706530D01*
X175400797Y-112777326D01*
X175513008Y-113083957D01*
X175661243Y-113374885D01*
X175843357Y-113645898D01*
X175984216Y-113809085D01*
X176056712Y-113893073D01*
X176298213Y-114112822D01*
X176537264Y-114282706D01*
X176564364Y-114301965D01*
X176595481Y-114318860D01*
X176851312Y-114457765D01*
X176988406Y-114512044D01*
X177154901Y-114577964D01*
X177346306Y-114628178D01*
X177407120Y-114664811D01*
X177438475Y-114728508D01*
X177430416Y-114799046D01*
X177385501Y-114854028D01*
X177343747Y-114872571D01*
X177209075Y-114904903D01*
X176903036Y-115018717D01*
X176809645Y-115066920D01*
X176612887Y-115168474D01*
X176535186Y-115221280D01*
X176342832Y-115352004D01*
X176096781Y-115566648D01*
X175878299Y-115809297D01*
X175690550Y-116076437D01*
X175690548Y-116076440D01*
X175690547Y-116076442D01*
X175536254Y-116364196D01*
X175417646Y-116668411D01*
X175336445Y-116984667D01*
X175293825Y-117308393D01*
X175290407Y-117634892D01*
X175326236Y-117959436D01*
X175383487Y-118203523D01*
X175400797Y-118277326D01*
X175513008Y-118583957D01*
X175661243Y-118874885D01*
X175843357Y-119145898D01*
X176048008Y-119382989D01*
X176056712Y-119393073D01*
X176298213Y-119612822D01*
X176564361Y-119801963D01*
X176564364Y-119801965D01*
X176630353Y-119837794D01*
X176851312Y-119957765D01*
X176939382Y-119992634D01*
X177154901Y-120077964D01*
X177470730Y-120160820D01*
X177794226Y-120205134D01*
X177803340Y-120205277D01*
X178120696Y-120210264D01*
X178445431Y-120176132D01*
X178763707Y-120103237D01*
X179070920Y-119992634D01*
X179362621Y-119845923D01*
X179374857Y-119837794D01*
X179497210Y-119756503D01*
X179634584Y-119665232D01*
X179688006Y-119619605D01*
X179882870Y-119453176D01*
X180103876Y-119212833D01*
X180139308Y-119163525D01*
X180294416Y-118947669D01*
X180451717Y-118661540D01*
X180451719Y-118661537D01*
X180573503Y-118358590D01*
X180628361Y-118153859D01*
X180665313Y-118093236D01*
X180729174Y-118062215D01*
X180799668Y-118070643D01*
X180854415Y-118115846D01*
X180872738Y-118157696D01*
X180900797Y-118277326D01*
X181013008Y-118583957D01*
X181161243Y-118874885D01*
X181343357Y-119145898D01*
X181548008Y-119382989D01*
X181556712Y-119393073D01*
X181798213Y-119612822D01*
X182064361Y-119801963D01*
X182064364Y-119801965D01*
X182130353Y-119837794D01*
X182351312Y-119957765D01*
X182439382Y-119992634D01*
X182654901Y-120077964D01*
X182970730Y-120160820D01*
X183294226Y-120205134D01*
X183303340Y-120205277D01*
X183620696Y-120210264D01*
X183945431Y-120176132D01*
X184263707Y-120103237D01*
X184570920Y-119992634D01*
X184862621Y-119845923D01*
X184874857Y-119837794D01*
X184997210Y-119756503D01*
X185134584Y-119665232D01*
X185188006Y-119619605D01*
X185382870Y-119453176D01*
X185603876Y-119212833D01*
X185639308Y-119163525D01*
X185794416Y-118947669D01*
X185951717Y-118661540D01*
X185951719Y-118661537D01*
X186073503Y-118358590D01*
X186158014Y-118043192D01*
X186204019Y-117719934D01*
X186208033Y-117336740D01*
X186168807Y-117012594D01*
X186127608Y-116844864D01*
X186090920Y-116695498D01*
X185975505Y-116390060D01*
X185824231Y-116100699D01*
X185639290Y-115831608D01*
X185599081Y-115786000D01*
X185423360Y-115586683D01*
X185179573Y-115369477D01*
X185074900Y-115296728D01*
X184911451Y-115183128D01*
X184911448Y-115183126D01*
X184911446Y-115183125D01*
X184622889Y-115030341D01*
X184388861Y-114940506D01*
X184318057Y-114913327D01*
X184155416Y-114872475D01*
X184094221Y-114836480D01*
X184062200Y-114773115D01*
X184069520Y-114702497D01*
X184113858Y-114647046D01*
X184157981Y-114627452D01*
X184263707Y-114603237D01*
X184570920Y-114492634D01*
X184862621Y-114345923D01*
X184865864Y-114343769D01*
X185058414Y-114215839D01*
X185134584Y-114165232D01*
X185195948Y-114112822D01*
X185382870Y-113953176D01*
X185603876Y-113712833D01*
X185619293Y-113691379D01*
X185794416Y-113447669D01*
X185921053Y-113217318D01*
X185951719Y-113161537D01*
X186073503Y-112858590D01*
X186158014Y-112543192D01*
X186204019Y-112219934D01*
X186208033Y-111836740D01*
X186168807Y-111512594D01*
X186134969Y-111374833D01*
X186090920Y-111195498D01*
X185975505Y-110890060D01*
X185824231Y-110600699D01*
X185639290Y-110331608D01*
X185587637Y-110273019D01*
X185423360Y-110086683D01*
X185191826Y-109880394D01*
X194591500Y-109880394D01*
X194591500Y-110119606D01*
X194653413Y-110350668D01*
X194713216Y-110454250D01*
X194736729Y-110494975D01*
X194773019Y-110557832D01*
X194866500Y-110651313D01*
X194866500Y-111049853D01*
X194866501Y-111049859D01*
X194866500Y-122848687D01*
X194773019Y-122942168D01*
X194653413Y-123149332D01*
X194591500Y-123380394D01*
X194591500Y-123619606D01*
X194653413Y-123850668D01*
X194697214Y-123926534D01*
X194773020Y-124057834D01*
X194942166Y-124226980D01*
X194942168Y-124226981D01*
X195149332Y-124346587D01*
X195380394Y-124408500D01*
X195619606Y-124408500D01*
X195850668Y-124346587D01*
X196057832Y-124226981D01*
X196057834Y-124226980D01*
X196226980Y-124057834D01*
X196302786Y-123926534D01*
X196346587Y-123850668D01*
X196408500Y-123619606D01*
X196408500Y-123380394D01*
X196346587Y-123149332D01*
X196226981Y-122942168D01*
X196133500Y-122848687D01*
X196133500Y-110651313D01*
X196226981Y-110557832D01*
X196263272Y-110494975D01*
X196286784Y-110454250D01*
X196346587Y-110350668D01*
X196408500Y-110119606D01*
X196408500Y-109880394D01*
X196346587Y-109649332D01*
X196226981Y-109442168D01*
X196226980Y-109442166D01*
X196057834Y-109273020D01*
X195936044Y-109202705D01*
X195850668Y-109153413D01*
X195619606Y-109091500D01*
X195380394Y-109091500D01*
X195149332Y-109153413D01*
X195063956Y-109202705D01*
X194942166Y-109273020D01*
X194773020Y-109442166D01*
X194773019Y-109442168D01*
X194653413Y-109649332D01*
X194591500Y-109880394D01*
X185191826Y-109880394D01*
X185179573Y-109869477D01*
X185059397Y-109785953D01*
X184911451Y-109683128D01*
X184911448Y-109683126D01*
X184911446Y-109683125D01*
X184622889Y-109530341D01*
X184366816Y-109432044D01*
X184318057Y-109413327D01*
X184001378Y-109333783D01*
X183785416Y-109306501D01*
X183677437Y-109292860D01*
X183350926Y-109291150D01*
X183350923Y-109291150D01*
X183026570Y-109328679D01*
X182709075Y-109404903D01*
X182403036Y-109518717D01*
X182301006Y-109571379D01*
X182112887Y-109668474D01*
X181981921Y-109757479D01*
X181842832Y-109852004D01*
X181596781Y-110066648D01*
X181378299Y-110309297D01*
X181190550Y-110576437D01*
X181190548Y-110576440D01*
X181190547Y-110576442D01*
X181036254Y-110864196D01*
X180999094Y-110959508D01*
X180917646Y-111168410D01*
X180915510Y-111176729D01*
X180872012Y-111346143D01*
X180835698Y-111407149D01*
X180772166Y-111438838D01*
X180701587Y-111431148D01*
X180646369Y-111386521D01*
X180627608Y-111344864D01*
X180623382Y-111327660D01*
X180590920Y-111195498D01*
X180475505Y-110890060D01*
X180324231Y-110600699D01*
X180139290Y-110331608D01*
X180087637Y-110273019D01*
X179923360Y-110086683D01*
X179679573Y-109869477D01*
X179559397Y-109785953D01*
X179411451Y-109683128D01*
X179411448Y-109683126D01*
X179411446Y-109683125D01*
X179122889Y-109530341D01*
X178866816Y-109432044D01*
X178818057Y-109413327D01*
X178501378Y-109333783D01*
X178285416Y-109306501D01*
X178177437Y-109292860D01*
X177850926Y-109291150D01*
X177850923Y-109291150D01*
X177526570Y-109328679D01*
X177209075Y-109404903D01*
X176903036Y-109518717D01*
X176801006Y-109571379D01*
X176612887Y-109668474D01*
X176481921Y-109757479D01*
X176342832Y-109852004D01*
X176096781Y-110066648D01*
X175878299Y-110309297D01*
X175690550Y-110576437D01*
X175690548Y-110576440D01*
X175690547Y-110576442D01*
X175536254Y-110864196D01*
X175499094Y-110959508D01*
X175417646Y-111168410D01*
X175397942Y-111245154D01*
X175336445Y-111484667D01*
X175293825Y-111808393D01*
X175290407Y-112134892D01*
X165775157Y-112134892D01*
X165686981Y-111982168D01*
X165686980Y-111982166D01*
X165517834Y-111813020D01*
X165396044Y-111742705D01*
X165310668Y-111693413D01*
X165079606Y-111631500D01*
X164840394Y-111631500D01*
X164609332Y-111693413D01*
X164523956Y-111742705D01*
X164402166Y-111813020D01*
X164233020Y-111982166D01*
X164233019Y-111982168D01*
X164113413Y-112189332D01*
X164051500Y-112420394D01*
X162597282Y-112420394D01*
X162564580Y-112229085D01*
X162559199Y-112197603D01*
X162548118Y-112166137D01*
X162482649Y-111980226D01*
X162370569Y-111778860D01*
X162226158Y-111599247D01*
X162053558Y-111446544D01*
X162053555Y-111446542D01*
X161857688Y-111325100D01*
X161857685Y-111325099D01*
X161765016Y-111267642D01*
X161834249Y-111226535D01*
X161834251Y-111226534D01*
X161971394Y-111145105D01*
X162032410Y-111108876D01*
X162032411Y-111108875D01*
X162032413Y-111108874D01*
X162207918Y-110959508D01*
X162299481Y-110850000D01*
X162355748Y-110782705D01*
X162451841Y-110617600D01*
X162471673Y-110583525D01*
X162471674Y-110583523D01*
X162552383Y-110367660D01*
X162595567Y-110141280D01*
X162598030Y-109884773D01*
X162575584Y-109753461D01*
X162559199Y-109657603D01*
X162513867Y-109528876D01*
X162482649Y-109440226D01*
X162370569Y-109238860D01*
X162248500Y-109087034D01*
X162248500Y-107908499D01*
X203017721Y-107908499D01*
X203084126Y-107915713D01*
X203084128Y-107915713D01*
X203111614Y-107913308D01*
X203166590Y-107908499D01*
X203174432Y-107908499D01*
X203218746Y-107904154D01*
X203239402Y-107902129D01*
X203378836Y-107889930D01*
X203386483Y-107887708D01*
X203394420Y-107886930D01*
X203454875Y-107868677D01*
X203528495Y-107846450D01*
X203662920Y-107807396D01*
X203662922Y-107807395D01*
X203669996Y-107803729D01*
X203677626Y-107801425D01*
X203711738Y-107783287D01*
X203801304Y-107735664D01*
X203925563Y-107671253D01*
X203931530Y-107666421D01*
X203938831Y-107662539D01*
X203948629Y-107654548D01*
X204168083Y-107475567D01*
X204217457Y-107415883D01*
X204508481Y-107124859D01*
X204560548Y-107082996D01*
X204613763Y-107019577D01*
X204619301Y-107014039D01*
X204640756Y-106987919D01*
X204660688Y-106963654D01*
X204708707Y-106906427D01*
X204750705Y-106856376D01*
X204750708Y-106856371D01*
X204754549Y-106849388D01*
X204759601Y-106843237D01*
X204825722Y-106719923D01*
X204880871Y-106619606D01*
X204893224Y-106597136D01*
X204895636Y-106589534D01*
X204899400Y-106582515D01*
X204935778Y-106463525D01*
X204940315Y-106448685D01*
X204982674Y-106315152D01*
X204983478Y-106307506D01*
X204985892Y-106299609D01*
X205015788Y-106005292D01*
X205008500Y-105928195D01*
X205008500Y-102925569D01*
X204986930Y-102705580D01*
X204901425Y-102422374D01*
X204762540Y-102161170D01*
X204748227Y-102143620D01*
X204575568Y-101931918D01*
X204418618Y-101802079D01*
X204413351Y-101797721D01*
X204373613Y-101738889D01*
X204371990Y-101667911D01*
X204408999Y-101607323D01*
X204481370Y-101575238D01*
X204482838Y-101575094D01*
X204556494Y-101567872D01*
X204755123Y-101507902D01*
X204907005Y-101427145D01*
X204938318Y-101410496D01*
X204938319Y-101410495D01*
X204938321Y-101410494D01*
X205099110Y-101279358D01*
X205184014Y-101176728D01*
X205231366Y-101119489D01*
X205330050Y-100936975D01*
X205358591Y-100844773D01*
X205391405Y-100738770D01*
X205413093Y-100532422D01*
X205413093Y-100532418D01*
X205394289Y-100325795D01*
X205390002Y-100311228D01*
X205335707Y-100126749D01*
X205239580Y-99942875D01*
X205109569Y-99781175D01*
X204950627Y-99647806D01*
X204768807Y-99547850D01*
X204669921Y-99516482D01*
X204571036Y-99485113D01*
X204527952Y-99480585D01*
X204398703Y-99467000D01*
X203597793Y-99467000D01*
X203443506Y-99482128D01*
X203244877Y-99542098D01*
X203146626Y-99594339D01*
X203061682Y-99639504D01*
X203061681Y-99639505D01*
X203061679Y-99639506D01*
X202900890Y-99770642D01*
X202768634Y-99930511D01*
X202669950Y-100113025D01*
X202608595Y-100311230D01*
X202589283Y-100494972D01*
X202586907Y-100517582D01*
X202605711Y-100724205D01*
X202605712Y-100724208D01*
X202605712Y-100724209D01*
X202664293Y-100923251D01*
X202760420Y-101107125D01*
X202890431Y-101268825D01*
X203008667Y-101368037D01*
X203047992Y-101427145D01*
X203049118Y-101498133D01*
X203011687Y-101558461D01*
X202963251Y-101585430D01*
X202950136Y-101589290D01*
X202932173Y-101594577D01*
X202670006Y-101731634D01*
X202670004Y-101731635D01*
X202670003Y-101731636D01*
X202439453Y-101917004D01*
X202249298Y-102143620D01*
X202249296Y-102143624D01*
X202106777Y-102402864D01*
X202100588Y-102422374D01*
X202017327Y-102684847D01*
X202011650Y-102738859D01*
X201991501Y-102930565D01*
X201991500Y-104891499D01*
X187335647Y-104891499D01*
X187404416Y-104634846D01*
X187408500Y-104619606D01*
X187408500Y-104380394D01*
X187346587Y-104149332D01*
X187226981Y-103942168D01*
X187226980Y-103942166D01*
X187057834Y-103773020D01*
X186974021Y-103724631D01*
X186850668Y-103653413D01*
X186619606Y-103591500D01*
X186380394Y-103591500D01*
X186149332Y-103653413D01*
X186025979Y-103724631D01*
X185942166Y-103773020D01*
X185773020Y-103942166D01*
X185715669Y-104041501D01*
X149907379Y-104041501D01*
X149972384Y-103867657D01*
X150015567Y-103641280D01*
X150018030Y-103384773D01*
X149979198Y-103157600D01*
X149902649Y-102940226D01*
X149790569Y-102738859D01*
X149786015Y-102733195D01*
X148660000Y-103859211D01*
X148300789Y-103500000D01*
X149424601Y-102376189D01*
X149185018Y-102227642D01*
X149425591Y-102084800D01*
X148300789Y-100960000D01*
X149019209Y-100960000D01*
X149785374Y-101726165D01*
X149891673Y-101543525D01*
X149972383Y-101327660D01*
X150015567Y-101101280D01*
X150018030Y-100844773D01*
X149979198Y-100617600D01*
X149902649Y-100400226D01*
X149790569Y-100198859D01*
X149786015Y-100193194D01*
X149019209Y-100960000D01*
X148300789Y-100960000D01*
X149424601Y-99836189D01*
X149277688Y-99745101D01*
X149064158Y-99658395D01*
X148839073Y-99608907D01*
X148608871Y-99598050D01*
X148380126Y-99626137D01*
X148118499Y-99704627D01*
X148118499Y-98873448D01*
X169892000Y-98873448D01*
X169892000Y-99126552D01*
X169931595Y-99376541D01*
X169931596Y-99376544D01*
X170007815Y-99611123D01*
X170009808Y-99617258D01*
X170124715Y-99842776D01*
X170273486Y-100047542D01*
X170452458Y-100226514D01*
X170657224Y-100375285D01*
X170760183Y-100427745D01*
X170882744Y-100490193D01*
X171107266Y-100563144D01*
X171123459Y-100568405D01*
X171373448Y-100608000D01*
X171626552Y-100608000D01*
X171876541Y-100568405D01*
X171892734Y-100563144D01*
X172117256Y-100490193D01*
X172239817Y-100427745D01*
X172342776Y-100375285D01*
X172547542Y-100226514D01*
X172726514Y-100047542D01*
X172875285Y-99842776D01*
X172990192Y-99617258D01*
X172992186Y-99611123D01*
X173068404Y-99376544D01*
X173068405Y-99376541D01*
X173108000Y-99126552D01*
X173108000Y-98873448D01*
X187892000Y-98873448D01*
X187892000Y-99126552D01*
X187931595Y-99376541D01*
X187931596Y-99376544D01*
X188007815Y-99611123D01*
X188009808Y-99617258D01*
X188124715Y-99842776D01*
X188273486Y-100047542D01*
X188452458Y-100226514D01*
X188657224Y-100375285D01*
X188760183Y-100427745D01*
X188882744Y-100490193D01*
X189107266Y-100563144D01*
X189123459Y-100568405D01*
X189373448Y-100608000D01*
X189626552Y-100608000D01*
X189876541Y-100568405D01*
X189892734Y-100563144D01*
X190032960Y-100517582D01*
X196986907Y-100517582D01*
X197005711Y-100724205D01*
X197005712Y-100724208D01*
X197005712Y-100724209D01*
X197064293Y-100923251D01*
X197160420Y-101107125D01*
X197290431Y-101268825D01*
X197449373Y-101402194D01*
X197631193Y-101502150D01*
X197730079Y-101533518D01*
X197828964Y-101564887D01*
X197857365Y-101567872D01*
X198001297Y-101583000D01*
X198802207Y-101583000D01*
X198956494Y-101567872D01*
X199155123Y-101507902D01*
X199307005Y-101427145D01*
X199338318Y-101410496D01*
X199338319Y-101410495D01*
X199338321Y-101410494D01*
X199499110Y-101279358D01*
X199584014Y-101176728D01*
X199631366Y-101119489D01*
X199730050Y-100936975D01*
X199758591Y-100844773D01*
X199791405Y-100738770D01*
X199813093Y-100532422D01*
X199813093Y-100532418D01*
X199794289Y-100325795D01*
X199790002Y-100311228D01*
X199735707Y-100126749D01*
X199639580Y-99942875D01*
X199509569Y-99781175D01*
X199350627Y-99647806D01*
X199168807Y-99547850D01*
X199069921Y-99516482D01*
X198971036Y-99485113D01*
X198927952Y-99480585D01*
X198798703Y-99467000D01*
X197997793Y-99467000D01*
X197843506Y-99482128D01*
X197644877Y-99542098D01*
X197546626Y-99594339D01*
X197461682Y-99639504D01*
X197461681Y-99639505D01*
X197461679Y-99639506D01*
X197300890Y-99770642D01*
X197168634Y-99930511D01*
X197069950Y-100113025D01*
X197008595Y-100311230D01*
X196989283Y-100494972D01*
X196986907Y-100517582D01*
X190032960Y-100517582D01*
X190117256Y-100490193D01*
X190239817Y-100427745D01*
X190342776Y-100375285D01*
X190547542Y-100226514D01*
X190726514Y-100047542D01*
X190875285Y-99842776D01*
X190990192Y-99617258D01*
X190992186Y-99611123D01*
X191068404Y-99376544D01*
X191068405Y-99376541D01*
X191108000Y-99126552D01*
X191108000Y-98873448D01*
X191068405Y-98623459D01*
X190990192Y-98382742D01*
X190982466Y-98367578D01*
X199586907Y-98367578D01*
X199586907Y-98367582D01*
X199605711Y-98574205D01*
X199605712Y-98574208D01*
X199605712Y-98574209D01*
X199664293Y-98773251D01*
X199760420Y-98957125D01*
X199890431Y-99118825D01*
X200049373Y-99252194D01*
X200231193Y-99352150D01*
X200249326Y-99357902D01*
X200428964Y-99414887D01*
X200457365Y-99417872D01*
X200601297Y-99433000D01*
X201802207Y-99433000D01*
X201956494Y-99417872D01*
X202155123Y-99357902D01*
X202253374Y-99305661D01*
X202338318Y-99260496D01*
X202338319Y-99260495D01*
X202338321Y-99260494D01*
X202499110Y-99129358D01*
X202501432Y-99126552D01*
X202631366Y-98969489D01*
X202730050Y-98786975D01*
X202791404Y-98588772D01*
X202791405Y-98588770D01*
X202813093Y-98382422D01*
X202813093Y-98382418D01*
X202794289Y-98175795D01*
X202788823Y-98157223D01*
X202735707Y-97976749D01*
X202639580Y-97792875D01*
X202509569Y-97631175D01*
X202350627Y-97497806D01*
X202168807Y-97397850D01*
X202069921Y-97366482D01*
X201971036Y-97335113D01*
X201927952Y-97330585D01*
X201798703Y-97317000D01*
X200597793Y-97317000D01*
X200443506Y-97332128D01*
X200244877Y-97392098D01*
X200170594Y-97431595D01*
X200061682Y-97489504D01*
X200061681Y-97489505D01*
X200061679Y-97489506D01*
X199900890Y-97620642D01*
X199768634Y-97780511D01*
X199669950Y-97963025D01*
X199608595Y-98161230D01*
X199586907Y-98367578D01*
X190982466Y-98367578D01*
X190875285Y-98157224D01*
X190726514Y-97952458D01*
X190547542Y-97773486D01*
X190342776Y-97624715D01*
X190117258Y-97509808D01*
X190117256Y-97509807D01*
X189876544Y-97431596D01*
X189876541Y-97431595D01*
X189626552Y-97392000D01*
X189373448Y-97392000D01*
X189123459Y-97431595D01*
X189123456Y-97431596D01*
X188882744Y-97509807D01*
X188882742Y-97509808D01*
X188657224Y-97624715D01*
X188452458Y-97773486D01*
X188273486Y-97952458D01*
X188124715Y-98157224D01*
X188009808Y-98382742D01*
X187931595Y-98623459D01*
X187892000Y-98873448D01*
X173108000Y-98873448D01*
X173068405Y-98623459D01*
X172990192Y-98382742D01*
X172875285Y-98157224D01*
X172726514Y-97952458D01*
X172547542Y-97773486D01*
X172342776Y-97624715D01*
X172117258Y-97509808D01*
X172117256Y-97509807D01*
X171876544Y-97431596D01*
X171876541Y-97431595D01*
X171626552Y-97392000D01*
X171373448Y-97392000D01*
X171123459Y-97431595D01*
X171123456Y-97431596D01*
X170882744Y-97509807D01*
X170882742Y-97509808D01*
X170657224Y-97624715D01*
X170452458Y-97773486D01*
X170273486Y-97952458D01*
X170124715Y-98157224D01*
X170009808Y-98382742D01*
X169931595Y-98623459D01*
X169892000Y-98873448D01*
X148118499Y-98873448D01*
X148118499Y-89254000D01*
X203584163Y-89254000D01*
X203584163Y-89899999D01*
X203653272Y-90157919D01*
X203768426Y-90295155D01*
X203923572Y-90384728D01*
X204100001Y-90415837D01*
X204746000Y-90415837D01*
X204746000Y-89254000D01*
X203584163Y-89254000D01*
X148118499Y-89254000D01*
X148118499Y-88100001D01*
X203584163Y-88100001D01*
X203584163Y-88746000D01*
X204746000Y-88746000D01*
X204746000Y-87584163D01*
X205254000Y-87584163D01*
X205254000Y-90415837D01*
X205899999Y-90415837D01*
X206157919Y-90346728D01*
X206295155Y-90231574D01*
X206474086Y-89921653D01*
X206593540Y-90049303D01*
X206593542Y-90049305D01*
X206783870Y-90193772D01*
X206995818Y-90304105D01*
X206995821Y-90304106D01*
X206995823Y-90304107D01*
X207223323Y-90377149D01*
X207459887Y-90410817D01*
X207459888Y-90410817D01*
X207698741Y-90404146D01*
X207933055Y-90357325D01*
X207960661Y-90346728D01*
X208156130Y-90271695D01*
X208239596Y-90222136D01*
X208361589Y-90149702D01*
X208543556Y-89994836D01*
X208696828Y-89811525D01*
X208817023Y-89605010D01*
X208817024Y-89605008D01*
X208900704Y-89381193D01*
X208945477Y-89146482D01*
X208948030Y-88880530D01*
X208948030Y-88880527D01*
X208907770Y-88644997D01*
X208907769Y-88644994D01*
X208828402Y-88419616D01*
X208712194Y-88210832D01*
X208562472Y-88024616D01*
X208539599Y-88004379D01*
X208383509Y-87866282D01*
X208180430Y-87740368D01*
X207959040Y-87650471D01*
X207725668Y-87599161D01*
X207646108Y-87595409D01*
X207486989Y-87587905D01*
X207486987Y-87587905D01*
X207249822Y-87617025D01*
X207020954Y-87685689D01*
X206806927Y-87791933D01*
X206704969Y-87866282D01*
X206613861Y-87932719D01*
X206578105Y-87969488D01*
X206516274Y-88004379D01*
X206445394Y-88000304D01*
X206387970Y-87958555D01*
X206366067Y-87914256D01*
X206346728Y-87842082D01*
X206231574Y-87704845D01*
X206076428Y-87615272D01*
X205899999Y-87584163D01*
X205254000Y-87584163D01*
X204746000Y-87584163D01*
X204100001Y-87584163D01*
X203842081Y-87653272D01*
X203704845Y-87768426D01*
X203615272Y-87923572D01*
X203584163Y-88100001D01*
X148118499Y-88100001D01*
X148118499Y-81863470D01*
X149656323Y-80325648D01*
X149902732Y-80360717D01*
X149902733Y-80360717D01*
X150133104Y-80354282D01*
X150359097Y-80309124D01*
X150359098Y-80309124D01*
X150359101Y-80309123D01*
X150574250Y-80226535D01*
X150700826Y-80151379D01*
X150772413Y-80108874D01*
X150947918Y-79959508D01*
X151039481Y-79850000D01*
X151095748Y-79782705D01*
X151199743Y-79604022D01*
X151211673Y-79583525D01*
X151211674Y-79583523D01*
X151242810Y-79530025D01*
X151449683Y-79843768D01*
X151607153Y-80012044D01*
X151790723Y-80151381D01*
X151995141Y-80257794D01*
X152214571Y-80328245D01*
X152266000Y-80335564D01*
X152266001Y-79253999D01*
X152266000Y-79253999D01*
X152266000Y-78746001D01*
X152773999Y-78746001D01*
X152774000Y-78746001D01*
X152773999Y-80334122D01*
X152899096Y-80309125D01*
X153114250Y-80226535D01*
X153312412Y-80108874D01*
X153487917Y-79959509D01*
X153635748Y-79782705D01*
X153782810Y-79530025D01*
X153862819Y-79651366D01*
X153862820Y-79651369D01*
X153939077Y-79767019D01*
X153989683Y-79843768D01*
X154147153Y-80012044D01*
X154330723Y-80151381D01*
X154535141Y-80257794D01*
X154754570Y-80328245D01*
X154982732Y-80360717D01*
X154982733Y-80360717D01*
X155213104Y-80354282D01*
X155439097Y-80309124D01*
X155439098Y-80309124D01*
X155439101Y-80309123D01*
X155654250Y-80226535D01*
X155780826Y-80151379D01*
X155852413Y-80108874D01*
X155949288Y-80026427D01*
X156027920Y-79959507D01*
X156050740Y-79932214D01*
X156109781Y-79892784D01*
X156180766Y-79891533D01*
X156241159Y-79928859D01*
X156269110Y-79980425D01*
X156303272Y-80107919D01*
X156418426Y-80245155D01*
X156573572Y-80334728D01*
X156641072Y-80346630D01*
X156750000Y-80365837D01*
X158450000Y-80365837D01*
X158707919Y-80296728D01*
X158735152Y-80273877D01*
X158845155Y-80181574D01*
X158934728Y-80026428D01*
X158958293Y-79892784D01*
X158965837Y-79850000D01*
X158965837Y-78150000D01*
X158923986Y-77993809D01*
X158896728Y-77892081D01*
X158781574Y-77754845D01*
X158626428Y-77665272D01*
X158533617Y-77648907D01*
X158450000Y-77634163D01*
X156750000Y-77634163D01*
X156735494Y-77638050D01*
X156492081Y-77703272D01*
X156354845Y-77818426D01*
X156265272Y-77973572D01*
X156261704Y-77993809D01*
X156230177Y-78057422D01*
X156169263Y-78093891D01*
X156098302Y-78091639D01*
X156054128Y-78066299D01*
X155873555Y-77906542D01*
X155850233Y-77892082D01*
X155677688Y-77785100D01*
X155464159Y-77698395D01*
X155239074Y-77648907D01*
X155162339Y-77645288D01*
X155008871Y-77638050D01*
X155008869Y-77638050D01*
X154780126Y-77666137D01*
X154559386Y-77732362D01*
X154352959Y-77834833D01*
X154166749Y-77970620D01*
X154006080Y-78135839D01*
X153875545Y-78325768D01*
X153875543Y-78325772D01*
X153777968Y-78467745D01*
X153650568Y-78238858D01*
X153506158Y-78059247D01*
X153333558Y-77906544D01*
X153137688Y-77785101D01*
X152924160Y-77698395D01*
X152774000Y-77665380D01*
X152773999Y-78746001D01*
X152266000Y-78746001D01*
X152266001Y-77662960D01*
X152240128Y-77666137D01*
X152019385Y-77732363D01*
X151812960Y-77834833D01*
X151626749Y-77970621D01*
X151466079Y-78135841D01*
X151237968Y-78467745D01*
X151110568Y-78238858D01*
X150966158Y-78059247D01*
X150793558Y-77906544D01*
X150793555Y-77906542D01*
X150597688Y-77785100D01*
X150384159Y-77698395D01*
X150159074Y-77648907D01*
X150082339Y-77645288D01*
X149928871Y-77638050D01*
X149928869Y-77638050D01*
X149700126Y-77666137D01*
X149479386Y-77732362D01*
X149272959Y-77834833D01*
X149086749Y-77970620D01*
X148926080Y-78135839D01*
X148795545Y-78325768D01*
X148795543Y-78325772D01*
X148697968Y-78467745D01*
X148570568Y-78238858D01*
X148426158Y-78059247D01*
X148253558Y-77906544D01*
X148253555Y-77906542D01*
X148057688Y-77785100D01*
X147844159Y-77698395D01*
X147619074Y-77648907D01*
X147542339Y-77645288D01*
X147388871Y-77638050D01*
X147388869Y-77638050D01*
X147160126Y-77666137D01*
X146939386Y-77732362D01*
X146732959Y-77834833D01*
X146546749Y-77970620D01*
X146386080Y-78135839D01*
X146255545Y-78325768D01*
X146255543Y-78325772D01*
X146157968Y-78467745D01*
X146030568Y-78238858D01*
X145886158Y-78059247D01*
X145713558Y-77906544D01*
X145713555Y-77906542D01*
X145517688Y-77785100D01*
X145304159Y-77698395D01*
X145079074Y-77648907D01*
X145002339Y-77645288D01*
X144848871Y-77638050D01*
X144848869Y-77638050D01*
X144620126Y-77666137D01*
X144399386Y-77732362D01*
X144192959Y-77834833D01*
X144006749Y-77970620D01*
X143846080Y-78135839D01*
X143715545Y-78325768D01*
X143715543Y-78325772D01*
X143617968Y-78467745D01*
X143490568Y-78238858D01*
X143346158Y-78059247D01*
X143173558Y-77906544D01*
X143173555Y-77906542D01*
X142977688Y-77785100D01*
X142764159Y-77698395D01*
X142539074Y-77648907D01*
X142462339Y-77645288D01*
X142308871Y-77638050D01*
X142308869Y-77638050D01*
X142080126Y-77666137D01*
X141859386Y-77732362D01*
X141652959Y-77834833D01*
X141466749Y-77970620D01*
X141306080Y-78135839D01*
X141175545Y-78325768D01*
X141078878Y-78534975D01*
X141018842Y-78757479D01*
X140997880Y-78979241D01*
X140997154Y-78986920D01*
X141014432Y-79216728D01*
X141070186Y-79440345D01*
X141162820Y-79651369D01*
X141289683Y-79843768D01*
X141447153Y-80012044D01*
X141630723Y-80151381D01*
X141835141Y-80257794D01*
X142054570Y-80328245D01*
X142282732Y-80360717D01*
X142282733Y-80360717D01*
X142513104Y-80354282D01*
X142739097Y-80309124D01*
X142739098Y-80309124D01*
X142739101Y-80309123D01*
X142954250Y-80226535D01*
X143080826Y-80151379D01*
X143152413Y-80108874D01*
X143327918Y-79959508D01*
X143419481Y-79850000D01*
X143475748Y-79782705D01*
X143579743Y-79604022D01*
X143591673Y-79583525D01*
X143591674Y-79583523D01*
X143622810Y-79530025D01*
X143702819Y-79651366D01*
X143702820Y-79651369D01*
X143779077Y-79767019D01*
X143829683Y-79843768D01*
X143987153Y-80012044D01*
X144170723Y-80151381D01*
X144375141Y-80257794D01*
X144594570Y-80328245D01*
X144822732Y-80360717D01*
X144822733Y-80360717D01*
X145053104Y-80354282D01*
X145208759Y-80323179D01*
X145411500Y-80282668D01*
X145411500Y-80292972D01*
X145405874Y-80368684D01*
X145411500Y-80395040D01*
X145411501Y-89811526D01*
X145411501Y-98945341D01*
X145391499Y-99013462D01*
X145337843Y-99059955D01*
X145267569Y-99070059D01*
X145196406Y-99034436D01*
X144217139Y-98055169D01*
X144205098Y-98036085D01*
X144197597Y-98029460D01*
X144144810Y-97982840D01*
X144125019Y-97963048D01*
X144107715Y-97950079D01*
X144052985Y-97901744D01*
X144052983Y-97901743D01*
X144052982Y-97901742D01*
X144026840Y-97889468D01*
X144003736Y-97872153D01*
X143935379Y-97846527D01*
X143928308Y-97843207D01*
X143869278Y-97815492D01*
X143869277Y-97815492D01*
X143869275Y-97815491D01*
X143841530Y-97811345D01*
X143813704Y-97800913D01*
X143795092Y-97799530D01*
X143730220Y-97794709D01*
X143708748Y-97791500D01*
X143687034Y-97791500D01*
X143611316Y-97785874D01*
X143584960Y-97791500D01*
X136079413Y-97791500D01*
X136057405Y-97786520D01*
X136057404Y-97786520D01*
X136030651Y-97788180D01*
X135977143Y-97791500D01*
X135949132Y-97791500D01*
X135927719Y-97794567D01*
X135863360Y-97798560D01*
X135854846Y-97799088D01*
X135827688Y-97808892D01*
X135813397Y-97810939D01*
X135799103Y-97812986D01*
X135732636Y-97843207D01*
X135663959Y-97867999D01*
X135641410Y-97884684D01*
X135614356Y-97896985D01*
X135550936Y-97951631D01*
X135533483Y-97964546D01*
X135518129Y-97979900D01*
X135460611Y-98029461D01*
X135445952Y-98052077D01*
X130055167Y-103442863D01*
X130036086Y-103454902D01*
X130036085Y-103454903D01*
X129982849Y-103515181D01*
X129963047Y-103534982D01*
X129963046Y-103534984D01*
X129950073Y-103552295D01*
X129945184Y-103557831D01*
X129901742Y-103607019D01*
X129889469Y-103633158D01*
X129875863Y-103651314D01*
X129872153Y-103656264D01*
X129846522Y-103724631D01*
X129815492Y-103790724D01*
X129811345Y-103818467D01*
X129806602Y-103831121D01*
X129800913Y-103846296D01*
X129800913Y-103846298D01*
X129794708Y-103929791D01*
X129791501Y-103951251D01*
X129791501Y-103972953D01*
X129785874Y-104048684D01*
X129791501Y-104075045D01*
X129791501Y-104410157D01*
X129773020Y-104442167D01*
X129773019Y-104442168D01*
X129653413Y-104649332D01*
X129591500Y-104880394D01*
X127133500Y-104880394D01*
X127133500Y-102651313D01*
X127226981Y-102557832D01*
X127268814Y-102485376D01*
X127291500Y-102446082D01*
X127346587Y-102350668D01*
X127408500Y-102119606D01*
X127408500Y-101880394D01*
X127346587Y-101649332D01*
X127226981Y-101442168D01*
X127226980Y-101442166D01*
X127057834Y-101273020D01*
X127002325Y-101240972D01*
X126850668Y-101153413D01*
X126619606Y-101091500D01*
X126380394Y-101091500D01*
X126149332Y-101153413D01*
X125942168Y-101273019D01*
X125942165Y-101273022D01*
X125888096Y-101304239D01*
X125846588Y-101149333D01*
X125726980Y-100942166D01*
X125557834Y-100773020D01*
X125473290Y-100724209D01*
X125350668Y-100653413D01*
X125119606Y-100591500D01*
X124880394Y-100591500D01*
X124649332Y-100653413D01*
X124526710Y-100724209D01*
X124442166Y-100773020D01*
X124273020Y-100942166D01*
X124273019Y-100942168D01*
X124153413Y-101149332D01*
X124091500Y-101380394D01*
X124091500Y-101619606D01*
X124153413Y-101850668D01*
X124170576Y-101880394D01*
X124291501Y-102089843D01*
X124291500Y-112706530D01*
X119555167Y-117442863D01*
X119536086Y-117454902D01*
X119536085Y-117454903D01*
X119482849Y-117515181D01*
X119463047Y-117534982D01*
X119451328Y-117550620D01*
X119450073Y-117552295D01*
X119446582Y-117556248D01*
X119401742Y-117607019D01*
X119389469Y-117633159D01*
X119372153Y-117656264D01*
X119346522Y-117724631D01*
X119315492Y-117790724D01*
X119311345Y-117818467D01*
X119306602Y-117831121D01*
X119300913Y-117846296D01*
X119300913Y-117846298D01*
X119294708Y-117929791D01*
X119291501Y-117951251D01*
X119291501Y-117972953D01*
X119285874Y-118048684D01*
X119290562Y-118070643D01*
X119291501Y-118075044D01*
X119291500Y-118791500D01*
X119089843Y-118791500D01*
X118850670Y-118653414D01*
X118850668Y-118653413D01*
X118619606Y-118591500D01*
X118380394Y-118591500D01*
X118149332Y-118653413D01*
X118135261Y-118661537D01*
X117942166Y-118773020D01*
X117773020Y-118942166D01*
X117773019Y-118942168D01*
X117653413Y-119149332D01*
X117591500Y-119380394D01*
X117591500Y-119591501D01*
X116987406Y-119591501D01*
X116908500Y-119512595D01*
X116908500Y-119380394D01*
X116846587Y-119149332D01*
X116726981Y-118942168D01*
X116726980Y-118942166D01*
X116557834Y-118773020D01*
X116364739Y-118661537D01*
X116350668Y-118653413D01*
X116119606Y-118591500D01*
X115880394Y-118591500D01*
X115649332Y-118653413D01*
X115635261Y-118661537D01*
X115442166Y-118773020D01*
X115273020Y-118942166D01*
X115273019Y-118942168D01*
X115153413Y-119149332D01*
X115091500Y-119380394D01*
X115091500Y-119619606D01*
X115153413Y-119850668D01*
X115235377Y-119992634D01*
X115273020Y-120057834D01*
X115291591Y-120076405D01*
X115325617Y-120138717D01*
X115320552Y-120209532D01*
X115278005Y-120266368D01*
X115202496Y-120291500D01*
X112589843Y-120291500D01*
X112350670Y-120153414D01*
X112350668Y-120153413D01*
X112119606Y-120091500D01*
X111880394Y-120091500D01*
X111649332Y-120153413D01*
X111552131Y-120209532D01*
X111442166Y-120273020D01*
X111273020Y-120442166D01*
X111186802Y-120591500D01*
X110707544Y-120591500D01*
X110791681Y-120445768D01*
X110846587Y-120350668D01*
X110908500Y-120119606D01*
X110908500Y-119880394D01*
X110846587Y-119649332D01*
X110825507Y-119612820D01*
X110708500Y-119410157D01*
X110708500Y-116089843D01*
X110846586Y-115850670D01*
X110863915Y-115786001D01*
X110908500Y-115619606D01*
X110908500Y-115380394D01*
X110846587Y-115149332D01*
X110740030Y-114964770D01*
X110726980Y-114942166D01*
X110557834Y-114773020D01*
X110496484Y-114737600D01*
X110350668Y-114653413D01*
X110119606Y-114591500D01*
X109880394Y-114591500D01*
X109649332Y-114653413D01*
X109503516Y-114737600D01*
X109442166Y-114773020D01*
X109273020Y-114942166D01*
X109259970Y-114964770D01*
X109153413Y-115149332D01*
X109091500Y-115380394D01*
X94187083Y-115380394D01*
X94130569Y-115278860D01*
X93986158Y-115099247D01*
X93813558Y-114946544D01*
X93746399Y-114904904D01*
X93617688Y-114825100D01*
X93617685Y-114825099D01*
X93525016Y-114767642D01*
X93594249Y-114726535D01*
X93594251Y-114726534D01*
X93792413Y-114608874D01*
X93967918Y-114459508D01*
X94115747Y-114282706D01*
X94154664Y-114215841D01*
X94231674Y-114083523D01*
X94312383Y-113867660D01*
X94355567Y-113641280D01*
X94358030Y-113384773D01*
X94328031Y-113209275D01*
X94319199Y-113157603D01*
X94293264Y-113083956D01*
X94242649Y-112940226D01*
X94130569Y-112738860D01*
X94104576Y-112706530D01*
X94031664Y-112615846D01*
X93986158Y-112559247D01*
X93813558Y-112406544D01*
X93813555Y-112406542D01*
X93617688Y-112285100D01*
X93617685Y-112285099D01*
X93525016Y-112227642D01*
X93792410Y-112068876D01*
X93967917Y-111919509D01*
X94115748Y-111742705D01*
X94231674Y-111543523D01*
X94312383Y-111327660D01*
X94334065Y-111214000D01*
X91663725Y-111214000D01*
X91710186Y-111400345D01*
X91802820Y-111611369D01*
X91929683Y-111803768D01*
X92087153Y-111972044D01*
X92270721Y-112111379D01*
X92462493Y-112211206D01*
X92194619Y-112406544D01*
X92106749Y-112470620D01*
X91946080Y-112635839D01*
X91815545Y-112825768D01*
X91718878Y-113034975D01*
X91658842Y-113257479D01*
X91637154Y-113486917D01*
X90508500Y-113486917D01*
X90508500Y-105030000D01*
X91634163Y-105030000D01*
X91634163Y-106730000D01*
X91681436Y-106906427D01*
X91703272Y-106987919D01*
X91818426Y-107125155D01*
X91973572Y-107214728D01*
X91980782Y-107215999D01*
X91998910Y-107219196D01*
X92062521Y-107250722D01*
X92098991Y-107311635D01*
X92096739Y-107382596D01*
X92067362Y-107431122D01*
X91946080Y-107555839D01*
X91815545Y-107745768D01*
X91718878Y-107954975D01*
X91658842Y-108177479D01*
X91637154Y-108406917D01*
X91637154Y-108406920D01*
X91654432Y-108636728D01*
X91710186Y-108860345D01*
X91802820Y-109071369D01*
X91929683Y-109263768D01*
X92087153Y-109432044D01*
X92214725Y-109528876D01*
X92270721Y-109571379D01*
X92462491Y-109671208D01*
X92106753Y-109930617D01*
X91946079Y-110095841D01*
X91815546Y-110285768D01*
X91718877Y-110494977D01*
X91661938Y-110706000D01*
X94334308Y-110706000D01*
X94319198Y-110617600D01*
X94242649Y-110400226D01*
X94130569Y-110198860D01*
X93986158Y-110019247D01*
X93813558Y-109866544D01*
X93525016Y-109687642D01*
X93594249Y-109646535D01*
X93594251Y-109646534D01*
X93782143Y-109534972D01*
X93792410Y-109528876D01*
X93792411Y-109528875D01*
X93792413Y-109528874D01*
X93967918Y-109379508D01*
X94115747Y-109202706D01*
X94154665Y-109135839D01*
X94231674Y-109003523D01*
X94312383Y-108787660D01*
X94355567Y-108561280D01*
X94358030Y-108304773D01*
X94319198Y-108077600D01*
X94242649Y-107860226D01*
X94130569Y-107658860D01*
X94127101Y-107654546D01*
X93986160Y-107479250D01*
X93986158Y-107479247D01*
X93927640Y-107427475D01*
X93889874Y-107367357D01*
X93890606Y-107296364D01*
X93929604Y-107237037D01*
X93978517Y-107211401D01*
X94107919Y-107176728D01*
X94131680Y-107156790D01*
X94245155Y-107061574D01*
X94334728Y-106906428D01*
X94365837Y-106729999D01*
X94365837Y-105030001D01*
X94362043Y-105015839D01*
X94324613Y-104876149D01*
X94296728Y-104772081D01*
X94181574Y-104634845D01*
X94026428Y-104545272D01*
X93933617Y-104528907D01*
X93850000Y-104514163D01*
X92150000Y-104514163D01*
X92135494Y-104518050D01*
X91892081Y-104583272D01*
X91754845Y-104698426D01*
X91665272Y-104853572D01*
X91653433Y-104920713D01*
X91634163Y-105030000D01*
X90508500Y-105030000D01*
X90508500Y-102880394D01*
X109091500Y-102880394D01*
X109091500Y-103119606D01*
X109153413Y-103350668D01*
X109196465Y-103425236D01*
X109269825Y-103552299D01*
X109273019Y-103557832D01*
X109366501Y-103651314D01*
X109366500Y-105848687D01*
X109273019Y-105942168D01*
X109153413Y-106149332D01*
X109091500Y-106380394D01*
X109091500Y-106619606D01*
X109153413Y-106850668D01*
X109232655Y-106987919D01*
X109273020Y-107057834D01*
X109442166Y-107226980D01*
X109483289Y-107250722D01*
X109649332Y-107346587D01*
X109880394Y-107408500D01*
X110119606Y-107408500D01*
X110350668Y-107346587D01*
X110516711Y-107250722D01*
X110557834Y-107226980D01*
X110726980Y-107057834D01*
X110767345Y-106987919D01*
X110846587Y-106850668D01*
X110908500Y-106619606D01*
X110908500Y-106380394D01*
X110846587Y-106149332D01*
X110726981Y-105942168D01*
X110633500Y-105848687D01*
X110633500Y-103651313D01*
X110726981Y-103557832D01*
X110730176Y-103552299D01*
X110803535Y-103425236D01*
X110846587Y-103350668D01*
X110908500Y-103119606D01*
X110908500Y-102880394D01*
X110846587Y-102649332D01*
X110726981Y-102442168D01*
X110726980Y-102442166D01*
X110557834Y-102273020D01*
X110495497Y-102237030D01*
X110350668Y-102153413D01*
X110119606Y-102091500D01*
X109880394Y-102091500D01*
X109649332Y-102153413D01*
X109504503Y-102237030D01*
X109442166Y-102273020D01*
X109273020Y-102442166D01*
X109273019Y-102442168D01*
X109153413Y-102649332D01*
X109091500Y-102880394D01*
X90508500Y-102880394D01*
X90508500Y-94121631D01*
X102890579Y-94121631D01*
X102905258Y-94237827D01*
X102926602Y-94406784D01*
X103000993Y-94684413D01*
X103112373Y-94949377D01*
X103258683Y-95196774D01*
X103437215Y-95422025D01*
X103636799Y-95613418D01*
X103644666Y-95620963D01*
X103702165Y-95662738D01*
X103877195Y-95789905D01*
X104130501Y-95925727D01*
X104201384Y-95952088D01*
X104399890Y-96025912D01*
X104399894Y-96025913D01*
X104399897Y-96025914D01*
X104680397Y-96088613D01*
X104966812Y-96112664D01*
X104966814Y-96112664D01*
X105253839Y-96097623D01*
X105536169Y-96043765D01*
X105738339Y-95975727D01*
X105808581Y-95952088D01*
X106066029Y-95824290D01*
X106119897Y-95787681D01*
X106303748Y-95662738D01*
X106461816Y-95520412D01*
X106517347Y-95470412D01*
X106702866Y-95250879D01*
X106702868Y-95250877D01*
X106856874Y-95008204D01*
X106976524Y-94746864D01*
X107059596Y-94471715D01*
X107069880Y-94406784D01*
X107104560Y-94187827D01*
X107104729Y-94171631D01*
X110390579Y-94171631D01*
X110426601Y-94456777D01*
X110426602Y-94456784D01*
X110500993Y-94734413D01*
X110612373Y-94999377D01*
X110758683Y-95246774D01*
X110937215Y-95472025D01*
X111136086Y-95662735D01*
X111144666Y-95670963D01*
X111202165Y-95712738D01*
X111377195Y-95839905D01*
X111630501Y-95975727D01*
X111701384Y-96002088D01*
X111899890Y-96075912D01*
X111899894Y-96075913D01*
X111899897Y-96075914D01*
X112180397Y-96138613D01*
X112466812Y-96162664D01*
X112466814Y-96162664D01*
X112753839Y-96147623D01*
X113036169Y-96093765D01*
X113089218Y-96075912D01*
X113308581Y-96002088D01*
X113566029Y-95874290D01*
X113690197Y-95789906D01*
X113803748Y-95712738D01*
X113859278Y-95662738D01*
X114017347Y-95520412D01*
X114202866Y-95300879D01*
X114202868Y-95300877D01*
X114356874Y-95058204D01*
X114476524Y-94796864D01*
X114559596Y-94521715D01*
X114559597Y-94521711D01*
X114604560Y-94237827D01*
X114605776Y-94121631D01*
X117890579Y-94121631D01*
X117905258Y-94237827D01*
X117926602Y-94406784D01*
X118000993Y-94684413D01*
X118112373Y-94949377D01*
X118258683Y-95196774D01*
X118437215Y-95422025D01*
X118636799Y-95613418D01*
X118644666Y-95620963D01*
X118702165Y-95662738D01*
X118877195Y-95789905D01*
X119130501Y-95925727D01*
X119201384Y-95952088D01*
X119399890Y-96025912D01*
X119399894Y-96025913D01*
X119399897Y-96025914D01*
X119680397Y-96088613D01*
X119966812Y-96112664D01*
X119966814Y-96112664D01*
X120253839Y-96097623D01*
X120536169Y-96043765D01*
X120738339Y-95975727D01*
X120808581Y-95952088D01*
X121066029Y-95824290D01*
X121119897Y-95787681D01*
X121303748Y-95662738D01*
X121461816Y-95520412D01*
X121517347Y-95470412D01*
X121702866Y-95250879D01*
X121702868Y-95250877D01*
X121856874Y-95008204D01*
X121976524Y-94746864D01*
X122059596Y-94471715D01*
X122069880Y-94406784D01*
X122104560Y-94187827D01*
X122108032Y-93856289D01*
X122069024Y-93571526D01*
X121991731Y-93294691D01*
X121982723Y-93273873D01*
X121877583Y-93030910D01*
X121758970Y-92835057D01*
X121728689Y-92785057D01*
X121728688Y-92785055D01*
X121728685Y-92785051D01*
X121547811Y-92561691D01*
X121338287Y-92364935D01*
X121318695Y-92351011D01*
X121104000Y-92198435D01*
X120849286Y-92065274D01*
X120578855Y-91967913D01*
X120297714Y-91908154D01*
X120011063Y-91887104D01*
X120011058Y-91887104D01*
X119772017Y-91902143D01*
X119724208Y-91905151D01*
X119442456Y-91961963D01*
X119171021Y-92056486D01*
X118914926Y-92186973D01*
X118678906Y-92351011D01*
X118467340Y-92545556D01*
X118467338Y-92545558D01*
X118412631Y-92611688D01*
X118284129Y-92767019D01*
X118132670Y-93011298D01*
X118015762Y-93273877D01*
X117935576Y-93549883D01*
X117893588Y-93834221D01*
X117890579Y-94121631D01*
X114605776Y-94121631D01*
X114608032Y-93906289D01*
X114569024Y-93621526D01*
X114491731Y-93344691D01*
X114482723Y-93323873D01*
X114377583Y-93080910D01*
X114335425Y-93011299D01*
X114228689Y-92835057D01*
X114228688Y-92835055D01*
X114228685Y-92835051D01*
X114047811Y-92611691D01*
X113994567Y-92561691D01*
X113838286Y-92414934D01*
X113604000Y-92248435D01*
X113349286Y-92115274D01*
X113078855Y-92017913D01*
X112797714Y-91958154D01*
X112511063Y-91937104D01*
X112511058Y-91937104D01*
X112272017Y-91952143D01*
X112224208Y-91955151D01*
X111942456Y-92011963D01*
X111671021Y-92106486D01*
X111490561Y-92198435D01*
X111414926Y-92236973D01*
X111178906Y-92401011D01*
X110967340Y-92595556D01*
X110784129Y-92817019D01*
X110632670Y-93061298D01*
X110515762Y-93323877D01*
X110435576Y-93599883D01*
X110393588Y-93884221D01*
X110390579Y-94171631D01*
X107104729Y-94171631D01*
X107108032Y-93856289D01*
X107069024Y-93571526D01*
X106991731Y-93294691D01*
X106982723Y-93273873D01*
X106877583Y-93030910D01*
X106758970Y-92835057D01*
X106728689Y-92785057D01*
X106728688Y-92785055D01*
X106728685Y-92785051D01*
X106547811Y-92561691D01*
X106338287Y-92364935D01*
X106318695Y-92351011D01*
X106104000Y-92198435D01*
X105849286Y-92065274D01*
X105578855Y-91967913D01*
X105297714Y-91908154D01*
X105011063Y-91887104D01*
X105011058Y-91887104D01*
X104772017Y-91902143D01*
X104724208Y-91905151D01*
X104442456Y-91961963D01*
X104171021Y-92056486D01*
X103914926Y-92186973D01*
X103678906Y-92351011D01*
X103467340Y-92545556D01*
X103467338Y-92545558D01*
X103412631Y-92611688D01*
X103284129Y-92767019D01*
X103132670Y-93011298D01*
X103015762Y-93273877D01*
X102935576Y-93549883D01*
X102893588Y-93834221D01*
X102890579Y-94121631D01*
X90508500Y-94121631D01*
X90508500Y-82049842D01*
X90513025Y-82026889D01*
X90513070Y-82025912D01*
X90513315Y-82020617D01*
X90514612Y-81988344D01*
X90531814Y-81560037D01*
X90584710Y-81122922D01*
X90584972Y-81121631D01*
X92890579Y-81121631D01*
X92906907Y-81250879D01*
X92926602Y-81406784D01*
X93000993Y-81684413D01*
X93112373Y-81949377D01*
X93258683Y-82196774D01*
X93437215Y-82422025D01*
X93487671Y-82470410D01*
X93644666Y-82620963D01*
X93702165Y-82662738D01*
X93877195Y-82789905D01*
X94130501Y-82925727D01*
X94201384Y-82952088D01*
X94399890Y-83025912D01*
X94399894Y-83025913D01*
X94399897Y-83025914D01*
X94680397Y-83088613D01*
X94966812Y-83112664D01*
X94966814Y-83112664D01*
X95253839Y-83097623D01*
X95536169Y-83043765D01*
X95589218Y-83025912D01*
X95808581Y-82952088D01*
X96066029Y-82824290D01*
X96119897Y-82787681D01*
X96303748Y-82662738D01*
X96350145Y-82620962D01*
X96517347Y-82470412D01*
X96702866Y-82250879D01*
X96702868Y-82250877D01*
X96856874Y-82008204D01*
X96976524Y-81746864D01*
X97059596Y-81471715D01*
X97059597Y-81471711D01*
X97104560Y-81187827D01*
X97108032Y-80856289D01*
X97094021Y-80754000D01*
X100084163Y-80754000D01*
X100084163Y-81399999D01*
X100153272Y-81657919D01*
X100268426Y-81795155D01*
X100423572Y-81884728D01*
X100600001Y-81915837D01*
X101246000Y-81915837D01*
X101246000Y-80754000D01*
X100084163Y-80754000D01*
X97094021Y-80754000D01*
X97069024Y-80571526D01*
X97008369Y-80354282D01*
X96991731Y-80294690D01*
X96877583Y-80030910D01*
X96869676Y-80017854D01*
X96728689Y-79785057D01*
X96728688Y-79785055D01*
X96728685Y-79785051D01*
X96578834Y-79600001D01*
X100084163Y-79600001D01*
X100084163Y-80246000D01*
X101246000Y-80246000D01*
X101246000Y-79084163D01*
X101754000Y-79084163D01*
X101754000Y-81915837D01*
X102399999Y-81915837D01*
X102657919Y-81846728D01*
X102795155Y-81731574D01*
X102974086Y-81421653D01*
X103093540Y-81549303D01*
X103093542Y-81549305D01*
X103283870Y-81693772D01*
X103495818Y-81804105D01*
X103495821Y-81804106D01*
X103495823Y-81804107D01*
X103723323Y-81877149D01*
X103959887Y-81910817D01*
X103959888Y-81910817D01*
X104198741Y-81904146D01*
X104433055Y-81857325D01*
X104460661Y-81846728D01*
X104656130Y-81771695D01*
X104749651Y-81716166D01*
X104861589Y-81649702D01*
X105043556Y-81494836D01*
X105196828Y-81311525D01*
X105317023Y-81105010D01*
X105317024Y-81105008D01*
X105400704Y-80881193D01*
X105445477Y-80646482D01*
X105448030Y-80380530D01*
X105448030Y-80380527D01*
X105407770Y-80144997D01*
X105399542Y-80121631D01*
X133890579Y-80121631D01*
X133920301Y-80356904D01*
X133926602Y-80406784D01*
X134000993Y-80684413D01*
X134112373Y-80949377D01*
X134258683Y-81196774D01*
X134437215Y-81422025D01*
X134569940Y-81549303D01*
X134644666Y-81620963D01*
X134702165Y-81662738D01*
X134877195Y-81789905D01*
X135130501Y-81925727D01*
X135201384Y-81952088D01*
X135399890Y-82025912D01*
X135399894Y-82025913D01*
X135399897Y-82025914D01*
X135680397Y-82088613D01*
X135966812Y-82112664D01*
X135966814Y-82112664D01*
X136253839Y-82097623D01*
X136536169Y-82043765D01*
X136589218Y-82025912D01*
X136808581Y-81952088D01*
X137066029Y-81824290D01*
X137167095Y-81755606D01*
X137303748Y-81662738D01*
X137350145Y-81620962D01*
X137517347Y-81470412D01*
X137702866Y-81250879D01*
X137702868Y-81250877D01*
X137856874Y-81008204D01*
X137976524Y-80746864D01*
X138059596Y-80471715D01*
X138059597Y-80471711D01*
X138104560Y-80187827D01*
X138108032Y-79856289D01*
X138069024Y-79571526D01*
X137991731Y-79294691D01*
X137982723Y-79273873D01*
X137877583Y-79030910D01*
X137865706Y-79011298D01*
X137728689Y-78785057D01*
X137728688Y-78785055D01*
X137728685Y-78785051D01*
X137547811Y-78561691D01*
X137526026Y-78541233D01*
X137338286Y-78364934D01*
X137104000Y-78198435D01*
X136849286Y-78065274D01*
X136578855Y-77967913D01*
X136297714Y-77908154D01*
X136011063Y-77887104D01*
X136011058Y-77887104D01*
X135772017Y-77902143D01*
X135724208Y-77905151D01*
X135442456Y-77961963D01*
X135171021Y-78056486D01*
X134987490Y-78150000D01*
X134914926Y-78186973D01*
X134678906Y-78351011D01*
X134472041Y-78541233D01*
X134467338Y-78545558D01*
X134453994Y-78561688D01*
X134284129Y-78767019D01*
X134132670Y-79011298D01*
X134015762Y-79273877D01*
X133963762Y-79452866D01*
X133935576Y-79549883D01*
X133893588Y-79834222D01*
X133890825Y-80098180D01*
X133890579Y-80121631D01*
X105399542Y-80121631D01*
X105367594Y-80030910D01*
X105328402Y-79919616D01*
X105212194Y-79710832D01*
X105062472Y-79524616D01*
X105039599Y-79504379D01*
X104883509Y-79366282D01*
X104680430Y-79240368D01*
X104459040Y-79150471D01*
X104225668Y-79099161D01*
X104146108Y-79095409D01*
X103986989Y-79087905D01*
X103986987Y-79087905D01*
X103749822Y-79117025D01*
X103520954Y-79185689D01*
X103306927Y-79291933D01*
X103113861Y-79432719D01*
X103079391Y-79468166D01*
X103078105Y-79469488D01*
X103016274Y-79504379D01*
X102945394Y-79500304D01*
X102887970Y-79458555D01*
X102866067Y-79414256D01*
X102846728Y-79342082D01*
X102731574Y-79204845D01*
X102576428Y-79115272D01*
X102399999Y-79084163D01*
X101754000Y-79084163D01*
X101246000Y-79084163D01*
X100600001Y-79084163D01*
X100342081Y-79153272D01*
X100204845Y-79268426D01*
X100115272Y-79423572D01*
X100084163Y-79600001D01*
X96578834Y-79600001D01*
X96547811Y-79561691D01*
X96482441Y-79500304D01*
X96338286Y-79364934D01*
X96104000Y-79198435D01*
X95849286Y-79065274D01*
X95578855Y-78967913D01*
X95297714Y-78908154D01*
X95011063Y-78887104D01*
X95011058Y-78887104D01*
X94772017Y-78902143D01*
X94724208Y-78905151D01*
X94442456Y-78961963D01*
X94171021Y-79056486D01*
X94052207Y-79117025D01*
X93914926Y-79186973D01*
X93678906Y-79351011D01*
X93490112Y-79524616D01*
X93467338Y-79545558D01*
X93445853Y-79571529D01*
X93284129Y-79767019D01*
X93132670Y-80011298D01*
X93015762Y-80273877D01*
X92964270Y-80451116D01*
X92935576Y-80549883D01*
X92893588Y-80834222D01*
X92891767Y-81008204D01*
X92890579Y-81121631D01*
X90584972Y-81121631D01*
X90607102Y-81012862D01*
X90672497Y-80691437D01*
X90794602Y-80268397D01*
X90950243Y-79856503D01*
X91138416Y-79458421D01*
X91357907Y-79076713D01*
X91414054Y-78995020D01*
X91607304Y-78713840D01*
X91885001Y-78372134D01*
X91954228Y-78299692D01*
X92189206Y-78053803D01*
X92517970Y-77760887D01*
X92869147Y-77495293D01*
X93240505Y-77258712D01*
X93629642Y-77052676D01*
X93867486Y-76950243D01*
X94034047Y-76878510D01*
X94067509Y-76867184D01*
X94451116Y-76737341D01*
X94878177Y-76630071D01*
X95149246Y-76584710D01*
X95312435Y-76557402D01*
X95755608Y-76519408D01*
X96011659Y-76513597D01*
X96034623Y-76509774D01*
X96042279Y-76508500D01*
X162491501Y-76508500D01*
X162491500Y-86991761D01*
G37*
G04 #@! TD.AperFunction*
M02*
