G04 #@! TF.GenerationSoftware,KiCad,Pcbnew,5.99.0-unknown-15c4a7b06~104~ubuntu18.04.1*
G04 #@! TF.CreationDate,2020-09-30T21:22:09+01:00*
G04 #@! TF.ProjectId,nesta proto 2.1,6e657374-6120-4707-926f-746f20322e31,rev?*
G04 #@! TF.SameCoordinates,Original*
G04 #@! TF.FileFunction,Legend,Top*
G04 #@! TF.FilePolarity,Positive*
%FSLAX46Y46*%
G04 Gerber Fmt 4.6, Leading zero omitted, Abs format (unit mm)*
G04 Created by KiCad (PCBNEW 5.99.0-unknown-15c4a7b06~104~ubuntu18.04.1) date 2020-09-30 21:22:09*
%MOMM*%
%LPD*%
G01*
G04 APERTURE LIST*
%ADD10C,0.150000*%
%ADD11C,0.120000*%
G04 APERTURE END LIST*
D10*
X206302380Y-93666666D02*
X205826190Y-94000000D01*
X206302380Y-94238095D02*
X205302380Y-94238095D01*
X205302380Y-93857142D01*
X205350000Y-93761904D01*
X205397619Y-93714285D01*
X205492857Y-93666666D01*
X205635714Y-93666666D01*
X205730952Y-93714285D01*
X205778571Y-93761904D01*
X205826190Y-93857142D01*
X205826190Y-94238095D01*
X205302380Y-93333333D02*
X205302380Y-92666666D01*
X206302380Y-93095238D01*
X198557142Y-111002380D02*
X198223809Y-110526190D01*
X197985714Y-111002380D02*
X197985714Y-110002380D01*
X198366666Y-110002380D01*
X198461904Y-110050000D01*
X198509523Y-110097619D01*
X198557142Y-110192857D01*
X198557142Y-110335714D01*
X198509523Y-110430952D01*
X198461904Y-110478571D01*
X198366666Y-110526190D01*
X197985714Y-110526190D01*
X199509523Y-111002380D02*
X198938095Y-111002380D01*
X199223809Y-111002380D02*
X199223809Y-110002380D01*
X199128571Y-110145238D01*
X199033333Y-110240476D01*
X198938095Y-110288095D01*
X200461904Y-111002380D02*
X199890476Y-111002380D01*
X200176190Y-111002380D02*
X200176190Y-110002380D01*
X200080952Y-110145238D01*
X199985714Y-110240476D01*
X199890476Y-110288095D01*
X103761904Y-129252380D02*
X103761904Y-128252380D01*
X103761904Y-128728571D02*
X104333333Y-128728571D01*
X104333333Y-129252380D02*
X104333333Y-128252380D01*
X105333333Y-129252380D02*
X104761904Y-129252380D01*
X105047619Y-129252380D02*
X105047619Y-128252380D01*
X104952380Y-128395238D01*
X104857142Y-128490476D01*
X104761904Y-128538095D01*
X106190476Y-128252380D02*
X106000000Y-128252380D01*
X105904761Y-128300000D01*
X105857142Y-128347619D01*
X105761904Y-128490476D01*
X105714285Y-128680952D01*
X105714285Y-129061904D01*
X105761904Y-129157142D01*
X105809523Y-129204761D01*
X105904761Y-129252380D01*
X106095238Y-129252380D01*
X106190476Y-129204761D01*
X106238095Y-129157142D01*
X106285714Y-129061904D01*
X106285714Y-128823809D01*
X106238095Y-128728571D01*
X106190476Y-128680952D01*
X106095238Y-128633333D01*
X105904761Y-128633333D01*
X105809523Y-128680952D01*
X105761904Y-128728571D01*
X105714285Y-128823809D01*
X204238095Y-142252380D02*
X204238095Y-141252380D01*
X204238095Y-141728571D02*
X204809523Y-141728571D01*
X204809523Y-142252380D02*
X204809523Y-141252380D01*
X205714285Y-141252380D02*
X205523809Y-141252380D01*
X205428571Y-141300000D01*
X205380952Y-141347619D01*
X205285714Y-141490476D01*
X205238095Y-141680952D01*
X205238095Y-142061904D01*
X205285714Y-142157142D01*
X205333333Y-142204761D01*
X205428571Y-142252380D01*
X205619047Y-142252380D01*
X205714285Y-142204761D01*
X205761904Y-142157142D01*
X205809523Y-142061904D01*
X205809523Y-141823809D01*
X205761904Y-141728571D01*
X205714285Y-141680952D01*
X205619047Y-141633333D01*
X205428571Y-141633333D01*
X205333333Y-141680952D01*
X205285714Y-141728571D01*
X205238095Y-141823809D01*
X198582142Y-109002380D02*
X198248809Y-108526190D01*
X198010714Y-109002380D02*
X198010714Y-108002380D01*
X198391666Y-108002380D01*
X198486904Y-108050000D01*
X198534523Y-108097619D01*
X198582142Y-108192857D01*
X198582142Y-108335714D01*
X198534523Y-108430952D01*
X198486904Y-108478571D01*
X198391666Y-108526190D01*
X198010714Y-108526190D01*
X199534523Y-109002380D02*
X198963095Y-109002380D01*
X199248809Y-109002380D02*
X199248809Y-108002380D01*
X199153571Y-108145238D01*
X199058333Y-108240476D01*
X198963095Y-108288095D01*
X199867857Y-108002380D02*
X200486904Y-108002380D01*
X200153571Y-108383333D01*
X200296428Y-108383333D01*
X200391666Y-108430952D01*
X200439285Y-108478571D01*
X200486904Y-108573809D01*
X200486904Y-108811904D01*
X200439285Y-108907142D01*
X200391666Y-108954761D01*
X200296428Y-109002380D01*
X200010714Y-109002380D01*
X199915476Y-108954761D01*
X199867857Y-108907142D01*
X94238095Y-77252380D02*
X94238095Y-76252380D01*
X94238095Y-76728571D02*
X94809523Y-76728571D01*
X94809523Y-77252380D02*
X94809523Y-76252380D01*
X95809523Y-77252380D02*
X95238095Y-77252380D01*
X95523809Y-77252380D02*
X95523809Y-76252380D01*
X95428571Y-76395238D01*
X95333333Y-76490476D01*
X95238095Y-76538095D01*
X111261904Y-90302380D02*
X111261904Y-89302380D01*
X111261904Y-89778571D02*
X111833333Y-89778571D01*
X111833333Y-90302380D02*
X111833333Y-89302380D01*
X112833333Y-90302380D02*
X112261904Y-90302380D01*
X112547619Y-90302380D02*
X112547619Y-89302380D01*
X112452380Y-89445238D01*
X112357142Y-89540476D01*
X112261904Y-89588095D01*
X113214285Y-89397619D02*
X113261904Y-89350000D01*
X113357142Y-89302380D01*
X113595238Y-89302380D01*
X113690476Y-89350000D01*
X113738095Y-89397619D01*
X113785714Y-89492857D01*
X113785714Y-89588095D01*
X113738095Y-89730952D01*
X113166666Y-90302380D01*
X113785714Y-90302380D01*
X102802380Y-85166666D02*
X102326190Y-85500000D01*
X102802380Y-85738095D02*
X101802380Y-85738095D01*
X101802380Y-85357142D01*
X101850000Y-85261904D01*
X101897619Y-85214285D01*
X101992857Y-85166666D01*
X102135714Y-85166666D01*
X102230952Y-85214285D01*
X102278571Y-85261904D01*
X102326190Y-85357142D01*
X102326190Y-85738095D01*
X101802380Y-84261904D02*
X101802380Y-84738095D01*
X102278571Y-84785714D01*
X102230952Y-84738095D01*
X102183333Y-84642857D01*
X102183333Y-84404761D01*
X102230952Y-84309523D01*
X102278571Y-84261904D01*
X102373809Y-84214285D01*
X102611904Y-84214285D01*
X102707142Y-84261904D01*
X102754761Y-84309523D01*
X102802380Y-84404761D01*
X102802380Y-84642857D01*
X102754761Y-84738095D01*
X102707142Y-84785714D01*
X106602380Y-142229166D02*
X106126190Y-142562500D01*
X106602380Y-142800595D02*
X105602380Y-142800595D01*
X105602380Y-142419642D01*
X105650000Y-142324404D01*
X105697619Y-142276785D01*
X105792857Y-142229166D01*
X105935714Y-142229166D01*
X106030952Y-142276785D01*
X106078571Y-142324404D01*
X106126190Y-142419642D01*
X106126190Y-142800595D01*
X105935714Y-141372023D02*
X106602380Y-141372023D01*
X105554761Y-141610119D02*
X106269047Y-141848214D01*
X106269047Y-141229166D01*
X176761904Y-109252380D02*
X176761904Y-108252380D01*
X176761904Y-108728571D02*
X177333333Y-108728571D01*
X177333333Y-109252380D02*
X177333333Y-108252380D01*
X178333333Y-109252380D02*
X177761904Y-109252380D01*
X178047619Y-109252380D02*
X178047619Y-108252380D01*
X177952380Y-108395238D01*
X177857142Y-108490476D01*
X177761904Y-108538095D01*
X178809523Y-109252380D02*
X179000000Y-109252380D01*
X179095238Y-109204761D01*
X179142857Y-109157142D01*
X179238095Y-109014285D01*
X179285714Y-108823809D01*
X179285714Y-108442857D01*
X179238095Y-108347619D01*
X179190476Y-108300000D01*
X179095238Y-108252380D01*
X178904761Y-108252380D01*
X178809523Y-108300000D01*
X178761904Y-108347619D01*
X178714285Y-108442857D01*
X178714285Y-108680952D01*
X178761904Y-108776190D01*
X178809523Y-108823809D01*
X178904761Y-108871428D01*
X179095238Y-108871428D01*
X179190476Y-108823809D01*
X179238095Y-108776190D01*
X179285714Y-108680952D01*
X176761904Y-114752380D02*
X176761904Y-113752380D01*
X176761904Y-114228571D02*
X177333333Y-114228571D01*
X177333333Y-114752380D02*
X177333333Y-113752380D01*
X178333333Y-114752380D02*
X177761904Y-114752380D01*
X178047619Y-114752380D02*
X178047619Y-113752380D01*
X177952380Y-113895238D01*
X177857142Y-113990476D01*
X177761904Y-114038095D01*
X178666666Y-113752380D02*
X179333333Y-113752380D01*
X178904761Y-114752380D01*
X118761904Y-129252380D02*
X118761904Y-128252380D01*
X118761904Y-128728571D02*
X119333333Y-128728571D01*
X119333333Y-129252380D02*
X119333333Y-128252380D01*
X120333333Y-129252380D02*
X119761904Y-129252380D01*
X120047619Y-129252380D02*
X120047619Y-128252380D01*
X119952380Y-128395238D01*
X119857142Y-128490476D01*
X119761904Y-128538095D01*
X121190476Y-128585714D02*
X121190476Y-129252380D01*
X120952380Y-128204761D02*
X120714285Y-128919047D01*
X121333333Y-128919047D01*
X102031904Y-77492380D02*
X102031904Y-76492380D01*
X102270000Y-76492380D01*
X102412857Y-76540000D01*
X102508095Y-76635238D01*
X102555714Y-76730476D01*
X102603333Y-76920952D01*
X102603333Y-77063809D01*
X102555714Y-77254285D01*
X102508095Y-77349523D01*
X102412857Y-77444761D01*
X102270000Y-77492380D01*
X102031904Y-77492380D01*
X102984285Y-76587619D02*
X103031904Y-76540000D01*
X103127142Y-76492380D01*
X103365238Y-76492380D01*
X103460476Y-76540000D01*
X103508095Y-76587619D01*
X103555714Y-76682857D01*
X103555714Y-76778095D01*
X103508095Y-76920952D01*
X102936666Y-77492380D01*
X103555714Y-77492380D01*
X135238095Y-143252380D02*
X135238095Y-142252380D01*
X135238095Y-142728571D02*
X135809523Y-142728571D01*
X135809523Y-143252380D02*
X135809523Y-142252380D01*
X136714285Y-142585714D02*
X136714285Y-143252380D01*
X136476190Y-142204761D02*
X136238095Y-142919047D01*
X136857142Y-142919047D01*
X103761904Y-90252380D02*
X103761904Y-89252380D01*
X103761904Y-89728571D02*
X104333333Y-89728571D01*
X104333333Y-90252380D02*
X104333333Y-89252380D01*
X105333333Y-90252380D02*
X104761904Y-90252380D01*
X105047619Y-90252380D02*
X105047619Y-89252380D01*
X104952380Y-89395238D01*
X104857142Y-89490476D01*
X104761904Y-89538095D01*
X105666666Y-89252380D02*
X106285714Y-89252380D01*
X105952380Y-89633333D01*
X106095238Y-89633333D01*
X106190476Y-89680952D01*
X106238095Y-89728571D01*
X106285714Y-89823809D01*
X106285714Y-90061904D01*
X106238095Y-90157142D01*
X106190476Y-90204761D01*
X106095238Y-90252380D01*
X105809523Y-90252380D01*
X105714285Y-90204761D01*
X105666666Y-90157142D01*
X209602380Y-133229166D02*
X209126190Y-133562500D01*
X209602380Y-133800595D02*
X208602380Y-133800595D01*
X208602380Y-133419642D01*
X208650000Y-133324404D01*
X208697619Y-133276785D01*
X208792857Y-133229166D01*
X208935714Y-133229166D01*
X209030952Y-133276785D01*
X209078571Y-133324404D01*
X209126190Y-133419642D01*
X209126190Y-133800595D01*
X208602380Y-132372023D02*
X208602380Y-132562500D01*
X208650000Y-132657738D01*
X208697619Y-132705357D01*
X208840476Y-132800595D01*
X209030952Y-132848214D01*
X209411904Y-132848214D01*
X209507142Y-132800595D01*
X209554761Y-132752976D01*
X209602380Y-132657738D01*
X209602380Y-132467261D01*
X209554761Y-132372023D01*
X209507142Y-132324404D01*
X209411904Y-132276785D01*
X209173809Y-132276785D01*
X209078571Y-132324404D01*
X209030952Y-132372023D01*
X208983333Y-132467261D01*
X208983333Y-132657738D01*
X209030952Y-132752976D01*
X209078571Y-132800595D01*
X209173809Y-132848214D01*
X120852380Y-113761904D02*
X121661904Y-113761904D01*
X121757142Y-113714285D01*
X121804761Y-113666666D01*
X121852380Y-113571428D01*
X121852380Y-113380952D01*
X121804761Y-113285714D01*
X121757142Y-113238095D01*
X121661904Y-113190476D01*
X120852380Y-113190476D01*
X120947619Y-112761904D02*
X120900000Y-112714285D01*
X120852380Y-112619047D01*
X120852380Y-112380952D01*
X120900000Y-112285714D01*
X120947619Y-112238095D01*
X121042857Y-112190476D01*
X121138095Y-112190476D01*
X121280952Y-112238095D01*
X121852380Y-112809523D01*
X121852380Y-112190476D01*
X145666666Y-107122380D02*
X145666666Y-107836666D01*
X145619047Y-107979523D01*
X145523809Y-108074761D01*
X145380952Y-108122380D01*
X145285714Y-108122380D01*
X146285714Y-107550952D02*
X146190476Y-107503333D01*
X146142857Y-107455714D01*
X146095238Y-107360476D01*
X146095238Y-107312857D01*
X146142857Y-107217619D01*
X146190476Y-107170000D01*
X146285714Y-107122380D01*
X146476190Y-107122380D01*
X146571428Y-107170000D01*
X146619047Y-107217619D01*
X146666666Y-107312857D01*
X146666666Y-107360476D01*
X146619047Y-107455714D01*
X146571428Y-107503333D01*
X146476190Y-107550952D01*
X146285714Y-107550952D01*
X146190476Y-107598571D01*
X146142857Y-107646190D01*
X146095238Y-107741428D01*
X146095238Y-107931904D01*
X146142857Y-108027142D01*
X146190476Y-108074761D01*
X146285714Y-108122380D01*
X146476190Y-108122380D01*
X146571428Y-108074761D01*
X146619047Y-108027142D01*
X146666666Y-107931904D01*
X146666666Y-107741428D01*
X146619047Y-107646190D01*
X146571428Y-107598571D01*
X146476190Y-107550952D01*
X160477619Y-78666666D02*
X159763333Y-78666666D01*
X159620476Y-78619047D01*
X159525238Y-78523809D01*
X159477619Y-78380952D01*
X159477619Y-78285714D01*
X160477619Y-79619047D02*
X160477619Y-79142857D01*
X160001428Y-79095238D01*
X160049047Y-79142857D01*
X160096666Y-79238095D01*
X160096666Y-79476190D01*
X160049047Y-79571428D01*
X160001428Y-79619047D01*
X159906190Y-79666666D01*
X159668095Y-79666666D01*
X159572857Y-79619047D01*
X159525238Y-79571428D01*
X159477619Y-79476190D01*
X159477619Y-79238095D01*
X159525238Y-79142857D01*
X159572857Y-79095238D01*
X101991904Y-143992380D02*
X101991904Y-142992380D01*
X102230000Y-142992380D01*
X102372857Y-143040000D01*
X102468095Y-143135238D01*
X102515714Y-143230476D01*
X102563333Y-143420952D01*
X102563333Y-143563809D01*
X102515714Y-143754285D01*
X102468095Y-143849523D01*
X102372857Y-143944761D01*
X102230000Y-143992380D01*
X101991904Y-143992380D01*
X103515714Y-143992380D02*
X102944285Y-143992380D01*
X103230000Y-143992380D02*
X103230000Y-142992380D01*
X103134761Y-143135238D01*
X103039523Y-143230476D01*
X102944285Y-143278095D01*
X188261904Y-125252380D02*
X188261904Y-124252380D01*
X188261904Y-124728571D02*
X188833333Y-124728571D01*
X188833333Y-125252380D02*
X188833333Y-124252380D01*
X189833333Y-125252380D02*
X189261904Y-125252380D01*
X189547619Y-125252380D02*
X189547619Y-124252380D01*
X189452380Y-124395238D01*
X189357142Y-124490476D01*
X189261904Y-124538095D01*
X190452380Y-124252380D02*
X190547619Y-124252380D01*
X190642857Y-124300000D01*
X190690476Y-124347619D01*
X190738095Y-124442857D01*
X190785714Y-124633333D01*
X190785714Y-124871428D01*
X190738095Y-125061904D01*
X190690476Y-125157142D01*
X190642857Y-125204761D01*
X190547619Y-125252380D01*
X190452380Y-125252380D01*
X190357142Y-125204761D01*
X190309523Y-125157142D01*
X190261904Y-125061904D01*
X190214285Y-124871428D01*
X190214285Y-124633333D01*
X190261904Y-124442857D01*
X190309523Y-124347619D01*
X190357142Y-124300000D01*
X190452380Y-124252380D01*
X202019642Y-109002380D02*
X201686309Y-108526190D01*
X201448214Y-109002380D02*
X201448214Y-108002380D01*
X201829166Y-108002380D01*
X201924404Y-108050000D01*
X201972023Y-108097619D01*
X202019642Y-108192857D01*
X202019642Y-108335714D01*
X201972023Y-108430952D01*
X201924404Y-108478571D01*
X201829166Y-108526190D01*
X201448214Y-108526190D01*
X202972023Y-109002380D02*
X202400595Y-109002380D01*
X202686309Y-109002380D02*
X202686309Y-108002380D01*
X202591071Y-108145238D01*
X202495833Y-108240476D01*
X202400595Y-108288095D01*
X203352976Y-108097619D02*
X203400595Y-108050000D01*
X203495833Y-108002380D01*
X203733928Y-108002380D01*
X203829166Y-108050000D01*
X203876785Y-108097619D01*
X203924404Y-108192857D01*
X203924404Y-108288095D01*
X203876785Y-108430952D01*
X203305357Y-109002380D01*
X203924404Y-109002380D01*
X92666666Y-103002380D02*
X92666666Y-103716666D01*
X92619047Y-103859523D01*
X92523809Y-103954761D01*
X92380952Y-104002380D01*
X92285714Y-104002380D01*
X93571428Y-103335714D02*
X93571428Y-104002380D01*
X93333333Y-102954761D02*
X93095238Y-103669047D01*
X93714285Y-103669047D01*
X135238095Y-76252380D02*
X135238095Y-75252380D01*
X135238095Y-75728571D02*
X135809523Y-75728571D01*
X135809523Y-76252380D02*
X135809523Y-75252380D01*
X136238095Y-75347619D02*
X136285714Y-75300000D01*
X136380952Y-75252380D01*
X136619047Y-75252380D01*
X136714285Y-75300000D01*
X136761904Y-75347619D01*
X136809523Y-75442857D01*
X136809523Y-75538095D01*
X136761904Y-75680952D01*
X136190476Y-76252380D01*
X136809523Y-76252380D01*
X111261904Y-129252380D02*
X111261904Y-128252380D01*
X111261904Y-128728571D02*
X111833333Y-128728571D01*
X111833333Y-129252380D02*
X111833333Y-128252380D01*
X112833333Y-129252380D02*
X112261904Y-129252380D01*
X112547619Y-129252380D02*
X112547619Y-128252380D01*
X112452380Y-128395238D01*
X112357142Y-128490476D01*
X112261904Y-128538095D01*
X113785714Y-129252380D02*
X113214285Y-129252380D01*
X113500000Y-129252380D02*
X113500000Y-128252380D01*
X113404761Y-128395238D01*
X113309523Y-128490476D01*
X113214285Y-128538095D01*
X108602380Y-104229166D02*
X108126190Y-104562500D01*
X108602380Y-104800595D02*
X107602380Y-104800595D01*
X107602380Y-104419642D01*
X107650000Y-104324404D01*
X107697619Y-104276785D01*
X107792857Y-104229166D01*
X107935714Y-104229166D01*
X108030952Y-104276785D01*
X108078571Y-104324404D01*
X108126190Y-104419642D01*
X108126190Y-104800595D01*
X108602380Y-103276785D02*
X108602380Y-103848214D01*
X108602380Y-103562500D02*
X107602380Y-103562500D01*
X107745238Y-103657738D01*
X107840476Y-103752976D01*
X107888095Y-103848214D01*
X94238095Y-142252380D02*
X94238095Y-141252380D01*
X94238095Y-141728571D02*
X94809523Y-141728571D01*
X94809523Y-142252380D02*
X94809523Y-141252380D01*
X95190476Y-141252380D02*
X95809523Y-141252380D01*
X95476190Y-141633333D01*
X95619047Y-141633333D01*
X95714285Y-141680952D01*
X95761904Y-141728571D01*
X95809523Y-141823809D01*
X95809523Y-142061904D01*
X95761904Y-142157142D01*
X95714285Y-142204761D01*
X95619047Y-142252380D01*
X95333333Y-142252380D01*
X95238095Y-142204761D01*
X95190476Y-142157142D01*
X170738095Y-125252380D02*
X170738095Y-124252380D01*
X170738095Y-124728571D02*
X171309523Y-124728571D01*
X171309523Y-125252380D02*
X171309523Y-124252380D01*
X171690476Y-124252380D02*
X172357142Y-124252380D01*
X171928571Y-125252380D01*
X204238095Y-77252380D02*
X204238095Y-76252380D01*
X204238095Y-76728571D02*
X204809523Y-76728571D01*
X204809523Y-77252380D02*
X204809523Y-76252380D01*
X205761904Y-76252380D02*
X205285714Y-76252380D01*
X205238095Y-76728571D01*
X205285714Y-76680952D01*
X205380952Y-76633333D01*
X205619047Y-76633333D01*
X205714285Y-76680952D01*
X205761904Y-76728571D01*
X205809523Y-76823809D01*
X205809523Y-77061904D01*
X205761904Y-77157142D01*
X205714285Y-77204761D01*
X205619047Y-77252380D01*
X205380952Y-77252380D01*
X205285714Y-77204761D01*
X205238095Y-77157142D01*
X202558333Y-107002380D02*
X202225000Y-106526190D01*
X201986904Y-107002380D02*
X201986904Y-106002380D01*
X202367857Y-106002380D01*
X202463095Y-106050000D01*
X202510714Y-106097619D01*
X202558333Y-106192857D01*
X202558333Y-106335714D01*
X202510714Y-106430952D01*
X202463095Y-106478571D01*
X202367857Y-106526190D01*
X201986904Y-106526190D01*
X203129761Y-106430952D02*
X203034523Y-106383333D01*
X202986904Y-106335714D01*
X202939285Y-106240476D01*
X202939285Y-106192857D01*
X202986904Y-106097619D01*
X203034523Y-106050000D01*
X203129761Y-106002380D01*
X203320238Y-106002380D01*
X203415476Y-106050000D01*
X203463095Y-106097619D01*
X203510714Y-106192857D01*
X203510714Y-106240476D01*
X203463095Y-106335714D01*
X203415476Y-106383333D01*
X203320238Y-106430952D01*
X203129761Y-106430952D01*
X203034523Y-106478571D01*
X202986904Y-106526190D01*
X202939285Y-106621428D01*
X202939285Y-106811904D01*
X202986904Y-106907142D01*
X203034523Y-106954761D01*
X203129761Y-107002380D01*
X203320238Y-107002380D01*
X203415476Y-106954761D01*
X203463095Y-106907142D01*
X203510714Y-106811904D01*
X203510714Y-106621428D01*
X203463095Y-106526190D01*
X203415476Y-106478571D01*
X203320238Y-106430952D01*
X188738095Y-96252380D02*
X188738095Y-95252380D01*
X188738095Y-95728571D02*
X189309523Y-95728571D01*
X189309523Y-96252380D02*
X189309523Y-95252380D01*
X189833333Y-96252380D02*
X190023809Y-96252380D01*
X190119047Y-96204761D01*
X190166666Y-96157142D01*
X190261904Y-96014285D01*
X190309523Y-95823809D01*
X190309523Y-95442857D01*
X190261904Y-95347619D01*
X190214285Y-95300000D01*
X190119047Y-95252380D01*
X189928571Y-95252380D01*
X189833333Y-95300000D01*
X189785714Y-95347619D01*
X189738095Y-95442857D01*
X189738095Y-95680952D01*
X189785714Y-95776190D01*
X189833333Y-95823809D01*
X189928571Y-95871428D01*
X190119047Y-95871428D01*
X190214285Y-95823809D01*
X190261904Y-95776190D01*
X190309523Y-95680952D01*
X110602380Y-104229166D02*
X110126190Y-104562500D01*
X110602380Y-104800595D02*
X109602380Y-104800595D01*
X109602380Y-104419642D01*
X109650000Y-104324404D01*
X109697619Y-104276785D01*
X109792857Y-104229166D01*
X109935714Y-104229166D01*
X110030952Y-104276785D01*
X110078571Y-104324404D01*
X110126190Y-104419642D01*
X110126190Y-104800595D01*
X109697619Y-103848214D02*
X109650000Y-103800595D01*
X109602380Y-103705357D01*
X109602380Y-103467261D01*
X109650000Y-103372023D01*
X109697619Y-103324404D01*
X109792857Y-103276785D01*
X109888095Y-103276785D01*
X110030952Y-103324404D01*
X110602380Y-103895833D01*
X110602380Y-103276785D01*
X199058333Y-107002380D02*
X198725000Y-106526190D01*
X198486904Y-107002380D02*
X198486904Y-106002380D01*
X198867857Y-106002380D01*
X198963095Y-106050000D01*
X199010714Y-106097619D01*
X199058333Y-106192857D01*
X199058333Y-106335714D01*
X199010714Y-106430952D01*
X198963095Y-106478571D01*
X198867857Y-106526190D01*
X198486904Y-106526190D01*
X199534523Y-107002380D02*
X199725000Y-107002380D01*
X199820238Y-106954761D01*
X199867857Y-106907142D01*
X199963095Y-106764285D01*
X200010714Y-106573809D01*
X200010714Y-106192857D01*
X199963095Y-106097619D01*
X199915476Y-106050000D01*
X199820238Y-106002380D01*
X199629761Y-106002380D01*
X199534523Y-106050000D01*
X199486904Y-106097619D01*
X199439285Y-106192857D01*
X199439285Y-106430952D01*
X199486904Y-106526190D01*
X199534523Y-106573809D01*
X199629761Y-106621428D01*
X199820238Y-106621428D01*
X199915476Y-106573809D01*
X199963095Y-106526190D01*
X200010714Y-106430952D01*
X170738095Y-96252380D02*
X170738095Y-95252380D01*
X170738095Y-95728571D02*
X171309523Y-95728571D01*
X171309523Y-96252380D02*
X171309523Y-95252380D01*
X171928571Y-95680952D02*
X171833333Y-95633333D01*
X171785714Y-95585714D01*
X171738095Y-95490476D01*
X171738095Y-95442857D01*
X171785714Y-95347619D01*
X171833333Y-95300000D01*
X171928571Y-95252380D01*
X172119047Y-95252380D01*
X172214285Y-95300000D01*
X172261904Y-95347619D01*
X172309523Y-95442857D01*
X172309523Y-95490476D01*
X172261904Y-95585714D01*
X172214285Y-95633333D01*
X172119047Y-95680952D01*
X171928571Y-95680952D01*
X171833333Y-95728571D01*
X171785714Y-95776190D01*
X171738095Y-95871428D01*
X171738095Y-96061904D01*
X171785714Y-96157142D01*
X171833333Y-96204761D01*
X171928571Y-96252380D01*
X172119047Y-96252380D01*
X172214285Y-96204761D01*
X172261904Y-96157142D01*
X172309523Y-96061904D01*
X172309523Y-95871428D01*
X172261904Y-95776190D01*
X172214285Y-95728571D01*
X172119047Y-95680952D01*
X182261904Y-114752380D02*
X182261904Y-113752380D01*
X182261904Y-114228571D02*
X182833333Y-114228571D01*
X182833333Y-114752380D02*
X182833333Y-113752380D01*
X183261904Y-113847619D02*
X183309523Y-113800000D01*
X183404761Y-113752380D01*
X183642857Y-113752380D01*
X183738095Y-113800000D01*
X183785714Y-113847619D01*
X183833333Y-113942857D01*
X183833333Y-114038095D01*
X183785714Y-114180952D01*
X183214285Y-114752380D01*
X183833333Y-114752380D01*
X184452380Y-113752380D02*
X184547619Y-113752380D01*
X184642857Y-113800000D01*
X184690476Y-113847619D01*
X184738095Y-113942857D01*
X184785714Y-114133333D01*
X184785714Y-114371428D01*
X184738095Y-114561904D01*
X184690476Y-114657142D01*
X184642857Y-114704761D01*
X184547619Y-114752380D01*
X184452380Y-114752380D01*
X184357142Y-114704761D01*
X184309523Y-114657142D01*
X184261904Y-114561904D01*
X184214285Y-114371428D01*
X184214285Y-114133333D01*
X184261904Y-113942857D01*
X184309523Y-113847619D01*
X184357142Y-113800000D01*
X184452380Y-113752380D01*
X205531904Y-85992380D02*
X205531904Y-84992380D01*
X205770000Y-84992380D01*
X205912857Y-85040000D01*
X206008095Y-85135238D01*
X206055714Y-85230476D01*
X206103333Y-85420952D01*
X206103333Y-85563809D01*
X206055714Y-85754285D01*
X206008095Y-85849523D01*
X205912857Y-85944761D01*
X205770000Y-85992380D01*
X205531904Y-85992380D01*
X206960476Y-85325714D02*
X206960476Y-85992380D01*
X206722380Y-84944761D02*
X206484285Y-85659047D01*
X207103333Y-85659047D01*
X139502380Y-148333333D02*
X140216666Y-148333333D01*
X140359523Y-148380952D01*
X140454761Y-148476190D01*
X140502380Y-148619047D01*
X140502380Y-148714285D01*
X139597619Y-147904761D02*
X139550000Y-147857142D01*
X139502380Y-147761904D01*
X139502380Y-147523809D01*
X139550000Y-147428571D01*
X139597619Y-147380952D01*
X139692857Y-147333333D01*
X139788095Y-147333333D01*
X139930952Y-147380952D01*
X140502380Y-147952380D01*
X140502380Y-147333333D01*
X131852380Y-97618333D02*
X132566666Y-97618333D01*
X132709523Y-97665952D01*
X132804761Y-97761190D01*
X132852380Y-97904047D01*
X132852380Y-97999285D01*
X132852380Y-96618333D02*
X132852380Y-97189761D01*
X132852380Y-96904047D02*
X131852380Y-96904047D01*
X131995238Y-96999285D01*
X132090476Y-97094523D01*
X132138095Y-97189761D01*
X206666666Y-122902380D02*
X206666666Y-123616666D01*
X206619047Y-123759523D01*
X206523809Y-123854761D01*
X206380952Y-123902380D01*
X206285714Y-123902380D01*
X207047619Y-122902380D02*
X207666666Y-122902380D01*
X207333333Y-123283333D01*
X207476190Y-123283333D01*
X207571428Y-123330952D01*
X207619047Y-123378571D01*
X207666666Y-123473809D01*
X207666666Y-123711904D01*
X207619047Y-123807142D01*
X207571428Y-123854761D01*
X207476190Y-123902380D01*
X207190476Y-123902380D01*
X207095238Y-123854761D01*
X207047619Y-123807142D01*
X200866666Y-101752380D02*
X200866666Y-102466666D01*
X200819047Y-102609523D01*
X200723809Y-102704761D01*
X200580952Y-102752380D01*
X200485714Y-102752380D01*
X201771428Y-101752380D02*
X201580952Y-101752380D01*
X201485714Y-101800000D01*
X201438095Y-101847619D01*
X201342857Y-101990476D01*
X201295238Y-102180952D01*
X201295238Y-102561904D01*
X201342857Y-102657142D01*
X201390476Y-102704761D01*
X201485714Y-102752380D01*
X201676190Y-102752380D01*
X201771428Y-102704761D01*
X201819047Y-102657142D01*
X201866666Y-102561904D01*
X201866666Y-102323809D01*
X201819047Y-102228571D01*
X201771428Y-102180952D01*
X201676190Y-102133333D01*
X201485714Y-102133333D01*
X201390476Y-102180952D01*
X201342857Y-102228571D01*
X201295238Y-102323809D01*
X107833333Y-122602380D02*
X107500000Y-122126190D01*
X107261904Y-122602380D02*
X107261904Y-121602380D01*
X107642857Y-121602380D01*
X107738095Y-121650000D01*
X107785714Y-121697619D01*
X107833333Y-121792857D01*
X107833333Y-121935714D01*
X107785714Y-122030952D01*
X107738095Y-122078571D01*
X107642857Y-122126190D01*
X107261904Y-122126190D01*
X108166666Y-121602380D02*
X108785714Y-121602380D01*
X108452380Y-121983333D01*
X108595238Y-121983333D01*
X108690476Y-122030952D01*
X108738095Y-122078571D01*
X108785714Y-122173809D01*
X108785714Y-122411904D01*
X108738095Y-122507142D01*
X108690476Y-122554761D01*
X108595238Y-122602380D01*
X108309523Y-122602380D01*
X108214285Y-122554761D01*
X108166666Y-122507142D01*
X182261904Y-109252380D02*
X182261904Y-108252380D01*
X182261904Y-108728571D02*
X182833333Y-108728571D01*
X182833333Y-109252380D02*
X182833333Y-108252380D01*
X183833333Y-109252380D02*
X183261904Y-109252380D01*
X183547619Y-109252380D02*
X183547619Y-108252380D01*
X183452380Y-108395238D01*
X183357142Y-108490476D01*
X183261904Y-108538095D01*
X184404761Y-108680952D02*
X184309523Y-108633333D01*
X184261904Y-108585714D01*
X184214285Y-108490476D01*
X184214285Y-108442857D01*
X184261904Y-108347619D01*
X184309523Y-108300000D01*
X184404761Y-108252380D01*
X184595238Y-108252380D01*
X184690476Y-108300000D01*
X184738095Y-108347619D01*
X184785714Y-108442857D01*
X184785714Y-108490476D01*
X184738095Y-108585714D01*
X184690476Y-108633333D01*
X184595238Y-108680952D01*
X184404761Y-108680952D01*
X184309523Y-108728571D01*
X184261904Y-108776190D01*
X184214285Y-108871428D01*
X184214285Y-109061904D01*
X184261904Y-109157142D01*
X184309523Y-109204761D01*
X184404761Y-109252380D01*
X184595238Y-109252380D01*
X184690476Y-109204761D01*
X184738095Y-109157142D01*
X184785714Y-109061904D01*
X184785714Y-108871428D01*
X184738095Y-108776190D01*
X184690476Y-108728571D01*
X184595238Y-108680952D01*
X205531904Y-134992380D02*
X205531904Y-133992380D01*
X205770000Y-133992380D01*
X205912857Y-134040000D01*
X206008095Y-134135238D01*
X206055714Y-134230476D01*
X206103333Y-134420952D01*
X206103333Y-134563809D01*
X206055714Y-134754285D01*
X206008095Y-134849523D01*
X205912857Y-134944761D01*
X205770000Y-134992380D01*
X205531904Y-134992380D01*
X206436666Y-133992380D02*
X207055714Y-133992380D01*
X206722380Y-134373333D01*
X206865238Y-134373333D01*
X206960476Y-134420952D01*
X207008095Y-134468571D01*
X207055714Y-134563809D01*
X207055714Y-134801904D01*
X207008095Y-134897142D01*
X206960476Y-134944761D01*
X206865238Y-134992380D01*
X206579523Y-134992380D01*
X206484285Y-134944761D01*
X206436666Y-134897142D01*
X202057142Y-111002380D02*
X201723809Y-110526190D01*
X201485714Y-111002380D02*
X201485714Y-110002380D01*
X201866666Y-110002380D01*
X201961904Y-110050000D01*
X202009523Y-110097619D01*
X202057142Y-110192857D01*
X202057142Y-110335714D01*
X202009523Y-110430952D01*
X201961904Y-110478571D01*
X201866666Y-110526190D01*
X201485714Y-110526190D01*
X203009523Y-111002380D02*
X202438095Y-111002380D01*
X202723809Y-111002380D02*
X202723809Y-110002380D01*
X202628571Y-110145238D01*
X202533333Y-110240476D01*
X202438095Y-110288095D01*
X203628571Y-110002380D02*
X203723809Y-110002380D01*
X203819047Y-110050000D01*
X203866666Y-110097619D01*
X203914285Y-110192857D01*
X203961904Y-110383333D01*
X203961904Y-110621428D01*
X203914285Y-110811904D01*
X203866666Y-110907142D01*
X203819047Y-110954761D01*
X203723809Y-111002380D01*
X203628571Y-111002380D01*
X203533333Y-110954761D01*
X203485714Y-110907142D01*
X203438095Y-110811904D01*
X203390476Y-110621428D01*
X203390476Y-110383333D01*
X203438095Y-110192857D01*
X203485714Y-110097619D01*
X203533333Y-110050000D01*
X203628571Y-110002380D01*
X160906666Y-129562380D02*
X160906666Y-130276666D01*
X160859047Y-130419523D01*
X160763809Y-130514761D01*
X160620952Y-130562380D01*
X160525714Y-130562380D01*
X161287619Y-129562380D02*
X161954285Y-129562380D01*
X161525714Y-130562380D01*
X118761904Y-90252380D02*
X118761904Y-89252380D01*
X118761904Y-89728571D02*
X119333333Y-89728571D01*
X119333333Y-90252380D02*
X119333333Y-89252380D01*
X120333333Y-90252380D02*
X119761904Y-90252380D01*
X120047619Y-90252380D02*
X120047619Y-89252380D01*
X119952380Y-89395238D01*
X119857142Y-89490476D01*
X119761904Y-89538095D01*
X121238095Y-89252380D02*
X120761904Y-89252380D01*
X120714285Y-89728571D01*
X120761904Y-89680952D01*
X120857142Y-89633333D01*
X121095238Y-89633333D01*
X121190476Y-89680952D01*
X121238095Y-89728571D01*
X121285714Y-89823809D01*
X121285714Y-90061904D01*
X121238095Y-90157142D01*
X121190476Y-90204761D01*
X121095238Y-90252380D01*
X120857142Y-90252380D01*
X120761904Y-90204761D01*
X120714285Y-90157142D01*
D11*
X208210000Y-93758578D02*
X208210000Y-93241422D01*
X206790000Y-93758578D02*
X206790000Y-93241422D01*
X199458578Y-108190000D02*
X198941422Y-108190000D01*
X199458578Y-109610000D02*
X198941422Y-109610000D01*
X199483578Y-106190000D02*
X198966422Y-106190000D01*
X199483578Y-107610000D02*
X198966422Y-107610000D01*
X103290000Y-85258578D02*
X103290000Y-84741422D01*
X104710000Y-85258578D02*
X104710000Y-84741422D01*
X103790000Y-141803922D02*
X103790000Y-142321078D01*
X105210000Y-141803922D02*
X105210000Y-142321078D01*
X100710000Y-79101000D02*
X100710000Y-79420000D01*
X100710000Y-81580000D02*
X100710000Y-81899000D01*
X105013242Y-81580724D02*
G75*
G02*
X100710000Y-81898749I-2243242J1080724D01*
G01*
X104452713Y-81580961D02*
G75*
G02*
X101086670Y-81580000I-1682713J1080961D01*
G01*
X104452713Y-79419039D02*
G75*
G03*
X101086670Y-79420000I-1682713J-1080961D01*
G01*
X105013242Y-79419276D02*
G75*
G03*
X100710000Y-79101251I-2243242J-1080724D01*
G01*
X206790000Y-132803922D02*
X206790000Y-133321078D01*
X208210000Y-132803922D02*
X208210000Y-133321078D01*
X120560000Y-113000000D02*
X120560000Y-109140000D01*
X120560000Y-113000000D02*
X120560000Y-116860000D01*
X102440000Y-113000000D02*
X102440000Y-109140000D01*
X102440000Y-113000000D02*
X102440000Y-116860000D01*
X102440000Y-109140000D02*
X102685000Y-109140000D01*
X102440000Y-116860000D02*
X102685000Y-116860000D01*
X120560000Y-109140000D02*
X120315000Y-109140000D01*
X120315000Y-109140000D02*
X120315000Y-107325000D01*
X120560000Y-116860000D02*
X120315000Y-116860000D01*
X144670000Y-108670000D02*
X146000000Y-108670000D01*
X144670000Y-110000000D02*
X144670000Y-108670000D01*
X147330000Y-111270000D02*
X147330000Y-129110000D01*
X144670000Y-129110000D02*
X147330000Y-129110000D01*
X144670000Y-111270000D02*
X144670000Y-129110000D01*
X144670000Y-111270000D02*
X147330000Y-111270000D01*
X157600000Y-77670000D02*
X158930000Y-77670000D01*
X156330000Y-77670000D02*
X156330000Y-80330000D01*
X158930000Y-77670000D02*
X158930000Y-79000000D01*
X156330000Y-77670000D02*
X141030000Y-77670000D01*
X141030000Y-77670000D02*
X141030000Y-80330000D01*
X156330000Y-80330000D02*
X141030000Y-80330000D01*
X100670000Y-148080000D02*
X100670000Y-148399000D01*
X100670000Y-145601000D02*
X100670000Y-145920000D01*
X104973242Y-145919276D02*
G75*
G03*
X100670000Y-145601251I-2243242J-1080724D01*
G01*
X104973242Y-148080724D02*
G75*
G02*
X100670000Y-148398749I-2243242J1080724D01*
G01*
X104412713Y-145919039D02*
G75*
G03*
X101046670Y-145920000I-1682713J-1080961D01*
G01*
X104412713Y-148080961D02*
G75*
G02*
X101046670Y-148080000I-1682713J1080961D01*
G01*
X202921078Y-106190000D02*
X202403922Y-106190000D01*
X202921078Y-107610000D02*
X202403922Y-107610000D01*
X91670000Y-107150000D02*
X94330000Y-107150000D01*
X91670000Y-122450000D02*
X94330000Y-122450000D01*
X91670000Y-105880000D02*
X91670000Y-104550000D01*
X94330000Y-107150000D02*
X94330000Y-122450000D01*
X91670000Y-107150000D02*
X91670000Y-122450000D01*
X91670000Y-104550000D02*
X93000000Y-104550000D01*
X107210000Y-103803922D02*
X107210000Y-104321078D01*
X105790000Y-103803922D02*
X105790000Y-104321078D01*
X202983578Y-105610000D02*
X202466422Y-105610000D01*
X202983578Y-104190000D02*
X202466422Y-104190000D01*
X107790000Y-103803922D02*
X107790000Y-104321078D01*
X109210000Y-103803922D02*
X109210000Y-104321078D01*
X199483578Y-105610000D02*
X198966422Y-105610000D01*
X199483578Y-104190000D02*
X198966422Y-104190000D01*
X204210000Y-87601000D02*
X204210000Y-87920000D01*
X204210000Y-90080000D02*
X204210000Y-90399000D01*
X208513242Y-90080724D02*
G75*
G02*
X204210000Y-90398749I-2243242J1080724D01*
G01*
X208513242Y-87919276D02*
G75*
G03*
X204210000Y-87601251I-2243242J-1080724D01*
G01*
X207952713Y-87919039D02*
G75*
G03*
X204586670Y-87920000I-1682713J-1080961D01*
G01*
X207952713Y-90080961D02*
G75*
G02*
X204586670Y-90080000I-1682713J1080961D01*
G01*
X142380000Y-149330000D02*
X141050000Y-149330000D01*
X143650000Y-149330000D02*
X158950000Y-149330000D01*
X158950000Y-149330000D02*
X158950000Y-146670000D01*
X141050000Y-149330000D02*
X141050000Y-148000000D01*
X143650000Y-146670000D02*
X158950000Y-146670000D01*
X143650000Y-149330000D02*
X143650000Y-146670000D01*
X153870000Y-99230000D02*
X133290000Y-99230000D01*
X139000000Y-105850000D02*
X138500000Y-104850000D01*
X153870000Y-90110000D02*
X153870000Y-99230000D01*
X145630000Y-99230000D02*
X145630000Y-90110000D01*
X133290000Y-99230000D02*
X133290000Y-90110000D01*
X138000000Y-105850000D02*
X139000000Y-105850000D01*
X133290000Y-90110000D02*
X153870000Y-90110000D01*
X138500000Y-104850000D02*
X138000000Y-105850000D01*
X141530000Y-99230000D02*
X141530000Y-90110000D01*
X208330000Y-104550000D02*
X205670000Y-104550000D01*
X205670000Y-119850000D02*
X205670000Y-104550000D01*
X208330000Y-119850000D02*
X205670000Y-119850000D01*
X208330000Y-121120000D02*
X208330000Y-122450000D01*
X208330000Y-122450000D02*
X207000000Y-122450000D01*
X208330000Y-119850000D02*
X208330000Y-104550000D01*
X197050000Y-101275000D02*
X197050000Y-97725000D01*
X202900000Y-100525000D02*
X202900000Y-101275000D01*
X202900000Y-101275000D02*
X202300000Y-101275000D01*
X203200000Y-101275000D02*
X205350000Y-101275000D01*
X205350000Y-101275000D02*
X205350000Y-97725000D01*
X199200000Y-101275000D02*
X197050000Y-101275000D01*
X197050000Y-97725000D02*
X199950000Y-97725000D01*
X205350000Y-97725000D02*
X202450000Y-97725000D01*
X108258578Y-121210000D02*
X107741422Y-121210000D01*
X108258578Y-119790000D02*
X107741422Y-119790000D01*
X204210000Y-139080000D02*
X204210000Y-139399000D01*
X204210000Y-136601000D02*
X204210000Y-136920000D01*
X207952713Y-136919039D02*
G75*
G03*
X204586670Y-136920000I-1682713J-1080961D01*
G01*
X207952713Y-139080961D02*
G75*
G02*
X204586670Y-139080000I-1682713J1080961D01*
G01*
X208513242Y-136919276D02*
G75*
G03*
X204210000Y-136601251I-2243242J-1080724D01*
G01*
X208513242Y-139080724D02*
G75*
G02*
X204210000Y-139398749I-2243242J1080724D01*
G01*
X202958578Y-109610000D02*
X202441422Y-109610000D01*
X202958578Y-108190000D02*
X202441422Y-108190000D01*
X162570000Y-126510000D02*
X159910000Y-126510000D01*
X162570000Y-108670000D02*
X159910000Y-108670000D01*
X159910000Y-126510000D02*
X159910000Y-108670000D01*
X162570000Y-129110000D02*
X161240000Y-129110000D01*
X162570000Y-127780000D02*
X162570000Y-129110000D01*
X162570000Y-126510000D02*
X162570000Y-108670000D01*
M02*
