G04 #@! TF.GenerationSoftware,KiCad,Pcbnew,5.99.0-unknown-15c4a7b06~104~ubuntu18.04.1*
G04 #@! TF.CreationDate,2020-09-30T21:22:09+01:00*
G04 #@! TF.ProjectId,nesta proto 2.1,6e657374-6120-4707-926f-746f20322e31,rev?*
G04 #@! TF.SameCoordinates,Original*
G04 #@! TF.FileFunction,Soldermask,Bot*
G04 #@! TF.FilePolarity,Negative*
%FSLAX46Y46*%
G04 Gerber Fmt 4.6, Leading zero omitted, Abs format (unit mm)*
G04 Created by KiCad (PCBNEW 5.99.0-unknown-15c4a7b06~104~ubuntu18.04.1) date 2020-09-30 21:22:09*
%MOMM*%
%LPD*%
G01*
G04 APERTURE LIST*
%ADD10C,3.200000*%
%ADD11C,4.400000*%
%ADD12C,0.700000*%
%ADD13R,1.800000X1.800000*%
%ADD14C,1.800000*%
%ADD15R,1.700000X1.700000*%
%ADD16O,1.700000X1.700000*%
%ADD17C,2.200000*%
%ADD18C,1.700000*%
%ADD19O,2.200000X1.100000*%
%ADD20O,1.800000X1.100000*%
G04 APERTURE END LIST*
D10*
X105000000Y-133000000D03*
X205000000Y-146000000D03*
X95000000Y-81000000D03*
X112500000Y-94050000D03*
D11*
X178000000Y-112000000D03*
D12*
X176833274Y-113166726D03*
X176833274Y-110833274D03*
X179166726Y-113166726D03*
X179166726Y-110833274D03*
X179650000Y-112000000D03*
X176350000Y-112000000D03*
X178000000Y-113650000D03*
X178000000Y-110350000D03*
X176833274Y-116333274D03*
X178000000Y-119150000D03*
X179166726Y-118666726D03*
X176350000Y-117500000D03*
X178000000Y-115850000D03*
D11*
X178000000Y-117500000D03*
D12*
X176833274Y-118666726D03*
X179166726Y-116333274D03*
X179650000Y-117500000D03*
D10*
X120000000Y-133000000D03*
D13*
X101500000Y-80500000D03*
D14*
X104040000Y-80500000D03*
D10*
X136000000Y-147000000D03*
X105000000Y-94000000D03*
D15*
X146000000Y-110000000D03*
D16*
X146000000Y-112540000D03*
X146000000Y-115080000D03*
X146000000Y-117620000D03*
X146000000Y-120160000D03*
X146000000Y-122700000D03*
X146000000Y-125240000D03*
X146000000Y-127780000D03*
D15*
X157600000Y-79000000D03*
D16*
X155060000Y-79000000D03*
X152520000Y-79000000D03*
X149980000Y-79000000D03*
X147440000Y-79000000D03*
X144900000Y-79000000D03*
X142360000Y-79000000D03*
D13*
X101460000Y-147000000D03*
D14*
X104000000Y-147000000D03*
D17*
X189500000Y-128000000D03*
D15*
X93000000Y-105880000D03*
D16*
X93000000Y-108420000D03*
X93000000Y-110960000D03*
X93000000Y-113500000D03*
X93000000Y-116040000D03*
X93000000Y-118580000D03*
X93000000Y-121120000D03*
D10*
X136000000Y-80000000D03*
X112500000Y-133000000D03*
X95000000Y-146000000D03*
D17*
X171500000Y-128000000D03*
D10*
X205000000Y-81000000D03*
D17*
X189500000Y-99000000D03*
X171500000Y-99000000D03*
D12*
X182333274Y-116333274D03*
X183500000Y-115850000D03*
X184666726Y-116333274D03*
X184666726Y-118666726D03*
D11*
X183500000Y-117500000D03*
D12*
X181850000Y-117500000D03*
X182333274Y-118666726D03*
X185150000Y-117500000D03*
X183500000Y-119150000D03*
D13*
X205000000Y-89000000D03*
D14*
X207540000Y-89000000D03*
D15*
X142380000Y-148000000D03*
D16*
X144920000Y-148000000D03*
X147460000Y-148000000D03*
X150000000Y-148000000D03*
X152540000Y-148000000D03*
X155080000Y-148000000D03*
X157620000Y-148000000D03*
G36*
G01*
X139100000Y-104350000D02*
X137900000Y-104350000D01*
G75*
G02*
X137650000Y-104100000I0J250000D01*
G01*
X137650000Y-102900000D01*
G75*
G02*
X137900000Y-102650000I250000J0D01*
G01*
X139100000Y-102650000D01*
G75*
G02*
X139350000Y-102900000I0J-250000D01*
G01*
X139350000Y-104100000D01*
G75*
G02*
X139100000Y-104350000I-250000J0D01*
G01*
G37*
D18*
X138500000Y-100960000D03*
X141040000Y-103500000D03*
X141040000Y-100960000D03*
X143580000Y-103500000D03*
X143580000Y-100960000D03*
X146120000Y-103500000D03*
X146120000Y-100960000D03*
X148660000Y-103500000D03*
X148660000Y-100960000D03*
D15*
X207000000Y-121120000D03*
D16*
X207000000Y-118580000D03*
X207000000Y-116040000D03*
X207000000Y-113500000D03*
X207000000Y-110960000D03*
X207000000Y-108420000D03*
X207000000Y-105880000D03*
D19*
X201200000Y-98375000D03*
D20*
X204000000Y-100525000D03*
X198400000Y-100525000D03*
D12*
X183500000Y-113650000D03*
X181850000Y-112000000D03*
X185150000Y-112000000D03*
X184666726Y-110833274D03*
X183500000Y-110350000D03*
X182333274Y-110833274D03*
X182333274Y-113166726D03*
X184666726Y-113166726D03*
D11*
X183500000Y-112000000D03*
D13*
X205000000Y-138000000D03*
D14*
X207540000Y-138000000D03*
D15*
X161240000Y-127780000D03*
D16*
X161240000Y-125240000D03*
X161240000Y-122700000D03*
X161240000Y-120160000D03*
X161240000Y-117620000D03*
X161240000Y-115080000D03*
X161240000Y-112540000D03*
X161240000Y-110000000D03*
D10*
X120000000Y-94000000D03*
M02*
