G04 #@! TF.GenerationSoftware,KiCad,Pcbnew,5.99.0-unknown-15c4a7b06~104~ubuntu18.04.1*
G04 #@! TF.CreationDate,2020-09-30T21:22:09+01:00*
G04 #@! TF.ProjectId,nesta proto 2.1,6e657374-6120-4707-926f-746f20322e31,rev?*
G04 #@! TF.SameCoordinates,Original*
G04 #@! TF.FileFunction,Soldermask,Top*
G04 #@! TF.FilePolarity,Negative*
%FSLAX46Y46*%
G04 Gerber Fmt 4.6, Leading zero omitted, Abs format (unit mm)*
G04 Created by KiCad (PCBNEW 5.99.0-unknown-15c4a7b06~104~ubuntu18.04.1) date 2020-09-30 21:22:09*
%MOMM*%
%LPD*%
G01*
G04 APERTURE LIST*
%ADD10C,3.200000*%
%ADD11C,4.400000*%
%ADD12C,0.700000*%
%ADD13R,1.800000X1.800000*%
%ADD14C,1.800000*%
%ADD15R,1.700000X1.700000*%
%ADD16O,1.700000X1.700000*%
%ADD17C,2.200000*%
%ADD18C,1.700000*%
%ADD19R,0.450000X1.500000*%
%ADD20O,2.200000X1.100000*%
%ADD21O,1.800000X1.100000*%
G04 APERTURE END LIST*
G36*
G01*
X207956250Y-94925000D02*
X207043750Y-94925000D01*
G75*
G02*
X206800000Y-94681250I0J243750D01*
G01*
X206800000Y-94193750D01*
G75*
G02*
X207043750Y-93950000I243750J0D01*
G01*
X207956250Y-93950000D01*
G75*
G02*
X208200000Y-94193750I0J-243750D01*
G01*
X208200000Y-94681250D01*
G75*
G02*
X207956250Y-94925000I-243750J0D01*
G01*
G37*
G36*
G01*
X207956250Y-93050000D02*
X207043750Y-93050000D01*
G75*
G02*
X206800000Y-92806250I0J243750D01*
G01*
X206800000Y-92318750D01*
G75*
G02*
X207043750Y-92075000I243750J0D01*
G01*
X207956250Y-92075000D01*
G75*
G02*
X208200000Y-92318750I0J-243750D01*
G01*
X208200000Y-92806250D01*
G75*
G02*
X207956250Y-93050000I-243750J0D01*
G01*
G37*
G36*
G01*
X200625000Y-108443750D02*
X200625000Y-109356250D01*
G75*
G02*
X200381250Y-109600000I-243750J0D01*
G01*
X199893750Y-109600000D01*
G75*
G02*
X199650000Y-109356250I0J243750D01*
G01*
X199650000Y-108443750D01*
G75*
G02*
X199893750Y-108200000I243750J0D01*
G01*
X200381250Y-108200000D01*
G75*
G02*
X200625000Y-108443750I0J-243750D01*
G01*
G37*
G36*
G01*
X198750000Y-108443750D02*
X198750000Y-109356250D01*
G75*
G02*
X198506250Y-109600000I-243750J0D01*
G01*
X198018750Y-109600000D01*
G75*
G02*
X197775000Y-109356250I0J243750D01*
G01*
X197775000Y-108443750D01*
G75*
G02*
X198018750Y-108200000I243750J0D01*
G01*
X198506250Y-108200000D01*
G75*
G02*
X198750000Y-108443750I0J-243750D01*
G01*
G37*
D10*
X105000000Y-133000000D03*
X205000000Y-146000000D03*
G36*
G01*
X200650000Y-106443750D02*
X200650000Y-107356250D01*
G75*
G02*
X200406250Y-107600000I-243750J0D01*
G01*
X199918750Y-107600000D01*
G75*
G02*
X199675000Y-107356250I0J243750D01*
G01*
X199675000Y-106443750D01*
G75*
G02*
X199918750Y-106200000I243750J0D01*
G01*
X200406250Y-106200000D01*
G75*
G02*
X200650000Y-106443750I0J-243750D01*
G01*
G37*
G36*
G01*
X198775000Y-106443750D02*
X198775000Y-107356250D01*
G75*
G02*
X198531250Y-107600000I-243750J0D01*
G01*
X198043750Y-107600000D01*
G75*
G02*
X197800000Y-107356250I0J243750D01*
G01*
X197800000Y-106443750D01*
G75*
G02*
X198043750Y-106200000I243750J0D01*
G01*
X198531250Y-106200000D01*
G75*
G02*
X198775000Y-106443750I0J-243750D01*
G01*
G37*
X95000000Y-81000000D03*
X112500000Y-94050000D03*
G36*
G01*
X104456250Y-86425000D02*
X103543750Y-86425000D01*
G75*
G02*
X103300000Y-86181250I0J243750D01*
G01*
X103300000Y-85693750D01*
G75*
G02*
X103543750Y-85450000I243750J0D01*
G01*
X104456250Y-85450000D01*
G75*
G02*
X104700000Y-85693750I0J-243750D01*
G01*
X104700000Y-86181250D01*
G75*
G02*
X104456250Y-86425000I-243750J0D01*
G01*
G37*
G36*
G01*
X104456250Y-84550000D02*
X103543750Y-84550000D01*
G75*
G02*
X103300000Y-84306250I0J243750D01*
G01*
X103300000Y-83818750D01*
G75*
G02*
X103543750Y-83575000I243750J0D01*
G01*
X104456250Y-83575000D01*
G75*
G02*
X104700000Y-83818750I0J-243750D01*
G01*
X104700000Y-84306250D01*
G75*
G02*
X104456250Y-84550000I-243750J0D01*
G01*
G37*
G36*
G01*
X104043750Y-140637500D02*
X104956250Y-140637500D01*
G75*
G02*
X105200000Y-140881250I0J-243750D01*
G01*
X105200000Y-141368750D01*
G75*
G02*
X104956250Y-141612500I-243750J0D01*
G01*
X104043750Y-141612500D01*
G75*
G02*
X103800000Y-141368750I0J243750D01*
G01*
X103800000Y-140881250D01*
G75*
G02*
X104043750Y-140637500I243750J0D01*
G01*
G37*
G36*
G01*
X104043750Y-142512500D02*
X104956250Y-142512500D01*
G75*
G02*
X105200000Y-142756250I0J-243750D01*
G01*
X105200000Y-143243750D01*
G75*
G02*
X104956250Y-143487500I-243750J0D01*
G01*
X104043750Y-143487500D01*
G75*
G02*
X103800000Y-143243750I0J243750D01*
G01*
X103800000Y-142756250D01*
G75*
G02*
X104043750Y-142512500I243750J0D01*
G01*
G37*
D11*
X178000000Y-112000000D03*
D12*
X176833274Y-113166726D03*
X176833274Y-110833274D03*
X179166726Y-113166726D03*
X179166726Y-110833274D03*
X179650000Y-112000000D03*
X176350000Y-112000000D03*
X178000000Y-113650000D03*
X178000000Y-110350000D03*
X176833274Y-116333274D03*
X178000000Y-119150000D03*
X179166726Y-118666726D03*
X176350000Y-117500000D03*
X178000000Y-115850000D03*
D11*
X178000000Y-117500000D03*
D12*
X176833274Y-118666726D03*
X179166726Y-116333274D03*
X179650000Y-117500000D03*
D10*
X120000000Y-133000000D03*
D13*
X101500000Y-80500000D03*
D14*
X104040000Y-80500000D03*
D10*
X136000000Y-147000000D03*
X105000000Y-94000000D03*
G36*
G01*
X207043750Y-131637500D02*
X207956250Y-131637500D01*
G75*
G02*
X208200000Y-131881250I0J-243750D01*
G01*
X208200000Y-132368750D01*
G75*
G02*
X207956250Y-132612500I-243750J0D01*
G01*
X207043750Y-132612500D01*
G75*
G02*
X206800000Y-132368750I0J243750D01*
G01*
X206800000Y-131881250D01*
G75*
G02*
X207043750Y-131637500I243750J0D01*
G01*
G37*
G36*
G01*
X207043750Y-133512500D02*
X207956250Y-133512500D01*
G75*
G02*
X208200000Y-133756250I0J-243750D01*
G01*
X208200000Y-134243750D01*
G75*
G02*
X207956250Y-134487500I-243750J0D01*
G01*
X207043750Y-134487500D01*
G75*
G02*
X206800000Y-134243750I0J243750D01*
G01*
X206800000Y-133756250D01*
G75*
G02*
X207043750Y-133512500I243750J0D01*
G01*
G37*
G36*
G01*
X119605000Y-107325000D02*
X119905000Y-107325000D01*
G75*
G02*
X120055000Y-107475000I0J-150000D01*
G01*
X120055000Y-109225000D01*
G75*
G02*
X119905000Y-109375000I-150000J0D01*
G01*
X119605000Y-109375000D01*
G75*
G02*
X119455000Y-109225000I0J150000D01*
G01*
X119455000Y-107475000D01*
G75*
G02*
X119605000Y-107325000I150000J0D01*
G01*
G37*
G36*
G01*
X118335000Y-107325000D02*
X118635000Y-107325000D01*
G75*
G02*
X118785000Y-107475000I0J-150000D01*
G01*
X118785000Y-109225000D01*
G75*
G02*
X118635000Y-109375000I-150000J0D01*
G01*
X118335000Y-109375000D01*
G75*
G02*
X118185000Y-109225000I0J150000D01*
G01*
X118185000Y-107475000D01*
G75*
G02*
X118335000Y-107325000I150000J0D01*
G01*
G37*
G36*
G01*
X117065000Y-107325000D02*
X117365000Y-107325000D01*
G75*
G02*
X117515000Y-107475000I0J-150000D01*
G01*
X117515000Y-109225000D01*
G75*
G02*
X117365000Y-109375000I-150000J0D01*
G01*
X117065000Y-109375000D01*
G75*
G02*
X116915000Y-109225000I0J150000D01*
G01*
X116915000Y-107475000D01*
G75*
G02*
X117065000Y-107325000I150000J0D01*
G01*
G37*
G36*
G01*
X115795000Y-107325000D02*
X116095000Y-107325000D01*
G75*
G02*
X116245000Y-107475000I0J-150000D01*
G01*
X116245000Y-109225000D01*
G75*
G02*
X116095000Y-109375000I-150000J0D01*
G01*
X115795000Y-109375000D01*
G75*
G02*
X115645000Y-109225000I0J150000D01*
G01*
X115645000Y-107475000D01*
G75*
G02*
X115795000Y-107325000I150000J0D01*
G01*
G37*
G36*
G01*
X114525000Y-107325000D02*
X114825000Y-107325000D01*
G75*
G02*
X114975000Y-107475000I0J-150000D01*
G01*
X114975000Y-109225000D01*
G75*
G02*
X114825000Y-109375000I-150000J0D01*
G01*
X114525000Y-109375000D01*
G75*
G02*
X114375000Y-109225000I0J150000D01*
G01*
X114375000Y-107475000D01*
G75*
G02*
X114525000Y-107325000I150000J0D01*
G01*
G37*
G36*
G01*
X113255000Y-107325000D02*
X113555000Y-107325000D01*
G75*
G02*
X113705000Y-107475000I0J-150000D01*
G01*
X113705000Y-109225000D01*
G75*
G02*
X113555000Y-109375000I-150000J0D01*
G01*
X113255000Y-109375000D01*
G75*
G02*
X113105000Y-109225000I0J150000D01*
G01*
X113105000Y-107475000D01*
G75*
G02*
X113255000Y-107325000I150000J0D01*
G01*
G37*
G36*
G01*
X111985000Y-107325000D02*
X112285000Y-107325000D01*
G75*
G02*
X112435000Y-107475000I0J-150000D01*
G01*
X112435000Y-109225000D01*
G75*
G02*
X112285000Y-109375000I-150000J0D01*
G01*
X111985000Y-109375000D01*
G75*
G02*
X111835000Y-109225000I0J150000D01*
G01*
X111835000Y-107475000D01*
G75*
G02*
X111985000Y-107325000I150000J0D01*
G01*
G37*
G36*
G01*
X110715000Y-107325000D02*
X111015000Y-107325000D01*
G75*
G02*
X111165000Y-107475000I0J-150000D01*
G01*
X111165000Y-109225000D01*
G75*
G02*
X111015000Y-109375000I-150000J0D01*
G01*
X110715000Y-109375000D01*
G75*
G02*
X110565000Y-109225000I0J150000D01*
G01*
X110565000Y-107475000D01*
G75*
G02*
X110715000Y-107325000I150000J0D01*
G01*
G37*
G36*
G01*
X109445000Y-107325000D02*
X109745000Y-107325000D01*
G75*
G02*
X109895000Y-107475000I0J-150000D01*
G01*
X109895000Y-109225000D01*
G75*
G02*
X109745000Y-109375000I-150000J0D01*
G01*
X109445000Y-109375000D01*
G75*
G02*
X109295000Y-109225000I0J150000D01*
G01*
X109295000Y-107475000D01*
G75*
G02*
X109445000Y-107325000I150000J0D01*
G01*
G37*
G36*
G01*
X108175000Y-107325000D02*
X108475000Y-107325000D01*
G75*
G02*
X108625000Y-107475000I0J-150000D01*
G01*
X108625000Y-109225000D01*
G75*
G02*
X108475000Y-109375000I-150000J0D01*
G01*
X108175000Y-109375000D01*
G75*
G02*
X108025000Y-109225000I0J150000D01*
G01*
X108025000Y-107475000D01*
G75*
G02*
X108175000Y-107325000I150000J0D01*
G01*
G37*
G36*
G01*
X106905000Y-107325000D02*
X107205000Y-107325000D01*
G75*
G02*
X107355000Y-107475000I0J-150000D01*
G01*
X107355000Y-109225000D01*
G75*
G02*
X107205000Y-109375000I-150000J0D01*
G01*
X106905000Y-109375000D01*
G75*
G02*
X106755000Y-109225000I0J150000D01*
G01*
X106755000Y-107475000D01*
G75*
G02*
X106905000Y-107325000I150000J0D01*
G01*
G37*
G36*
G01*
X105635000Y-107325000D02*
X105935000Y-107325000D01*
G75*
G02*
X106085000Y-107475000I0J-150000D01*
G01*
X106085000Y-109225000D01*
G75*
G02*
X105935000Y-109375000I-150000J0D01*
G01*
X105635000Y-109375000D01*
G75*
G02*
X105485000Y-109225000I0J150000D01*
G01*
X105485000Y-107475000D01*
G75*
G02*
X105635000Y-107325000I150000J0D01*
G01*
G37*
G36*
G01*
X104365000Y-107325000D02*
X104665000Y-107325000D01*
G75*
G02*
X104815000Y-107475000I0J-150000D01*
G01*
X104815000Y-109225000D01*
G75*
G02*
X104665000Y-109375000I-150000J0D01*
G01*
X104365000Y-109375000D01*
G75*
G02*
X104215000Y-109225000I0J150000D01*
G01*
X104215000Y-107475000D01*
G75*
G02*
X104365000Y-107325000I150000J0D01*
G01*
G37*
G36*
G01*
X103095000Y-107325000D02*
X103395000Y-107325000D01*
G75*
G02*
X103545000Y-107475000I0J-150000D01*
G01*
X103545000Y-109225000D01*
G75*
G02*
X103395000Y-109375000I-150000J0D01*
G01*
X103095000Y-109375000D01*
G75*
G02*
X102945000Y-109225000I0J150000D01*
G01*
X102945000Y-107475000D01*
G75*
G02*
X103095000Y-107325000I150000J0D01*
G01*
G37*
G36*
G01*
X103095000Y-116625000D02*
X103395000Y-116625000D01*
G75*
G02*
X103545000Y-116775000I0J-150000D01*
G01*
X103545000Y-118525000D01*
G75*
G02*
X103395000Y-118675000I-150000J0D01*
G01*
X103095000Y-118675000D01*
G75*
G02*
X102945000Y-118525000I0J150000D01*
G01*
X102945000Y-116775000D01*
G75*
G02*
X103095000Y-116625000I150000J0D01*
G01*
G37*
G36*
G01*
X104365000Y-116625000D02*
X104665000Y-116625000D01*
G75*
G02*
X104815000Y-116775000I0J-150000D01*
G01*
X104815000Y-118525000D01*
G75*
G02*
X104665000Y-118675000I-150000J0D01*
G01*
X104365000Y-118675000D01*
G75*
G02*
X104215000Y-118525000I0J150000D01*
G01*
X104215000Y-116775000D01*
G75*
G02*
X104365000Y-116625000I150000J0D01*
G01*
G37*
G36*
G01*
X105635000Y-116625000D02*
X105935000Y-116625000D01*
G75*
G02*
X106085000Y-116775000I0J-150000D01*
G01*
X106085000Y-118525000D01*
G75*
G02*
X105935000Y-118675000I-150000J0D01*
G01*
X105635000Y-118675000D01*
G75*
G02*
X105485000Y-118525000I0J150000D01*
G01*
X105485000Y-116775000D01*
G75*
G02*
X105635000Y-116625000I150000J0D01*
G01*
G37*
G36*
G01*
X106905000Y-116625000D02*
X107205000Y-116625000D01*
G75*
G02*
X107355000Y-116775000I0J-150000D01*
G01*
X107355000Y-118525000D01*
G75*
G02*
X107205000Y-118675000I-150000J0D01*
G01*
X106905000Y-118675000D01*
G75*
G02*
X106755000Y-118525000I0J150000D01*
G01*
X106755000Y-116775000D01*
G75*
G02*
X106905000Y-116625000I150000J0D01*
G01*
G37*
G36*
G01*
X108175000Y-116625000D02*
X108475000Y-116625000D01*
G75*
G02*
X108625000Y-116775000I0J-150000D01*
G01*
X108625000Y-118525000D01*
G75*
G02*
X108475000Y-118675000I-150000J0D01*
G01*
X108175000Y-118675000D01*
G75*
G02*
X108025000Y-118525000I0J150000D01*
G01*
X108025000Y-116775000D01*
G75*
G02*
X108175000Y-116625000I150000J0D01*
G01*
G37*
G36*
G01*
X109445000Y-116625000D02*
X109745000Y-116625000D01*
G75*
G02*
X109895000Y-116775000I0J-150000D01*
G01*
X109895000Y-118525000D01*
G75*
G02*
X109745000Y-118675000I-150000J0D01*
G01*
X109445000Y-118675000D01*
G75*
G02*
X109295000Y-118525000I0J150000D01*
G01*
X109295000Y-116775000D01*
G75*
G02*
X109445000Y-116625000I150000J0D01*
G01*
G37*
G36*
G01*
X110715000Y-116625000D02*
X111015000Y-116625000D01*
G75*
G02*
X111165000Y-116775000I0J-150000D01*
G01*
X111165000Y-118525000D01*
G75*
G02*
X111015000Y-118675000I-150000J0D01*
G01*
X110715000Y-118675000D01*
G75*
G02*
X110565000Y-118525000I0J150000D01*
G01*
X110565000Y-116775000D01*
G75*
G02*
X110715000Y-116625000I150000J0D01*
G01*
G37*
G36*
G01*
X111985000Y-116625000D02*
X112285000Y-116625000D01*
G75*
G02*
X112435000Y-116775000I0J-150000D01*
G01*
X112435000Y-118525000D01*
G75*
G02*
X112285000Y-118675000I-150000J0D01*
G01*
X111985000Y-118675000D01*
G75*
G02*
X111835000Y-118525000I0J150000D01*
G01*
X111835000Y-116775000D01*
G75*
G02*
X111985000Y-116625000I150000J0D01*
G01*
G37*
G36*
G01*
X113255000Y-116625000D02*
X113555000Y-116625000D01*
G75*
G02*
X113705000Y-116775000I0J-150000D01*
G01*
X113705000Y-118525000D01*
G75*
G02*
X113555000Y-118675000I-150000J0D01*
G01*
X113255000Y-118675000D01*
G75*
G02*
X113105000Y-118525000I0J150000D01*
G01*
X113105000Y-116775000D01*
G75*
G02*
X113255000Y-116625000I150000J0D01*
G01*
G37*
G36*
G01*
X114525000Y-116625000D02*
X114825000Y-116625000D01*
G75*
G02*
X114975000Y-116775000I0J-150000D01*
G01*
X114975000Y-118525000D01*
G75*
G02*
X114825000Y-118675000I-150000J0D01*
G01*
X114525000Y-118675000D01*
G75*
G02*
X114375000Y-118525000I0J150000D01*
G01*
X114375000Y-116775000D01*
G75*
G02*
X114525000Y-116625000I150000J0D01*
G01*
G37*
G36*
G01*
X115795000Y-116625000D02*
X116095000Y-116625000D01*
G75*
G02*
X116245000Y-116775000I0J-150000D01*
G01*
X116245000Y-118525000D01*
G75*
G02*
X116095000Y-118675000I-150000J0D01*
G01*
X115795000Y-118675000D01*
G75*
G02*
X115645000Y-118525000I0J150000D01*
G01*
X115645000Y-116775000D01*
G75*
G02*
X115795000Y-116625000I150000J0D01*
G01*
G37*
G36*
G01*
X117065000Y-116625000D02*
X117365000Y-116625000D01*
G75*
G02*
X117515000Y-116775000I0J-150000D01*
G01*
X117515000Y-118525000D01*
G75*
G02*
X117365000Y-118675000I-150000J0D01*
G01*
X117065000Y-118675000D01*
G75*
G02*
X116915000Y-118525000I0J150000D01*
G01*
X116915000Y-116775000D01*
G75*
G02*
X117065000Y-116625000I150000J0D01*
G01*
G37*
G36*
G01*
X118335000Y-116625000D02*
X118635000Y-116625000D01*
G75*
G02*
X118785000Y-116775000I0J-150000D01*
G01*
X118785000Y-118525000D01*
G75*
G02*
X118635000Y-118675000I-150000J0D01*
G01*
X118335000Y-118675000D01*
G75*
G02*
X118185000Y-118525000I0J150000D01*
G01*
X118185000Y-116775000D01*
G75*
G02*
X118335000Y-116625000I150000J0D01*
G01*
G37*
G36*
G01*
X119605000Y-116625000D02*
X119905000Y-116625000D01*
G75*
G02*
X120055000Y-116775000I0J-150000D01*
G01*
X120055000Y-118525000D01*
G75*
G02*
X119905000Y-118675000I-150000J0D01*
G01*
X119605000Y-118675000D01*
G75*
G02*
X119455000Y-118525000I0J150000D01*
G01*
X119455000Y-116775000D01*
G75*
G02*
X119605000Y-116625000I150000J0D01*
G01*
G37*
D15*
X146000000Y-110000000D03*
D16*
X146000000Y-112540000D03*
X146000000Y-115080000D03*
X146000000Y-117620000D03*
X146000000Y-120160000D03*
X146000000Y-122700000D03*
X146000000Y-125240000D03*
X146000000Y-127780000D03*
D15*
X157600000Y-79000000D03*
D16*
X155060000Y-79000000D03*
X152520000Y-79000000D03*
X149980000Y-79000000D03*
X147440000Y-79000000D03*
X144900000Y-79000000D03*
X142360000Y-79000000D03*
D13*
X101460000Y-147000000D03*
D14*
X104000000Y-147000000D03*
D17*
X189500000Y-128000000D03*
G36*
G01*
X204087500Y-106443750D02*
X204087500Y-107356250D01*
G75*
G02*
X203843750Y-107600000I-243750J0D01*
G01*
X203356250Y-107600000D01*
G75*
G02*
X203112500Y-107356250I0J243750D01*
G01*
X203112500Y-106443750D01*
G75*
G02*
X203356250Y-106200000I243750J0D01*
G01*
X203843750Y-106200000D01*
G75*
G02*
X204087500Y-106443750I0J-243750D01*
G01*
G37*
G36*
G01*
X202212500Y-106443750D02*
X202212500Y-107356250D01*
G75*
G02*
X201968750Y-107600000I-243750J0D01*
G01*
X201481250Y-107600000D01*
G75*
G02*
X201237500Y-107356250I0J243750D01*
G01*
X201237500Y-106443750D01*
G75*
G02*
X201481250Y-106200000I243750J0D01*
G01*
X201968750Y-106200000D01*
G75*
G02*
X202212500Y-106443750I0J-243750D01*
G01*
G37*
D15*
X93000000Y-105880000D03*
D16*
X93000000Y-108420000D03*
X93000000Y-110960000D03*
X93000000Y-113500000D03*
X93000000Y-116040000D03*
X93000000Y-118580000D03*
X93000000Y-121120000D03*
D10*
X136000000Y-80000000D03*
X112500000Y-133000000D03*
G36*
G01*
X106043750Y-102637500D02*
X106956250Y-102637500D01*
G75*
G02*
X107200000Y-102881250I0J-243750D01*
G01*
X107200000Y-103368750D01*
G75*
G02*
X106956250Y-103612500I-243750J0D01*
G01*
X106043750Y-103612500D01*
G75*
G02*
X105800000Y-103368750I0J243750D01*
G01*
X105800000Y-102881250D01*
G75*
G02*
X106043750Y-102637500I243750J0D01*
G01*
G37*
G36*
G01*
X106043750Y-104512500D02*
X106956250Y-104512500D01*
G75*
G02*
X107200000Y-104756250I0J-243750D01*
G01*
X107200000Y-105243750D01*
G75*
G02*
X106956250Y-105487500I-243750J0D01*
G01*
X106043750Y-105487500D01*
G75*
G02*
X105800000Y-105243750I0J243750D01*
G01*
X105800000Y-104756250D01*
G75*
G02*
X106043750Y-104512500I243750J0D01*
G01*
G37*
X95000000Y-146000000D03*
D17*
X171500000Y-128000000D03*
D10*
X205000000Y-81000000D03*
G36*
G01*
X204150000Y-104443750D02*
X204150000Y-105356250D01*
G75*
G02*
X203906250Y-105600000I-243750J0D01*
G01*
X203418750Y-105600000D01*
G75*
G02*
X203175000Y-105356250I0J243750D01*
G01*
X203175000Y-104443750D01*
G75*
G02*
X203418750Y-104200000I243750J0D01*
G01*
X203906250Y-104200000D01*
G75*
G02*
X204150000Y-104443750I0J-243750D01*
G01*
G37*
G36*
G01*
X202275000Y-104443750D02*
X202275000Y-105356250D01*
G75*
G02*
X202031250Y-105600000I-243750J0D01*
G01*
X201543750Y-105600000D01*
G75*
G02*
X201300000Y-105356250I0J243750D01*
G01*
X201300000Y-104443750D01*
G75*
G02*
X201543750Y-104200000I243750J0D01*
G01*
X202031250Y-104200000D01*
G75*
G02*
X202275000Y-104443750I0J-243750D01*
G01*
G37*
D17*
X189500000Y-99000000D03*
G36*
G01*
X108043750Y-102637500D02*
X108956250Y-102637500D01*
G75*
G02*
X109200000Y-102881250I0J-243750D01*
G01*
X109200000Y-103368750D01*
G75*
G02*
X108956250Y-103612500I-243750J0D01*
G01*
X108043750Y-103612500D01*
G75*
G02*
X107800000Y-103368750I0J243750D01*
G01*
X107800000Y-102881250D01*
G75*
G02*
X108043750Y-102637500I243750J0D01*
G01*
G37*
G36*
G01*
X108043750Y-104512500D02*
X108956250Y-104512500D01*
G75*
G02*
X109200000Y-104756250I0J-243750D01*
G01*
X109200000Y-105243750D01*
G75*
G02*
X108956250Y-105487500I-243750J0D01*
G01*
X108043750Y-105487500D01*
G75*
G02*
X107800000Y-105243750I0J243750D01*
G01*
X107800000Y-104756250D01*
G75*
G02*
X108043750Y-104512500I243750J0D01*
G01*
G37*
G36*
G01*
X200650000Y-104443750D02*
X200650000Y-105356250D01*
G75*
G02*
X200406250Y-105600000I-243750J0D01*
G01*
X199918750Y-105600000D01*
G75*
G02*
X199675000Y-105356250I0J243750D01*
G01*
X199675000Y-104443750D01*
G75*
G02*
X199918750Y-104200000I243750J0D01*
G01*
X200406250Y-104200000D01*
G75*
G02*
X200650000Y-104443750I0J-243750D01*
G01*
G37*
G36*
G01*
X198775000Y-104443750D02*
X198775000Y-105356250D01*
G75*
G02*
X198531250Y-105600000I-243750J0D01*
G01*
X198043750Y-105600000D01*
G75*
G02*
X197800000Y-105356250I0J243750D01*
G01*
X197800000Y-104443750D01*
G75*
G02*
X198043750Y-104200000I243750J0D01*
G01*
X198531250Y-104200000D01*
G75*
G02*
X198775000Y-104443750I0J-243750D01*
G01*
G37*
X171500000Y-99000000D03*
D12*
X182333274Y-116333274D03*
X183500000Y-115850000D03*
X184666726Y-116333274D03*
X184666726Y-118666726D03*
D11*
X183500000Y-117500000D03*
D12*
X181850000Y-117500000D03*
X182333274Y-118666726D03*
X185150000Y-117500000D03*
X183500000Y-119150000D03*
D13*
X205000000Y-89000000D03*
D14*
X207540000Y-89000000D03*
D15*
X142380000Y-148000000D03*
D16*
X144920000Y-148000000D03*
X147460000Y-148000000D03*
X150000000Y-148000000D03*
X152540000Y-148000000D03*
X155080000Y-148000000D03*
X157620000Y-148000000D03*
G36*
G01*
X139100000Y-104350000D02*
X137900000Y-104350000D01*
G75*
G02*
X137650000Y-104100000I0J250000D01*
G01*
X137650000Y-102900000D01*
G75*
G02*
X137900000Y-102650000I250000J0D01*
G01*
X139100000Y-102650000D01*
G75*
G02*
X139350000Y-102900000I0J-250000D01*
G01*
X139350000Y-104100000D01*
G75*
G02*
X139100000Y-104350000I-250000J0D01*
G01*
G37*
D18*
X138500000Y-100960000D03*
X141040000Y-103500000D03*
X141040000Y-100960000D03*
X143580000Y-103500000D03*
X143580000Y-100960000D03*
X146120000Y-103500000D03*
X146120000Y-100960000D03*
X148660000Y-103500000D03*
X148660000Y-100960000D03*
D15*
X207000000Y-121120000D03*
D16*
X207000000Y-118580000D03*
X207000000Y-116040000D03*
X207000000Y-113500000D03*
X207000000Y-110960000D03*
X207000000Y-108420000D03*
X207000000Y-105880000D03*
D19*
X202500000Y-100275000D03*
X201850000Y-100275000D03*
X201200000Y-100275000D03*
X200550000Y-100275000D03*
X199900000Y-100275000D03*
D20*
X201200000Y-98375000D03*
D21*
X204000000Y-100525000D03*
X198400000Y-100525000D03*
G36*
G01*
X109425000Y-120043750D02*
X109425000Y-120956250D01*
G75*
G02*
X109181250Y-121200000I-243750J0D01*
G01*
X108693750Y-121200000D01*
G75*
G02*
X108450000Y-120956250I0J243750D01*
G01*
X108450000Y-120043750D01*
G75*
G02*
X108693750Y-119800000I243750J0D01*
G01*
X109181250Y-119800000D01*
G75*
G02*
X109425000Y-120043750I0J-243750D01*
G01*
G37*
G36*
G01*
X107550000Y-120043750D02*
X107550000Y-120956250D01*
G75*
G02*
X107306250Y-121200000I-243750J0D01*
G01*
X106818750Y-121200000D01*
G75*
G02*
X106575000Y-120956250I0J243750D01*
G01*
X106575000Y-120043750D01*
G75*
G02*
X106818750Y-119800000I243750J0D01*
G01*
X107306250Y-119800000D01*
G75*
G02*
X107550000Y-120043750I0J-243750D01*
G01*
G37*
D12*
X183500000Y-113650000D03*
X181850000Y-112000000D03*
X185150000Y-112000000D03*
X184666726Y-110833274D03*
X183500000Y-110350000D03*
X182333274Y-110833274D03*
X182333274Y-113166726D03*
X184666726Y-113166726D03*
D11*
X183500000Y-112000000D03*
D13*
X205000000Y-138000000D03*
D14*
X207540000Y-138000000D03*
G36*
G01*
X204125000Y-108443750D02*
X204125000Y-109356250D01*
G75*
G02*
X203881250Y-109600000I-243750J0D01*
G01*
X203393750Y-109600000D01*
G75*
G02*
X203150000Y-109356250I0J243750D01*
G01*
X203150000Y-108443750D01*
G75*
G02*
X203393750Y-108200000I243750J0D01*
G01*
X203881250Y-108200000D01*
G75*
G02*
X204125000Y-108443750I0J-243750D01*
G01*
G37*
G36*
G01*
X202250000Y-108443750D02*
X202250000Y-109356250D01*
G75*
G02*
X202006250Y-109600000I-243750J0D01*
G01*
X201518750Y-109600000D01*
G75*
G02*
X201275000Y-109356250I0J243750D01*
G01*
X201275000Y-108443750D01*
G75*
G02*
X201518750Y-108200000I243750J0D01*
G01*
X202006250Y-108200000D01*
G75*
G02*
X202250000Y-108443750I0J-243750D01*
G01*
G37*
D15*
X161240000Y-127780000D03*
D16*
X161240000Y-125240000D03*
X161240000Y-122700000D03*
X161240000Y-120160000D03*
X161240000Y-117620000D03*
X161240000Y-115080000D03*
X161240000Y-112540000D03*
X161240000Y-110000000D03*
D10*
X120000000Y-94000000D03*
M02*
