G04 #@! TF.GenerationSoftware,KiCad,Pcbnew,5.99.0-unknown-15c4a7b06~104~ubuntu18.04.1*
G04 #@! TF.CreationDate,2020-09-30T21:22:08+01:00*
G04 #@! TF.ProjectId,nesta proto 2.1,6e657374-6120-4707-926f-746f20322e31,rev?*
G04 #@! TF.SameCoordinates,Original*
G04 #@! TF.FileFunction,Copper,L1,Top*
G04 #@! TF.FilePolarity,Positive*
%FSLAX46Y46*%
G04 Gerber Fmt 4.6, Leading zero omitted, Abs format (unit mm)*
G04 Created by KiCad (PCBNEW 5.99.0-unknown-15c4a7b06~104~ubuntu18.04.1) date 2020-09-30 21:22:08*
%MOMM*%
%LPD*%
G01*
G04 APERTURE LIST*
%ADD10C,0.300000*%
G04 #@! TA.AperFunction,ComponentPad*
%ADD11C,4.400000*%
G04 #@! TD*
G04 #@! TA.AperFunction,ComponentPad*
%ADD12C,0.700000*%
G04 #@! TD*
G04 #@! TA.AperFunction,ComponentPad*
%ADD13R,1.800000X1.800000*%
G04 #@! TD*
G04 #@! TA.AperFunction,ComponentPad*
%ADD14C,1.800000*%
G04 #@! TD*
G04 #@! TA.AperFunction,ComponentPad*
%ADD15R,1.700000X1.700000*%
G04 #@! TD*
G04 #@! TA.AperFunction,ComponentPad*
%ADD16O,1.700000X1.700000*%
G04 #@! TD*
G04 #@! TA.AperFunction,ComponentPad*
%ADD17C,1.700000*%
G04 #@! TD*
G04 #@! TA.AperFunction,SMDPad,CuDef*
%ADD18R,0.450000X1.500000*%
G04 #@! TD*
G04 #@! TA.AperFunction,ComponentPad*
%ADD19O,2.200000X1.100000*%
G04 #@! TD*
G04 #@! TA.AperFunction,ComponentPad*
%ADD20O,1.800000X1.100000*%
G04 #@! TD*
G04 #@! TA.AperFunction,ViaPad*
%ADD21C,0.800000*%
G04 #@! TD*
G04 #@! TA.AperFunction,Conductor*
%ADD22C,1.000000*%
G04 #@! TD*
G04 #@! TA.AperFunction,Conductor*
%ADD23C,0.400000*%
G04 #@! TD*
G04 #@! TA.AperFunction,Conductor*
%ADD24C,0.250000*%
G04 #@! TD*
G04 #@! TA.AperFunction,Conductor*
%ADD25C,0.200000*%
G04 #@! TD*
G04 APERTURE END LIST*
D10*
X106392857Y-88178571D02*
X106392857Y-86678571D01*
X107250000Y-88178571D01*
X107250000Y-86678571D01*
X108535714Y-88107142D02*
X108392857Y-88178571D01*
X108107142Y-88178571D01*
X107964285Y-88107142D01*
X107892857Y-87964285D01*
X107892857Y-87392857D01*
X107964285Y-87250000D01*
X108107142Y-87178571D01*
X108392857Y-87178571D01*
X108535714Y-87250000D01*
X108607142Y-87392857D01*
X108607142Y-87535714D01*
X107892857Y-87678571D01*
X109178571Y-88107142D02*
X109321428Y-88178571D01*
X109607142Y-88178571D01*
X109750000Y-88107142D01*
X109821428Y-87964285D01*
X109821428Y-87892857D01*
X109750000Y-87750000D01*
X109607142Y-87678571D01*
X109392857Y-87678571D01*
X109250000Y-87607142D01*
X109178571Y-87464285D01*
X109178571Y-87392857D01*
X109250000Y-87250000D01*
X109392857Y-87178571D01*
X109607142Y-87178571D01*
X109750000Y-87250000D01*
X110250000Y-87178571D02*
X110821428Y-87178571D01*
X110464285Y-86678571D02*
X110464285Y-87964285D01*
X110535714Y-88107142D01*
X110678571Y-88178571D01*
X110821428Y-88178571D01*
X111964285Y-88178571D02*
X111964285Y-87392857D01*
X111892857Y-87250000D01*
X111750000Y-87178571D01*
X111464285Y-87178571D01*
X111321428Y-87250000D01*
X111964285Y-88107142D02*
X111821428Y-88178571D01*
X111464285Y-88178571D01*
X111321428Y-88107142D01*
X111250000Y-87964285D01*
X111250000Y-87821428D01*
X111321428Y-87678571D01*
X111464285Y-87607142D01*
X111821428Y-87607142D01*
X111964285Y-87535714D01*
X113750000Y-88107142D02*
X113964285Y-88178571D01*
X114321428Y-88178571D01*
X114464285Y-88107142D01*
X114535714Y-88035714D01*
X114607142Y-87892857D01*
X114607142Y-87750000D01*
X114535714Y-87607142D01*
X114464285Y-87535714D01*
X114321428Y-87464285D01*
X114035714Y-87392857D01*
X113892857Y-87321428D01*
X113821428Y-87250000D01*
X113750000Y-87107142D01*
X113750000Y-86964285D01*
X113821428Y-86821428D01*
X113892857Y-86750000D01*
X114035714Y-86678571D01*
X114392857Y-86678571D01*
X114607142Y-86750000D01*
X115107142Y-87178571D02*
X115392857Y-88178571D01*
X115678571Y-87464285D01*
X115964285Y-88178571D01*
X116250000Y-87178571D01*
X117464285Y-88178571D02*
X117464285Y-87392857D01*
X117392857Y-87250000D01*
X117250000Y-87178571D01*
X116964285Y-87178571D01*
X116821428Y-87250000D01*
X117464285Y-88107142D02*
X117321428Y-88178571D01*
X116964285Y-88178571D01*
X116821428Y-88107142D01*
X116750000Y-87964285D01*
X116750000Y-87821428D01*
X116821428Y-87678571D01*
X116964285Y-87607142D01*
X117321428Y-87607142D01*
X117464285Y-87535714D01*
X118178571Y-88178571D02*
X118178571Y-87178571D01*
X118178571Y-87464285D02*
X118250000Y-87321428D01*
X118321428Y-87250000D01*
X118464285Y-87178571D01*
X118607142Y-87178571D01*
X119107142Y-88178571D02*
X119107142Y-87178571D01*
X119107142Y-87321428D02*
X119178571Y-87250000D01*
X119321428Y-87178571D01*
X119535714Y-87178571D01*
X119678571Y-87250000D01*
X119750000Y-87392857D01*
X119750000Y-88178571D01*
X119750000Y-87392857D02*
X119821428Y-87250000D01*
X119964285Y-87178571D01*
X120178571Y-87178571D01*
X120321428Y-87250000D01*
X120392857Y-87392857D01*
X120392857Y-88178571D01*
X122750000Y-87392857D02*
X122964285Y-87464285D01*
X123035714Y-87535714D01*
X123107142Y-87678571D01*
X123107142Y-87892857D01*
X123035714Y-88035714D01*
X122964285Y-88107142D01*
X122821428Y-88178571D01*
X122250000Y-88178571D01*
X122250000Y-86678571D01*
X122750000Y-86678571D01*
X122892857Y-86750000D01*
X122964285Y-86821428D01*
X123035714Y-86964285D01*
X123035714Y-87107142D01*
X122964285Y-87250000D01*
X122892857Y-87321428D01*
X122750000Y-87392857D01*
X122250000Y-87392857D01*
X124392857Y-88178571D02*
X124392857Y-87392857D01*
X124321428Y-87250000D01*
X124178571Y-87178571D01*
X123892857Y-87178571D01*
X123750000Y-87250000D01*
X124392857Y-88107142D02*
X124250000Y-88178571D01*
X123892857Y-88178571D01*
X123750000Y-88107142D01*
X123678571Y-87964285D01*
X123678571Y-87821428D01*
X123750000Y-87678571D01*
X123892857Y-87607142D01*
X124250000Y-87607142D01*
X124392857Y-87535714D01*
X125035714Y-88107142D02*
X125178571Y-88178571D01*
X125464285Y-88178571D01*
X125607142Y-88107142D01*
X125678571Y-87964285D01*
X125678571Y-87892857D01*
X125607142Y-87750000D01*
X125464285Y-87678571D01*
X125250000Y-87678571D01*
X125107142Y-87607142D01*
X125035714Y-87464285D01*
X125035714Y-87392857D01*
X125107142Y-87250000D01*
X125250000Y-87178571D01*
X125464285Y-87178571D01*
X125607142Y-87250000D01*
X126892857Y-88107142D02*
X126750000Y-88178571D01*
X126464285Y-88178571D01*
X126321428Y-88107142D01*
X126250000Y-87964285D01*
X126250000Y-87392857D01*
X126321428Y-87250000D01*
X126464285Y-87178571D01*
X126750000Y-87178571D01*
X126892857Y-87250000D01*
X126964285Y-87392857D01*
X126964285Y-87535714D01*
X126250000Y-87678571D01*
X128678571Y-86821428D02*
X128750000Y-86750000D01*
X128892857Y-86678571D01*
X129250000Y-86678571D01*
X129392857Y-86750000D01*
X129464285Y-86821428D01*
X129535714Y-86964285D01*
X129535714Y-87107142D01*
X129464285Y-87321428D01*
X128607142Y-88178571D01*
X129535714Y-88178571D01*
X130178571Y-88035714D02*
X130250000Y-88107142D01*
X130178571Y-88178571D01*
X130107142Y-88107142D01*
X130178571Y-88035714D01*
X130178571Y-88178571D01*
X131678571Y-88178571D02*
X130821428Y-88178571D01*
X131250000Y-88178571D02*
X131250000Y-86678571D01*
X131107142Y-86892857D01*
X130964285Y-87035714D01*
X130821428Y-87107142D01*
G04 #@! TA.AperFunction,SMDPad,CuDef*
G36*
G01*
X207956250Y-94925000D02*
X207043750Y-94925000D01*
G75*
G02*
X206800000Y-94681250I0J243750D01*
G01*
X206800000Y-94193750D01*
G75*
G02*
X207043750Y-93950000I243750J0D01*
G01*
X207956250Y-93950000D01*
G75*
G02*
X208200000Y-94193750I0J-243750D01*
G01*
X208200000Y-94681250D01*
G75*
G02*
X207956250Y-94925000I-243750J0D01*
G01*
G37*
G04 #@! TD.AperFunction*
G04 #@! TA.AperFunction,SMDPad,CuDef*
G36*
G01*
X207956250Y-93050000D02*
X207043750Y-93050000D01*
G75*
G02*
X206800000Y-92806250I0J243750D01*
G01*
X206800000Y-92318750D01*
G75*
G02*
X207043750Y-92075000I243750J0D01*
G01*
X207956250Y-92075000D01*
G75*
G02*
X208200000Y-92318750I0J-243750D01*
G01*
X208200000Y-92806250D01*
G75*
G02*
X207956250Y-93050000I-243750J0D01*
G01*
G37*
G04 #@! TD.AperFunction*
G04 #@! TA.AperFunction,SMDPad,CuDef*
G36*
G01*
X200625000Y-108443750D02*
X200625000Y-109356250D01*
G75*
G02*
X200381250Y-109600000I-243750J0D01*
G01*
X199893750Y-109600000D01*
G75*
G02*
X199650000Y-109356250I0J243750D01*
G01*
X199650000Y-108443750D01*
G75*
G02*
X199893750Y-108200000I243750J0D01*
G01*
X200381250Y-108200000D01*
G75*
G02*
X200625000Y-108443750I0J-243750D01*
G01*
G37*
G04 #@! TD.AperFunction*
G04 #@! TA.AperFunction,SMDPad,CuDef*
G36*
G01*
X198750000Y-108443750D02*
X198750000Y-109356250D01*
G75*
G02*
X198506250Y-109600000I-243750J0D01*
G01*
X198018750Y-109600000D01*
G75*
G02*
X197775000Y-109356250I0J243750D01*
G01*
X197775000Y-108443750D01*
G75*
G02*
X198018750Y-108200000I243750J0D01*
G01*
X198506250Y-108200000D01*
G75*
G02*
X198750000Y-108443750I0J-243750D01*
G01*
G37*
G04 #@! TD.AperFunction*
G04 #@! TA.AperFunction,SMDPad,CuDef*
G36*
G01*
X200650000Y-106443750D02*
X200650000Y-107356250D01*
G75*
G02*
X200406250Y-107600000I-243750J0D01*
G01*
X199918750Y-107600000D01*
G75*
G02*
X199675000Y-107356250I0J243750D01*
G01*
X199675000Y-106443750D01*
G75*
G02*
X199918750Y-106200000I243750J0D01*
G01*
X200406250Y-106200000D01*
G75*
G02*
X200650000Y-106443750I0J-243750D01*
G01*
G37*
G04 #@! TD.AperFunction*
G04 #@! TA.AperFunction,SMDPad,CuDef*
G36*
G01*
X198775000Y-106443750D02*
X198775000Y-107356250D01*
G75*
G02*
X198531250Y-107600000I-243750J0D01*
G01*
X198043750Y-107600000D01*
G75*
G02*
X197800000Y-107356250I0J243750D01*
G01*
X197800000Y-106443750D01*
G75*
G02*
X198043750Y-106200000I243750J0D01*
G01*
X198531250Y-106200000D01*
G75*
G02*
X198775000Y-106443750I0J-243750D01*
G01*
G37*
G04 #@! TD.AperFunction*
G04 #@! TA.AperFunction,SMDPad,CuDef*
G36*
G01*
X104456250Y-86425000D02*
X103543750Y-86425000D01*
G75*
G02*
X103300000Y-86181250I0J243750D01*
G01*
X103300000Y-85693750D01*
G75*
G02*
X103543750Y-85450000I243750J0D01*
G01*
X104456250Y-85450000D01*
G75*
G02*
X104700000Y-85693750I0J-243750D01*
G01*
X104700000Y-86181250D01*
G75*
G02*
X104456250Y-86425000I-243750J0D01*
G01*
G37*
G04 #@! TD.AperFunction*
G04 #@! TA.AperFunction,SMDPad,CuDef*
G36*
G01*
X104456250Y-84550000D02*
X103543750Y-84550000D01*
G75*
G02*
X103300000Y-84306250I0J243750D01*
G01*
X103300000Y-83818750D01*
G75*
G02*
X103543750Y-83575000I243750J0D01*
G01*
X104456250Y-83575000D01*
G75*
G02*
X104700000Y-83818750I0J-243750D01*
G01*
X104700000Y-84306250D01*
G75*
G02*
X104456250Y-84550000I-243750J0D01*
G01*
G37*
G04 #@! TD.AperFunction*
G04 #@! TA.AperFunction,SMDPad,CuDef*
G36*
G01*
X104043750Y-140637500D02*
X104956250Y-140637500D01*
G75*
G02*
X105200000Y-140881250I0J-243750D01*
G01*
X105200000Y-141368750D01*
G75*
G02*
X104956250Y-141612500I-243750J0D01*
G01*
X104043750Y-141612500D01*
G75*
G02*
X103800000Y-141368750I0J243750D01*
G01*
X103800000Y-140881250D01*
G75*
G02*
X104043750Y-140637500I243750J0D01*
G01*
G37*
G04 #@! TD.AperFunction*
G04 #@! TA.AperFunction,SMDPad,CuDef*
G36*
G01*
X104043750Y-142512500D02*
X104956250Y-142512500D01*
G75*
G02*
X105200000Y-142756250I0J-243750D01*
G01*
X105200000Y-143243750D01*
G75*
G02*
X104956250Y-143487500I-243750J0D01*
G01*
X104043750Y-143487500D01*
G75*
G02*
X103800000Y-143243750I0J243750D01*
G01*
X103800000Y-142756250D01*
G75*
G02*
X104043750Y-142512500I243750J0D01*
G01*
G37*
G04 #@! TD.AperFunction*
D11*
X178000000Y-112000000D03*
D12*
X176833274Y-113166726D03*
X176833274Y-110833274D03*
X179166726Y-113166726D03*
X179166726Y-110833274D03*
X179650000Y-112000000D03*
X176350000Y-112000000D03*
X178000000Y-113650000D03*
X178000000Y-110350000D03*
X176833274Y-116333274D03*
X178000000Y-119150000D03*
X179166726Y-118666726D03*
X176350000Y-117500000D03*
X178000000Y-115850000D03*
D11*
X178000000Y-117500000D03*
D12*
X176833274Y-118666726D03*
X179166726Y-116333274D03*
X179650000Y-117500000D03*
D13*
X101500000Y-80500000D03*
D14*
X104040000Y-80500000D03*
G04 #@! TA.AperFunction,SMDPad,CuDef*
G36*
G01*
X207043750Y-131637500D02*
X207956250Y-131637500D01*
G75*
G02*
X208200000Y-131881250I0J-243750D01*
G01*
X208200000Y-132368750D01*
G75*
G02*
X207956250Y-132612500I-243750J0D01*
G01*
X207043750Y-132612500D01*
G75*
G02*
X206800000Y-132368750I0J243750D01*
G01*
X206800000Y-131881250D01*
G75*
G02*
X207043750Y-131637500I243750J0D01*
G01*
G37*
G04 #@! TD.AperFunction*
G04 #@! TA.AperFunction,SMDPad,CuDef*
G36*
G01*
X207043750Y-133512500D02*
X207956250Y-133512500D01*
G75*
G02*
X208200000Y-133756250I0J-243750D01*
G01*
X208200000Y-134243750D01*
G75*
G02*
X207956250Y-134487500I-243750J0D01*
G01*
X207043750Y-134487500D01*
G75*
G02*
X206800000Y-134243750I0J243750D01*
G01*
X206800000Y-133756250D01*
G75*
G02*
X207043750Y-133512500I243750J0D01*
G01*
G37*
G04 #@! TD.AperFunction*
G04 #@! TA.AperFunction,SMDPad,CuDef*
G36*
G01*
X119605000Y-107325000D02*
X119905000Y-107325000D01*
G75*
G02*
X120055000Y-107475000I0J-150000D01*
G01*
X120055000Y-109225000D01*
G75*
G02*
X119905000Y-109375000I-150000J0D01*
G01*
X119605000Y-109375000D01*
G75*
G02*
X119455000Y-109225000I0J150000D01*
G01*
X119455000Y-107475000D01*
G75*
G02*
X119605000Y-107325000I150000J0D01*
G01*
G37*
G04 #@! TD.AperFunction*
G04 #@! TA.AperFunction,SMDPad,CuDef*
G36*
G01*
X118335000Y-107325000D02*
X118635000Y-107325000D01*
G75*
G02*
X118785000Y-107475000I0J-150000D01*
G01*
X118785000Y-109225000D01*
G75*
G02*
X118635000Y-109375000I-150000J0D01*
G01*
X118335000Y-109375000D01*
G75*
G02*
X118185000Y-109225000I0J150000D01*
G01*
X118185000Y-107475000D01*
G75*
G02*
X118335000Y-107325000I150000J0D01*
G01*
G37*
G04 #@! TD.AperFunction*
G04 #@! TA.AperFunction,SMDPad,CuDef*
G36*
G01*
X117065000Y-107325000D02*
X117365000Y-107325000D01*
G75*
G02*
X117515000Y-107475000I0J-150000D01*
G01*
X117515000Y-109225000D01*
G75*
G02*
X117365000Y-109375000I-150000J0D01*
G01*
X117065000Y-109375000D01*
G75*
G02*
X116915000Y-109225000I0J150000D01*
G01*
X116915000Y-107475000D01*
G75*
G02*
X117065000Y-107325000I150000J0D01*
G01*
G37*
G04 #@! TD.AperFunction*
G04 #@! TA.AperFunction,SMDPad,CuDef*
G36*
G01*
X115795000Y-107325000D02*
X116095000Y-107325000D01*
G75*
G02*
X116245000Y-107475000I0J-150000D01*
G01*
X116245000Y-109225000D01*
G75*
G02*
X116095000Y-109375000I-150000J0D01*
G01*
X115795000Y-109375000D01*
G75*
G02*
X115645000Y-109225000I0J150000D01*
G01*
X115645000Y-107475000D01*
G75*
G02*
X115795000Y-107325000I150000J0D01*
G01*
G37*
G04 #@! TD.AperFunction*
G04 #@! TA.AperFunction,SMDPad,CuDef*
G36*
G01*
X114525000Y-107325000D02*
X114825000Y-107325000D01*
G75*
G02*
X114975000Y-107475000I0J-150000D01*
G01*
X114975000Y-109225000D01*
G75*
G02*
X114825000Y-109375000I-150000J0D01*
G01*
X114525000Y-109375000D01*
G75*
G02*
X114375000Y-109225000I0J150000D01*
G01*
X114375000Y-107475000D01*
G75*
G02*
X114525000Y-107325000I150000J0D01*
G01*
G37*
G04 #@! TD.AperFunction*
G04 #@! TA.AperFunction,SMDPad,CuDef*
G36*
G01*
X113255000Y-107325000D02*
X113555000Y-107325000D01*
G75*
G02*
X113705000Y-107475000I0J-150000D01*
G01*
X113705000Y-109225000D01*
G75*
G02*
X113555000Y-109375000I-150000J0D01*
G01*
X113255000Y-109375000D01*
G75*
G02*
X113105000Y-109225000I0J150000D01*
G01*
X113105000Y-107475000D01*
G75*
G02*
X113255000Y-107325000I150000J0D01*
G01*
G37*
G04 #@! TD.AperFunction*
G04 #@! TA.AperFunction,SMDPad,CuDef*
G36*
G01*
X111985000Y-107325000D02*
X112285000Y-107325000D01*
G75*
G02*
X112435000Y-107475000I0J-150000D01*
G01*
X112435000Y-109225000D01*
G75*
G02*
X112285000Y-109375000I-150000J0D01*
G01*
X111985000Y-109375000D01*
G75*
G02*
X111835000Y-109225000I0J150000D01*
G01*
X111835000Y-107475000D01*
G75*
G02*
X111985000Y-107325000I150000J0D01*
G01*
G37*
G04 #@! TD.AperFunction*
G04 #@! TA.AperFunction,SMDPad,CuDef*
G36*
G01*
X110715000Y-107325000D02*
X111015000Y-107325000D01*
G75*
G02*
X111165000Y-107475000I0J-150000D01*
G01*
X111165000Y-109225000D01*
G75*
G02*
X111015000Y-109375000I-150000J0D01*
G01*
X110715000Y-109375000D01*
G75*
G02*
X110565000Y-109225000I0J150000D01*
G01*
X110565000Y-107475000D01*
G75*
G02*
X110715000Y-107325000I150000J0D01*
G01*
G37*
G04 #@! TD.AperFunction*
G04 #@! TA.AperFunction,SMDPad,CuDef*
G36*
G01*
X109445000Y-107325000D02*
X109745000Y-107325000D01*
G75*
G02*
X109895000Y-107475000I0J-150000D01*
G01*
X109895000Y-109225000D01*
G75*
G02*
X109745000Y-109375000I-150000J0D01*
G01*
X109445000Y-109375000D01*
G75*
G02*
X109295000Y-109225000I0J150000D01*
G01*
X109295000Y-107475000D01*
G75*
G02*
X109445000Y-107325000I150000J0D01*
G01*
G37*
G04 #@! TD.AperFunction*
G04 #@! TA.AperFunction,SMDPad,CuDef*
G36*
G01*
X108175000Y-107325000D02*
X108475000Y-107325000D01*
G75*
G02*
X108625000Y-107475000I0J-150000D01*
G01*
X108625000Y-109225000D01*
G75*
G02*
X108475000Y-109375000I-150000J0D01*
G01*
X108175000Y-109375000D01*
G75*
G02*
X108025000Y-109225000I0J150000D01*
G01*
X108025000Y-107475000D01*
G75*
G02*
X108175000Y-107325000I150000J0D01*
G01*
G37*
G04 #@! TD.AperFunction*
G04 #@! TA.AperFunction,SMDPad,CuDef*
G36*
G01*
X106905000Y-107325000D02*
X107205000Y-107325000D01*
G75*
G02*
X107355000Y-107475000I0J-150000D01*
G01*
X107355000Y-109225000D01*
G75*
G02*
X107205000Y-109375000I-150000J0D01*
G01*
X106905000Y-109375000D01*
G75*
G02*
X106755000Y-109225000I0J150000D01*
G01*
X106755000Y-107475000D01*
G75*
G02*
X106905000Y-107325000I150000J0D01*
G01*
G37*
G04 #@! TD.AperFunction*
G04 #@! TA.AperFunction,SMDPad,CuDef*
G36*
G01*
X105635000Y-107325000D02*
X105935000Y-107325000D01*
G75*
G02*
X106085000Y-107475000I0J-150000D01*
G01*
X106085000Y-109225000D01*
G75*
G02*
X105935000Y-109375000I-150000J0D01*
G01*
X105635000Y-109375000D01*
G75*
G02*
X105485000Y-109225000I0J150000D01*
G01*
X105485000Y-107475000D01*
G75*
G02*
X105635000Y-107325000I150000J0D01*
G01*
G37*
G04 #@! TD.AperFunction*
G04 #@! TA.AperFunction,SMDPad,CuDef*
G36*
G01*
X104365000Y-107325000D02*
X104665000Y-107325000D01*
G75*
G02*
X104815000Y-107475000I0J-150000D01*
G01*
X104815000Y-109225000D01*
G75*
G02*
X104665000Y-109375000I-150000J0D01*
G01*
X104365000Y-109375000D01*
G75*
G02*
X104215000Y-109225000I0J150000D01*
G01*
X104215000Y-107475000D01*
G75*
G02*
X104365000Y-107325000I150000J0D01*
G01*
G37*
G04 #@! TD.AperFunction*
G04 #@! TA.AperFunction,SMDPad,CuDef*
G36*
G01*
X103095000Y-107325000D02*
X103395000Y-107325000D01*
G75*
G02*
X103545000Y-107475000I0J-150000D01*
G01*
X103545000Y-109225000D01*
G75*
G02*
X103395000Y-109375000I-150000J0D01*
G01*
X103095000Y-109375000D01*
G75*
G02*
X102945000Y-109225000I0J150000D01*
G01*
X102945000Y-107475000D01*
G75*
G02*
X103095000Y-107325000I150000J0D01*
G01*
G37*
G04 #@! TD.AperFunction*
G04 #@! TA.AperFunction,SMDPad,CuDef*
G36*
G01*
X103095000Y-116625000D02*
X103395000Y-116625000D01*
G75*
G02*
X103545000Y-116775000I0J-150000D01*
G01*
X103545000Y-118525000D01*
G75*
G02*
X103395000Y-118675000I-150000J0D01*
G01*
X103095000Y-118675000D01*
G75*
G02*
X102945000Y-118525000I0J150000D01*
G01*
X102945000Y-116775000D01*
G75*
G02*
X103095000Y-116625000I150000J0D01*
G01*
G37*
G04 #@! TD.AperFunction*
G04 #@! TA.AperFunction,SMDPad,CuDef*
G36*
G01*
X104365000Y-116625000D02*
X104665000Y-116625000D01*
G75*
G02*
X104815000Y-116775000I0J-150000D01*
G01*
X104815000Y-118525000D01*
G75*
G02*
X104665000Y-118675000I-150000J0D01*
G01*
X104365000Y-118675000D01*
G75*
G02*
X104215000Y-118525000I0J150000D01*
G01*
X104215000Y-116775000D01*
G75*
G02*
X104365000Y-116625000I150000J0D01*
G01*
G37*
G04 #@! TD.AperFunction*
G04 #@! TA.AperFunction,SMDPad,CuDef*
G36*
G01*
X105635000Y-116625000D02*
X105935000Y-116625000D01*
G75*
G02*
X106085000Y-116775000I0J-150000D01*
G01*
X106085000Y-118525000D01*
G75*
G02*
X105935000Y-118675000I-150000J0D01*
G01*
X105635000Y-118675000D01*
G75*
G02*
X105485000Y-118525000I0J150000D01*
G01*
X105485000Y-116775000D01*
G75*
G02*
X105635000Y-116625000I150000J0D01*
G01*
G37*
G04 #@! TD.AperFunction*
G04 #@! TA.AperFunction,SMDPad,CuDef*
G36*
G01*
X106905000Y-116625000D02*
X107205000Y-116625000D01*
G75*
G02*
X107355000Y-116775000I0J-150000D01*
G01*
X107355000Y-118525000D01*
G75*
G02*
X107205000Y-118675000I-150000J0D01*
G01*
X106905000Y-118675000D01*
G75*
G02*
X106755000Y-118525000I0J150000D01*
G01*
X106755000Y-116775000D01*
G75*
G02*
X106905000Y-116625000I150000J0D01*
G01*
G37*
G04 #@! TD.AperFunction*
G04 #@! TA.AperFunction,SMDPad,CuDef*
G36*
G01*
X108175000Y-116625000D02*
X108475000Y-116625000D01*
G75*
G02*
X108625000Y-116775000I0J-150000D01*
G01*
X108625000Y-118525000D01*
G75*
G02*
X108475000Y-118675000I-150000J0D01*
G01*
X108175000Y-118675000D01*
G75*
G02*
X108025000Y-118525000I0J150000D01*
G01*
X108025000Y-116775000D01*
G75*
G02*
X108175000Y-116625000I150000J0D01*
G01*
G37*
G04 #@! TD.AperFunction*
G04 #@! TA.AperFunction,SMDPad,CuDef*
G36*
G01*
X109445000Y-116625000D02*
X109745000Y-116625000D01*
G75*
G02*
X109895000Y-116775000I0J-150000D01*
G01*
X109895000Y-118525000D01*
G75*
G02*
X109745000Y-118675000I-150000J0D01*
G01*
X109445000Y-118675000D01*
G75*
G02*
X109295000Y-118525000I0J150000D01*
G01*
X109295000Y-116775000D01*
G75*
G02*
X109445000Y-116625000I150000J0D01*
G01*
G37*
G04 #@! TD.AperFunction*
G04 #@! TA.AperFunction,SMDPad,CuDef*
G36*
G01*
X110715000Y-116625000D02*
X111015000Y-116625000D01*
G75*
G02*
X111165000Y-116775000I0J-150000D01*
G01*
X111165000Y-118525000D01*
G75*
G02*
X111015000Y-118675000I-150000J0D01*
G01*
X110715000Y-118675000D01*
G75*
G02*
X110565000Y-118525000I0J150000D01*
G01*
X110565000Y-116775000D01*
G75*
G02*
X110715000Y-116625000I150000J0D01*
G01*
G37*
G04 #@! TD.AperFunction*
G04 #@! TA.AperFunction,SMDPad,CuDef*
G36*
G01*
X111985000Y-116625000D02*
X112285000Y-116625000D01*
G75*
G02*
X112435000Y-116775000I0J-150000D01*
G01*
X112435000Y-118525000D01*
G75*
G02*
X112285000Y-118675000I-150000J0D01*
G01*
X111985000Y-118675000D01*
G75*
G02*
X111835000Y-118525000I0J150000D01*
G01*
X111835000Y-116775000D01*
G75*
G02*
X111985000Y-116625000I150000J0D01*
G01*
G37*
G04 #@! TD.AperFunction*
G04 #@! TA.AperFunction,SMDPad,CuDef*
G36*
G01*
X113255000Y-116625000D02*
X113555000Y-116625000D01*
G75*
G02*
X113705000Y-116775000I0J-150000D01*
G01*
X113705000Y-118525000D01*
G75*
G02*
X113555000Y-118675000I-150000J0D01*
G01*
X113255000Y-118675000D01*
G75*
G02*
X113105000Y-118525000I0J150000D01*
G01*
X113105000Y-116775000D01*
G75*
G02*
X113255000Y-116625000I150000J0D01*
G01*
G37*
G04 #@! TD.AperFunction*
G04 #@! TA.AperFunction,SMDPad,CuDef*
G36*
G01*
X114525000Y-116625000D02*
X114825000Y-116625000D01*
G75*
G02*
X114975000Y-116775000I0J-150000D01*
G01*
X114975000Y-118525000D01*
G75*
G02*
X114825000Y-118675000I-150000J0D01*
G01*
X114525000Y-118675000D01*
G75*
G02*
X114375000Y-118525000I0J150000D01*
G01*
X114375000Y-116775000D01*
G75*
G02*
X114525000Y-116625000I150000J0D01*
G01*
G37*
G04 #@! TD.AperFunction*
G04 #@! TA.AperFunction,SMDPad,CuDef*
G36*
G01*
X115795000Y-116625000D02*
X116095000Y-116625000D01*
G75*
G02*
X116245000Y-116775000I0J-150000D01*
G01*
X116245000Y-118525000D01*
G75*
G02*
X116095000Y-118675000I-150000J0D01*
G01*
X115795000Y-118675000D01*
G75*
G02*
X115645000Y-118525000I0J150000D01*
G01*
X115645000Y-116775000D01*
G75*
G02*
X115795000Y-116625000I150000J0D01*
G01*
G37*
G04 #@! TD.AperFunction*
G04 #@! TA.AperFunction,SMDPad,CuDef*
G36*
G01*
X117065000Y-116625000D02*
X117365000Y-116625000D01*
G75*
G02*
X117515000Y-116775000I0J-150000D01*
G01*
X117515000Y-118525000D01*
G75*
G02*
X117365000Y-118675000I-150000J0D01*
G01*
X117065000Y-118675000D01*
G75*
G02*
X116915000Y-118525000I0J150000D01*
G01*
X116915000Y-116775000D01*
G75*
G02*
X117065000Y-116625000I150000J0D01*
G01*
G37*
G04 #@! TD.AperFunction*
G04 #@! TA.AperFunction,SMDPad,CuDef*
G36*
G01*
X118335000Y-116625000D02*
X118635000Y-116625000D01*
G75*
G02*
X118785000Y-116775000I0J-150000D01*
G01*
X118785000Y-118525000D01*
G75*
G02*
X118635000Y-118675000I-150000J0D01*
G01*
X118335000Y-118675000D01*
G75*
G02*
X118185000Y-118525000I0J150000D01*
G01*
X118185000Y-116775000D01*
G75*
G02*
X118335000Y-116625000I150000J0D01*
G01*
G37*
G04 #@! TD.AperFunction*
G04 #@! TA.AperFunction,SMDPad,CuDef*
G36*
G01*
X119605000Y-116625000D02*
X119905000Y-116625000D01*
G75*
G02*
X120055000Y-116775000I0J-150000D01*
G01*
X120055000Y-118525000D01*
G75*
G02*
X119905000Y-118675000I-150000J0D01*
G01*
X119605000Y-118675000D01*
G75*
G02*
X119455000Y-118525000I0J150000D01*
G01*
X119455000Y-116775000D01*
G75*
G02*
X119605000Y-116625000I150000J0D01*
G01*
G37*
G04 #@! TD.AperFunction*
D15*
X146000000Y-110000000D03*
D16*
X146000000Y-112540000D03*
X146000000Y-115080000D03*
X146000000Y-117620000D03*
X146000000Y-120160000D03*
X146000000Y-122700000D03*
X146000000Y-125240000D03*
X146000000Y-127780000D03*
D15*
X157600000Y-79000000D03*
D16*
X155060000Y-79000000D03*
X152520000Y-79000000D03*
X149980000Y-79000000D03*
X147440000Y-79000000D03*
X144900000Y-79000000D03*
X142360000Y-79000000D03*
D13*
X101460000Y-147000000D03*
D14*
X104000000Y-147000000D03*
G04 #@! TA.AperFunction,SMDPad,CuDef*
G36*
G01*
X204087500Y-106443750D02*
X204087500Y-107356250D01*
G75*
G02*
X203843750Y-107600000I-243750J0D01*
G01*
X203356250Y-107600000D01*
G75*
G02*
X203112500Y-107356250I0J243750D01*
G01*
X203112500Y-106443750D01*
G75*
G02*
X203356250Y-106200000I243750J0D01*
G01*
X203843750Y-106200000D01*
G75*
G02*
X204087500Y-106443750I0J-243750D01*
G01*
G37*
G04 #@! TD.AperFunction*
G04 #@! TA.AperFunction,SMDPad,CuDef*
G36*
G01*
X202212500Y-106443750D02*
X202212500Y-107356250D01*
G75*
G02*
X201968750Y-107600000I-243750J0D01*
G01*
X201481250Y-107600000D01*
G75*
G02*
X201237500Y-107356250I0J243750D01*
G01*
X201237500Y-106443750D01*
G75*
G02*
X201481250Y-106200000I243750J0D01*
G01*
X201968750Y-106200000D01*
G75*
G02*
X202212500Y-106443750I0J-243750D01*
G01*
G37*
G04 #@! TD.AperFunction*
D15*
X93000000Y-105880000D03*
D16*
X93000000Y-108420000D03*
X93000000Y-110960000D03*
X93000000Y-113500000D03*
X93000000Y-116040000D03*
X93000000Y-118580000D03*
X93000000Y-121120000D03*
G04 #@! TA.AperFunction,SMDPad,CuDef*
G36*
G01*
X106043750Y-102637500D02*
X106956250Y-102637500D01*
G75*
G02*
X107200000Y-102881250I0J-243750D01*
G01*
X107200000Y-103368750D01*
G75*
G02*
X106956250Y-103612500I-243750J0D01*
G01*
X106043750Y-103612500D01*
G75*
G02*
X105800000Y-103368750I0J243750D01*
G01*
X105800000Y-102881250D01*
G75*
G02*
X106043750Y-102637500I243750J0D01*
G01*
G37*
G04 #@! TD.AperFunction*
G04 #@! TA.AperFunction,SMDPad,CuDef*
G36*
G01*
X106043750Y-104512500D02*
X106956250Y-104512500D01*
G75*
G02*
X107200000Y-104756250I0J-243750D01*
G01*
X107200000Y-105243750D01*
G75*
G02*
X106956250Y-105487500I-243750J0D01*
G01*
X106043750Y-105487500D01*
G75*
G02*
X105800000Y-105243750I0J243750D01*
G01*
X105800000Y-104756250D01*
G75*
G02*
X106043750Y-104512500I243750J0D01*
G01*
G37*
G04 #@! TD.AperFunction*
G04 #@! TA.AperFunction,SMDPad,CuDef*
G36*
G01*
X204150000Y-104443750D02*
X204150000Y-105356250D01*
G75*
G02*
X203906250Y-105600000I-243750J0D01*
G01*
X203418750Y-105600000D01*
G75*
G02*
X203175000Y-105356250I0J243750D01*
G01*
X203175000Y-104443750D01*
G75*
G02*
X203418750Y-104200000I243750J0D01*
G01*
X203906250Y-104200000D01*
G75*
G02*
X204150000Y-104443750I0J-243750D01*
G01*
G37*
G04 #@! TD.AperFunction*
G04 #@! TA.AperFunction,SMDPad,CuDef*
G36*
G01*
X202275000Y-104443750D02*
X202275000Y-105356250D01*
G75*
G02*
X202031250Y-105600000I-243750J0D01*
G01*
X201543750Y-105600000D01*
G75*
G02*
X201300000Y-105356250I0J243750D01*
G01*
X201300000Y-104443750D01*
G75*
G02*
X201543750Y-104200000I243750J0D01*
G01*
X202031250Y-104200000D01*
G75*
G02*
X202275000Y-104443750I0J-243750D01*
G01*
G37*
G04 #@! TD.AperFunction*
G04 #@! TA.AperFunction,SMDPad,CuDef*
G36*
G01*
X108043750Y-102637500D02*
X108956250Y-102637500D01*
G75*
G02*
X109200000Y-102881250I0J-243750D01*
G01*
X109200000Y-103368750D01*
G75*
G02*
X108956250Y-103612500I-243750J0D01*
G01*
X108043750Y-103612500D01*
G75*
G02*
X107800000Y-103368750I0J243750D01*
G01*
X107800000Y-102881250D01*
G75*
G02*
X108043750Y-102637500I243750J0D01*
G01*
G37*
G04 #@! TD.AperFunction*
G04 #@! TA.AperFunction,SMDPad,CuDef*
G36*
G01*
X108043750Y-104512500D02*
X108956250Y-104512500D01*
G75*
G02*
X109200000Y-104756250I0J-243750D01*
G01*
X109200000Y-105243750D01*
G75*
G02*
X108956250Y-105487500I-243750J0D01*
G01*
X108043750Y-105487500D01*
G75*
G02*
X107800000Y-105243750I0J243750D01*
G01*
X107800000Y-104756250D01*
G75*
G02*
X108043750Y-104512500I243750J0D01*
G01*
G37*
G04 #@! TD.AperFunction*
G04 #@! TA.AperFunction,SMDPad,CuDef*
G36*
G01*
X200650000Y-104443750D02*
X200650000Y-105356250D01*
G75*
G02*
X200406250Y-105600000I-243750J0D01*
G01*
X199918750Y-105600000D01*
G75*
G02*
X199675000Y-105356250I0J243750D01*
G01*
X199675000Y-104443750D01*
G75*
G02*
X199918750Y-104200000I243750J0D01*
G01*
X200406250Y-104200000D01*
G75*
G02*
X200650000Y-104443750I0J-243750D01*
G01*
G37*
G04 #@! TD.AperFunction*
G04 #@! TA.AperFunction,SMDPad,CuDef*
G36*
G01*
X198775000Y-104443750D02*
X198775000Y-105356250D01*
G75*
G02*
X198531250Y-105600000I-243750J0D01*
G01*
X198043750Y-105600000D01*
G75*
G02*
X197800000Y-105356250I0J243750D01*
G01*
X197800000Y-104443750D01*
G75*
G02*
X198043750Y-104200000I243750J0D01*
G01*
X198531250Y-104200000D01*
G75*
G02*
X198775000Y-104443750I0J-243750D01*
G01*
G37*
G04 #@! TD.AperFunction*
D12*
X182333274Y-116333274D03*
X183500000Y-115850000D03*
X184666726Y-116333274D03*
X184666726Y-118666726D03*
D11*
X183500000Y-117500000D03*
D12*
X181850000Y-117500000D03*
X182333274Y-118666726D03*
X185150000Y-117500000D03*
X183500000Y-119150000D03*
D13*
X205000000Y-89000000D03*
D14*
X207540000Y-89000000D03*
D15*
X142380000Y-148000000D03*
D16*
X144920000Y-148000000D03*
X147460000Y-148000000D03*
X150000000Y-148000000D03*
X152540000Y-148000000D03*
X155080000Y-148000000D03*
X157620000Y-148000000D03*
G04 #@! TA.AperFunction,ComponentPad*
G36*
G01*
X139100000Y-104350000D02*
X137900000Y-104350000D01*
G75*
G02*
X137650000Y-104100000I0J250000D01*
G01*
X137650000Y-102900000D01*
G75*
G02*
X137900000Y-102650000I250000J0D01*
G01*
X139100000Y-102650000D01*
G75*
G02*
X139350000Y-102900000I0J-250000D01*
G01*
X139350000Y-104100000D01*
G75*
G02*
X139100000Y-104350000I-250000J0D01*
G01*
G37*
G04 #@! TD.AperFunction*
D17*
X138500000Y-100960000D03*
X141040000Y-103500000D03*
X141040000Y-100960000D03*
X143580000Y-103500000D03*
X143580000Y-100960000D03*
X146120000Y-103500000D03*
X146120000Y-100960000D03*
X148660000Y-103500000D03*
X148660000Y-100960000D03*
D15*
X207000000Y-121120000D03*
D16*
X207000000Y-118580000D03*
X207000000Y-116040000D03*
X207000000Y-113500000D03*
X207000000Y-110960000D03*
X207000000Y-108420000D03*
X207000000Y-105880000D03*
D18*
X202500000Y-100275000D03*
X201850000Y-100275000D03*
X201200000Y-100275000D03*
X200550000Y-100275000D03*
X199900000Y-100275000D03*
D19*
X201200000Y-98375000D03*
D20*
X204000000Y-100525000D03*
X198400000Y-100525000D03*
G04 #@! TA.AperFunction,SMDPad,CuDef*
G36*
G01*
X109425000Y-120043750D02*
X109425000Y-120956250D01*
G75*
G02*
X109181250Y-121200000I-243750J0D01*
G01*
X108693750Y-121200000D01*
G75*
G02*
X108450000Y-120956250I0J243750D01*
G01*
X108450000Y-120043750D01*
G75*
G02*
X108693750Y-119800000I243750J0D01*
G01*
X109181250Y-119800000D01*
G75*
G02*
X109425000Y-120043750I0J-243750D01*
G01*
G37*
G04 #@! TD.AperFunction*
G04 #@! TA.AperFunction,SMDPad,CuDef*
G36*
G01*
X107550000Y-120043750D02*
X107550000Y-120956250D01*
G75*
G02*
X107306250Y-121200000I-243750J0D01*
G01*
X106818750Y-121200000D01*
G75*
G02*
X106575000Y-120956250I0J243750D01*
G01*
X106575000Y-120043750D01*
G75*
G02*
X106818750Y-119800000I243750J0D01*
G01*
X107306250Y-119800000D01*
G75*
G02*
X107550000Y-120043750I0J-243750D01*
G01*
G37*
G04 #@! TD.AperFunction*
D12*
X183500000Y-113650000D03*
X181850000Y-112000000D03*
X185150000Y-112000000D03*
X184666726Y-110833274D03*
X183500000Y-110350000D03*
X182333274Y-110833274D03*
X182333274Y-113166726D03*
X184666726Y-113166726D03*
D11*
X183500000Y-112000000D03*
D13*
X205000000Y-138000000D03*
D14*
X207540000Y-138000000D03*
G04 #@! TA.AperFunction,SMDPad,CuDef*
G36*
G01*
X204125000Y-108443750D02*
X204125000Y-109356250D01*
G75*
G02*
X203881250Y-109600000I-243750J0D01*
G01*
X203393750Y-109600000D01*
G75*
G02*
X203150000Y-109356250I0J243750D01*
G01*
X203150000Y-108443750D01*
G75*
G02*
X203393750Y-108200000I243750J0D01*
G01*
X203881250Y-108200000D01*
G75*
G02*
X204125000Y-108443750I0J-243750D01*
G01*
G37*
G04 #@! TD.AperFunction*
G04 #@! TA.AperFunction,SMDPad,CuDef*
G36*
G01*
X202250000Y-108443750D02*
X202250000Y-109356250D01*
G75*
G02*
X202006250Y-109600000I-243750J0D01*
G01*
X201518750Y-109600000D01*
G75*
G02*
X201275000Y-109356250I0J243750D01*
G01*
X201275000Y-108443750D01*
G75*
G02*
X201518750Y-108200000I243750J0D01*
G01*
X202006250Y-108200000D01*
G75*
G02*
X202250000Y-108443750I0J-243750D01*
G01*
G37*
G04 #@! TD.AperFunction*
D15*
X161240000Y-127780000D03*
D16*
X161240000Y-125240000D03*
X161240000Y-122700000D03*
X161240000Y-120160000D03*
X161240000Y-117620000D03*
X161240000Y-115080000D03*
X161240000Y-112540000D03*
X161240000Y-110000000D03*
D21*
X135500000Y-106500000D03*
X111000000Y-121500000D03*
X126000000Y-131000000D03*
X130500000Y-111000000D03*
X161699999Y-137774990D03*
X130500000Y-105000000D03*
X130500000Y-118500000D03*
X152499987Y-131000000D03*
X186500000Y-104500000D03*
X199500000Y-102000000D03*
X197500000Y-103000000D03*
X198250000Y-102250000D03*
X107500000Y-112500000D03*
X198900000Y-102900000D03*
X110000000Y-120000000D03*
X110000000Y-115500000D03*
X110000000Y-103000000D03*
X145512660Y-133987340D03*
X110000000Y-106500000D03*
X164960000Y-112540000D03*
X112000000Y-121000000D03*
X204500000Y-131000000D03*
X144699990Y-136588388D03*
X126500000Y-102000000D03*
X122500000Y-117400021D03*
X203500000Y-106000000D03*
X203662500Y-104337500D03*
X203662500Y-103337500D03*
X125000000Y-101500000D03*
X118500000Y-119500000D03*
X195500000Y-123500000D03*
X195500000Y-110000000D03*
X116000000Y-119500000D03*
X132500000Y-121000000D03*
D22*
X174500000Y-109500000D02*
X175000000Y-109000000D01*
X179500000Y-108500000D02*
X180000000Y-108500000D01*
X175500000Y-108500000D02*
X179500000Y-108500000D01*
D23*
X197080000Y-118580000D02*
X207000000Y-118580000D01*
D22*
X175000000Y-109000000D02*
X175500000Y-108500000D01*
D23*
X186099991Y-107599991D02*
X197080000Y-118580000D01*
X169900009Y-107599991D02*
X186099991Y-107599991D01*
X164960000Y-112540000D02*
X169900009Y-107599991D01*
D22*
X174500000Y-110500000D02*
X174500000Y-109500000D01*
X180000000Y-108500000D02*
X180500000Y-109000000D01*
D24*
X205225010Y-108820928D02*
X205225010Y-96774990D01*
X205000000Y-109045938D02*
X205225010Y-108820928D01*
X204045938Y-110000000D02*
X205000000Y-109045938D01*
X205225010Y-96774990D02*
X205824999Y-96175001D01*
X205824999Y-96175001D02*
X205824999Y-96112501D01*
D22*
X176500000Y-120000000D02*
X178000000Y-118500000D01*
X178000000Y-118500000D02*
X178000000Y-117500000D01*
X180500000Y-109000000D02*
X183500000Y-112000000D01*
D23*
X111000000Y-121500000D02*
X111000000Y-117785000D01*
X111000000Y-117785000D02*
X110865000Y-117650000D01*
X153500000Y-140500000D02*
X126500000Y-140500000D01*
X155080000Y-142080000D02*
X153500000Y-140500000D01*
X155080000Y-148000000D02*
X155080000Y-142080000D01*
X126500000Y-140500000D02*
X126000000Y-140000000D01*
X126000000Y-140000000D02*
X126000000Y-131000000D01*
X144702590Y-137774990D02*
X161699999Y-137774990D01*
X99120000Y-116040000D02*
X105785000Y-109375000D01*
X130500000Y-111000000D02*
X130500000Y-105000000D01*
X93000000Y-116040000D02*
X99120000Y-116040000D01*
X105785000Y-109375000D02*
X105785000Y-108350000D01*
X208250001Y-129249999D02*
X199725010Y-137774990D01*
X130500000Y-123572400D02*
X144702590Y-137774990D01*
X208250001Y-112210001D02*
X208250001Y-129249999D01*
X106785000Y-106715000D02*
X108500000Y-105000000D01*
X105785000Y-108350000D02*
X105785000Y-106715000D01*
X130500000Y-118500000D02*
X130500000Y-123572400D01*
X105785000Y-106715000D02*
X106785000Y-106715000D01*
X108500000Y-105000000D02*
X130500000Y-105000000D01*
X199725010Y-137774990D02*
X161699999Y-137774990D01*
X207000000Y-110960000D02*
X208250001Y-112210001D01*
X104515000Y-106985000D02*
X106500000Y-105000000D01*
X152499987Y-109879987D02*
X152499987Y-131000000D01*
X107487490Y-104012510D02*
X133012510Y-104012510D01*
X99900350Y-113500000D02*
X104515000Y-108885350D01*
X186500000Y-104500000D02*
X187000000Y-105000000D01*
X195000000Y-113500000D02*
X207000000Y-113500000D01*
X187000000Y-105500000D02*
X195000000Y-113500000D01*
X146120000Y-103500000D02*
X152499987Y-109879987D01*
X146120000Y-103500000D02*
X147370001Y-104750001D01*
X133012510Y-104012510D02*
X135500000Y-106500000D01*
X104515000Y-108885350D02*
X104515000Y-108350000D01*
X104515000Y-108350000D02*
X104515000Y-106985000D01*
X93000000Y-113500000D02*
X99900350Y-113500000D01*
X104515000Y-108350000D02*
X104515000Y-107325000D01*
X106500000Y-105000000D02*
X107487490Y-104012510D01*
X187000000Y-105000000D02*
X187000000Y-105500000D01*
X108325000Y-111675000D02*
X108325000Y-108350000D01*
D22*
X198262500Y-108900000D02*
X198262500Y-106925000D01*
X199800000Y-102000000D02*
X199500000Y-102000000D01*
D23*
X199900000Y-100275000D02*
X199900000Y-101900000D01*
X104515000Y-117650000D02*
X105785000Y-117650000D01*
X107500000Y-112500000D02*
X108325000Y-111675000D01*
D22*
X198900000Y-102900000D02*
X198287500Y-103512500D01*
D23*
X107500000Y-112500000D02*
X105500000Y-114500000D01*
D22*
X198287500Y-104900000D02*
X198287500Y-106900000D01*
D23*
X199900000Y-101900000D02*
X199800000Y-102000000D01*
X103245000Y-117650000D02*
X104515000Y-117650000D01*
X105500000Y-114500000D02*
X105500000Y-117365000D01*
D22*
X198500000Y-102000000D02*
X198250000Y-102250000D01*
X198250000Y-102250000D02*
X197500000Y-103000000D01*
D23*
X105500000Y-117365000D02*
X105785000Y-117650000D01*
D22*
X198287500Y-103512500D02*
X198287500Y-104900000D01*
X199500000Y-102000000D02*
X198500000Y-102000000D01*
X199900000Y-101900000D02*
X198900000Y-102900000D01*
X198262500Y-106925000D02*
X198287500Y-106900000D01*
D23*
X138500000Y-100960000D02*
X136040000Y-100960000D01*
D22*
X155060000Y-79000000D02*
X157600000Y-79000000D01*
D24*
X152485685Y-99500000D02*
X146500000Y-99500000D01*
X146500000Y-99500000D02*
X146000000Y-99000000D01*
D23*
X146000000Y-99000000D02*
X155060000Y-89940000D01*
X140460000Y-99000000D02*
X146000000Y-99000000D01*
X106500000Y-103125000D02*
X108500000Y-103125000D01*
X161240000Y-112540000D02*
X159000000Y-114780000D01*
D24*
X109595000Y-108350000D02*
X109595000Y-106905000D01*
D23*
X93000000Y-105880000D02*
X93000000Y-104500000D01*
X93000000Y-104500000D02*
X94375000Y-103125000D01*
X159000000Y-133000000D02*
X158012660Y-133987340D01*
X110000000Y-115500000D02*
X110000000Y-112000000D01*
X133875000Y-103125000D02*
X110875000Y-103125000D01*
X155060000Y-89940000D02*
X155060000Y-79000000D01*
D24*
X164960000Y-112540000D02*
X164960000Y-111974315D01*
D23*
X109595000Y-111595000D02*
X109595000Y-108350000D01*
X159000000Y-114780000D02*
X159000000Y-133000000D01*
X110875000Y-103125000D02*
X108500000Y-103125000D01*
X138500000Y-100960000D02*
X140460000Y-99000000D01*
D24*
X109595000Y-106905000D02*
X110000000Y-106500000D01*
D22*
X207000000Y-121120000D02*
X207000000Y-118580000D01*
D23*
X108937500Y-120500000D02*
X109500000Y-120500000D01*
X110000000Y-112000000D02*
X109595000Y-111595000D01*
D24*
X164960000Y-111974315D02*
X152485685Y-99500000D01*
D23*
X109500000Y-120500000D02*
X110000000Y-120000000D01*
D22*
X142380000Y-148000000D02*
X144920000Y-148000000D01*
D23*
X158012660Y-133987340D02*
X145512660Y-133987340D01*
D22*
X93000000Y-105880000D02*
X93000000Y-108420000D01*
D23*
X94375000Y-103125000D02*
X106500000Y-103125000D01*
X161240000Y-112540000D02*
X164960000Y-112540000D01*
X136040000Y-100960000D02*
X133875000Y-103125000D01*
X112000000Y-121000000D02*
X112000000Y-117785000D01*
X207000000Y-108420000D02*
X207000000Y-108500000D01*
X112000000Y-117785000D02*
X112135000Y-117650000D01*
X192302914Y-131000000D02*
X186714526Y-136588388D01*
X204500000Y-131000000D02*
X192302914Y-131000000D01*
X186714526Y-136588388D02*
X144699990Y-136588388D01*
X94580000Y-118580000D02*
X99100010Y-123100010D01*
X111899990Y-123100010D02*
X113405000Y-121595000D01*
X99100010Y-123100010D02*
X111899990Y-123100010D01*
X93000000Y-118580000D02*
X94580000Y-118580000D01*
X113405000Y-121595000D02*
X113405000Y-117650000D01*
D24*
X126500000Y-101000000D02*
X137250000Y-90250000D01*
D23*
X114675000Y-117650000D02*
X114675000Y-116625000D01*
D24*
X126500000Y-102000000D02*
X126500000Y-101000000D01*
D23*
X121934315Y-117400021D02*
X122500000Y-117400021D01*
X114675000Y-116625000D02*
X115099978Y-116200022D01*
X137250000Y-90250000D02*
X144900000Y-82600000D01*
X144900000Y-82600000D02*
X144900000Y-79000000D01*
X137000000Y-90500000D02*
X137250000Y-90250000D01*
X115099978Y-116200022D02*
X120734316Y-116200022D01*
X120734316Y-116200022D02*
X121934315Y-117400021D01*
X146000000Y-110000000D02*
X144500000Y-108500000D01*
X144500000Y-108500000D02*
X143580000Y-107580000D01*
X143580000Y-107580000D02*
X143580000Y-103500000D01*
X146000000Y-117620000D02*
X143480011Y-115100011D01*
X117215000Y-109375000D02*
X117215000Y-108350000D01*
X122940011Y-115100011D02*
X117215000Y-109375000D01*
X143480011Y-115100011D02*
X122940011Y-115100011D01*
X118485000Y-109375000D02*
X123610000Y-114500000D01*
X123610000Y-114500000D02*
X145420000Y-114500000D01*
X118485000Y-108350000D02*
X118485000Y-109375000D01*
X145420000Y-114500000D02*
X146000000Y-115080000D01*
D22*
X202500000Y-101600000D02*
X203450000Y-102550000D01*
X203600000Y-108862500D02*
X203637500Y-108900000D01*
X203662500Y-106837500D02*
X203600000Y-106900000D01*
D23*
X202500000Y-101400000D02*
X202500000Y-101800000D01*
D22*
X203662500Y-104900000D02*
X203662500Y-106837500D01*
D23*
X202500000Y-100275000D02*
X202500000Y-101400000D01*
D22*
X203662500Y-104337500D02*
X203662500Y-104900000D01*
X203662500Y-103337500D02*
X203662500Y-104337500D01*
X203600000Y-106900000D02*
X203600000Y-108862500D01*
X203450000Y-102550000D02*
X203662500Y-102762500D01*
D23*
X202500000Y-101400000D02*
X202500000Y-101600000D01*
D22*
X203662500Y-102762500D02*
X203662500Y-103337500D01*
D23*
X119755000Y-108350000D02*
X123945000Y-112540000D01*
X123945000Y-112540000D02*
X146000000Y-112540000D01*
X115945000Y-109375000D02*
X122570000Y-116000000D01*
X145160000Y-120160000D02*
X146000000Y-120160000D01*
X115945000Y-108350000D02*
X115945000Y-109375000D01*
X141000000Y-116000000D02*
X145160000Y-120160000D01*
X122570000Y-116000000D02*
X141000000Y-116000000D01*
X122321468Y-116600011D02*
X114675000Y-108953543D01*
X146000000Y-122700000D02*
X139900011Y-116600011D01*
X114675000Y-108953543D02*
X114675000Y-108350000D01*
X139900011Y-116600011D02*
X122321468Y-116600011D01*
X148000000Y-109000000D02*
X145500000Y-106500000D01*
X144830001Y-102210001D02*
X143580000Y-100960000D01*
X145500000Y-106500000D02*
X144830001Y-105830001D01*
X146000000Y-125240000D02*
X148000000Y-123240000D01*
X144830001Y-105830001D02*
X144830001Y-102210001D01*
X148000000Y-123240000D02*
X148000000Y-109000000D01*
X104000000Y-143500000D02*
X104500000Y-143000000D01*
X104000000Y-147000000D02*
X104000000Y-143500000D01*
X104000000Y-80540000D02*
X104040000Y-80500000D01*
X104000000Y-84062500D02*
X104000000Y-80540000D01*
X207540000Y-138000000D02*
X207540000Y-134040000D01*
X207540000Y-134040000D02*
X207500000Y-134000000D01*
X207540000Y-92522500D02*
X207500000Y-92562500D01*
X207540000Y-89000000D02*
X207540000Y-92522500D01*
X107062500Y-117657500D02*
X107055000Y-117650000D01*
X107062500Y-120500000D02*
X107062500Y-117657500D01*
X117215000Y-135965000D02*
X117215000Y-117650000D01*
X104500000Y-141125000D02*
X112055000Y-141125000D01*
X112055000Y-141125000D02*
X117215000Y-135965000D01*
X125000000Y-101500000D02*
X104500000Y-101500000D01*
X102999999Y-88000001D02*
X100500000Y-90500000D01*
X104500000Y-101500000D02*
X102999999Y-99999999D01*
X100500000Y-97500000D02*
X102999999Y-99999999D01*
X118485000Y-117650000D02*
X118485000Y-119485000D01*
X104000000Y-87000000D02*
X104000000Y-85937500D01*
X100500000Y-90500000D02*
X100500000Y-96000000D01*
X100500000Y-96000000D02*
X100500000Y-97500000D01*
X118485000Y-119485000D02*
X118500000Y-119500000D01*
X102999999Y-88000001D02*
X104000000Y-87000000D01*
D24*
X200000000Y-138500000D02*
X144000000Y-138500000D01*
X121500000Y-121500000D02*
X119755000Y-119755000D01*
X207500000Y-132125000D02*
X206375000Y-132125000D01*
X144000000Y-138500000D02*
X127000000Y-121500000D01*
X127000000Y-121500000D02*
X121500000Y-121500000D01*
X119755000Y-119755000D02*
X119755000Y-117650000D01*
X206375000Y-132125000D02*
X200000000Y-138500000D01*
X115945000Y-117650000D02*
X115945000Y-119445000D01*
X195000000Y-124000000D02*
X195500000Y-123500000D01*
X186500000Y-135500000D02*
X192000000Y-130000000D01*
X192000000Y-130000000D02*
X195000000Y-127000000D01*
X205824999Y-96112501D02*
X207500000Y-94437500D01*
X115945000Y-119445000D02*
X116000000Y-119500000D01*
X132500000Y-121000000D02*
X132500000Y-122000000D01*
X195500000Y-110000000D02*
X204045938Y-110000000D01*
X195000000Y-127000000D02*
X195000000Y-124000000D01*
X146000000Y-135500000D02*
X186500000Y-135500000D01*
X132500000Y-122000000D02*
X146000000Y-135500000D01*
D22*
X161240000Y-122700000D02*
X168800000Y-122700000D01*
X168800000Y-122700000D02*
X173800000Y-122700000D01*
X173800000Y-122700000D02*
X176500000Y-120000000D01*
X174500000Y-112500000D02*
X174500000Y-110500000D01*
X161240000Y-117620000D02*
X169380000Y-117620000D01*
X169380000Y-117620000D02*
X174500000Y-112500000D01*
X161240000Y-120160000D02*
X170840000Y-120160000D01*
X170840000Y-120160000D02*
X178000000Y-113000000D01*
X161240000Y-125240000D02*
X167760000Y-125240000D01*
X176760000Y-125240000D02*
X183500000Y-118500000D01*
X167760000Y-125240000D02*
X176760000Y-125240000D01*
D25*
X200137500Y-108900000D02*
X201762500Y-108900000D01*
X201699990Y-101268624D02*
X201699990Y-103339408D01*
X201699990Y-103339408D02*
X202575010Y-104214428D01*
X201850000Y-100275000D02*
X201850000Y-101118614D01*
X202575010Y-104214428D02*
X202575010Y-108087490D01*
X202575010Y-108087490D02*
X201762500Y-108900000D01*
X201850000Y-101118614D02*
X201699990Y-101268624D01*
X201200000Y-104312500D02*
X201787500Y-104900000D01*
X201200000Y-101000000D02*
X201200000Y-104312500D01*
X201787500Y-104900000D02*
X200162500Y-104900000D01*
X200162500Y-106900000D02*
X199374990Y-106112490D01*
X199374990Y-106112490D02*
X199374990Y-103556396D01*
X200700010Y-101150010D02*
X200550000Y-101000000D01*
X199374990Y-103556396D02*
X200700010Y-102231376D01*
X200700010Y-102231376D02*
X200700010Y-101150010D01*
X201725000Y-106900000D02*
X200162500Y-106900000D01*
D22*
X203275000Y-98375000D02*
X201200000Y-98375000D01*
X198725000Y-98375000D02*
X198400000Y-98700000D01*
X198400000Y-98700000D02*
X198400000Y-100525000D01*
X201200000Y-98375000D02*
X198725000Y-98375000D01*
X204000000Y-99100000D02*
X203275000Y-98375000D01*
X204000000Y-100525000D02*
X204000000Y-99100000D01*
M02*
