M48
INCH,TZ
T1C0.0157
T2C0.0197
T3C0.0354
T4C0.0394
T5C0.0866
%
G90
G05
T1
X42323Y-44291
X43307Y-40551
X43307Y-41929
X43307Y-45472
X43307Y-47244
X43701Y-47835
X44094Y-47638
X45669Y-47047
X46654Y-47047
X48228Y-46220
X49213Y-39961
X49606Y-51575
X49803Y-40157
X51378Y-41339
X51378Y-43701
X51378Y-46654
X52165Y-47638
X53346Y-41929
X56968Y-53775
X57288Y-52751
X60039Y-51575
X63661Y-54242
X64945Y-44307
X73425Y-41142
X76969Y-43307
X76969Y-48622
X77756Y-40551
X78051Y-40256
X78307Y-40512
X78543Y-40157
X80118Y-41732
X80182Y-40684
X80182Y-41078
X80512Y-51575
X71594Y-44094
X71785Y-43635
X71785Y-44554
X72244Y-43445
X72244Y-44744
X72703Y-43635
X72703Y-44554
X72894Y-44094
X69429Y-46260
X69619Y-45801
X69619Y-46719
X70079Y-45610
X70079Y-46909
X70538Y-45801
X70538Y-46719
X70728Y-46260
X71594Y-46260
X71785Y-45801
X71785Y-46719
X72244Y-45610
X72244Y-46909
X72703Y-45801
X72703Y-46719
X72894Y-46260
X69429Y-44094
X69619Y-43635
X69619Y-44554
X70079Y-43445
X70079Y-44744
X70538Y-43635
X70538Y-44554
X70728Y-44094
T3
X39961Y-31693
X40961Y-31693
X80709Y-35039
X81709Y-35039
X80709Y-54331
X81709Y-54331
X39945Y-57874
X40945Y-57874
T4
X81496Y-41685
X81496Y-42685
X81496Y-43685
X81496Y-44685
X81496Y-45685
X81496Y-46685
X81496Y-47685
X54528Y-39748
X54528Y-40748
X55528Y-39748
X55528Y-40748
X56528Y-39748
X56528Y-40748
X57528Y-39748
X57528Y-40748
X58528Y-39748
X58528Y-40748
X56047Y-31102
X57047Y-31102
X58047Y-31102
X59047Y-31102
X60047Y-31102
X61047Y-31102
X62047Y-31102
X57480Y-43307
X57480Y-44307
X57480Y-45307
X57480Y-46307
X57480Y-47307
X57480Y-48307
X57480Y-49307
X57480Y-50307
X36614Y-41685
X36614Y-42685
X36614Y-43685
X36614Y-44685
X36614Y-45685
X36614Y-46685
X36614Y-47685
X63480Y-43307
X63480Y-44307
X63480Y-45307
X63480Y-46307
X63480Y-47307
X63480Y-48307
X63480Y-49307
X63480Y-50307
X56055Y-58268
X57055Y-58268
X58055Y-58268
X59055Y-58268
X60055Y-58268
X61055Y-58268
X62055Y-58268
T5
X70079Y-46260
X70079Y-44094
X72244Y-44094
X72244Y-46260
T2
G00X78248Y-39577
M15
G01X77972Y-39577
M16
G05
G00X79429Y-38730
M15
G01X78996Y-38730
M16
G05
G00X80453Y-39577
M15
G01X80177Y-39577
M16
G05
T0
M30
