G04 #@! TF.GenerationSoftware,KiCad,Pcbnew,(5.99.0-7087-g754e8e912c)*
G04 #@! TF.CreationDate,2020-12-17T20:12:46+00:00*
G04 #@! TF.ProjectId,nesta proto 2.1,6e657374-6120-4707-926f-746f20322e31,rev?*
G04 #@! TF.SameCoordinates,Original*
G04 #@! TF.FileFunction,Copper,L1,Top*
G04 #@! TF.FilePolarity,Positive*
%FSLAX46Y46*%
G04 Gerber Fmt 4.6, Leading zero omitted, Abs format (unit mm)*
G04 Created by KiCad (PCBNEW (5.99.0-7087-g754e8e912c)) date 2020-12-17 20:12:46*
%MOMM*%
%LPD*%
G01*
G04 APERTURE LIST*
G04 Aperture macros list*
%AMRoundRect*
0 Rectangle with rounded corners*
0 $1 Rounding radius*
0 $2 $3 $4 $5 $6 $7 $8 $9 X,Y pos of 4 corners*
0 Add a 4 corners polygon primitive as box body*
4,1,4,$2,$3,$4,$5,$6,$7,$8,$9,$2,$3,0*
0 Add four circle primitives for the rounded corners*
1,1,$1+$1,$2,$3,0*
1,1,$1+$1,$4,$5,0*
1,1,$1+$1,$6,$7,0*
1,1,$1+$1,$8,$9,0*
0 Add four rect primitives between the rounded corners*
20,1,$1+$1,$2,$3,$4,$5,0*
20,1,$1+$1,$4,$5,$6,$7,0*
20,1,$1+$1,$6,$7,$8,$9,0*
20,1,$1+$1,$8,$9,$2,$3,0*%
G04 Aperture macros list end*
%ADD10C,0.300000*%
G04 #@! TA.AperFunction,SMDPad,CuDef*
%ADD11RoundRect,0.243750X0.456250X-0.243750X0.456250X0.243750X-0.456250X0.243750X-0.456250X-0.243750X0*%
G04 #@! TD*
G04 #@! TA.AperFunction,SMDPad,CuDef*
%ADD12RoundRect,0.243750X0.243750X0.456250X-0.243750X0.456250X-0.243750X-0.456250X0.243750X-0.456250X0*%
G04 #@! TD*
G04 #@! TA.AperFunction,SMDPad,CuDef*
%ADD13RoundRect,0.243750X-0.456250X0.243750X-0.456250X-0.243750X0.456250X-0.243750X0.456250X0.243750X0*%
G04 #@! TD*
G04 #@! TA.AperFunction,ComponentPad*
%ADD14C,4.400000*%
G04 #@! TD*
G04 #@! TA.AperFunction,ComponentPad*
%ADD15C,0.700000*%
G04 #@! TD*
G04 #@! TA.AperFunction,ComponentPad*
%ADD16R,1.800000X1.800000*%
G04 #@! TD*
G04 #@! TA.AperFunction,ComponentPad*
%ADD17C,1.800000*%
G04 #@! TD*
G04 #@! TA.AperFunction,SMDPad,CuDef*
%ADD18RoundRect,0.150000X-0.150000X0.875000X-0.150000X-0.875000X0.150000X-0.875000X0.150000X0.875000X0*%
G04 #@! TD*
G04 #@! TA.AperFunction,ComponentPad*
%ADD19R,1.700000X1.700000*%
G04 #@! TD*
G04 #@! TA.AperFunction,ComponentPad*
%ADD20O,1.700000X1.700000*%
G04 #@! TD*
G04 #@! TA.AperFunction,ComponentPad*
%ADD21RoundRect,0.250000X0.600000X-0.600000X0.600000X0.600000X-0.600000X0.600000X-0.600000X-0.600000X0*%
G04 #@! TD*
G04 #@! TA.AperFunction,ComponentPad*
%ADD22C,1.700000*%
G04 #@! TD*
G04 #@! TA.AperFunction,SMDPad,CuDef*
%ADD23R,0.450000X1.500000*%
G04 #@! TD*
G04 #@! TA.AperFunction,ComponentPad*
%ADD24O,2.200000X1.100000*%
G04 #@! TD*
G04 #@! TA.AperFunction,ComponentPad*
%ADD25O,1.800000X1.100000*%
G04 #@! TD*
G04 #@! TA.AperFunction,ComponentPad*
%ADD26C,4.000000*%
G04 #@! TD*
G04 #@! TA.AperFunction,ViaPad*
%ADD27C,0.800000*%
G04 #@! TD*
G04 #@! TA.AperFunction,Conductor*
%ADD28C,0.200000*%
G04 #@! TD*
G04 #@! TA.AperFunction,Conductor*
%ADD29C,1.000000*%
G04 #@! TD*
G04 #@! TA.AperFunction,Conductor*
%ADD30C,0.500000*%
G04 #@! TD*
G04 #@! TA.AperFunction,Conductor*
%ADD31C,0.250000*%
G04 #@! TD*
G04 #@! TA.AperFunction,Conductor*
%ADD32C,0.400000*%
G04 #@! TD*
G04 APERTURE END LIST*
D10*
X106392857Y-86971071D02*
X106392857Y-85471071D01*
X107250000Y-86971071D01*
X107250000Y-85471071D01*
X108535714Y-86899642D02*
X108392857Y-86971071D01*
X108107142Y-86971071D01*
X107964285Y-86899642D01*
X107892857Y-86756785D01*
X107892857Y-86185357D01*
X107964285Y-86042500D01*
X108107142Y-85971071D01*
X108392857Y-85971071D01*
X108535714Y-86042500D01*
X108607142Y-86185357D01*
X108607142Y-86328214D01*
X107892857Y-86471071D01*
X109178571Y-86899642D02*
X109321428Y-86971071D01*
X109607142Y-86971071D01*
X109750000Y-86899642D01*
X109821428Y-86756785D01*
X109821428Y-86685357D01*
X109750000Y-86542500D01*
X109607142Y-86471071D01*
X109392857Y-86471071D01*
X109250000Y-86399642D01*
X109178571Y-86256785D01*
X109178571Y-86185357D01*
X109250000Y-86042500D01*
X109392857Y-85971071D01*
X109607142Y-85971071D01*
X109750000Y-86042500D01*
X110250000Y-85971071D02*
X110821428Y-85971071D01*
X110464285Y-85471071D02*
X110464285Y-86756785D01*
X110535714Y-86899642D01*
X110678571Y-86971071D01*
X110821428Y-86971071D01*
X111964285Y-86971071D02*
X111964285Y-86185357D01*
X111892857Y-86042500D01*
X111750000Y-85971071D01*
X111464285Y-85971071D01*
X111321428Y-86042500D01*
X111964285Y-86899642D02*
X111821428Y-86971071D01*
X111464285Y-86971071D01*
X111321428Y-86899642D01*
X111250000Y-86756785D01*
X111250000Y-86613928D01*
X111321428Y-86471071D01*
X111464285Y-86399642D01*
X111821428Y-86399642D01*
X111964285Y-86328214D01*
X113750000Y-86899642D02*
X113964285Y-86971071D01*
X114321428Y-86971071D01*
X114464285Y-86899642D01*
X114535714Y-86828214D01*
X114607142Y-86685357D01*
X114607142Y-86542500D01*
X114535714Y-86399642D01*
X114464285Y-86328214D01*
X114321428Y-86256785D01*
X114035714Y-86185357D01*
X113892857Y-86113928D01*
X113821428Y-86042500D01*
X113750000Y-85899642D01*
X113750000Y-85756785D01*
X113821428Y-85613928D01*
X113892857Y-85542500D01*
X114035714Y-85471071D01*
X114392857Y-85471071D01*
X114607142Y-85542500D01*
X115107142Y-85971071D02*
X115392857Y-86971071D01*
X115678571Y-86256785D01*
X115964285Y-86971071D01*
X116250000Y-85971071D01*
X117464285Y-86971071D02*
X117464285Y-86185357D01*
X117392857Y-86042500D01*
X117250000Y-85971071D01*
X116964285Y-85971071D01*
X116821428Y-86042500D01*
X117464285Y-86899642D02*
X117321428Y-86971071D01*
X116964285Y-86971071D01*
X116821428Y-86899642D01*
X116750000Y-86756785D01*
X116750000Y-86613928D01*
X116821428Y-86471071D01*
X116964285Y-86399642D01*
X117321428Y-86399642D01*
X117464285Y-86328214D01*
X118178571Y-86971071D02*
X118178571Y-85971071D01*
X118178571Y-86256785D02*
X118250000Y-86113928D01*
X118321428Y-86042500D01*
X118464285Y-85971071D01*
X118607142Y-85971071D01*
X119107142Y-86971071D02*
X119107142Y-85971071D01*
X119107142Y-86113928D02*
X119178571Y-86042500D01*
X119321428Y-85971071D01*
X119535714Y-85971071D01*
X119678571Y-86042500D01*
X119750000Y-86185357D01*
X119750000Y-86971071D01*
X119750000Y-86185357D02*
X119821428Y-86042500D01*
X119964285Y-85971071D01*
X120178571Y-85971071D01*
X120321428Y-86042500D01*
X120392857Y-86185357D01*
X120392857Y-86971071D01*
X122750000Y-86185357D02*
X122964285Y-86256785D01*
X123035714Y-86328214D01*
X123107142Y-86471071D01*
X123107142Y-86685357D01*
X123035714Y-86828214D01*
X122964285Y-86899642D01*
X122821428Y-86971071D01*
X122250000Y-86971071D01*
X122250000Y-85471071D01*
X122750000Y-85471071D01*
X122892857Y-85542500D01*
X122964285Y-85613928D01*
X123035714Y-85756785D01*
X123035714Y-85899642D01*
X122964285Y-86042500D01*
X122892857Y-86113928D01*
X122750000Y-86185357D01*
X122250000Y-86185357D01*
X124392857Y-86971071D02*
X124392857Y-86185357D01*
X124321428Y-86042500D01*
X124178571Y-85971071D01*
X123892857Y-85971071D01*
X123750000Y-86042500D01*
X124392857Y-86899642D02*
X124250000Y-86971071D01*
X123892857Y-86971071D01*
X123750000Y-86899642D01*
X123678571Y-86756785D01*
X123678571Y-86613928D01*
X123750000Y-86471071D01*
X123892857Y-86399642D01*
X124250000Y-86399642D01*
X124392857Y-86328214D01*
X125035714Y-86899642D02*
X125178571Y-86971071D01*
X125464285Y-86971071D01*
X125607142Y-86899642D01*
X125678571Y-86756785D01*
X125678571Y-86685357D01*
X125607142Y-86542500D01*
X125464285Y-86471071D01*
X125250000Y-86471071D01*
X125107142Y-86399642D01*
X125035714Y-86256785D01*
X125035714Y-86185357D01*
X125107142Y-86042500D01*
X125250000Y-85971071D01*
X125464285Y-85971071D01*
X125607142Y-86042500D01*
X126892857Y-86899642D02*
X126750000Y-86971071D01*
X126464285Y-86971071D01*
X126321428Y-86899642D01*
X126250000Y-86756785D01*
X126250000Y-86185357D01*
X126321428Y-86042500D01*
X126464285Y-85971071D01*
X126750000Y-85971071D01*
X126892857Y-86042500D01*
X126964285Y-86185357D01*
X126964285Y-86328214D01*
X126250000Y-86471071D01*
X128678571Y-85613928D02*
X128750000Y-85542500D01*
X128892857Y-85471071D01*
X129250000Y-85471071D01*
X129392857Y-85542500D01*
X129464285Y-85613928D01*
X129535714Y-85756785D01*
X129535714Y-85899642D01*
X129464285Y-86113928D01*
X128607142Y-86971071D01*
X129535714Y-86971071D01*
X130178571Y-86828214D02*
X130250000Y-86899642D01*
X130178571Y-86971071D01*
X130107142Y-86899642D01*
X130178571Y-86828214D01*
X130178571Y-86971071D01*
X130821428Y-85613928D02*
X130892857Y-85542500D01*
X131035714Y-85471071D01*
X131392857Y-85471071D01*
X131535714Y-85542500D01*
X131607142Y-85613928D01*
X131678571Y-85756785D01*
X131678571Y-85899642D01*
X131607142Y-86113928D01*
X130750000Y-86971071D01*
X131678571Y-86971071D01*
D11*
X207137000Y-101854000D03*
X207137000Y-99979000D03*
D12*
X200137500Y-108900000D03*
X198262500Y-108900000D03*
X200162500Y-106900000D03*
X198287500Y-106900000D03*
D11*
X116000000Y-85937500D03*
X116000000Y-84062500D03*
D13*
X116500000Y-141125000D03*
X116500000Y-143000000D03*
D14*
X178000000Y-112000000D03*
D15*
X176833274Y-113166726D03*
X176833274Y-110833274D03*
X179166726Y-113166726D03*
X179166726Y-110833274D03*
X179650000Y-112000000D03*
X176350000Y-112000000D03*
X178000000Y-113650000D03*
X178000000Y-110350000D03*
X176833274Y-116333274D03*
X178000000Y-119150000D03*
X179166726Y-118666726D03*
X176350000Y-117500000D03*
X178000000Y-115850000D03*
D14*
X178000000Y-117500000D03*
D15*
X176833274Y-118666726D03*
X179166726Y-116333274D03*
X179650000Y-117500000D03*
D16*
X113500000Y-80500000D03*
D17*
X116040000Y-80500000D03*
D13*
X207500000Y-132125000D03*
X207500000Y-134000000D03*
D18*
X136398000Y-110793000D03*
X135128000Y-110793000D03*
X133858000Y-110793000D03*
X132588000Y-110793000D03*
X131318000Y-110793000D03*
X130048000Y-110793000D03*
X128778000Y-110793000D03*
X127508000Y-110793000D03*
X126238000Y-110793000D03*
X124968000Y-110793000D03*
X123698000Y-110793000D03*
X122428000Y-110793000D03*
X121158000Y-110793000D03*
X119888000Y-110793000D03*
X119888000Y-120093000D03*
X121158000Y-120093000D03*
X122428000Y-120093000D03*
X123698000Y-120093000D03*
X124968000Y-120093000D03*
X126238000Y-120093000D03*
X127508000Y-120093000D03*
X128778000Y-120093000D03*
X130048000Y-120093000D03*
X131318000Y-120093000D03*
X132588000Y-120093000D03*
X133858000Y-120093000D03*
X135128000Y-120093000D03*
X136398000Y-120093000D03*
D19*
X146000000Y-110000000D03*
D20*
X146000000Y-112540000D03*
X146000000Y-115080000D03*
X146000000Y-117620000D03*
X146000000Y-120160000D03*
X146000000Y-122700000D03*
X146000000Y-125240000D03*
X146000000Y-127780000D03*
D19*
X157600000Y-79000000D03*
D20*
X155060000Y-79000000D03*
X152520000Y-79000000D03*
X149980000Y-79000000D03*
X147440000Y-79000000D03*
X144900000Y-79000000D03*
X142360000Y-79000000D03*
D16*
X113460000Y-147000000D03*
D17*
X116000000Y-147000000D03*
D12*
X203600000Y-106900000D03*
X201725000Y-106900000D03*
D19*
X105000000Y-105880000D03*
D20*
X105000000Y-108420000D03*
X105000000Y-110960000D03*
X105000000Y-113500000D03*
X105000000Y-116040000D03*
X105000000Y-118580000D03*
X105000000Y-121120000D03*
D13*
X121031000Y-106250500D03*
X121031000Y-108125500D03*
D12*
X203662500Y-104900000D03*
X201787500Y-104900000D03*
D13*
X123031000Y-106250500D03*
X123031000Y-108125500D03*
D12*
X200162500Y-104900000D03*
X198287500Y-104900000D03*
D15*
X182333274Y-116333274D03*
X183500000Y-115850000D03*
X184666726Y-116333274D03*
X184666726Y-118666726D03*
D14*
X183500000Y-117500000D03*
D15*
X181850000Y-117500000D03*
X182333274Y-118666726D03*
X185150000Y-117500000D03*
X183500000Y-119150000D03*
D16*
X205000000Y-89000000D03*
D17*
X207540000Y-89000000D03*
D19*
X142380000Y-148000000D03*
D20*
X144920000Y-148000000D03*
X147460000Y-148000000D03*
X150000000Y-148000000D03*
X152540000Y-148000000D03*
X155080000Y-148000000D03*
X157620000Y-148000000D03*
D21*
X138500000Y-103500000D03*
D22*
X138500000Y-100960000D03*
X141040000Y-103500000D03*
X141040000Y-100960000D03*
X143580000Y-103500000D03*
X143580000Y-100960000D03*
X146120000Y-103500000D03*
X146120000Y-100960000D03*
X148660000Y-103500000D03*
X148660000Y-100960000D03*
D19*
X207000000Y-121120000D03*
D20*
X207000000Y-118580000D03*
X207000000Y-116040000D03*
X207000000Y-113500000D03*
X207000000Y-110960000D03*
X207000000Y-108420000D03*
X207000000Y-105880000D03*
D23*
X202500000Y-100275000D03*
X201850000Y-100275000D03*
X201200000Y-100275000D03*
X200550000Y-100275000D03*
X199900000Y-100275000D03*
D24*
X201200000Y-98375000D03*
D25*
X204000000Y-100525000D03*
X198400000Y-100525000D03*
D12*
X125730000Y-123063000D03*
X123855000Y-123063000D03*
D15*
X183500000Y-113650000D03*
X181850000Y-112000000D03*
X185150000Y-112000000D03*
X184666726Y-110833274D03*
X183500000Y-110350000D03*
X182333274Y-110833274D03*
X182333274Y-113166726D03*
X184666726Y-113166726D03*
D14*
X183500000Y-112000000D03*
D19*
X195326000Y-103251000D03*
D20*
X195326000Y-105791000D03*
D26*
X201041000Y-94583000D03*
X205741000Y-94583000D03*
X196341000Y-94583000D03*
D16*
X205000000Y-138000000D03*
D17*
X207540000Y-138000000D03*
D12*
X203637500Y-108900000D03*
X201762500Y-108900000D03*
D19*
X161240000Y-127780000D03*
D20*
X161240000Y-125240000D03*
X161240000Y-122700000D03*
X161240000Y-120160000D03*
X161240000Y-117620000D03*
X161240000Y-115080000D03*
X161240000Y-112540000D03*
X161240000Y-110000000D03*
D27*
X131445000Y-115062000D03*
X134239000Y-99187000D03*
X125165932Y-102559932D03*
X131064000Y-113157000D03*
X117475000Y-119380000D03*
X126238000Y-108966000D03*
X124419750Y-104861750D03*
X136652000Y-121920000D03*
X136134459Y-129676541D03*
X138116502Y-108125500D03*
X143637000Y-132207000D03*
X143637000Y-121539000D03*
X143637000Y-137287000D03*
X135763000Y-124079000D03*
X127635000Y-125730000D03*
X124968000Y-113157000D03*
X121486719Y-118327000D03*
X161699999Y-137774990D03*
X152499987Y-131000000D03*
X135500000Y-106500000D03*
X186500000Y-104500000D03*
X198900000Y-102900000D03*
X145512660Y-133987340D03*
X164960000Y-112540000D03*
X204500000Y-131000000D03*
X144699990Y-136588388D03*
X195500000Y-123500000D03*
X195500000Y-110000000D03*
D28*
X194310000Y-110023854D02*
X194310000Y-108458000D01*
X197080000Y-118580000D02*
X194310000Y-115810000D01*
X194310000Y-115810000D02*
X194310000Y-110023854D01*
X194310000Y-108458000D02*
X193451991Y-107599991D01*
X193451991Y-107599991D02*
X186099991Y-107599991D01*
X194799999Y-113299999D02*
X194799999Y-107841001D01*
X195000000Y-113500000D02*
X194799999Y-113299999D01*
X194799999Y-107841001D02*
X191458998Y-104500000D01*
X191458998Y-104500000D02*
X186500000Y-104500000D01*
X135382000Y-98044000D02*
X135509000Y-98044000D01*
X131318000Y-115189000D02*
X131445000Y-115062000D01*
X135509000Y-98044000D02*
X137000000Y-96553000D01*
X131318000Y-120093000D02*
X131318000Y-115189000D01*
X137000000Y-96553000D02*
X137000000Y-90500000D01*
X134239000Y-99187000D02*
X135382000Y-98044000D01*
X131064000Y-113157000D02*
X135001000Y-117094000D01*
X135128000Y-117221000D02*
X135128000Y-120093000D01*
X116000000Y-85937500D02*
X119696038Y-85937500D01*
X120904000Y-87145462D02*
X120904000Y-98298000D01*
X119696038Y-85937500D02*
X120904000Y-87145462D01*
X120904000Y-98298000D02*
X125165932Y-102559932D01*
X135001000Y-117094000D02*
X135128000Y-117221000D01*
X119634000Y-124460000D02*
X117475000Y-122301000D01*
X125730000Y-123063000D02*
X125730000Y-124460000D01*
X125730000Y-124460000D02*
X119634000Y-124460000D01*
X117475000Y-122301000D02*
X117475000Y-119380000D01*
X126238000Y-110793000D02*
X126238000Y-108966000D01*
D29*
X128321500Y-100960000D02*
X124419750Y-104861750D01*
X124419750Y-104861750D02*
X123031000Y-106250500D01*
D28*
X125730000Y-123063000D02*
X125637990Y-122970990D01*
D30*
X132207000Y-127520186D02*
X132219186Y-127520186D01*
X132219186Y-127520186D02*
X132219186Y-127683019D01*
X132219186Y-127683019D02*
X143611177Y-139075010D01*
X143611177Y-139075010D02*
X143761824Y-139075010D01*
D28*
X142621000Y-135890000D02*
X136407541Y-129676541D01*
X136407541Y-129676541D02*
X136134459Y-129676541D01*
X143813998Y-138500000D02*
X142621000Y-137307002D01*
X136652000Y-120347000D02*
X136398000Y-120093000D01*
X144000000Y-138500000D02*
X143813998Y-138500000D01*
X142621000Y-137307002D02*
X142621000Y-135890000D01*
X136652000Y-121920000D02*
X136652000Y-120347000D01*
X143637000Y-132207000D02*
X143637000Y-121539000D01*
X144124990Y-137774990D02*
X143637000Y-137287000D01*
X144702590Y-137774990D02*
X144124990Y-137774990D01*
X123031000Y-108125500D02*
X138116502Y-108125500D01*
X138116502Y-108125500D02*
X142190001Y-104052001D01*
X142190001Y-104052001D02*
X142190001Y-100647997D01*
X142190001Y-100647997D02*
X143027999Y-99809999D01*
X143027999Y-99809999D02*
X144969999Y-99809999D01*
X144969999Y-99809999D02*
X146120000Y-100960000D01*
X135500000Y-106500000D02*
X134949490Y-107050510D01*
X134949490Y-107050510D02*
X122105990Y-107050510D01*
X122105990Y-107050510D02*
X121031000Y-108125500D01*
D30*
X126873000Y-125730000D02*
X127635000Y-125730000D01*
X116500000Y-141125000D02*
X120777000Y-136848000D01*
X120777000Y-131826000D02*
X126873000Y-125730000D01*
X120777000Y-136848000D02*
X120777000Y-131826000D01*
X135763000Y-124079000D02*
X133858000Y-122174000D01*
X133858000Y-122174000D02*
X133858000Y-120093000D01*
X121486719Y-119151719D02*
X120829281Y-119151719D01*
X120829281Y-119151719D02*
X119888000Y-120093000D01*
X121486719Y-119151719D02*
X121486719Y-119764281D01*
X121486719Y-119764281D02*
X121158000Y-120093000D01*
X124968000Y-110793000D02*
X124968000Y-113157000D01*
X121486719Y-118327000D02*
X121486719Y-119151719D01*
X121486719Y-119151719D02*
X122428000Y-120093000D01*
X116000000Y-84062500D02*
X116000000Y-80540000D01*
X116000000Y-80540000D02*
X116040000Y-80500000D01*
X135128000Y-120093000D02*
X135128000Y-118237000D01*
X135128000Y-118237000D02*
X135128000Y-117856000D01*
D29*
X138500000Y-100960000D02*
X128321500Y-100960000D01*
X121031000Y-106250500D02*
X123031000Y-106250500D01*
X105000000Y-105880000D02*
X120660500Y-105880000D01*
X120660500Y-105880000D02*
X121031000Y-106250500D01*
X105000000Y-108420000D02*
X105000000Y-105880000D01*
D31*
X105000000Y-113500000D02*
X119799000Y-113500000D01*
X119799000Y-113500000D02*
X121158000Y-112141000D01*
X121158000Y-112141000D02*
X121158000Y-110793000D01*
X105000000Y-116040000D02*
X118783000Y-116040000D01*
X118783000Y-116040000D02*
X122428000Y-112395000D01*
X122428000Y-112395000D02*
X122428000Y-110793000D01*
X118364000Y-117602000D02*
X129286000Y-117602000D01*
X105000000Y-118580000D02*
X117386000Y-118580000D01*
X117386000Y-118580000D02*
X118364000Y-117602000D01*
X129286000Y-117602000D02*
X130048000Y-118364000D01*
X130048000Y-118364000D02*
X130048000Y-120093000D01*
X122428000Y-110793000D02*
X122428000Y-108728500D01*
X122428000Y-108728500D02*
X123031000Y-108125500D01*
X121158000Y-110793000D02*
X121158000Y-108252500D01*
X121158000Y-108252500D02*
X121031000Y-108125500D01*
X123855000Y-123063000D02*
X123855000Y-120250000D01*
X123855000Y-120250000D02*
X123698000Y-120093000D01*
X136398000Y-110793000D02*
X138145000Y-112540000D01*
X138145000Y-112540000D02*
X146000000Y-112540000D01*
X135128000Y-110793000D02*
X135128000Y-111818000D01*
X135128000Y-111818000D02*
X138390000Y-115080000D01*
X138390000Y-115080000D02*
X146000000Y-115080000D01*
X133858000Y-110793000D02*
X133858000Y-111818000D01*
X133858000Y-111818000D02*
X137664992Y-115624992D01*
X137664992Y-115624992D02*
X144004992Y-115624992D01*
X144004992Y-115624992D02*
X146000000Y-117620000D01*
X132588000Y-110793000D02*
X132588000Y-111818000D01*
X132588000Y-111818000D02*
X136845002Y-116075002D01*
X136845002Y-116075002D02*
X141915002Y-116075002D01*
X141915002Y-116075002D02*
X146000000Y-120160000D01*
X131318000Y-110793000D02*
X131318000Y-111818000D01*
X131318000Y-111818000D02*
X136100011Y-116600011D01*
X136100011Y-116600011D02*
X139900011Y-116600011D01*
X135128000Y-120093000D02*
X135128000Y-118745000D01*
X132588000Y-120093000D02*
X132588000Y-122809000D01*
X132588000Y-122809000D02*
X145279000Y-135500000D01*
X145279000Y-135500000D02*
X146000000Y-135500000D01*
D30*
X128778000Y-120093000D02*
X128778000Y-121118000D01*
X128778000Y-121118000D02*
X144248388Y-136588388D01*
X132207000Y-127520186D02*
X127508000Y-122821186D01*
X127508000Y-122821186D02*
X127508000Y-120093000D01*
X146155010Y-139075010D02*
X143761824Y-139075010D01*
X155080000Y-148000000D02*
X146155010Y-139075010D01*
D29*
X195326000Y-103251000D02*
X195326000Y-100076930D01*
X195326000Y-100076930D02*
X200819930Y-94583000D01*
X200819930Y-94583000D02*
X201041000Y-94583000D01*
D30*
X204181227Y-102108000D02*
X204216000Y-102108000D01*
X202500000Y-101800000D02*
X202935000Y-102235000D01*
X202935000Y-102235000D02*
X204054227Y-102235000D01*
X204054227Y-102235000D02*
X204181227Y-102108000D01*
X204216000Y-102108000D02*
X205741000Y-100583000D01*
X205741000Y-100583000D02*
X205741000Y-94583000D01*
D29*
X201041000Y-94583000D02*
X205741000Y-94583000D01*
D31*
X208066001Y-96479999D02*
X208280000Y-96266000D01*
X207137000Y-99979000D02*
X208066001Y-99049999D01*
X208280000Y-89740000D02*
X207540000Y-89000000D01*
X208066001Y-99049999D02*
X208066001Y-96479999D01*
X208280000Y-96266000D02*
X208280000Y-89740000D01*
X205225010Y-108820928D02*
X205225010Y-104146990D01*
X205225010Y-104146990D02*
X207137000Y-102235000D01*
X207137000Y-102235000D02*
X207137000Y-101854000D01*
D32*
X144702590Y-137774990D02*
X161699999Y-137774990D01*
X208250001Y-129249999D02*
X199725010Y-137774990D01*
X208250001Y-112210001D02*
X208250001Y-129249999D01*
X199725010Y-137774990D02*
X161699999Y-137774990D01*
X207000000Y-110960000D02*
X208250001Y-112210001D01*
X152499987Y-109879987D02*
X152499987Y-131000000D01*
X195000000Y-113500000D02*
X207000000Y-113500000D01*
X146120000Y-103500000D02*
X152499987Y-109879987D01*
X146120000Y-103500000D02*
X147370001Y-104750001D01*
D29*
X198262500Y-108900000D02*
X198262500Y-106925000D01*
D32*
X199900000Y-100275000D02*
X199900000Y-101900000D01*
D29*
X198900000Y-102900000D02*
X198287500Y-103512500D01*
X198287500Y-104900000D02*
X198287500Y-106900000D01*
X198287500Y-103512500D02*
X198287500Y-104900000D01*
X199900000Y-101900000D02*
X198900000Y-102900000D01*
X198262500Y-106925000D02*
X198287500Y-106900000D01*
X155060000Y-79000000D02*
X157600000Y-79000000D01*
D31*
X152485685Y-99500000D02*
X146500000Y-99500000D01*
X146500000Y-99500000D02*
X146000000Y-99000000D01*
D32*
X146000000Y-99000000D02*
X155060000Y-89940000D01*
X140460000Y-99000000D02*
X146000000Y-99000000D01*
X161240000Y-112540000D02*
X159000000Y-114780000D01*
X159000000Y-133000000D02*
X158012660Y-133987340D01*
X155060000Y-89940000D02*
X155060000Y-79000000D01*
D31*
X164960000Y-112540000D02*
X164960000Y-111974315D01*
D32*
X197080000Y-118580000D02*
X207000000Y-118580000D01*
X159000000Y-114780000D02*
X159000000Y-133000000D01*
X138500000Y-100960000D02*
X140460000Y-99000000D01*
D29*
X207000000Y-121120000D02*
X207000000Y-118580000D01*
D32*
X169900009Y-107599991D02*
X186099991Y-107599991D01*
D31*
X164960000Y-111974315D02*
X152485685Y-99500000D01*
D29*
X142380000Y-148000000D02*
X144920000Y-148000000D01*
D32*
X158012660Y-133987340D02*
X145512660Y-133987340D01*
X164960000Y-112540000D02*
X169900009Y-107599991D01*
X161240000Y-112540000D02*
X164960000Y-112540000D01*
X207000000Y-108420000D02*
X207000000Y-108500000D01*
X192302914Y-131000000D02*
X186714526Y-136588388D01*
X204500000Y-131000000D02*
X192302914Y-131000000D01*
X186714526Y-136588388D02*
X144699990Y-136588388D01*
X137250000Y-90250000D02*
X144900000Y-82600000D01*
X144900000Y-82600000D02*
X144900000Y-79000000D01*
X137000000Y-90500000D02*
X137250000Y-90250000D01*
X146000000Y-110000000D02*
X144500000Y-108500000D01*
X144500000Y-108500000D02*
X143580000Y-107580000D01*
X143580000Y-107580000D02*
X143580000Y-103500000D01*
X146000000Y-122700000D02*
X139900011Y-116600011D01*
X148000000Y-109000000D02*
X145500000Y-106500000D01*
X144830001Y-102210001D02*
X143580000Y-100960000D01*
X145500000Y-106500000D02*
X144830001Y-105830001D01*
X146000000Y-125240000D02*
X148000000Y-123240000D01*
X144830001Y-105830001D02*
X144830001Y-102210001D01*
X148000000Y-123240000D02*
X148000000Y-109000000D01*
X116000000Y-143500000D02*
X116500000Y-143000000D01*
X116000000Y-147000000D02*
X116000000Y-143500000D01*
X207540000Y-138000000D02*
X207540000Y-134040000D01*
X207540000Y-134040000D02*
X207500000Y-134000000D01*
D31*
X200000000Y-138500000D02*
X144000000Y-138500000D01*
X207500000Y-132125000D02*
X206375000Y-132125000D01*
X206375000Y-132125000D02*
X200000000Y-138500000D01*
X195000000Y-124000000D02*
X195500000Y-123500000D01*
X186500000Y-135500000D02*
X192000000Y-130000000D01*
X205000000Y-109045938D02*
X205225010Y-108820928D01*
X192000000Y-130000000D02*
X195000000Y-127000000D01*
X195500000Y-110000000D02*
X204045938Y-110000000D01*
X204045938Y-110000000D02*
X205000000Y-109045938D01*
X195000000Y-127000000D02*
X195000000Y-124000000D01*
X146000000Y-135500000D02*
X186500000Y-135500000D01*
D29*
X161240000Y-122700000D02*
X168800000Y-122700000D01*
X178000000Y-118500000D02*
X178000000Y-117500000D01*
X168800000Y-122700000D02*
X173800000Y-122700000D01*
X176500000Y-120000000D02*
X178000000Y-118500000D01*
X173800000Y-122700000D02*
X176500000Y-120000000D01*
X174500000Y-109500000D02*
X175000000Y-109000000D01*
X174500000Y-112500000D02*
X174500000Y-110500000D01*
X174500000Y-110500000D02*
X174500000Y-109500000D01*
X180000000Y-108500000D02*
X180500000Y-109000000D01*
X161240000Y-117620000D02*
X169380000Y-117620000D01*
X180500000Y-109000000D02*
X183500000Y-112000000D01*
X169380000Y-117620000D02*
X174500000Y-112500000D01*
X175500000Y-108500000D02*
X179500000Y-108500000D01*
X175000000Y-109000000D02*
X175500000Y-108500000D01*
X179500000Y-108500000D02*
X180000000Y-108500000D01*
X161240000Y-120160000D02*
X170840000Y-120160000D01*
X170840000Y-120160000D02*
X178000000Y-113000000D01*
X161240000Y-125240000D02*
X167760000Y-125240000D01*
X176760000Y-125240000D02*
X183500000Y-118500000D01*
X167760000Y-125240000D02*
X176760000Y-125240000D01*
D28*
X200137500Y-108900000D02*
X201762500Y-108900000D01*
X201699990Y-101268624D02*
X201699990Y-103339408D01*
X201699990Y-103339408D02*
X202575010Y-104214428D01*
X201850000Y-100275000D02*
X201850000Y-101118614D01*
X202575010Y-104214428D02*
X202575010Y-108087490D01*
X202575010Y-108087490D02*
X201762500Y-108900000D01*
X201850000Y-101118614D02*
X201699990Y-101268624D01*
X201200000Y-104312500D02*
X201787500Y-104900000D01*
X201200000Y-101000000D02*
X201200000Y-104312500D01*
X201787500Y-104900000D02*
X200162500Y-104900000D01*
X200162500Y-106900000D02*
X199374990Y-106112490D01*
X199374990Y-106112490D02*
X199374990Y-103556396D01*
X200700010Y-101150010D02*
X200550000Y-101000000D01*
X199374990Y-103556396D02*
X200700010Y-102231376D01*
X200700010Y-102231376D02*
X200700010Y-101150010D01*
X201725000Y-106900000D02*
X200162500Y-106900000D01*
D29*
X203275000Y-98375000D02*
X201200000Y-98375000D01*
X198725000Y-98375000D02*
X198400000Y-98700000D01*
X198400000Y-98700000D02*
X198400000Y-100525000D01*
X201200000Y-98375000D02*
X198725000Y-98375000D01*
X204000000Y-99100000D02*
X203275000Y-98375000D01*
X204000000Y-100525000D02*
X204000000Y-99100000D01*
D32*
X202500000Y-101400000D02*
X202500000Y-101800000D01*
X202500000Y-100275000D02*
X202500000Y-101400000D01*
D31*
X203637500Y-108900000D02*
X203637500Y-106937500D01*
X203662500Y-106837500D02*
X203600000Y-106900000D01*
X203637500Y-106937500D02*
X203600000Y-106900000D01*
X203662500Y-104900000D02*
X203662500Y-106837500D01*
M02*
