G04 #@! TF.GenerationSoftware,KiCad,Pcbnew,(5.99.0-7087-g754e8e912c)*
G04 #@! TF.CreationDate,2020-12-17T20:12:46+00:00*
G04 #@! TF.ProjectId,nesta proto 2.1,6e657374-6120-4707-926f-746f20322e31,rev?*
G04 #@! TF.SameCoordinates,Original*
G04 #@! TF.FileFunction,Legend,Top*
G04 #@! TF.FilePolarity,Positive*
%FSLAX46Y46*%
G04 Gerber Fmt 4.6, Leading zero omitted, Abs format (unit mm)*
G04 Created by KiCad (PCBNEW (5.99.0-7087-g754e8e912c)) date 2020-12-17 20:12:46*
%MOMM*%
%LPD*%
G01*
G04 APERTURE LIST*
%ADD10C,0.150000*%
%ADD11C,0.120000*%
G04 APERTURE END LIST*
D10*
X205939380Y-101083166D02*
X205463190Y-101416500D01*
X205939380Y-101654595D02*
X204939380Y-101654595D01*
X204939380Y-101273642D01*
X204987000Y-101178404D01*
X205034619Y-101130785D01*
X205129857Y-101083166D01*
X205272714Y-101083166D01*
X205367952Y-101130785D01*
X205415571Y-101178404D01*
X205463190Y-101273642D01*
X205463190Y-101654595D01*
X204939380Y-100749833D02*
X204939380Y-100083166D01*
X205939380Y-100511738D01*
X198557142Y-111002380D02*
X198223809Y-110526190D01*
X197985714Y-111002380D02*
X197985714Y-110002380D01*
X198366666Y-110002380D01*
X198461904Y-110050000D01*
X198509523Y-110097619D01*
X198557142Y-110192857D01*
X198557142Y-110335714D01*
X198509523Y-110430952D01*
X198461904Y-110478571D01*
X198366666Y-110526190D01*
X197985714Y-110526190D01*
X199509523Y-111002380D02*
X198938095Y-111002380D01*
X199223809Y-111002380D02*
X199223809Y-110002380D01*
X199128571Y-110145238D01*
X199033333Y-110240476D01*
X198938095Y-110288095D01*
X200461904Y-111002380D02*
X199890476Y-111002380D01*
X200176190Y-111002380D02*
X200176190Y-110002380D01*
X200080952Y-110145238D01*
X199985714Y-110240476D01*
X199890476Y-110288095D01*
X115761904Y-129252380D02*
X115761904Y-128252380D01*
X115761904Y-128728571D02*
X116333333Y-128728571D01*
X116333333Y-129252380D02*
X116333333Y-128252380D01*
X117333333Y-129252380D02*
X116761904Y-129252380D01*
X117047619Y-129252380D02*
X117047619Y-128252380D01*
X116952380Y-128395238D01*
X116857142Y-128490476D01*
X116761904Y-128538095D01*
X118190476Y-128252380D02*
X118000000Y-128252380D01*
X117904761Y-128300000D01*
X117857142Y-128347619D01*
X117761904Y-128490476D01*
X117714285Y-128680952D01*
X117714285Y-129061904D01*
X117761904Y-129157142D01*
X117809523Y-129204761D01*
X117904761Y-129252380D01*
X118095238Y-129252380D01*
X118190476Y-129204761D01*
X118238095Y-129157142D01*
X118285714Y-129061904D01*
X118285714Y-128823809D01*
X118238095Y-128728571D01*
X118190476Y-128680952D01*
X118095238Y-128633333D01*
X117904761Y-128633333D01*
X117809523Y-128680952D01*
X117761904Y-128728571D01*
X117714285Y-128823809D01*
X204238095Y-142252380D02*
X204238095Y-141252380D01*
X204238095Y-141728571D02*
X204809523Y-141728571D01*
X204809523Y-142252380D02*
X204809523Y-141252380D01*
X205714285Y-141252380D02*
X205523809Y-141252380D01*
X205428571Y-141300000D01*
X205380952Y-141347619D01*
X205285714Y-141490476D01*
X205238095Y-141680952D01*
X205238095Y-142061904D01*
X205285714Y-142157142D01*
X205333333Y-142204761D01*
X205428571Y-142252380D01*
X205619047Y-142252380D01*
X205714285Y-142204761D01*
X205761904Y-142157142D01*
X205809523Y-142061904D01*
X205809523Y-141823809D01*
X205761904Y-141728571D01*
X205714285Y-141680952D01*
X205619047Y-141633333D01*
X205428571Y-141633333D01*
X205333333Y-141680952D01*
X205285714Y-141728571D01*
X205238095Y-141823809D01*
X198582142Y-109002380D02*
X198248809Y-108526190D01*
X198010714Y-109002380D02*
X198010714Y-108002380D01*
X198391666Y-108002380D01*
X198486904Y-108050000D01*
X198534523Y-108097619D01*
X198582142Y-108192857D01*
X198582142Y-108335714D01*
X198534523Y-108430952D01*
X198486904Y-108478571D01*
X198391666Y-108526190D01*
X198010714Y-108526190D01*
X199534523Y-109002380D02*
X198963095Y-109002380D01*
X199248809Y-109002380D02*
X199248809Y-108002380D01*
X199153571Y-108145238D01*
X199058333Y-108240476D01*
X198963095Y-108288095D01*
X199867857Y-108002380D02*
X200486904Y-108002380D01*
X200153571Y-108383333D01*
X200296428Y-108383333D01*
X200391666Y-108430952D01*
X200439285Y-108478571D01*
X200486904Y-108573809D01*
X200486904Y-108811904D01*
X200439285Y-108907142D01*
X200391666Y-108954761D01*
X200296428Y-109002380D01*
X200010714Y-109002380D01*
X199915476Y-108954761D01*
X199867857Y-108907142D01*
X106238095Y-77252380D02*
X106238095Y-76252380D01*
X106238095Y-76728571D02*
X106809523Y-76728571D01*
X106809523Y-77252380D02*
X106809523Y-76252380D01*
X107809523Y-77252380D02*
X107238095Y-77252380D01*
X107523809Y-77252380D02*
X107523809Y-76252380D01*
X107428571Y-76395238D01*
X107333333Y-76490476D01*
X107238095Y-76538095D01*
X123261904Y-90302380D02*
X123261904Y-89302380D01*
X123261904Y-89778571D02*
X123833333Y-89778571D01*
X123833333Y-90302380D02*
X123833333Y-89302380D01*
X124833333Y-90302380D02*
X124261904Y-90302380D01*
X124547619Y-90302380D02*
X124547619Y-89302380D01*
X124452380Y-89445238D01*
X124357142Y-89540476D01*
X124261904Y-89588095D01*
X125214285Y-89397619D02*
X125261904Y-89350000D01*
X125357142Y-89302380D01*
X125595238Y-89302380D01*
X125690476Y-89350000D01*
X125738095Y-89397619D01*
X125785714Y-89492857D01*
X125785714Y-89588095D01*
X125738095Y-89730952D01*
X125166666Y-90302380D01*
X125785714Y-90302380D01*
X114802380Y-85166666D02*
X114326190Y-85500000D01*
X114802380Y-85738095D02*
X113802380Y-85738095D01*
X113802380Y-85357142D01*
X113850000Y-85261904D01*
X113897619Y-85214285D01*
X113992857Y-85166666D01*
X114135714Y-85166666D01*
X114230952Y-85214285D01*
X114278571Y-85261904D01*
X114326190Y-85357142D01*
X114326190Y-85738095D01*
X113802380Y-84261904D02*
X113802380Y-84738095D01*
X114278571Y-84785714D01*
X114230952Y-84738095D01*
X114183333Y-84642857D01*
X114183333Y-84404761D01*
X114230952Y-84309523D01*
X114278571Y-84261904D01*
X114373809Y-84214285D01*
X114611904Y-84214285D01*
X114707142Y-84261904D01*
X114754761Y-84309523D01*
X114802380Y-84404761D01*
X114802380Y-84642857D01*
X114754761Y-84738095D01*
X114707142Y-84785714D01*
X118602380Y-142229166D02*
X118126190Y-142562500D01*
X118602380Y-142800595D02*
X117602380Y-142800595D01*
X117602380Y-142419642D01*
X117650000Y-142324404D01*
X117697619Y-142276785D01*
X117792857Y-142229166D01*
X117935714Y-142229166D01*
X118030952Y-142276785D01*
X118078571Y-142324404D01*
X118126190Y-142419642D01*
X118126190Y-142800595D01*
X117935714Y-141372023D02*
X118602380Y-141372023D01*
X117554761Y-141610119D02*
X118269047Y-141848214D01*
X118269047Y-141229166D01*
X176761904Y-109252380D02*
X176761904Y-108252380D01*
X176761904Y-108728571D02*
X177333333Y-108728571D01*
X177333333Y-109252380D02*
X177333333Y-108252380D01*
X178333333Y-109252380D02*
X177761904Y-109252380D01*
X178047619Y-109252380D02*
X178047619Y-108252380D01*
X177952380Y-108395238D01*
X177857142Y-108490476D01*
X177761904Y-108538095D01*
X178809523Y-109252380D02*
X179000000Y-109252380D01*
X179095238Y-109204761D01*
X179142857Y-109157142D01*
X179238095Y-109014285D01*
X179285714Y-108823809D01*
X179285714Y-108442857D01*
X179238095Y-108347619D01*
X179190476Y-108300000D01*
X179095238Y-108252380D01*
X178904761Y-108252380D01*
X178809523Y-108300000D01*
X178761904Y-108347619D01*
X178714285Y-108442857D01*
X178714285Y-108680952D01*
X178761904Y-108776190D01*
X178809523Y-108823809D01*
X178904761Y-108871428D01*
X179095238Y-108871428D01*
X179190476Y-108823809D01*
X179238095Y-108776190D01*
X179285714Y-108680952D01*
X176761904Y-114752380D02*
X176761904Y-113752380D01*
X176761904Y-114228571D02*
X177333333Y-114228571D01*
X177333333Y-114752380D02*
X177333333Y-113752380D01*
X178333333Y-114752380D02*
X177761904Y-114752380D01*
X178047619Y-114752380D02*
X178047619Y-113752380D01*
X177952380Y-113895238D01*
X177857142Y-113990476D01*
X177761904Y-114038095D01*
X178666666Y-113752380D02*
X179333333Y-113752380D01*
X178904761Y-114752380D01*
X130761904Y-129252380D02*
X130761904Y-128252380D01*
X130761904Y-128728571D02*
X131333333Y-128728571D01*
X131333333Y-129252380D02*
X131333333Y-128252380D01*
X132333333Y-129252380D02*
X131761904Y-129252380D01*
X132047619Y-129252380D02*
X132047619Y-128252380D01*
X131952380Y-128395238D01*
X131857142Y-128490476D01*
X131761904Y-128538095D01*
X133190476Y-128585714D02*
X133190476Y-129252380D01*
X132952380Y-128204761D02*
X132714285Y-128919047D01*
X133333333Y-128919047D01*
X114031904Y-77492380D02*
X114031904Y-76492380D01*
X114270000Y-76492380D01*
X114412857Y-76540000D01*
X114508095Y-76635238D01*
X114555714Y-76730476D01*
X114603333Y-76920952D01*
X114603333Y-77063809D01*
X114555714Y-77254285D01*
X114508095Y-77349523D01*
X114412857Y-77444761D01*
X114270000Y-77492380D01*
X114031904Y-77492380D01*
X114984285Y-76587619D02*
X115031904Y-76540000D01*
X115127142Y-76492380D01*
X115365238Y-76492380D01*
X115460476Y-76540000D01*
X115508095Y-76587619D01*
X115555714Y-76682857D01*
X115555714Y-76778095D01*
X115508095Y-76920952D01*
X114936666Y-77492380D01*
X115555714Y-77492380D01*
X135238095Y-143252380D02*
X135238095Y-142252380D01*
X135238095Y-142728571D02*
X135809523Y-142728571D01*
X135809523Y-143252380D02*
X135809523Y-142252380D01*
X136714285Y-142585714D02*
X136714285Y-143252380D01*
X136476190Y-142204761D02*
X136238095Y-142919047D01*
X136857142Y-142919047D01*
X115761904Y-90252380D02*
X115761904Y-89252380D01*
X115761904Y-89728571D02*
X116333333Y-89728571D01*
X116333333Y-90252380D02*
X116333333Y-89252380D01*
X117333333Y-90252380D02*
X116761904Y-90252380D01*
X117047619Y-90252380D02*
X117047619Y-89252380D01*
X116952380Y-89395238D01*
X116857142Y-89490476D01*
X116761904Y-89538095D01*
X117666666Y-89252380D02*
X118285714Y-89252380D01*
X117952380Y-89633333D01*
X118095238Y-89633333D01*
X118190476Y-89680952D01*
X118238095Y-89728571D01*
X118285714Y-89823809D01*
X118285714Y-90061904D01*
X118238095Y-90157142D01*
X118190476Y-90204761D01*
X118095238Y-90252380D01*
X117809523Y-90252380D01*
X117714285Y-90204761D01*
X117666666Y-90157142D01*
X209602380Y-133229166D02*
X209126190Y-133562500D01*
X209602380Y-133800595D02*
X208602380Y-133800595D01*
X208602380Y-133419642D01*
X208650000Y-133324404D01*
X208697619Y-133276785D01*
X208792857Y-133229166D01*
X208935714Y-133229166D01*
X209030952Y-133276785D01*
X209078571Y-133324404D01*
X209126190Y-133419642D01*
X209126190Y-133800595D01*
X208602380Y-132372023D02*
X208602380Y-132562500D01*
X208650000Y-132657738D01*
X208697619Y-132705357D01*
X208840476Y-132800595D01*
X209030952Y-132848214D01*
X209411904Y-132848214D01*
X209507142Y-132800595D01*
X209554761Y-132752976D01*
X209602380Y-132657738D01*
X209602380Y-132467261D01*
X209554761Y-132372023D01*
X209507142Y-132324404D01*
X209411904Y-132276785D01*
X209173809Y-132276785D01*
X209078571Y-132324404D01*
X209030952Y-132372023D01*
X208983333Y-132467261D01*
X208983333Y-132657738D01*
X209030952Y-132752976D01*
X209078571Y-132800595D01*
X209173809Y-132848214D01*
X137495380Y-116204904D02*
X138304904Y-116204904D01*
X138400142Y-116157285D01*
X138447761Y-116109666D01*
X138495380Y-116014428D01*
X138495380Y-115823952D01*
X138447761Y-115728714D01*
X138400142Y-115681095D01*
X138304904Y-115633476D01*
X137495380Y-115633476D01*
X137590619Y-115204904D02*
X137543000Y-115157285D01*
X137495380Y-115062047D01*
X137495380Y-114823952D01*
X137543000Y-114728714D01*
X137590619Y-114681095D01*
X137685857Y-114633476D01*
X137781095Y-114633476D01*
X137923952Y-114681095D01*
X138495380Y-115252523D01*
X138495380Y-114633476D01*
X145666666Y-107122380D02*
X145666666Y-107836666D01*
X145619047Y-107979523D01*
X145523809Y-108074761D01*
X145380952Y-108122380D01*
X145285714Y-108122380D01*
X146285714Y-107550952D02*
X146190476Y-107503333D01*
X146142857Y-107455714D01*
X146095238Y-107360476D01*
X146095238Y-107312857D01*
X146142857Y-107217619D01*
X146190476Y-107170000D01*
X146285714Y-107122380D01*
X146476190Y-107122380D01*
X146571428Y-107170000D01*
X146619047Y-107217619D01*
X146666666Y-107312857D01*
X146666666Y-107360476D01*
X146619047Y-107455714D01*
X146571428Y-107503333D01*
X146476190Y-107550952D01*
X146285714Y-107550952D01*
X146190476Y-107598571D01*
X146142857Y-107646190D01*
X146095238Y-107741428D01*
X146095238Y-107931904D01*
X146142857Y-108027142D01*
X146190476Y-108074761D01*
X146285714Y-108122380D01*
X146476190Y-108122380D01*
X146571428Y-108074761D01*
X146619047Y-108027142D01*
X146666666Y-107931904D01*
X146666666Y-107741428D01*
X146619047Y-107646190D01*
X146571428Y-107598571D01*
X146476190Y-107550952D01*
X159382380Y-79333333D02*
X160096666Y-79333333D01*
X160239523Y-79380952D01*
X160334761Y-79476190D01*
X160382380Y-79619047D01*
X160382380Y-79714285D01*
X159382380Y-78380952D02*
X159382380Y-78857142D01*
X159858571Y-78904761D01*
X159810952Y-78857142D01*
X159763333Y-78761904D01*
X159763333Y-78523809D01*
X159810952Y-78428571D01*
X159858571Y-78380952D01*
X159953809Y-78333333D01*
X160191904Y-78333333D01*
X160287142Y-78380952D01*
X160334761Y-78428571D01*
X160382380Y-78523809D01*
X160382380Y-78761904D01*
X160334761Y-78857142D01*
X160287142Y-78904761D01*
X113991904Y-143992380D02*
X113991904Y-142992380D01*
X114230000Y-142992380D01*
X114372857Y-143040000D01*
X114468095Y-143135238D01*
X114515714Y-143230476D01*
X114563333Y-143420952D01*
X114563333Y-143563809D01*
X114515714Y-143754285D01*
X114468095Y-143849523D01*
X114372857Y-143944761D01*
X114230000Y-143992380D01*
X113991904Y-143992380D01*
X115515714Y-143992380D02*
X114944285Y-143992380D01*
X115230000Y-143992380D02*
X115230000Y-142992380D01*
X115134761Y-143135238D01*
X115039523Y-143230476D01*
X114944285Y-143278095D01*
X188261904Y-125252380D02*
X188261904Y-124252380D01*
X188261904Y-124728571D02*
X188833333Y-124728571D01*
X188833333Y-125252380D02*
X188833333Y-124252380D01*
X189833333Y-125252380D02*
X189261904Y-125252380D01*
X189547619Y-125252380D02*
X189547619Y-124252380D01*
X189452380Y-124395238D01*
X189357142Y-124490476D01*
X189261904Y-124538095D01*
X190452380Y-124252380D02*
X190547619Y-124252380D01*
X190642857Y-124300000D01*
X190690476Y-124347619D01*
X190738095Y-124442857D01*
X190785714Y-124633333D01*
X190785714Y-124871428D01*
X190738095Y-125061904D01*
X190690476Y-125157142D01*
X190642857Y-125204761D01*
X190547619Y-125252380D01*
X190452380Y-125252380D01*
X190357142Y-125204761D01*
X190309523Y-125157142D01*
X190261904Y-125061904D01*
X190214285Y-124871428D01*
X190214285Y-124633333D01*
X190261904Y-124442857D01*
X190309523Y-124347619D01*
X190357142Y-124300000D01*
X190452380Y-124252380D01*
X202019642Y-109002380D02*
X201686309Y-108526190D01*
X201448214Y-109002380D02*
X201448214Y-108002380D01*
X201829166Y-108002380D01*
X201924404Y-108050000D01*
X201972023Y-108097619D01*
X202019642Y-108192857D01*
X202019642Y-108335714D01*
X201972023Y-108430952D01*
X201924404Y-108478571D01*
X201829166Y-108526190D01*
X201448214Y-108526190D01*
X202972023Y-109002380D02*
X202400595Y-109002380D01*
X202686309Y-109002380D02*
X202686309Y-108002380D01*
X202591071Y-108145238D01*
X202495833Y-108240476D01*
X202400595Y-108288095D01*
X203352976Y-108097619D02*
X203400595Y-108050000D01*
X203495833Y-108002380D01*
X203733928Y-108002380D01*
X203829166Y-108050000D01*
X203876785Y-108097619D01*
X203924404Y-108192857D01*
X203924404Y-108288095D01*
X203876785Y-108430952D01*
X203305357Y-109002380D01*
X203924404Y-109002380D01*
X104666666Y-103002380D02*
X104666666Y-103716666D01*
X104619047Y-103859523D01*
X104523809Y-103954761D01*
X104380952Y-104002380D01*
X104285714Y-104002380D01*
X105571428Y-103335714D02*
X105571428Y-104002380D01*
X105333333Y-102954761D02*
X105095238Y-103669047D01*
X105714285Y-103669047D01*
X135238095Y-76252380D02*
X135238095Y-75252380D01*
X135238095Y-75728571D02*
X135809523Y-75728571D01*
X135809523Y-76252380D02*
X135809523Y-75252380D01*
X136238095Y-75347619D02*
X136285714Y-75300000D01*
X136380952Y-75252380D01*
X136619047Y-75252380D01*
X136714285Y-75300000D01*
X136761904Y-75347619D01*
X136809523Y-75442857D01*
X136809523Y-75538095D01*
X136761904Y-75680952D01*
X136190476Y-76252380D01*
X136809523Y-76252380D01*
X123261904Y-129252380D02*
X123261904Y-128252380D01*
X123261904Y-128728571D02*
X123833333Y-128728571D01*
X123833333Y-129252380D02*
X123833333Y-128252380D01*
X124833333Y-129252380D02*
X124261904Y-129252380D01*
X124547619Y-129252380D02*
X124547619Y-128252380D01*
X124452380Y-128395238D01*
X124357142Y-128490476D01*
X124261904Y-128538095D01*
X125785714Y-129252380D02*
X125214285Y-129252380D01*
X125500000Y-129252380D02*
X125500000Y-128252380D01*
X125404761Y-128395238D01*
X125309523Y-128490476D01*
X125214285Y-128538095D01*
X123133380Y-107354666D02*
X122657190Y-107688000D01*
X123133380Y-107926095D02*
X122133380Y-107926095D01*
X122133380Y-107545142D01*
X122181000Y-107449904D01*
X122228619Y-107402285D01*
X122323857Y-107354666D01*
X122466714Y-107354666D01*
X122561952Y-107402285D01*
X122609571Y-107449904D01*
X122657190Y-107545142D01*
X122657190Y-107926095D01*
X123133380Y-106402285D02*
X123133380Y-106973714D01*
X123133380Y-106688000D02*
X122133380Y-106688000D01*
X122276238Y-106783238D01*
X122371476Y-106878476D01*
X122419095Y-106973714D01*
X106238095Y-142252380D02*
X106238095Y-141252380D01*
X106238095Y-141728571D02*
X106809523Y-141728571D01*
X106809523Y-142252380D02*
X106809523Y-141252380D01*
X107190476Y-141252380D02*
X107809523Y-141252380D01*
X107476190Y-141633333D01*
X107619047Y-141633333D01*
X107714285Y-141680952D01*
X107761904Y-141728571D01*
X107809523Y-141823809D01*
X107809523Y-142061904D01*
X107761904Y-142157142D01*
X107714285Y-142204761D01*
X107619047Y-142252380D01*
X107333333Y-142252380D01*
X107238095Y-142204761D01*
X107190476Y-142157142D01*
X170738095Y-125252380D02*
X170738095Y-124252380D01*
X170738095Y-124728571D02*
X171309523Y-124728571D01*
X171309523Y-125252380D02*
X171309523Y-124252380D01*
X171690476Y-124252380D02*
X172357142Y-124252380D01*
X171928571Y-125252380D01*
X204238095Y-77252380D02*
X204238095Y-76252380D01*
X204238095Y-76728571D02*
X204809523Y-76728571D01*
X204809523Y-77252380D02*
X204809523Y-76252380D01*
X205761904Y-76252380D02*
X205285714Y-76252380D01*
X205238095Y-76728571D01*
X205285714Y-76680952D01*
X205380952Y-76633333D01*
X205619047Y-76633333D01*
X205714285Y-76680952D01*
X205761904Y-76728571D01*
X205809523Y-76823809D01*
X205809523Y-77061904D01*
X205761904Y-77157142D01*
X205714285Y-77204761D01*
X205619047Y-77252380D01*
X205380952Y-77252380D01*
X205285714Y-77204761D01*
X205238095Y-77157142D01*
X202558333Y-107002380D02*
X202225000Y-106526190D01*
X201986904Y-107002380D02*
X201986904Y-106002380D01*
X202367857Y-106002380D01*
X202463095Y-106050000D01*
X202510714Y-106097619D01*
X202558333Y-106192857D01*
X202558333Y-106335714D01*
X202510714Y-106430952D01*
X202463095Y-106478571D01*
X202367857Y-106526190D01*
X201986904Y-106526190D01*
X203129761Y-106430952D02*
X203034523Y-106383333D01*
X202986904Y-106335714D01*
X202939285Y-106240476D01*
X202939285Y-106192857D01*
X202986904Y-106097619D01*
X203034523Y-106050000D01*
X203129761Y-106002380D01*
X203320238Y-106002380D01*
X203415476Y-106050000D01*
X203463095Y-106097619D01*
X203510714Y-106192857D01*
X203510714Y-106240476D01*
X203463095Y-106335714D01*
X203415476Y-106383333D01*
X203320238Y-106430952D01*
X203129761Y-106430952D01*
X203034523Y-106478571D01*
X202986904Y-106526190D01*
X202939285Y-106621428D01*
X202939285Y-106811904D01*
X202986904Y-106907142D01*
X203034523Y-106954761D01*
X203129761Y-107002380D01*
X203320238Y-107002380D01*
X203415476Y-106954761D01*
X203463095Y-106907142D01*
X203510714Y-106811904D01*
X203510714Y-106621428D01*
X203463095Y-106526190D01*
X203415476Y-106478571D01*
X203320238Y-106430952D01*
X188738095Y-96252380D02*
X188738095Y-95252380D01*
X188738095Y-95728571D02*
X189309523Y-95728571D01*
X189309523Y-96252380D02*
X189309523Y-95252380D01*
X189833333Y-96252380D02*
X190023809Y-96252380D01*
X190119047Y-96204761D01*
X190166666Y-96157142D01*
X190261904Y-96014285D01*
X190309523Y-95823809D01*
X190309523Y-95442857D01*
X190261904Y-95347619D01*
X190214285Y-95300000D01*
X190119047Y-95252380D01*
X189928571Y-95252380D01*
X189833333Y-95300000D01*
X189785714Y-95347619D01*
X189738095Y-95442857D01*
X189738095Y-95680952D01*
X189785714Y-95776190D01*
X189833333Y-95823809D01*
X189928571Y-95871428D01*
X190119047Y-95871428D01*
X190214285Y-95823809D01*
X190261904Y-95776190D01*
X190309523Y-95680952D01*
X125133380Y-107354666D02*
X124657190Y-107688000D01*
X125133380Y-107926095D02*
X124133380Y-107926095D01*
X124133380Y-107545142D01*
X124181000Y-107449904D01*
X124228619Y-107402285D01*
X124323857Y-107354666D01*
X124466714Y-107354666D01*
X124561952Y-107402285D01*
X124609571Y-107449904D01*
X124657190Y-107545142D01*
X124657190Y-107926095D01*
X124228619Y-106973714D02*
X124181000Y-106926095D01*
X124133380Y-106830857D01*
X124133380Y-106592761D01*
X124181000Y-106497523D01*
X124228619Y-106449904D01*
X124323857Y-106402285D01*
X124419095Y-106402285D01*
X124561952Y-106449904D01*
X125133380Y-107021333D01*
X125133380Y-106402285D01*
X199058333Y-107002380D02*
X198725000Y-106526190D01*
X198486904Y-107002380D02*
X198486904Y-106002380D01*
X198867857Y-106002380D01*
X198963095Y-106050000D01*
X199010714Y-106097619D01*
X199058333Y-106192857D01*
X199058333Y-106335714D01*
X199010714Y-106430952D01*
X198963095Y-106478571D01*
X198867857Y-106526190D01*
X198486904Y-106526190D01*
X199534523Y-107002380D02*
X199725000Y-107002380D01*
X199820238Y-106954761D01*
X199867857Y-106907142D01*
X199963095Y-106764285D01*
X200010714Y-106573809D01*
X200010714Y-106192857D01*
X199963095Y-106097619D01*
X199915476Y-106050000D01*
X199820238Y-106002380D01*
X199629761Y-106002380D01*
X199534523Y-106050000D01*
X199486904Y-106097619D01*
X199439285Y-106192857D01*
X199439285Y-106430952D01*
X199486904Y-106526190D01*
X199534523Y-106573809D01*
X199629761Y-106621428D01*
X199820238Y-106621428D01*
X199915476Y-106573809D01*
X199963095Y-106526190D01*
X200010714Y-106430952D01*
X170738095Y-96252380D02*
X170738095Y-95252380D01*
X170738095Y-95728571D02*
X171309523Y-95728571D01*
X171309523Y-96252380D02*
X171309523Y-95252380D01*
X171928571Y-95680952D02*
X171833333Y-95633333D01*
X171785714Y-95585714D01*
X171738095Y-95490476D01*
X171738095Y-95442857D01*
X171785714Y-95347619D01*
X171833333Y-95300000D01*
X171928571Y-95252380D01*
X172119047Y-95252380D01*
X172214285Y-95300000D01*
X172261904Y-95347619D01*
X172309523Y-95442857D01*
X172309523Y-95490476D01*
X172261904Y-95585714D01*
X172214285Y-95633333D01*
X172119047Y-95680952D01*
X171928571Y-95680952D01*
X171833333Y-95728571D01*
X171785714Y-95776190D01*
X171738095Y-95871428D01*
X171738095Y-96061904D01*
X171785714Y-96157142D01*
X171833333Y-96204761D01*
X171928571Y-96252380D01*
X172119047Y-96252380D01*
X172214285Y-96204761D01*
X172261904Y-96157142D01*
X172309523Y-96061904D01*
X172309523Y-95871428D01*
X172261904Y-95776190D01*
X172214285Y-95728571D01*
X172119047Y-95680952D01*
X182261904Y-114752380D02*
X182261904Y-113752380D01*
X182261904Y-114228571D02*
X182833333Y-114228571D01*
X182833333Y-114752380D02*
X182833333Y-113752380D01*
X183261904Y-113847619D02*
X183309523Y-113800000D01*
X183404761Y-113752380D01*
X183642857Y-113752380D01*
X183738095Y-113800000D01*
X183785714Y-113847619D01*
X183833333Y-113942857D01*
X183833333Y-114038095D01*
X183785714Y-114180952D01*
X183214285Y-114752380D01*
X183833333Y-114752380D01*
X184452380Y-113752380D02*
X184547619Y-113752380D01*
X184642857Y-113800000D01*
X184690476Y-113847619D01*
X184738095Y-113942857D01*
X184785714Y-114133333D01*
X184785714Y-114371428D01*
X184738095Y-114561904D01*
X184690476Y-114657142D01*
X184642857Y-114704761D01*
X184547619Y-114752380D01*
X184452380Y-114752380D01*
X184357142Y-114704761D01*
X184309523Y-114657142D01*
X184261904Y-114561904D01*
X184214285Y-114371428D01*
X184214285Y-114133333D01*
X184261904Y-113942857D01*
X184309523Y-113847619D01*
X184357142Y-113800000D01*
X184452380Y-113752380D01*
X205531904Y-85992380D02*
X205531904Y-84992380D01*
X205770000Y-84992380D01*
X205912857Y-85040000D01*
X206008095Y-85135238D01*
X206055714Y-85230476D01*
X206103333Y-85420952D01*
X206103333Y-85563809D01*
X206055714Y-85754285D01*
X206008095Y-85849523D01*
X205912857Y-85944761D01*
X205770000Y-85992380D01*
X205531904Y-85992380D01*
X206960476Y-85325714D02*
X206960476Y-85992380D01*
X206722380Y-84944761D02*
X206484285Y-85659047D01*
X207103333Y-85659047D01*
X139502380Y-148333333D02*
X140216666Y-148333333D01*
X140359523Y-148380952D01*
X140454761Y-148476190D01*
X140502380Y-148619047D01*
X140502380Y-148714285D01*
X139597619Y-147904761D02*
X139550000Y-147857142D01*
X139502380Y-147761904D01*
X139502380Y-147523809D01*
X139550000Y-147428571D01*
X139597619Y-147380952D01*
X139692857Y-147333333D01*
X139788095Y-147333333D01*
X139930952Y-147380952D01*
X140502380Y-147952380D01*
X140502380Y-147333333D01*
X131852380Y-97618333D02*
X132566666Y-97618333D01*
X132709523Y-97665952D01*
X132804761Y-97761190D01*
X132852380Y-97904047D01*
X132852380Y-97999285D01*
X132852380Y-96618333D02*
X132852380Y-97189761D01*
X132852380Y-96904047D02*
X131852380Y-96904047D01*
X131995238Y-96999285D01*
X132090476Y-97094523D01*
X132138095Y-97189761D01*
X206666666Y-122902380D02*
X206666666Y-123616666D01*
X206619047Y-123759523D01*
X206523809Y-123854761D01*
X206380952Y-123902380D01*
X206285714Y-123902380D01*
X207047619Y-122902380D02*
X207666666Y-122902380D01*
X207333333Y-123283333D01*
X207476190Y-123283333D01*
X207571428Y-123330952D01*
X207619047Y-123378571D01*
X207666666Y-123473809D01*
X207666666Y-123711904D01*
X207619047Y-123807142D01*
X207571428Y-123854761D01*
X207476190Y-123902380D01*
X207190476Y-123902380D01*
X207095238Y-123854761D01*
X207047619Y-123807142D01*
X200866666Y-101752380D02*
X200866666Y-102466666D01*
X200819047Y-102609523D01*
X200723809Y-102704761D01*
X200580952Y-102752380D01*
X200485714Y-102752380D01*
X201771428Y-101752380D02*
X201580952Y-101752380D01*
X201485714Y-101800000D01*
X201438095Y-101847619D01*
X201342857Y-101990476D01*
X201295238Y-102180952D01*
X201295238Y-102561904D01*
X201342857Y-102657142D01*
X201390476Y-102704761D01*
X201485714Y-102752380D01*
X201676190Y-102752380D01*
X201771428Y-102704761D01*
X201819047Y-102657142D01*
X201866666Y-102561904D01*
X201866666Y-102323809D01*
X201819047Y-102228571D01*
X201771428Y-102180952D01*
X201676190Y-102133333D01*
X201485714Y-102133333D01*
X201390476Y-102180952D01*
X201342857Y-102228571D01*
X201295238Y-102323809D01*
X124625833Y-125165380D02*
X124292500Y-124689190D01*
X124054404Y-125165380D02*
X124054404Y-124165380D01*
X124435357Y-124165380D01*
X124530595Y-124213000D01*
X124578214Y-124260619D01*
X124625833Y-124355857D01*
X124625833Y-124498714D01*
X124578214Y-124593952D01*
X124530595Y-124641571D01*
X124435357Y-124689190D01*
X124054404Y-124689190D01*
X124959166Y-124165380D02*
X125578214Y-124165380D01*
X125244880Y-124546333D01*
X125387738Y-124546333D01*
X125482976Y-124593952D01*
X125530595Y-124641571D01*
X125578214Y-124736809D01*
X125578214Y-124974904D01*
X125530595Y-125070142D01*
X125482976Y-125117761D01*
X125387738Y-125165380D01*
X125102023Y-125165380D01*
X125006785Y-125117761D01*
X124959166Y-125070142D01*
X182261904Y-109252380D02*
X182261904Y-108252380D01*
X182261904Y-108728571D02*
X182833333Y-108728571D01*
X182833333Y-109252380D02*
X182833333Y-108252380D01*
X183833333Y-109252380D02*
X183261904Y-109252380D01*
X183547619Y-109252380D02*
X183547619Y-108252380D01*
X183452380Y-108395238D01*
X183357142Y-108490476D01*
X183261904Y-108538095D01*
X184404761Y-108680952D02*
X184309523Y-108633333D01*
X184261904Y-108585714D01*
X184214285Y-108490476D01*
X184214285Y-108442857D01*
X184261904Y-108347619D01*
X184309523Y-108300000D01*
X184404761Y-108252380D01*
X184595238Y-108252380D01*
X184690476Y-108300000D01*
X184738095Y-108347619D01*
X184785714Y-108442857D01*
X184785714Y-108490476D01*
X184738095Y-108585714D01*
X184690476Y-108633333D01*
X184595238Y-108680952D01*
X184404761Y-108680952D01*
X184309523Y-108728571D01*
X184261904Y-108776190D01*
X184214285Y-108871428D01*
X184214285Y-109061904D01*
X184261904Y-109157142D01*
X184309523Y-109204761D01*
X184404761Y-109252380D01*
X184595238Y-109252380D01*
X184690476Y-109204761D01*
X184738095Y-109157142D01*
X184785714Y-109061904D01*
X184785714Y-108871428D01*
X184738095Y-108776190D01*
X184690476Y-108728571D01*
X184595238Y-108680952D01*
X194992666Y-100373380D02*
X194992666Y-101087666D01*
X194945047Y-101230523D01*
X194849809Y-101325761D01*
X194706952Y-101373380D01*
X194611714Y-101373380D01*
X195516476Y-101373380D02*
X195706952Y-101373380D01*
X195802190Y-101325761D01*
X195849809Y-101278142D01*
X195945047Y-101135285D01*
X195992666Y-100944809D01*
X195992666Y-100563857D01*
X195945047Y-100468619D01*
X195897428Y-100421000D01*
X195802190Y-100373380D01*
X195611714Y-100373380D01*
X195516476Y-100421000D01*
X195468857Y-100468619D01*
X195421238Y-100563857D01*
X195421238Y-100801952D01*
X195468857Y-100897190D01*
X195516476Y-100944809D01*
X195611714Y-100992428D01*
X195802190Y-100992428D01*
X195897428Y-100944809D01*
X195945047Y-100897190D01*
X195992666Y-100801952D01*
X202088619Y-93773476D02*
X201374333Y-93773476D01*
X201231476Y-93725857D01*
X201136238Y-93630619D01*
X201088619Y-93487761D01*
X201088619Y-93392523D01*
X201088619Y-94773476D02*
X201088619Y-94202047D01*
X201088619Y-94487761D02*
X202088619Y-94487761D01*
X201945761Y-94392523D01*
X201850523Y-94297285D01*
X201802904Y-94202047D01*
X202088619Y-95392523D02*
X202088619Y-95487761D01*
X202041000Y-95583000D01*
X201993380Y-95630619D01*
X201898142Y-95678238D01*
X201707666Y-95725857D01*
X201469571Y-95725857D01*
X201279095Y-95678238D01*
X201183857Y-95630619D01*
X201136238Y-95583000D01*
X201088619Y-95487761D01*
X201088619Y-95392523D01*
X201136238Y-95297285D01*
X201183857Y-95249666D01*
X201279095Y-95202047D01*
X201469571Y-95154428D01*
X201707666Y-95154428D01*
X201898142Y-95202047D01*
X201993380Y-95249666D01*
X202041000Y-95297285D01*
X202088619Y-95392523D01*
X205531904Y-134992380D02*
X205531904Y-133992380D01*
X205770000Y-133992380D01*
X205912857Y-134040000D01*
X206008095Y-134135238D01*
X206055714Y-134230476D01*
X206103333Y-134420952D01*
X206103333Y-134563809D01*
X206055714Y-134754285D01*
X206008095Y-134849523D01*
X205912857Y-134944761D01*
X205770000Y-134992380D01*
X205531904Y-134992380D01*
X206436666Y-133992380D02*
X207055714Y-133992380D01*
X206722380Y-134373333D01*
X206865238Y-134373333D01*
X206960476Y-134420952D01*
X207008095Y-134468571D01*
X207055714Y-134563809D01*
X207055714Y-134801904D01*
X207008095Y-134897142D01*
X206960476Y-134944761D01*
X206865238Y-134992380D01*
X206579523Y-134992380D01*
X206484285Y-134944761D01*
X206436666Y-134897142D01*
X202057142Y-111002380D02*
X201723809Y-110526190D01*
X201485714Y-111002380D02*
X201485714Y-110002380D01*
X201866666Y-110002380D01*
X201961904Y-110050000D01*
X202009523Y-110097619D01*
X202057142Y-110192857D01*
X202057142Y-110335714D01*
X202009523Y-110430952D01*
X201961904Y-110478571D01*
X201866666Y-110526190D01*
X201485714Y-110526190D01*
X203009523Y-111002380D02*
X202438095Y-111002380D01*
X202723809Y-111002380D02*
X202723809Y-110002380D01*
X202628571Y-110145238D01*
X202533333Y-110240476D01*
X202438095Y-110288095D01*
X203628571Y-110002380D02*
X203723809Y-110002380D01*
X203819047Y-110050000D01*
X203866666Y-110097619D01*
X203914285Y-110192857D01*
X203961904Y-110383333D01*
X203961904Y-110621428D01*
X203914285Y-110811904D01*
X203866666Y-110907142D01*
X203819047Y-110954761D01*
X203723809Y-111002380D01*
X203628571Y-111002380D01*
X203533333Y-110954761D01*
X203485714Y-110907142D01*
X203438095Y-110811904D01*
X203390476Y-110621428D01*
X203390476Y-110383333D01*
X203438095Y-110192857D01*
X203485714Y-110097619D01*
X203533333Y-110050000D01*
X203628571Y-110002380D01*
X160906666Y-129562380D02*
X160906666Y-130276666D01*
X160859047Y-130419523D01*
X160763809Y-130514761D01*
X160620952Y-130562380D01*
X160525714Y-130562380D01*
X161287619Y-129562380D02*
X161954285Y-129562380D01*
X161525714Y-130562380D01*
X130761904Y-90252380D02*
X130761904Y-89252380D01*
X130761904Y-89728571D02*
X131333333Y-89728571D01*
X131333333Y-90252380D02*
X131333333Y-89252380D01*
X132333333Y-90252380D02*
X131761904Y-90252380D01*
X132047619Y-90252380D02*
X132047619Y-89252380D01*
X131952380Y-89395238D01*
X131857142Y-89490476D01*
X131761904Y-89538095D01*
X133238095Y-89252380D02*
X132761904Y-89252380D01*
X132714285Y-89728571D01*
X132761904Y-89680952D01*
X132857142Y-89633333D01*
X133095238Y-89633333D01*
X133190476Y-89680952D01*
X133238095Y-89728571D01*
X133285714Y-89823809D01*
X133285714Y-90061904D01*
X133238095Y-90157142D01*
X133190476Y-90204761D01*
X133095238Y-90252380D01*
X132857142Y-90252380D01*
X132761904Y-90204761D01*
X132714285Y-90157142D01*
D11*
X207847000Y-101175078D02*
X207847000Y-100657922D01*
X206427000Y-101175078D02*
X206427000Y-100657922D01*
X199458578Y-108190000D02*
X198941422Y-108190000D01*
X199458578Y-109610000D02*
X198941422Y-109610000D01*
X199483578Y-106190000D02*
X198966422Y-106190000D01*
X199483578Y-107610000D02*
X198966422Y-107610000D01*
X115290000Y-85258578D02*
X115290000Y-84741422D01*
X116710000Y-85258578D02*
X116710000Y-84741422D01*
X115790000Y-141803922D02*
X115790000Y-142321078D01*
X117210000Y-141803922D02*
X117210000Y-142321078D01*
X112710000Y-79101000D02*
X112710000Y-79420000D01*
X112710000Y-81580000D02*
X112710000Y-81899000D01*
X117013242Y-81580724D02*
G75*
G02*
X112710000Y-81898749I-2243242J1080724D01*
G01*
X116452713Y-81580961D02*
G75*
G02*
X113086670Y-81580000I-1682713J1080961D01*
G01*
X116452713Y-79419039D02*
G75*
G03*
X113086670Y-79420000I-1682713J-1080961D01*
G01*
X117013242Y-79419276D02*
G75*
G03*
X112710000Y-79101251I-2243242J-1080724D01*
G01*
X206790000Y-132803922D02*
X206790000Y-133321078D01*
X208210000Y-132803922D02*
X208210000Y-133321078D01*
X137203000Y-115443000D02*
X137203000Y-111583000D01*
X137203000Y-115443000D02*
X137203000Y-119303000D01*
X119083000Y-115443000D02*
X119083000Y-111583000D01*
X119083000Y-115443000D02*
X119083000Y-119303000D01*
X119083000Y-111583000D02*
X119328000Y-111583000D01*
X119083000Y-119303000D02*
X119328000Y-119303000D01*
X137203000Y-111583000D02*
X136958000Y-111583000D01*
X136958000Y-111583000D02*
X136958000Y-109768000D01*
X137203000Y-119303000D02*
X136958000Y-119303000D01*
X144670000Y-108670000D02*
X146000000Y-108670000D01*
X144670000Y-110000000D02*
X144670000Y-108670000D01*
X147330000Y-111270000D02*
X147330000Y-129110000D01*
X144670000Y-129110000D02*
X147330000Y-129110000D01*
X144670000Y-111270000D02*
X144670000Y-129110000D01*
X144670000Y-111270000D02*
X147330000Y-111270000D01*
X157600000Y-77670000D02*
X158930000Y-77670000D01*
X156330000Y-77670000D02*
X156330000Y-80330000D01*
X158930000Y-77670000D02*
X158930000Y-79000000D01*
X156330000Y-77670000D02*
X141030000Y-77670000D01*
X141030000Y-77670000D02*
X141030000Y-80330000D01*
X156330000Y-80330000D02*
X141030000Y-80330000D01*
X112670000Y-148080000D02*
X112670000Y-148399000D01*
X112670000Y-145601000D02*
X112670000Y-145920000D01*
X116973242Y-145919276D02*
G75*
G03*
X112670000Y-145601251I-2243242J-1080724D01*
G01*
X116973242Y-148080724D02*
G75*
G02*
X112670000Y-148398749I-2243242J1080724D01*
G01*
X116412713Y-145919039D02*
G75*
G03*
X113046670Y-145920000I-1682713J-1080961D01*
G01*
X116412713Y-148080961D02*
G75*
G02*
X113046670Y-148080000I-1682713J1080961D01*
G01*
X202921078Y-106190000D02*
X202403922Y-106190000D01*
X202921078Y-107610000D02*
X202403922Y-107610000D01*
X103670000Y-107150000D02*
X106330000Y-107150000D01*
X103670000Y-122450000D02*
X106330000Y-122450000D01*
X103670000Y-105880000D02*
X103670000Y-104550000D01*
X106330000Y-107150000D02*
X106330000Y-122450000D01*
X103670000Y-107150000D02*
X103670000Y-122450000D01*
X103670000Y-104550000D02*
X105000000Y-104550000D01*
X121741000Y-106929422D02*
X121741000Y-107446578D01*
X120321000Y-106929422D02*
X120321000Y-107446578D01*
X202983578Y-105610000D02*
X202466422Y-105610000D01*
X202983578Y-104190000D02*
X202466422Y-104190000D01*
X122321000Y-106929422D02*
X122321000Y-107446578D01*
X123741000Y-106929422D02*
X123741000Y-107446578D01*
X199483578Y-105610000D02*
X198966422Y-105610000D01*
X199483578Y-104190000D02*
X198966422Y-104190000D01*
X204210000Y-87601000D02*
X204210000Y-87920000D01*
X204210000Y-90080000D02*
X204210000Y-90399000D01*
X208513242Y-90080724D02*
G75*
G02*
X204210000Y-90398749I-2243242J1080724D01*
G01*
X208513242Y-87919276D02*
G75*
G03*
X204210000Y-87601251I-2243242J-1080724D01*
G01*
X207952713Y-87919039D02*
G75*
G03*
X204586670Y-87920000I-1682713J-1080961D01*
G01*
X207952713Y-90080961D02*
G75*
G02*
X204586670Y-90080000I-1682713J1080961D01*
G01*
X142380000Y-149330000D02*
X141050000Y-149330000D01*
X143650000Y-149330000D02*
X158950000Y-149330000D01*
X158950000Y-149330000D02*
X158950000Y-146670000D01*
X141050000Y-149330000D02*
X141050000Y-148000000D01*
X143650000Y-146670000D02*
X158950000Y-146670000D01*
X143650000Y-149330000D02*
X143650000Y-146670000D01*
X153870000Y-99230000D02*
X133290000Y-99230000D01*
X139000000Y-105850000D02*
X138500000Y-104850000D01*
X153870000Y-90110000D02*
X153870000Y-99230000D01*
X145630000Y-99230000D02*
X145630000Y-90110000D01*
X133290000Y-99230000D02*
X133290000Y-90110000D01*
X138000000Y-105850000D02*
X139000000Y-105850000D01*
X133290000Y-90110000D02*
X153870000Y-90110000D01*
X138500000Y-104850000D02*
X138000000Y-105850000D01*
X141530000Y-99230000D02*
X141530000Y-90110000D01*
X208330000Y-104550000D02*
X205670000Y-104550000D01*
X205670000Y-119850000D02*
X205670000Y-104550000D01*
X208330000Y-119850000D02*
X205670000Y-119850000D01*
X208330000Y-121120000D02*
X208330000Y-122450000D01*
X208330000Y-122450000D02*
X207000000Y-122450000D01*
X208330000Y-119850000D02*
X208330000Y-104550000D01*
X197050000Y-101275000D02*
X197050000Y-97725000D01*
X202900000Y-100525000D02*
X202900000Y-101275000D01*
X202900000Y-101275000D02*
X202300000Y-101275000D01*
X203200000Y-101275000D02*
X205350000Y-101275000D01*
X205350000Y-101275000D02*
X205350000Y-97725000D01*
X199200000Y-101275000D02*
X197050000Y-101275000D01*
X197050000Y-97725000D02*
X199950000Y-97725000D01*
X205350000Y-97725000D02*
X202450000Y-97725000D01*
X125051078Y-123773000D02*
X124533922Y-123773000D01*
X125051078Y-122353000D02*
X124533922Y-122353000D01*
X193996000Y-104521000D02*
X193996000Y-107121000D01*
X193996000Y-107121000D02*
X196656000Y-107121000D01*
X193996000Y-104521000D02*
X196656000Y-104521000D01*
X196656000Y-104521000D02*
X196656000Y-107121000D01*
X193996000Y-101921000D02*
X195326000Y-101921000D01*
X193996000Y-103251000D02*
X193996000Y-101921000D01*
X204210000Y-139080000D02*
X204210000Y-139399000D01*
X204210000Y-136601000D02*
X204210000Y-136920000D01*
X207952713Y-136919039D02*
G75*
G03*
X204586670Y-136920000I-1682713J-1080961D01*
G01*
X207952713Y-139080961D02*
G75*
G02*
X204586670Y-139080000I-1682713J1080961D01*
G01*
X208513242Y-136919276D02*
G75*
G03*
X204210000Y-136601251I-2243242J-1080724D01*
G01*
X208513242Y-139080724D02*
G75*
G02*
X204210000Y-139398749I-2243242J1080724D01*
G01*
X202958578Y-109610000D02*
X202441422Y-109610000D01*
X202958578Y-108190000D02*
X202441422Y-108190000D01*
X162570000Y-126510000D02*
X159910000Y-126510000D01*
X162570000Y-108670000D02*
X159910000Y-108670000D01*
X159910000Y-126510000D02*
X159910000Y-108670000D01*
X162570000Y-129110000D02*
X161240000Y-129110000D01*
X162570000Y-127780000D02*
X162570000Y-129110000D01*
X162570000Y-126510000D02*
X162570000Y-108670000D01*
M02*
