M48
INCH
T1C0.0157
T2C0.0197
T3C0.0354
T4C0.0394
T5C0.0748
T6C0.0866
%
G90
G05
T1
X4.625Y-4.7
X4.7829Y-4.6585
X4.8984Y-4.1284
X4.92Y-4.455
X4.9278Y-4.0378
X4.97Y-4.29
X5.025Y-4.95
X5.16Y-4.455
X5.175Y-4.53
X5.285Y-3.905
X5.3346Y-4.1929
X5.345Y-4.885
X5.3596Y-5.1054
X5.38Y-4.8
X5.4377Y-4.2569
X5.655Y-4.785
X5.655Y-5.205
X5.655Y-5.405
X5.6968Y-5.3775
X5.7288Y-5.2751
X6.0039Y-5.1575
X6.3661Y-5.4242
X6.4945Y-4.4307
X7.3425Y-4.1142
X7.6969Y-4.3307
X7.6969Y-4.8622
X7.8307Y-4.0512
X8.0512Y-5.1575
X6.9429Y-4.4094
X6.9619Y-4.3635
X6.9619Y-4.4554
X7.0079Y-4.3445
X7.0079Y-4.4744
X7.0538Y-4.3635
X7.0538Y-4.4554
X7.0728Y-4.4094
X6.9429Y-4.626
X6.9619Y-4.5801
X6.9619Y-4.6719
X7.0079Y-4.561
X7.0079Y-4.6909
X7.0538Y-4.5801
X7.0538Y-4.6719
X7.0728Y-4.626
X7.1594Y-4.4094
X7.1785Y-4.3635
X7.1785Y-4.4554
X7.2244Y-4.3445
X7.2244Y-4.4744
X7.2703Y-4.3635
X7.2703Y-4.4554
X7.2894Y-4.4094
X7.1594Y-4.626
X7.1785Y-4.5801
X7.1785Y-4.6719
X7.2244Y-4.561
X7.2244Y-4.6909
X7.2703Y-4.5801
X7.2703Y-4.6719
X7.2894Y-4.626
T3
X4.4669Y-5.7874
X4.5669Y-5.7874
X4.4685Y-3.1693
X4.5685Y-3.1693
X8.0709Y-5.4331
X8.1709Y-5.4331
X8.0709Y-3.5039
X8.1709Y-3.5039
T4
X5.748Y-4.3307
X5.748Y-4.4307
X5.748Y-4.5307
X5.748Y-4.6307
X5.748Y-4.7307
X5.748Y-4.8307
X5.748Y-4.9307
X5.748Y-5.0307
X5.6047Y-3.1102
X5.7047Y-3.1102
X5.8047Y-3.1102
X5.9047Y-3.1102
X6.0047Y-3.1102
X6.1047Y-3.1102
X6.2047Y-3.1102
X4.1339Y-4.1685
X4.1339Y-4.2685
X4.1339Y-4.3685
X4.1339Y-4.4685
X4.1339Y-4.5685
X4.1339Y-4.6685
X4.1339Y-4.7685
X5.6055Y-5.8268
X5.7055Y-5.8268
X5.8055Y-5.8268
X5.9055Y-5.8268
X6.0055Y-5.8268
X6.1055Y-5.8268
X6.2055Y-5.8268
X7.69Y-4.065
X7.69Y-4.165
X6.348Y-4.3307
X6.348Y-4.4307
X6.348Y-4.5307
X6.348Y-4.6307
X6.348Y-4.7307
X6.348Y-4.8307
X6.348Y-4.9307
X6.348Y-5.0307
X8.1496Y-4.1685
X8.1496Y-4.2685
X8.1496Y-4.3685
X8.1496Y-4.4685
X8.1496Y-4.5685
X8.1496Y-4.6685
X8.1496Y-4.7685
X5.4528Y-3.9748
X5.4528Y-4.0748
X5.5528Y-3.9748
X5.5528Y-4.0748
X5.6528Y-3.9748
X5.6528Y-4.0748
X5.7528Y-3.9748
X5.7528Y-4.0748
X5.8528Y-3.9748
X5.8528Y-4.0748
T5
X7.73Y-3.7237
X7.915Y-3.7237
X8.1Y-3.7237
T6
X7.0079Y-4.4094
X7.0079Y-4.626
X7.2244Y-4.4094
X7.2244Y-4.626
T2
G00X7.8248Y-3.9577
M15
G01X7.7972Y-3.9577
M16
G05
G00X7.9429Y-3.873
M15
G01X7.8996Y-3.873
M16
G05
G00X8.0453Y-3.9577
M15
G01X8.0177Y-3.9577
M16
G05
T0
M30
