G04 #@! TF.GenerationSoftware,KiCad,Pcbnew,5.99.0-unknown-15c4a7b06~104~ubuntu18.04.1*
G04 #@! TF.CreationDate,2020-09-30T21:22:49+01:00*
G04 #@! TF.ProjectId,nesta proto adapter,6e657374-6120-4707-926f-746f20616461,rev?*
G04 #@! TF.SameCoordinates,Original*
G04 #@! TF.FileFunction,Legend,Top*
G04 #@! TF.FilePolarity,Positive*
%FSLAX46Y46*%
G04 Gerber Fmt 4.6, Leading zero omitted, Abs format (unit mm)*
G04 Created by KiCad (PCBNEW 5.99.0-unknown-15c4a7b06~104~ubuntu18.04.1) date 2020-09-30 21:22:49*
%MOMM*%
%LPD*%
G01*
G04 APERTURE LIST*
%ADD10C,0.150000*%
%ADD11C,0.120000*%
G04 APERTURE END LIST*
D10*
X138436666Y-73852380D02*
X138436666Y-74566666D01*
X138389047Y-74709523D01*
X138293809Y-74804761D01*
X138150952Y-74852380D01*
X138055714Y-74852380D01*
X139436666Y-74852380D02*
X138865238Y-74852380D01*
X139150952Y-74852380D02*
X139150952Y-73852380D01*
X139055714Y-73995238D01*
X138960476Y-74090476D01*
X138865238Y-74138095D01*
X122951666Y-127052380D02*
X122951666Y-127766666D01*
X122904047Y-127909523D01*
X122808809Y-128004761D01*
X122665952Y-128052380D01*
X122570714Y-128052380D01*
X123380238Y-127147619D02*
X123427857Y-127100000D01*
X123523095Y-127052380D01*
X123761190Y-127052380D01*
X123856428Y-127100000D01*
X123904047Y-127147619D01*
X123951666Y-127242857D01*
X123951666Y-127338095D01*
X123904047Y-127480952D01*
X123332619Y-128052380D01*
X123951666Y-128052380D01*
D11*
X132820000Y-81000000D02*
X133820000Y-80500000D01*
X134210000Y-75290000D02*
X143330000Y-75290000D01*
X135520000Y-106680000D02*
X134210000Y-106680000D01*
X133820000Y-80500000D02*
X132820000Y-80000000D01*
X143330000Y-133970000D02*
X134210000Y-133970000D01*
X134210000Y-102580000D02*
X135520000Y-102580000D01*
X143330000Y-75290000D02*
X143330000Y-133970000D01*
X135520000Y-106680000D02*
X135520000Y-106680000D01*
X142020000Y-132670000D02*
X135520000Y-132670000D01*
X132820000Y-80000000D02*
X132820000Y-81000000D01*
X142020000Y-76590000D02*
X142020000Y-132670000D01*
X135520000Y-132670000D02*
X135520000Y-106680000D01*
X134210000Y-133970000D02*
X134210000Y-75290000D01*
X135520000Y-102580000D02*
X135520000Y-76590000D01*
X135520000Y-76590000D02*
X142020000Y-76590000D01*
X116110000Y-106130000D02*
X125230000Y-106130000D01*
X125230000Y-114370000D02*
X116110000Y-114370000D01*
X116110000Y-126710000D02*
X116110000Y-106130000D01*
X131850000Y-121000000D02*
X130850000Y-121500000D01*
X131850000Y-122000000D02*
X131850000Y-121000000D01*
X125230000Y-126710000D02*
X116110000Y-126710000D01*
X125230000Y-118470000D02*
X116110000Y-118470000D01*
X125230000Y-106130000D02*
X125230000Y-126710000D01*
X130850000Y-121500000D02*
X131850000Y-122000000D01*
M02*
