M48
INCH,TZ
T1C0.0157
T2C0.0394
%
G90
G05
T1
X47835Y-45079
X47835Y-46457
X48228Y-48031
X48425Y-42126
X49016Y-48425
X50394Y-42913
X50984Y-42323
X50984Y-42913
X51378Y-49016
X51575Y-41732
X51969Y-43504
X51969Y-44291
X51969Y-44882
X52165Y-47835
X52559Y-47835
X52953Y-47835
X54921Y-30118
X55906Y-34843
X55906Y-36811
X55906Y-42323
X55906Y-47244
X55906Y-49213
X56102Y-30906
X56102Y-33268
T2
X54134Y-31693
X54134Y-32693
X54134Y-33693
X54134Y-34693
X54134Y-35693
X54134Y-36693
X54134Y-37693
X54134Y-38693
X54134Y-39693
X54134Y-40693
X54134Y-41693
X54134Y-42693
X54134Y-43693
X54134Y-44693
X54134Y-45693
X54134Y-46693
X54134Y-47693
X54134Y-48693
X54134Y-49693
X54134Y-50693
X55134Y-31693
X55134Y-32693
X55134Y-33693
X55134Y-34693
X55134Y-35693
X55134Y-36693
X55134Y-37693
X55134Y-38693
X55134Y-39693
X55134Y-40693
X55134Y-41693
X55134Y-42693
X55134Y-43693
X55134Y-44693
X55134Y-45693
X55134Y-46693
X55134Y-47693
X55134Y-48693
X55134Y-49693
X55134Y-50693
X49984Y-43835
X49984Y-44835
X49984Y-45835
X49984Y-46835
X49984Y-47835
X50984Y-43835
X50984Y-44835
X50984Y-45835
X50984Y-46835
X50984Y-47835
T0
M30
